<svg width="512" height="512" viewBox="0 0 512 512" fill="none" xmlns="http://www.w3.org/2000/svg">
<path d="M317.892 12.5231C348.752 -9.35092 391.99 -2.2539 409.376 31.3403C444.196 98.6225 463.864 175.014 463.864 256C463.864 336.986 444.196 413.377 409.376 480.66C391.99 514.254 348.752 521.351 317.892 499.477C286.994 477.577 280.437 434.929 295.97 400.388C299.556 392.413 302.743 384.297 305.812 376.112C315.02 350.71 297.804 324.569 271.373 318.965C244.903 313.353 219.324 330.58 208.74 355.482C197.624 381.631 182.263 405.538 163.518 426.338C156.933 433.645 149.93 440.568 142.548 447.071C114.188 472.049 72.3574 457.404 55.761 423.451C39.1189 389.405 56.0909 348.502 75.4497 315.924C85.875 298.38 91.8618 277.889 91.8618 256C91.8618 234.287 85.9708 213.949 75.7 196.499C56.5397 163.945 39.783 123.194 56.3715 89.2573C73.0407 55.1559 115.104 40.5183 143.467 65.743C150.624 72.1074 157.419 78.8694 163.817 85.9944C182.426 106.716 197.685 130.508 208.74 156.518L208.773 156.596C219.378 181.456 244.931 198.641 271.373 193.035C297.804 187.431 315.02 161.289 305.812 135.887C302.833 127.678 299.552 119.576 295.97 111.612C280.438 77.0712 286.994 34.4235 317.892 12.5231Z" fill="#002DE5"/>
</svg>
