<svg width="512" height="512" viewBox="0 0 512 512" fill="none" xmlns="http://www.w3.org/2000/svg">
<rect width="512" height="512" rx="100" fill="white"/>
<path d="M149.448 278.23C149.448 337.527 149.448 430.069 149.448 430.069H50V82H149.448V187.43C149.448 187.43 149.448 242.77 149.448 278.23Z" fill="#5A00EC"/>
<path d="M354.385 142.379C387.367 142.379 413.548 153.392 432.929 175.418C452.31 197.105 462 226.585 462 263.86V430.069H362.036V277.075C362.036 260.81 357.785 248.103 349.285 238.954C340.785 229.466 329.394 224.722 315.114 224.722C300.153 224.722 288.422 229.466 279.922 238.954C271.422 248.103 267.171 260.81 267.171 277.075V430.069H167.207V144.921H267.171V185.584C276.012 172.707 287.912 162.372 302.873 154.578C317.834 146.446 335.004 142.379 354.385 142.379Z" fill="#5A00EC"/>
<path d="M342.677 430.069V278.824C342.677 265.819 339.374 258.252 335.082 253.58L334.965 253.453L334.851 253.324C330.47 248.379 324.585 245.435 315.109 245.435C304.653 245.435 298.559 248.58 294.356 253.324L294.242 253.453L294.125 253.58C289.833 258.252 286.53 265.819 286.53 278.824V430.069H342.677Z" fill="#5A00EC"/>
</svg>
