<svg width="1001" height="1001" viewBox="0 0 1001 1001" fill="none" xmlns="http://www.w3.org/2000/svg">
<path d="M293.423 3.96243C240.222 6.47343 203.886 14.9948 172.133 27.4366C139.264 40.2507 111.4 57.4235 83.682 85.2553C55.9311 113.103 38.8887 141.016 26.1721 173.919C13.8599 205.753 5.51666 242.106 3.16736 295.34C0.834861 348.671 0.299961 365.681 0.559961 501.456C0.818961 637.214 1.41816 654.256 3.96136 707.604C6.50446 760.789 14.9941 797.11 27.4358 828.879C40.2661 861.749 57.4213 889.597 85.269 917.332C113.101 945.067 141.03 962.093 173.948 974.827C205.749 987.123 242.118 995.498 295.335 997.831C348.666 1000.18 365.691 1000.7 501.432 1000.44C637.237 1000.18 654.263 999.581 707.594 997.053C760.794 994.51 797.098 985.989 828.883 973.58C861.753 960.716 889.617 943.593 917.335 915.745C945.053 887.912 962.095 859.983 974.813 827.065C987.125 795.263 995.5 758.894 997.817 705.708C1000.15 652.345 1000.7 635.302 1000.44 499.544C1000.18 363.77 999.567 346.76 997.04 293.445C994.512 240.211 985.991 203.906 973.565 172.121C960.719 139.251 943.58 111.419 915.748 83.6678C887.916 55.9492 859.987 38.8739 827.069 26.1893C795.252 13.877 758.899 5.48513 705.681 3.18473C652.351 0.819526 635.325 0.301426 499.536 0.560526C363.78 0.819626 346.754 1.40303 293.423 3.96243ZM299.256 907.839C250.509 905.716 224.039 897.616 206.397 890.829C183.037 881.789 166.367 870.951 148.822 853.536C131.31 836.056 120.439 819.434 111.319 796.122C104.466 778.479 96.2206 752.041 93.9365 703.294C91.4577 650.595 90.8911 634.783 90.6478 501.277C90.3887 367.804 90.8742 351.992 93.1751 299.244C95.2644 250.53 103.414 224.027 110.185 206.401C119.224 183.007 130.029 166.37 147.477 148.825C164.957 131.28 181.578 120.442 204.906 111.322C222.532 104.436 248.971 96.2549 297.7 93.9387C350.432 91.4435 366.226 90.9091 499.698 90.65C633.202 90.3904 649.014 90.8606 701.762 93.1773C750.474 95.2992 776.977 103.367 794.588 110.187C817.964 119.227 834.634 130 852.163 147.48C869.691 164.961 880.561 181.55 889.682 204.926C896.566 222.503 904.747 248.975 907.048 297.689C909.559 350.421 910.126 366.232 910.369 499.706C910.628 633.212 910.142 649.023 907.826 701.739C905.704 750.485 897.619 776.973 890.816 794.631C881.776 817.976 870.97 834.646 853.506 852.191C836.044 869.671 819.423 880.573 796.078 889.694C778.484 896.563 752.014 904.761 703.316 907.077C650.586 909.556 634.79 910.123 501.27 910.366C367.797 910.625 352.003 910.123 299.256 907.839ZM706.865 233.228C706.929 266.342 733.853 293.153 766.966 293.088C800.095 293.024 826.907 266.115 826.858 233.002C826.793 199.888 799.869 173.061 766.74 173.126C733.611 173.19 706.8 200.115 706.865 233.228ZM243.771 500.986C244.046 642.787 359.212 757.484 500.978 757.209C642.761 756.934 757.522 641.798 757.247 499.998C756.971 358.246 641.789 243.483 499.99 243.758C358.223 244.034 243.495 359.218 243.771 500.986ZM333.826 500.808C333.664 408.774 408.152 334.01 500.168 333.848C592.201 333.67 666.98 408.126 667.158 500.176C667.337 592.226 592.849 666.973 500.8 667.152C408.784 667.33 334.004 592.858 333.826 500.808Z" fill="url(#paint0_linear_433_27)"/>
<defs>
<linearGradient id="paint0_linear_433_27" x1="1001" y1="-2.33657e-05" x2="0.999962" y2="1000" gradientUnits="userSpaceOnUse">
<stop stop-color="#5000FF"/>
<stop offset="0.322917" stop-color="#DA01B4"/>
<stop offset="0.505208" stop-color="#F50085"/>
<stop offset="0.692708" stop-color="#FE5C1C"/>
<stop offset="1" stop-color="#FDD400"/>
</linearGradient>
</defs>
</svg>
