<svg width="422" height="392" viewBox="0 0 422 392" fill="none" xmlns="http://www.w3.org/2000/svg">
<path d="M199.401 391.047H6.30199C3.15499 391.047 0.593994 388.487 0.593994 385.339V6.6599C0.593994 3.5129 3.15499 0.951904 6.30199 0.951904H199.401C202.547 0.951904 205.108 3.5129 205.108 6.6599V385.339C205.108 388.487 202.547 391.047 199.401 391.047ZM6.30199 1.2029C3.29199 1.2029 0.843994 3.6509 0.843994 6.6609V385.34C0.843994 388.35 3.29199 390.798 6.30199 390.798H199.401C202.41 390.798 204.858 388.35 204.858 385.34V6.6599C204.858 3.6509 202.41 1.2019 199.401 1.2019L6.30199 1.2029Z" fill="#808080"/>
<path d="M415.698 391.047H222.599C219.453 391.047 216.892 388.487 216.892 385.339V6.6599C216.892 3.5129 219.453 0.951904 222.599 0.951904H415.698C418.846 0.951904 421.406 3.5129 421.406 6.6599V385.339C421.406 388.487 418.845 391.047 415.698 391.047ZM222.599 1.2029C219.59 1.2029 217.142 3.6509 217.142 6.6609V385.34C217.142 388.35 219.59 390.798 222.599 390.798H415.698C418.708 390.798 421.156 388.35 421.156 385.34V6.6599C421.156 3.6509 418.708 1.2019 415.698 1.2019L222.599 1.2029Z" fill="#808080"/>
<path d="M74.054 114.247L75.671 117.523L79.286 118.049L76.67 120.599L77.288 124.2L74.054 122.5L70.82 124.2L71.438 120.599L68.821 118.049L72.437 117.523L74.054 114.247Z" fill="#EBEBEB"/>
<path d="M397.705 268.483L399.322 271.759L402.937 272.285L400.321 274.835L400.939 278.436L397.705 276.736L394.471 278.436L395.088 274.835L392.472 272.285L396.088 271.759L397.705 268.483Z" fill="#F5F5F5"/>
<path d="M333.599 363.566L335.216 366.842L338.832 367.367L336.215 369.918L336.833 373.519L333.599 371.819L330.365 373.519L330.983 369.918L328.366 367.367L331.982 366.842L333.599 363.566Z" fill="#F5F5F5"/>
<path d="M186.945 56.154L187.545 57.37L188.887 57.565C189.222 57.614 189.356 58.025 189.113 58.262L188.142 59.209L188.371 60.546C188.428 60.88 188.078 61.134 187.779 60.977L186.578 60.346L185.377 60.977C185.077 61.135 184.727 60.88 184.785 60.546L185.014 59.209L184.043 58.262C183.801 58.026 183.934 57.614 184.269 57.565L185.611 57.37L186.211 56.154C186.362 55.85 186.795 55.85 186.945 56.154Z" fill="#EBEBEB"/>
<path d="M21.777 348.008L22.377 349.224L23.719 349.419C24.054 349.468 24.188 349.879 23.945 350.116L22.974 351.063L23.203 352.4C23.26 352.734 22.91 352.988 22.611 352.831L21.41 352.2L20.209 352.831C19.909 352.988 19.559 352.734 19.617 352.4L19.846 351.063L18.875 350.116C18.633 349.88 18.7661 349.468 19.1011 349.419L20.443 349.224L21.043 348.008C21.194 347.704 21.627 347.704 21.777 348.008Z" fill="#F5F5F5"/>
<path d="M48.7551 43.301L49.3551 44.517L50.6971 44.712C51.0321 44.761 51.1661 45.172 50.9231 45.409L49.9521 46.356L50.1811 47.693C50.2381 48.027 49.8881 48.281 49.5881 48.123L48.3871 47.492L47.1871 48.123C46.8871 48.281 46.5371 48.026 46.5941 47.693L46.8231 46.356L45.8521 45.409C45.6101 45.173 45.7431 44.761 46.0781 44.712L47.4201 44.517L48.0201 43.301C48.1721 42.997 48.6051 42.997 48.7551 43.301Z" fill="#EBEBEB"/>
<path d="M47.1311 284.319C47.1311 285.052 46.5371 285.646 45.8041 285.646C45.0711 285.646 44.4771 285.052 44.4771 284.319C44.4771 283.586 45.0711 282.992 45.8041 282.992C46.5361 282.992 47.1311 283.586 47.1311 284.319Z" fill="#EBEBEB"/>
<path d="M236.671 117.894C236.671 118.627 236.077 119.221 235.344 119.221C234.611 119.221 234.017 118.627 234.017 117.894C234.017 117.161 234.611 116.567 235.344 116.567C236.077 116.567 236.671 117.161 236.671 117.894Z" fill="#EBEBEB"/>
<path d="M167.707 44.4C167.707 45.133 167.113 45.727 166.38 45.727C165.647 45.727 165.053 45.133 165.053 44.4C165.053 43.667 165.647 43.073 166.38 43.073C167.113 43.073 167.707 43.668 167.707 44.4Z" fill="#F5F5F5"/>
<path d="M169.84 368.498C173.79 367.565 176.236 363.607 175.303 359.658C174.37 355.709 170.413 353.263 166.463 354.195C162.514 355.128 160.068 359.086 161.001 363.035C161.933 366.985 165.891 369.43 169.84 368.498Z" fill="#F0F0F0"/>
<path d="M165.597 357.09C164.037 357.09 162.587 357.59 161.407 358.45C161.017 359.35 160.797 360.34 160.797 361.38C160.797 365.44 164.087 368.72 168.147 368.72C169.517 368.72 170.807 368.34 171.907 367.681C171.897 367.671 171.897 367.671 171.907 367.671C172.457 366.651 172.767 365.491 172.767 364.251C172.767 360.3 169.557 357.09 165.597 357.09Z" fill="#E6E6E6"/>
<path d="M108.68 233.645H47.825V206.17L108.68 133.833H137.795V207.728H152.885V233.645H137.795V256.117H108.68V233.645ZM108.68 207.728V169.89L76.524 207.728H108.68Z" fill="#1A4CEF"/>
<path d="M163.302 195.508C163.302 172.654 167.415 156.662 175.645 147.53C183.874 138.399 196.407 133.833 213.249 133.833C221.34 133.833 227.984 134.832 233.178 136.827C238.372 138.823 242.61 141.42 245.89 144.618C249.17 147.817 251.754 151.179 253.64 154.706C255.527 158.232 257.044 162.347 258.192 167.05C260.433 176.017 261.554 185.367 261.554 195.099C261.554 216.914 257.863 232.881 250.482 242.995C243.1 253.111 230.388 258.167 212.345 258.167C202.229 258.167 194.055 256.553 187.823 253.328C181.589 250.103 176.476 245.373 172.486 239.14C169.586 234.712 167.331 228.656 165.72 220.974C164.107 213.292 163.302 204.804 163.302 195.508ZM196.436 195.59C196.436 210.9 197.789 221.357 200.495 226.962C203.202 232.566 207.125 235.368 212.264 235.368C215.654 235.368 218.593 234.179 221.081 231.8C223.569 229.422 225.4 225.664 226.577 220.524C227.752 215.385 228.34 207.374 228.34 196.493C228.34 180.529 226.987 169.798 224.281 164.303C221.574 158.807 217.515 156.06 212.101 156.06C206.578 156.06 202.587 158.863 200.126 164.467C197.666 170.071 196.436 180.446 196.436 195.59Z" fill="#1A4CEF"/>
<path d="M332.744 233.645H271.889V206.17L332.744 133.833H361.859V207.728H376.949V233.645H361.859V256.117H332.744V233.645ZM332.744 207.728V169.89L300.589 207.728H332.744Z" fill="#1A4CEF"/>
<g opacity="0.3">
<path d="M161.952 91.6179C161.952 92.6479 161.117 93.4829 160.087 93.4829C159.057 93.4829 158.222 92.6479 158.222 91.6179C158.222 90.5879 159.057 89.7529 160.087 89.7529C161.117 89.7529 161.952 90.5879 161.952 91.6179Z" fill="#407BFF"/>
<path d="M33.966 163.452C34.6966 163.452 35.2889 162.86 35.2889 162.129C35.2889 161.398 34.6966 160.806 33.966 160.806C33.2353 160.806 32.6429 161.398 32.6429 162.129C32.6429 162.86 33.2353 163.452 33.966 163.452Z" fill="#407BFF"/>
<path d="M252.054 356.226C253.099 356.226 253.947 355.378 253.947 354.333C253.947 353.287 253.099 352.44 252.054 352.44C251.008 352.44 250.161 353.287 250.161 354.333C250.161 355.378 251.008 356.226 252.054 356.226Z" fill="#407BFF"/>
<path d="M297.498 279.323C298.229 279.323 298.821 278.73 298.821 278C298.821 277.269 298.229 276.677 297.498 276.677C296.767 276.677 296.175 277.269 296.175 278C296.175 278.73 296.767 279.323 297.498 279.323Z" fill="#407BFF"/>
<path d="M385.173 41.6189C385.173 42.3499 384.581 42.9419 383.85 42.9419C383.119 42.9419 382.527 42.3499 382.527 41.6189C382.527 40.8879 383.119 40.2959 383.85 40.2959C384.581 40.2959 385.173 40.8879 385.173 41.6189Z" fill="#407BFF"/>
<path d="M133.754 14.9629C133.754 15.6939 133.162 16.2859 132.431 16.2859C131.7 16.2859 131.108 15.6939 131.108 14.9629C131.108 14.2319 131.7 13.6399 132.431 13.6399C133.162 13.6399 133.754 14.2319 133.754 14.9629Z" fill="#407BFF"/>
<path d="M238.695 84.2659C239.426 84.2659 240.018 83.6735 240.018 82.9429C240.018 82.2122 239.426 81.6199 238.695 81.6199C237.964 81.6199 237.372 82.2122 237.372 82.9429C237.372 83.6735 237.964 84.2659 238.695 84.2659Z" fill="#407BFF"/>
</g>
<path d="M102.233 84.2709C114.334 84.2709 124.143 74.4615 124.143 62.3609C124.143 50.2604 114.334 40.4509 102.233 40.4509C90.1324 40.4509 80.323 50.2604 80.323 62.3609C80.323 74.4615 90.1324 84.2709 102.233 84.2709Z" fill="#407BFF"/>
<path opacity="0.7" d="M102.233 84.2709C114.334 84.2709 124.143 74.4615 124.143 62.3609C124.143 50.2604 114.334 40.4509 102.233 40.4509C90.1324 40.4509 80.323 50.2604 80.323 62.3609C80.323 74.4615 90.1324 84.2709 102.233 84.2709Z" fill="white"/>
<path opacity="0.2" d="M94.682 45.8298C91.611 45.8298 88.696 46.4648 86.041 47.5998C82.491 51.4928 80.325 56.6778 80.325 62.3618C80.325 74.4588 90.132 84.2658 102.229 84.2658C105.31 84.2658 108.246 83.6308 110.912 82.4858C110.912 82.4858 110.912 82.4858 110.912 82.4758C114.441 78.5818 116.596 73.4178 116.596 67.7448C116.597 55.6368 106.79 45.8298 94.682 45.8298Z" fill="#407BFF"/>
<path opacity="0.2" d="M92.504 51.6229C92.504 52.7289 91.6071 53.6259 90.5011 53.6259C89.3951 53.6259 88.498 52.7289 88.498 51.6229C88.498 50.5169 89.3951 49.6199 90.5011 49.6199C91.6071 49.6199 92.504 50.5169 92.504 51.6229Z" fill="#407BFF"/>
<path opacity="0.2" d="M116.064 49.6199C116.064 50.7259 115.167 51.6229 114.061 51.6229C112.955 51.6229 112.058 50.7259 112.058 49.6199C112.058 48.5139 112.955 47.6169 114.061 47.6169C115.167 47.6179 116.064 48.5139 116.064 49.6199Z" fill="#407BFF"/>
<path opacity="0.2" d="M112.058 63.901C112.058 65.711 110.591 67.179 108.78 67.179C106.97 67.179 105.502 65.711 105.502 63.901C105.502 62.091 106.969 60.623 108.78 60.623C110.59 60.623 112.058 62.091 112.058 63.901Z" fill="#407BFF"/>
<path opacity="0.2" d="M101.642 73.246C101.642 75.666 99.68 77.627 97.261 77.627C94.841 77.627 92.88 75.665 92.88 73.246C92.88 70.826 94.842 68.865 97.261 68.865C99.68 68.865 101.642 70.827 101.642 73.246Z" fill="#407BFF"/>
<path d="M361.907 326.703C364.347 316.37 357.948 306.015 347.614 303.575C337.281 301.134 326.926 307.533 324.486 317.867C322.045 328.201 328.444 338.556 338.778 340.996C349.112 343.436 359.467 337.037 361.907 326.703Z" fill="#407BFF"/>
<path opacity="0.3" d="M361.907 326.703C364.347 316.37 357.948 306.015 347.614 303.575C337.281 301.134 326.926 307.533 324.486 317.867C322.045 328.201 328.444 338.556 338.778 340.996C349.112 343.436 359.467 337.037 361.907 326.703Z" fill="white"/>
<path opacity="0.4" d="M355.333 307.339C353.584 306.808 351.721 306.527 349.795 306.527C339.176 306.527 330.566 315.137 330.566 325.755C330.566 331.773 333.325 337.134 337.656 340.663C339.405 341.194 341.268 341.475 343.195 341.475C353.814 341.475 362.423 332.865 362.423 322.247C362.423 316.23 359.664 310.858 355.333 307.339Z" fill="#407BFF"/>
<path d="M324.83 327.948C304.296 337.61 319.614 345.057 348.542 334.661C375.326 325.035 385.509 312.892 361.594 316.655C362.828 321.763 329.282 334.834 324.83 327.948Z" fill="#407BFF"/>
<path opacity="0.2" d="M355.097 133.83C328.207 152 293.397 175.96 283.787 233.64H281.737C291.087 176.66 324.627 152.07 351.527 133.83H355.097Z" fill="black"/>
<path d="M216.019 314.267C199.049 314.268 182.21 306.605 174.033 294.081C168.98 286.342 163.113 270.131 180.588 248.503L182.144 249.761C169.782 265.06 167.496 280.411 175.708 292.988C185.702 308.297 209.304 315.994 229.438 310.516C250.066 304.903 262.59 286.959 263.799 261.288C267.934 173.481 314.583 146.433 348.645 126.683C369.807 114.413 385.097 105.547 381.736 86.845C381.27 84.25 380.235 82.457 378.573 81.364C374.22 78.496 365.72 80.478 355.879 82.772C336.573 87.269 310.133 93.429 294.382 66.638L296.106 65.624C311.112 91.147 335.683 85.424 355.425 80.823C365.715 78.427 374.602 76.356 379.673 79.692C381.818 81.104 383.137 83.328 383.705 86.491C387.314 106.573 370.692 116.211 349.648 128.413C315.984 147.932 269.88 174.664 265.796 261.381C264.544 287.977 251.483 306.589 229.962 312.445C225.427 313.679 220.716 314.266 216.019 314.267Z" fill="#1A4CEF"/>
<path d="M273.758 42.9491C280.613 42.8241 287.34 45.0831 287.34 45.0831C287.34 45.0831 298.305 63.8541 299.642 68.1501C299.181 72.3901 292.027 79.3411 292.027 79.3411L273.758 42.9491Z" fill="#407BFF"/>
<path opacity="0.3" d="M273.758 42.9491C280.613 42.8241 287.34 45.0831 287.34 45.0831C287.34 45.0831 298.305 63.8541 299.642 68.1501C299.181 72.3901 292.027 79.3411 292.027 79.3411L273.758 42.9491Z" fill="white"/>
<path d="M306.339 134.133C302.203 128.885 298.142 123.539 294.78 117.748C293.94 116.301 293.144 114.827 292.391 113.333C291.963 112.484 291.549 111.628 291.147 110.766C290.796 110.013 290.021 108.904 289.943 108.082C288.742 95.4102 293.08 86.0822 288.915 75.9102L272.444 82.3472C272.444 82.3472 273.845 100.469 277.042 111.31C279.026 118.036 283.517 123.859 287.845 129.247C289.199 130.933 290.504 132.657 291.855 134.345C293.134 135.943 294.567 137.409 295.849 138.999C297.796 141.412 298.444 143.715 296.964 146.56C296.885 146.712 296.802 146.863 296.717 147.013C296.297 147.754 298.263 148.594 299.498 147.034C301.54 144.453 301.219 144.612 302.96 142.411C304.017 141.075 305.231 139.632 306.279 138.378C307.303 137.155 307.326 135.385 306.339 134.133Z" fill="#407BFF"/>
<path opacity="0.7" d="M306.339 134.133C302.203 128.885 298.142 123.539 294.78 117.748C293.94 116.301 293.144 114.827 292.391 113.333C291.963 112.484 291.549 111.628 291.147 110.766C290.796 110.013 290.021 108.904 289.943 108.082C288.742 95.4102 293.08 86.0822 288.915 75.9102L272.444 82.3472C272.444 82.3472 273.845 100.469 277.042 111.31C279.026 118.036 283.517 123.859 287.845 129.247C289.199 130.933 290.504 132.657 291.855 134.345C293.134 135.943 294.567 137.409 295.849 138.999C297.796 141.412 298.444 143.715 296.964 146.56C296.885 146.712 296.802 146.863 296.717 147.013C296.297 147.754 298.263 148.594 299.498 147.034C301.54 144.453 301.219 144.612 302.96 142.411C304.017 141.075 305.231 139.632 306.279 138.378C307.303 137.155 307.326 135.385 306.339 134.133Z" fill="white"/>
<path opacity="0.3" d="M302.312 128.918C300.107 131.583 295.624 135.04 293.648 136.441C294.078 136.92 294.504 137.409 294.931 137.898C298.999 135.241 302.215 131.794 303.435 130.394C303.058 129.909 302.685 129.413 302.312 128.918Z" fill="#407BFF"/>
<path opacity="0.3" d="M306.335 134.135C306.297 134.083 306.257 134.041 306.219 133.99C305.525 134.713 305.036 135.866 304.954 137.16C304.888 138.054 305.038 138.872 305.331 139.511C305.664 139.125 305.975 138.743 306.28 138.38C307.308 137.156 307.322 135.387 306.335 134.135Z" fill="#407BFF"/>
<path d="M269.842 54.9513C268.119 57.4573 266.088 59.9273 263.467 62.1453C262.166 63.2603 260.681 64.2693 259.05 65.1253C258.227 65.5453 257.362 65.9093 256.467 66.2103L255.792 66.4273L255.574 66.4953C255.416 66.5433 255.257 66.5863 255.097 66.6243C254.795 66.6923 254.492 66.7383 254.224 66.7603C253.141 66.8423 252.356 66.6883 251.709 66.5273C250.432 66.1793 249.579 65.7143 248.772 65.2633C247.977 64.8043 247.279 64.3343 246.618 63.8493C245.316 62.8583 244.138 61.8633 243.04 60.8013C240.83 58.6913 238.87 56.5033 237.05 54.0663C236.22 52.9553 236.448 51.3823 237.559 50.5533C238.416 49.9123 239.549 49.9023 240.402 50.4413L240.478 50.4903C242.838 51.9883 245.219 53.5683 247.542 54.9823C248.715 55.6743 249.861 56.3703 250.988 56.9123C251.542 57.1923 252.085 57.4473 252.575 57.6283C253.052 57.8143 253.528 57.9203 253.652 57.8953C253.704 57.8923 253.642 57.8213 253.274 57.8343C253.185 57.8393 253.059 57.8513 252.931 57.8793C252.857 57.8933 252.785 57.9123 252.713 57.9353C252.644 57.9583 252.742 57.9163 252.748 57.9103L253.079 57.7413C253.519 57.5173 253.941 57.2373 254.369 56.9523C255.225 56.3733 256.04 55.6383 256.872 54.8323C258.518 53.1973 260.102 51.1623 261.774 49.0463L261.796 49.0173C263.508 46.8493 266.654 46.4803 268.822 48.1923C270.898 49.8313 271.315 52.8003 269.842 54.9513Z" fill="#407BFF"/>
<path opacity="0.7" d="M269.842 54.9513C268.119 57.4573 266.088 59.9273 263.467 62.1453C262.166 63.2603 260.681 64.2693 259.05 65.1253C258.227 65.5453 257.362 65.9093 256.467 66.2103L255.792 66.4273L255.574 66.4953C255.416 66.5433 255.257 66.5863 255.097 66.6243C254.795 66.6923 254.492 66.7383 254.224 66.7603C253.141 66.8423 252.356 66.6883 251.709 66.5273C250.432 66.1793 249.579 65.7143 248.772 65.2633C247.977 64.8043 247.279 64.3343 246.618 63.8493C245.316 62.8583 244.138 61.8633 243.04 60.8013C240.83 58.6913 238.87 56.5033 237.05 54.0663C236.22 52.9553 236.448 51.3823 237.559 50.5533C238.416 49.9123 239.549 49.9023 240.402 50.4413L240.478 50.4903C242.838 51.9883 245.219 53.5683 247.542 54.9823C248.715 55.6743 249.861 56.3703 250.988 56.9123C251.542 57.1923 252.085 57.4473 252.575 57.6283C253.052 57.8143 253.528 57.9203 253.652 57.8953C253.704 57.8923 253.642 57.8213 253.274 57.8343C253.185 57.8393 253.059 57.8513 252.931 57.8793C252.857 57.8933 252.785 57.9123 252.713 57.9353C252.644 57.9583 252.742 57.9163 252.748 57.9103L253.079 57.7413C253.519 57.5173 253.941 57.2373 254.369 56.9523C255.225 56.3733 256.04 55.6383 256.872 54.8323C258.518 53.1973 260.102 51.1623 261.774 49.0463L261.796 49.0173C263.508 46.8493 266.654 46.4803 268.822 48.1923C270.898 49.8313 271.315 52.8003 269.842 54.9513Z" fill="white"/>
<path d="M233.285 48.4162L234.457 50.3822C234.457 50.3822 235.352 52.9982 237.143 53.4822L241.997 51.9102L241.754 51.5022C241.756 51.5032 241.759 51.5032 241.761 51.5032C241.139 50.5562 241.206 48.7302 241.425 47.2112C241.643 45.6922 240.855 45.6382 240.273 46.0162C239.937 46.2342 239.699 46.9272 239.426 47.6742C239.187 47.3452 238.931 47.0282 238.642 46.7402L237.159 45.2632C236.519 44.6262 235.494 44.5972 234.819 45.1972L233.617 46.2652C233.005 46.8092 232.866 47.7122 233.285 48.4162Z" fill="#407BFF"/>
<path opacity="0.7" d="M233.285 48.4162L234.457 50.3822C234.457 50.3822 235.352 52.9982 237.143 53.4822L241.997 51.9102L241.754 51.5022C241.756 51.5032 241.759 51.5032 241.761 51.5032C241.139 50.5562 241.206 48.7302 241.425 47.2112C241.643 45.6922 240.855 45.6382 240.273 46.0162C239.937 46.2342 239.699 46.9272 239.426 47.6742C239.187 47.3452 238.931 47.0282 238.642 46.7402L237.159 45.2632C236.519 44.6262 235.494 44.5972 234.819 45.1972L233.617 46.2652C233.005 46.8092 232.866 47.7122 233.285 48.4162Z" fill="white"/>
<path d="M278.674 41.224C274.025 42.352 267.638 45.005 263.325 47.692C261.796 48.644 261.033 50.452 261.393 52.217C263.317 61.657 267.707 74.302 272.446 82.346L294.557 73.199C294.709 69.299 289.341 56.679 283.873 44.482C282.891 42.288 281.01 40.658 278.674 41.224Z" fill="#407BFF"/>
<path opacity="0.8" d="M278.674 41.224C274.025 42.352 267.638 45.005 263.325 47.692C261.796 48.644 261.033 50.452 261.393 52.217C263.317 61.657 267.707 74.302 272.446 82.346L294.557 73.199C294.709 69.299 289.341 56.679 283.873 44.482C282.891 42.288 281.01 40.658 278.674 41.224Z" fill="white"/>
<path opacity="0.3" d="M287.296 52.2142L282.908 50.7432C283.89 53.3102 287.441 56.5642 289.938 58.4752C289.115 56.4692 288.223 54.3722 287.296 52.2142Z" fill="#407BFF"/>
<path d="M277.217 31.3201C275.392 27.8391 271.443 26.0871 266.701 26.4831C262.703 26.8171 259.157 30.8991 259.578 33.1051C259.998 35.3111 263.363 36.2451 263.972 37.0111L261.199 39.0211C259.819 40.0221 259.549 41.9681 260.603 43.3081C261.77 44.7901 263.306 46.3381 264.201 47.4311C271.865 47.2321 277.533 44.3081 279.575 41.4951C278.841 37.9161 279.032 34.7821 277.217 31.3201Z" fill="#407BFF"/>
<path opacity="0.8" d="M277.217 31.3201C275.392 27.8391 271.443 26.0871 266.701 26.4831C262.703 26.8171 259.157 30.8991 259.578 33.1051C259.998 35.3111 263.363 36.2451 263.972 37.0111L261.199 39.0211C259.819 40.0221 259.549 41.9681 260.603 43.3081C261.77 44.7901 263.306 46.3381 264.201 47.4311C271.865 47.2321 277.533 44.3081 279.575 41.4951C278.841 37.9161 279.032 34.7821 277.217 31.3201Z" fill="white"/>
<path d="M273.461 33.476C274.983 37.372 273.06 41.764 269.164 43.286C265.268 44.808 260.876 42.885 259.354 38.989C257.832 35.094 259.755 30.701 263.651 29.179C267.546 27.657 271.938 29.581 273.461 33.476Z" fill="#263238"/>
<path d="M338.388 123.596C338.277 120.307 338.135 120.636 338.039 117.832C337.981 116.129 337.974 114.243 337.963 112.609C337.952 111.014 336.825 109.649 335.262 109.332C333.937 109.063 332.608 108.807 331.285 108.525C329.559 108.157 327.853 107.761 326.158 107.269C324.844 106.887 323.541 106.466 322.253 106.002C320.873 105.505 319.512 104.96 318.164 104.382C316.588 103.706 315.031 102.986 313.486 102.244C311.761 101.416 310.049 100.56 308.343 99.693C301.762 88.798 301.62 81.619 294.557 73.198L279.397 80.056C279.397 80.056 290.536 99.821 298.122 108.201C302.489 113.024 309.34 115.198 315.45 116.776C319.858 117.914 324.328 118.785 328.803 119.607C330.543 119.926 332.434 120.05 333.931 121.089C335.11 121.907 335.72 123.184 336.068 124.541C336.139 124.818 336.199 125.098 336.253 125.38C336.413 126.217 338.456 125.585 338.388 123.596Z" fill="#407BFF"/>
<path opacity="0.8" d="M338.388 123.596C338.277 120.307 338.135 120.636 338.039 117.832C337.981 116.129 337.974 114.243 337.963 112.609C337.952 111.014 336.825 109.649 335.262 109.332C333.937 109.063 332.608 108.807 331.285 108.525C329.559 108.157 327.853 107.761 326.158 107.269C324.844 106.887 323.541 106.466 322.253 106.002C320.873 105.505 319.512 104.96 318.164 104.382C316.588 103.706 315.031 102.986 313.486 102.244C311.761 101.416 310.049 100.56 308.343 99.693C301.762 88.798 301.62 81.619 294.557 73.198L279.397 80.056C279.397 80.056 290.536 99.821 298.122 108.201C302.489 113.024 309.34 115.198 315.45 116.776C319.858 117.914 324.328 118.785 328.803 119.607C330.543 119.926 332.434 120.05 333.931 121.089C335.11 121.907 335.72 123.184 336.068 124.541C336.139 124.818 336.199 125.098 336.253 125.38C336.413 126.217 338.456 125.585 338.388 123.596Z" fill="white"/>
<path opacity="0.3" d="M330.7 108.4C330.103 108.269 329.497 108.135 328.894 107.992C328.941 111.445 327.322 117.409 326.727 119.216C327.358 119.335 327.998 119.457 328.629 119.577C330.384 114.832 330.66 109.809 330.7 108.4Z" fill="#407BFF"/>
<path opacity="0.3" d="M337.961 112.61C337.95 111.011 336.827 109.649 335.267 109.329C334.953 109.265 334.629 109.197 334.313 109.143C334.379 110.083 334.963 111.174 335.941 112.04C336.582 112.618 337.307 113.002 337.973 113.183C337.963 112.984 337.962 112.797 337.961 112.61Z" fill="#407BFF"/>
<path d="M272.046 33.5401C272.451 35.0561 270.754 36.6501 269.396 35.3391C268.294 34.2751 266.634 32.4931 265.279 31.6461C263.887 30.7751 265.743 29.2591 267.929 29.8471C269.97 30.3971 271.641 32.0231 272.046 33.5401Z" fill="white"/>
<path d="M272.161 81.86C271.456 82.12 272.744 83.316 272.744 83.316C272.744 83.316 286.714 78.529 295.239 73.6C295.311 72.569 294.561 72.022 294.561 72.022C294.561 72.022 284.189 77.426 272.161 81.86Z" fill="#407BFF"/>
<path opacity="0.5" d="M272.161 81.86C271.456 82.12 272.744 83.316 272.744 83.316C272.744 83.316 286.714 78.529 295.239 73.6C295.311 72.569 294.561 72.022 294.561 72.022C294.561 72.022 284.189 77.426 272.161 81.86Z" fill="white"/>
<path d="M282.46 40.5632C285.218 41.9562 287.814 43.4312 290.407 45.0642C291.698 45.8772 292.983 46.7121 294.249 47.6131C295.525 48.4961 296.784 49.4271 298.047 50.4751L298.521 50.8631L299.112 51.3962C299.532 51.7662 299.84 52.1071 300.149 52.4471C300.473 52.7981 300.74 53.1361 301.003 53.4731C301.276 53.8121 301.535 54.1492 301.768 54.4812C302.757 55.8092 303.563 57.1601 304.354 58.5001C305.891 61.2171 307.222 63.9301 308.32 66.8491C308.81 68.1511 308.152 69.6032 306.849 70.0942C305.871 70.4622 304.807 70.1822 304.131 69.4682L304.082 69.4142C302.073 67.2862 300.146 65.0412 298.207 62.9562C296.31 60.8772 294.295 58.7432 292.67 57.8152C290.4 56.3992 287.872 54.9931 285.36 53.6081L277.797 49.4102L277.778 49.4001C275.363 48.0601 274.492 45.0161 275.832 42.6011C277.141 40.2461 280.077 39.3632 282.46 40.5632Z" fill="#407BFF"/>
<path opacity="0.8" d="M282.46 40.5632C285.218 41.9562 287.814 43.4312 290.407 45.0642C291.698 45.8772 292.983 46.7121 294.249 47.6131C295.525 48.4961 296.784 49.4271 298.047 50.4751L298.521 50.8631L299.112 51.3962C299.532 51.7662 299.84 52.1071 300.149 52.4471C300.473 52.7981 300.74 53.1361 301.003 53.4731C301.276 53.8121 301.535 54.1492 301.768 54.4812C302.757 55.8092 303.563 57.1601 304.354 58.5001C305.891 61.2171 307.222 63.9301 308.32 66.8491C308.81 68.1511 308.152 69.6032 306.849 70.0942C305.871 70.4622 304.807 70.1822 304.131 69.4682L304.082 69.4142C302.073 67.2862 300.146 65.0412 298.207 62.9562C296.31 60.8772 294.295 58.7432 292.67 57.8152C290.4 56.3992 287.872 54.9931 285.36 53.6081L277.797 49.4102L277.778 49.4001C275.363 48.0601 274.492 45.0161 275.832 42.6011C277.141 40.2461 280.077 39.3632 282.46 40.5632Z" fill="white"/>
<path d="M310.733 71.7381L309.884 69.6131C309.884 69.6131 309.41 66.8891 307.717 66.1301L302.677 66.9221L302.853 67.3631C302.851 67.3621 302.849 67.3611 302.846 67.3611C303.312 68.3931 302.959 70.1871 302.505 71.6521C302.051 73.1181 302.821 73.2951 303.455 73.0131C303.821 72.8501 304.165 72.2031 304.551 71.5081C304.736 71.8711 304.939 72.2241 305.179 72.5531L306.412 74.2441C306.944 74.9731 307.952 75.1631 308.713 74.6761L310.067 73.8091C310.758 73.3681 311.038 72.4991 310.733 71.7381Z" fill="#407BFF"/>
<path opacity="0.8" d="M310.733 71.7381L309.884 69.6131C309.884 69.6131 309.41 66.8891 307.717 66.1301L302.677 66.9221L302.853 67.3631C302.851 67.3621 302.849 67.3611 302.846 67.3611C303.312 68.3931 302.959 70.1871 302.505 71.6521C302.051 73.1181 302.821 73.2951 303.455 73.0131C303.821 72.8501 304.165 72.2031 304.551 71.5081C304.736 71.8711 304.939 72.2241 305.179 72.5531L306.412 74.2441C306.944 74.9731 307.952 75.1631 308.713 74.6761L310.067 73.8091C310.758 73.3681 311.038 72.4991 310.733 71.7381Z" fill="white"/>
<path opacity="0.3" d="M278.236 52.0571L277.017 52.1561L269.532 70.2401C269.972 70.2701 270.376 70.2331 270.75 70.1411C270.75 70.1411 280.51 66.5041 283.464 65.1711C281.476 61.0511 278.236 52.0571 278.236 52.0571Z" fill="#407BFF"/>
<path d="M264.568 56.8022C264.985 60.0592 267.427 66.9812 269.533 70.2402C273.188 68.9802 279.293 66.6032 282.247 65.2702C280.258 61.1512 278.164 55.4752 277.018 52.1572C273.869 52.3662 267.006 54.9512 264.568 56.8022Z" fill="white"/>
<path opacity="0.3" d="M272 60.713C271.592 62.078 270.154 62.853 268.79 62.444C267.426 62.035 266.65 60.598 267.059 59.234C267.468 57.869 268.905 57.094 270.269 57.503C271.633 57.911 272.408 59.348 272 60.713Z" fill="#407BFF"/>
<path opacity="0.6" d="M273.913 57.2682C273.779 57.7152 273.308 57.9692 272.861 57.8352C272.414 57.7012 272.16 57.2302 272.293 56.7832C272.427 56.3362 272.898 56.0822 273.345 56.2162C273.793 56.3492 274.047 56.8202 273.913 57.2682Z" fill="#407BFF"/>
<path opacity="0.6" d="M276.145 56.3991C276.011 56.8461 275.54 57.1001 275.093 56.9661C274.646 56.8321 274.392 56.3611 274.526 55.9141C274.66 55.4671 275.131 55.2131 275.578 55.3471C276.025 55.4811 276.279 55.9521 276.145 56.3991Z" fill="#407BFF"/>
<path opacity="0.5" d="M279.291 64.1872L270.044 67.8412L269.485 66.0232L278.732 62.3682L279.291 64.1872Z" fill="#407BFF"/>
</svg>
