<svg width="388" height="325" viewBox="0 0 388 325" fill="none" xmlns="http://www.w3.org/2000/svg">
<path d="M67.385 80.94L271.488 4.62503C302.471 -6.95997 336.796 10.054 346.338 41.726L375.067 137.083C385.565 171.927 361.307 207.592 325.044 210.631L100.704 229.434C54.8869 233.274 15.982 196.275 17.517 150.323C18.556 119.231 38.246 91.835 67.385 80.94Z" fill="#002DE5" fill-opacity="0.1"/>
<path d="M194 324.016C301.082 324.016 387.889 318.947 387.889 312.693C387.889 306.44 301.082 301.37 194 301.37C86.918 301.37 0.110962 306.44 0.110962 312.693C0.110962 318.947 86.918 324.016 194 324.016Z" fill="#000F4B"/>
<path d="M132.499 84.875H143.202C145.493 84.875 147.187 86.732 146.987 89.023L145.012 111.593C144.812 113.884 142.792 115.741 140.501 115.741H129.798C127.507 115.741 125.813 113.884 126.013 111.593L127.988 89.023C128.188 86.732 130.208 84.875 132.499 84.875Z" fill="#407BFF"/>
<path opacity="0.2" d="M252.2 80.0522H268.924C272.503 80.0522 275.151 82.9542 274.838 86.5332L272.776 110.099C272.463 113.678 269.307 116.58 265.728 116.58H249.004C245.425 116.58 242.777 113.678 243.09 110.099L245.152 86.5332C245.466 82.9542 248.621 80.0522 252.2 80.0522Z" fill="black"/>
<path opacity="0.2" d="M248.774 119.214H265.498C269.077 119.214 271.725 122.116 271.412 125.695L269.35 149.261C269.037 152.84 265.881 155.742 262.302 155.742H245.578C241.999 155.742 239.351 152.841 239.664 149.261L241.726 125.695C242.039 122.116 245.195 119.214 248.774 119.214Z" fill="black"/>
<path d="M162.508 35.8652H255.671C268.617 35.8652 278.193 46.3592 277.06 59.3052L257.185 286.477C256.052 299.423 244.64 309.917 231.694 309.917H138.531C125.585 309.917 116.009 299.422 117.142 286.477L137.017 59.3052C138.149 46.3592 149.562 35.8652 162.508 35.8652Z" fill="#407BFF"/>
<path opacity="0.2" d="M162.508 35.8652H255.671C268.617 35.8652 278.193 46.3592 277.06 59.3052L257.185 286.477C256.052 299.423 244.64 309.917 231.694 309.917H138.531C125.585 309.917 116.009 299.422 117.142 286.477L137.017 59.3052C138.149 46.3592 149.562 35.8652 162.508 35.8652Z" fill="black"/>
<path d="M159.503 35.8652H252.666C265.612 35.8652 275.188 46.3592 274.055 59.3052L254.18 286.477C253.047 299.423 241.635 309.917 228.689 309.917H135.526C122.58 309.917 113.004 299.422 114.137 286.477L134.012 59.3052C135.145 46.3592 146.557 35.8652 159.503 35.8652Z" fill="#407BFF"/>
<path d="M271.261 59.3052L251.387 286.468C250.389 297.87 240.337 307.114 228.935 307.114H135.772C124.37 307.114 115.935 297.871 116.933 286.468L136.807 59.3052C137.805 47.9032 147.857 38.6592 159.259 38.6592H252.422C263.824 38.6592 272.258 47.9032 271.261 59.3052Z" fill="#000062"/>
<path d="M178.531 37.9941C178.226 41.6421 180.921 44.5961 184.568 44.6091H226.07C229.719 44.5951 232.931 41.6411 233.264 37.9941H178.531Z" fill="#407BFF"/>
<path d="M271.827 109.939L269.795 133.169C271.75 132.808 273.353 131.123 273.531 129.095L274.851 114.013C275.027 111.984 273.719 110.299 271.827 109.939Z" fill="#407BFF"/>
<path opacity="0.2" d="M271.827 109.939L269.795 133.169C271.75 132.808 273.353 131.123 273.531 129.095L274.851 114.013C275.027 111.984 273.719 110.299 271.827 109.939Z" fill="black"/>
<path d="M274.02 84.875L271.988 108.105C273.943 107.744 275.546 106.059 275.724 104.031L277.044 88.948C277.22 86.921 275.911 85.235 274.02 84.875Z" fill="#407BFF"/>
<path opacity="0.2" d="M274.02 84.875L271.988 108.105C273.943 107.744 275.546 106.059 275.724 104.031L277.044 88.948C277.22 86.921 275.911 85.235 274.02 84.875Z" fill="black"/>
<path d="M239.896 185.178H204.266V220.808H239.896V185.178Z" fill="#407BFF"/>
<path d="M261.766 185.178H239.886V220.808H261.766V185.178Z" fill="#407BFF"/>
<path d="M233.086 176.238H197.456L204.266 185.178H239.886L233.086 176.238Z" fill="#407BFF"/>
<path opacity="0.3" d="M261.766 185.178H239.886V220.808H261.766V185.178Z" fill="white"/>
<path opacity="0.4" d="M233.086 176.238H197.456L204.266 185.178H239.886L233.086 176.238Z" fill="white"/>
<path d="M246.336 176.238H268.216L261.776 185.178H239.886L246.336 176.238Z" fill="#407BFF"/>
<path opacity="0.6" d="M239.896 185.178H204.266V220.808H239.896V185.178Z" fill="white"/>
<path opacity="0.2" d="M246.336 176.238H268.216L261.776 185.178H239.886L246.336 176.238Z" fill="white"/>
<path d="M340.147 219.927H250.348V309.726H340.147V219.927Z" fill="#407BFF"/>
<path opacity="0.4" d="M340.147 219.927H250.348V309.726H340.147V219.927Z" fill="white"/>
<path d="M250.332 219.927H195.174V309.726H250.332V219.927Z" fill="#407BFF"/>
<path opacity="0.6" d="M250.332 219.927H195.174V309.726H250.332V219.927Z" fill="white"/>
<path d="M303.161 275.537C304.071 275.537 304.809 274.799 304.809 273.889C304.809 272.979 304.071 272.241 303.161 272.241C302.251 272.241 301.513 272.979 301.513 273.889C301.513 274.799 302.251 275.537 303.161 275.537Z" fill="white"/>
<path d="M307.361 148.47C307.361 148.47 310.475 170.86 313.276 174.716C316.076 178.572 328.661 189.258 328.661 189.258L336.607 188.1L341.937 193.143L338.081 195.815L333.831 193.907C333.831 193.907 330.662 194.334 326.607 194.081C322.552 193.828 306.693 183.116 303.768 177.474C300.844 171.831 297.549 151.095 297.549 151.095L307.361 148.47Z" fill="#CE7A63"/>
<path d="M310.025 154.939L309.231 155.084C308.678 149.825 306.478 133.837 300.454 137.943C294.662 141.891 296.285 153.098 297.13 157.288L296.174 157.462L297.055 160.226L310.382 157.671L310.025 154.939Z" fill="#3030E8"/>
<path opacity="0.2" d="M304.997 144.365L303.532 141.213L298.916 145.848C298.916 145.848 297.607 147.823 296.274 149.844C296.34 152.836 296.793 155.62 297.129 157.288L296.173 157.462L297.054 160.226L304.57 158.785C305.936 150.964 304.997 144.365 304.997 144.365Z" fill="black"/>
<path d="M305.459 104.194C305.459 104.194 321.357 107.625 312.91 115.183L305.931 109.068L305.459 104.194Z" fill="#263238"/>
<path d="M327.528 272.082L317.411 296.869L310.391 294.141L316.047 269.5L327.528 272.082Z" fill="#CE7A63"/>
<path opacity="0.2" d="M316.547 267.75L312.56 285.118L321.207 287.049L328.028 270.322L316.547 267.75Z" fill="black"/>
<path d="M319.035 296.293C320.324 299.217 321.19 301.63 326.466 304.756C327.617 305.417 325.672 308.456 322.804 307.17C318.064 305.031 319.303 304.99 315.237 303.226C311.825 301.723 309.294 300.809 306.511 299.653C306.439 299.622 306.372 299.582 306.311 299.533C306.305 299.529 306.3 299.525 306.294 299.52C305.803 299.151 305.704 298.453 306.074 297.962L310.172 292.351C310.356 292.093 310.694 291.999 310.985 292.125L317.629 294.988C318.242 295.236 318.742 295.7 319.035 296.293Z" fill="#263238"/>
<path d="M350.18 213.82C348.89 229.83 325.91 282.71 325.91 282.71L312.27 278.91C312.27 278.91 322.69 228.1 329.49 219.69C329.49 219.69 327.27 219.73 323.7 219.76C311.27 219.87 282.46 219.85 274.15 217.64C268.22 216.06 255.83 212.89 259.1 193.05L274.46 192.52L292.35 191.9C292.35 191.9 351.95 191.95 350.18 213.82Z" fill="#263238"/>
<path opacity="0.2" d="M323.7 219.76C311.27 219.87 282.46 219.85 274.15 217.64C268.22 216.06 255.83 212.89 259.1 193.05L274.46 192.52C286.55 193.95 302.35 196.34 313.12 200.97C318.36 203.22 322 207.28 323.07 212.06C323.38 213.46 323.61 216.83 323.7 219.76Z" fill="black"/>
<path d="M303.807 271.203L298.749 296.473L291.141 296.116L292.044 270.846L303.807 271.203Z" fill="#CE7A63"/>
<path opacity="0.2" d="M303.807 271.203L292.044 270.846L291.516 285.958L300.787 286.285L303.807 271.203Z" fill="black"/>
<path d="M299.911 297.068C301.151 300.103 301.961 302.586 307.238 305.93C308.382 306.67 306.304 309.717 303.434 308.3C298.673 305.972 299.936 305.975 295.853 304.052C292.4 302.417 289.856 301.406 287.062 300.144L286.846 300.037L286.842 300.034C286.344 299.645 286.256 298.926 286.646 298.428L290.997 292.817C291.194 292.563 291.542 292.481 291.831 292.62L298.487 295.732C299.112 295.984 299.62 296.461 299.911 297.068Z" fill="#263238"/>
<path d="M250.166 193.031C250.166 193.031 245.821 208.657 253.01 214.827C263.063 223.464 299.373 220.837 299.373 220.837C293.103 240.913 290.3 280.784 290.3 280.784H303.913C303.913 280.784 322.449 226.241 319.71 212.137C316.971 198.033 268.331 193.051 268.331 193.051L250.166 193.031Z" fill="#263238"/>
<path d="M311.062 280.488L326.5 284.382L329.649 277.77L312.688 272.964L311.062 280.488Z" fill="#3030E8"/>
<path d="M288.946 282.681L304.698 283.489L306.335 276.563L288.946 275.755V282.681Z" fill="#3030E8"/>
<path d="M296.174 171.391C300.137 159.605 305.181 150.634 305.746 140.583C292.056 120.822 265.29 132.502 265.29 132.502C249.087 162.896 250.166 193.031 250.166 193.031C286.98 193.031 289.089 192.403 289.089 192.403C289.089 192.403 289.224 187.196 296.174 171.391Z" fill="#3030E8"/>
<path opacity="0.2" d="M283.81 131.921C284.4 135.396 285.63 141.676 287.089 142.589C289.115 143.806 292.113 142.103 292.113 142.103C292.113 142.103 294.54 145.389 297.132 143.198C298.572 141.816 299.697 140.139 300.43 138.282C299.672 139.568 298.717 140.728 297.6 141.719C294.996 143.901 292.57 140.625 292.57 140.625C292.57 140.625 289.571 142.318 287.546 141.112C286.237 140.321 284.701 135.346 283.81 131.921Z" fill="black"/>
<path d="M287.109 127.12L290.765 128.373L287.902 130.877L287.109 127.12Z" fill="#407BFF"/>
<path opacity="0.2" d="M287.109 127.12L290.765 128.373L287.902 130.877L287.109 127.12Z" fill="black"/>
<path d="M298.712 130.878L299.725 133.827C299.725 133.827 294.508 139.287 293.006 139.349C291.504 139.41 287.109 129.082 287.109 129.082C292.917 126.453 292.384 123.563 292.384 123.563L298.712 130.878Z" fill="#CE7A63"/>
<path opacity="0.2" d="M296.815 136.669C298.354 135.262 299.726 133.828 299.726 133.828L298.713 130.879L293.064 124.348C292.34 127.189 291.62 133.134 296.815 136.669Z" fill="black"/>
<path d="M301.692 135.956C300.747 138.157 299.356 140.137 297.606 141.771C295.002 143.953 292.576 140.677 292.576 140.677C292.576 140.677 289.587 142.369 287.562 141.162C285.537 139.956 283 128.889 283 128.889L287.109 127.12L292.769 139.077L300.403 132.771L301.692 135.956Z" fill="#407BFF"/>
<path d="M292.156 113.474C292.148 111.701 292.605 109.958 293.483 108.418C296.25 103.558 302.434 101.861 307.294 104.628C314.547 108.543 314.746 119.963 312.59 126.656C312.005 128.603 310.842 130.325 309.254 131.595C304.936 135.048 298.636 134.347 295.183 130.029C291.617 125.651 292.078 121.157 292.175 113.451L292.156 113.474Z" fill="#CE7A63"/>
<path d="M305.682 118.25C306.103 118.284 306.355 118.856 306.252 119.467C306.149 120.078 305.769 120.495 305.359 120.451C304.949 120.407 304.686 119.845 304.789 119.234C304.881 118.612 305.262 118.216 305.682 118.25Z" fill="#263238"/>
<path d="M312.615 119.548C313.036 119.592 313.299 120.143 313.196 120.764C313.093 121.385 312.713 121.792 312.292 121.748C311.871 121.704 311.629 121.152 311.722 120.531C311.824 119.921 312.194 119.504 312.615 119.548Z" fill="#263238"/>
<path d="M303.824 116.792C304.548 116.23 305.5 116.053 306.378 116.317C306.382 116.318 306.385 116.32 306.389 116.321C306.576 116.384 306.778 116.284 306.841 116.097C306.9 115.909 306.804 115.707 306.621 115.633C305.488 115.287 304.257 115.526 303.335 116.271C303.184 116.397 303.163 116.621 303.288 116.772C303.335 116.81 303.39 116.837 303.449 116.85C303.575 116.911 303.724 116.887 303.824 116.792Z" fill="#263238"/>
<path d="M314.359 118.74C314.526 118.633 314.578 118.412 314.476 118.242C313.901 117.203 312.867 116.499 311.689 116.346C311.531 116.354 311.397 116.465 311.36 116.618C311.36 116.621 311.359 116.623 311.358 116.625C311.312 116.822 311.434 117.02 311.632 117.066C312.583 117.212 313.41 117.795 313.866 118.642C313.926 118.747 314.034 118.816 314.154 118.826C314.23 118.821 314.302 118.79 314.359 118.74Z" fill="#263238"/>
<path d="M308.496 126.372C309.456 126.811 310.56 126.808 311.518 126.366C310.593 124.505 309.915 122.53 309.502 120.493L308.496 126.372Z" fill="#BA4D3C"/>
<path d="M291.68 118.465C288.694 107.557 293.533 104.717 298.773 102.765C304.014 100.813 306.915 102.683 308.59 104.524C309.109 105.096 310.153 106.84 306.791 107.07C304.755 107.15 302.716 106.994 300.715 106.604C299.903 106.458 299.077 106.783 298.582 107.443C297.421 108.958 295.545 111.796 295.565 114.282C295.712 116.193 295.001 118.07 293.625 119.404L291.68 118.465Z" fill="#263238"/>
<path d="M287.902 173.239C287.905 173.239 287.909 173.239 287.912 173.239C288.642 173.245 289.229 173.842 289.224 174.572C289.219 175.302 288.622 175.89 287.891 175.884C287.161 175.878 286.573 175.282 286.579 174.551C286.586 173.824 287.176 173.239 287.902 173.239Z" fill="#407BFF"/>
<path d="M285.017 187.196C285.024 187.196 285.031 187.196 285.038 187.196C285.768 187.202 286.355 187.798 286.35 188.529C286.344 189.259 285.748 189.847 285.017 189.841C284.287 189.835 283.699 189.239 283.705 188.508C283.705 187.783 284.292 187.196 285.017 187.196Z" fill="#407BFF"/>
<path d="M291.765 115.969C293.879 116.355 294.896 119.345 294.917 121.304C294.942 123.41 293.419 124.992 291.547 123.739C290.126 122.763 289.128 121.285 288.753 119.602C288.341 117.523 289.651 115.583 291.765 115.969Z" fill="#CE7A63"/>
<path d="M301.445 126.258C301.445 126.258 303.325 126.651 308.097 128.852C306.876 130.028 305.293 130.718 302.859 129.568C300.425 128.418 301.445 126.258 301.445 126.258Z" fill="#263238"/>
<path d="M304.513 128.963C303.339 128.408 302.362 128.284 301.531 128.429C301.762 128.841 302.179 129.244 302.859 129.565C304.033 130.12 305.002 130.249 305.836 130.097C305.603 129.685 305.193 129.285 304.513 128.963Z" fill="#A02724"/>
<path d="M301.68 126.318C301.674 126.686 301.667 127.054 302.099 127.374C303.062 127.9 305.738 128.791 306.487 128.964C306.958 129.094 307.4 129.117 307.89 128.757C304.211 127.071 302.304 126.486 301.68 126.318Z" fill="white"/>
<path d="M309.293 199.717L327.396 199.813L327.411 196.907L309.308 196.811L309.293 199.717Z" fill="#263238"/>
<path d="M287.782 199.589L310.813 199.712L310.828 196.806L286.436 196.676L286.428 198.22C286.423 198.972 287.03 199.585 287.782 199.589Z" fill="#263238"/>
<path opacity="0.3" d="M287.782 199.589L310.813 199.712L310.828 196.806L286.436 196.676L286.428 198.22C286.423 198.972 287.03 199.585 287.782 199.589Z" fill="white"/>
<path d="M304.257 198.722L307.165 198.737L307.171 197.705L304.263 197.69L304.257 198.722Z" fill="#263238"/>
<path d="M299.717 198.711L302.625 198.727L302.63 197.695L299.722 197.679L299.717 198.711Z" fill="#263238"/>
<path d="M314.283 196.824L312.35 196.814L320.051 170.587L321.984 170.597L314.283 196.824Z" fill="#263238"/>
<path opacity="0.3" d="M314.283 196.824L312.35 196.814L320.051 170.587L321.984 170.597L314.283 196.824Z" fill="white"/>
<path d="M313.57 196.82L347.54 197.002L355.241 170.775L321.271 170.593L313.57 196.82Z" fill="#263238"/>
<path opacity="0.6" d="M313.57 196.82L347.54 197.002L355.241 170.775L321.271 170.593L313.57 196.82Z" fill="white"/>
<path d="M311.907 196.811C312.279 196.813 346.897 196.998 347.269 197C347.865 197.003 348.344 197.656 348.34 198.459C348.336 199.261 347.849 199.909 347.253 199.906C346.658 199.903 312.487 199.72 311.891 199.717C311.295 199.714 310.816 199.061 310.82 198.258C310.825 197.456 311.311 196.808 311.907 196.811Z" fill="#263238"/>
<path opacity="0.5" d="M311.907 196.811C312.279 196.813 346.897 196.998 347.269 197C347.865 197.003 348.344 197.656 348.34 198.459C348.336 199.261 347.849 199.909 347.253 199.906C346.658 199.903 312.487 199.72 311.891 199.717C311.295 199.714 310.816 199.061 310.82 198.258C310.825 197.456 311.311 196.808 311.907 196.811Z" fill="white"/>
<path d="M310.821 198.259C310.817 199.062 311.296 199.715 311.892 199.718C312.488 199.721 312.974 199.073 312.978 198.271C312.982 197.469 312.503 196.815 311.907 196.812C311.311 196.808 310.825 197.456 310.821 198.259Z" fill="#263238"/>
<path opacity="0.3" d="M310.821 198.259C310.817 199.062 311.296 199.715 311.892 199.718C312.488 199.721 312.974 199.073 312.978 198.271C312.982 197.469 312.503 196.815 311.907 196.812C311.311 196.808 310.825 197.456 310.821 198.259Z" fill="white"/>
<path opacity="0.2" d="M277.435 172.532C275.804 170.286 274.071 161.987 272.863 155.13L274.431 154.829L274.061 151.993L273.237 152.143C272.673 146.776 270.453 130.662 264.439 134.155C262.694 137.563 261.155 140.979 259.809 144.358C259.599 148.303 260.233 152.268 260.669 154.432L259.676 154.613L260.591 157.483L262.716 157.075C263.991 163.697 265.838 172.07 267.562 175.396C269.824 179.759 279.531 187.039 286.081 190.582C293.413 189.281 295.097 188.361 295.097 188.361C295.097 188.361 294.86 188.076 294.596 187.46L293.413 187.632C293.413 187.632 280.343 176.536 277.435 172.532Z" fill="black"/>
<path d="M275.64 145.377C275.64 145.377 277.78 168.755 280.496 172.891C283.213 177.028 295.747 188.726 295.747 188.726L304.046 187.912L309.329 193.403L305.199 195.987L300.883 193.801C300.883 193.801 297.574 194.09 293.38 193.63C289.186 193.17 273.256 181.285 270.498 175.29C267.739 169.294 265.333 147.622 265.333 147.622L275.64 145.377Z" fill="#CE7A63"/>
<path d="M277.498 150.422L276.674 150.572C276.1 145.111 273.815 128.507 267.558 132.772C261.543 136.872 263.228 148.51 264.106 152.861L263.113 153.042L264.028 155.912L277.868 153.258L277.498 150.422Z" fill="#3030E8"/>
<path d="M349.292 137.878H329.656C326.37 137.878 323.706 140.542 323.706 143.828V155.454C323.706 158.74 326.37 161.403 329.655 161.403H335.273V165.927C335.273 167.05 336.631 167.612 337.425 166.818L342.84 161.403H349.291C352.577 161.403 355.241 158.739 355.241 155.453V143.828C355.241 140.542 352.578 137.878 349.292 137.878Z" fill="#3030E8"/>
<path d="M344.54 143.436C344.03 143.436 343.776 143.436 343.266 143.436C341.89 143.436 341.202 143.436 339.826 143.436C339.316 143.436 339.061 143.436 338.552 143.436C337.177 143.436 336.489 143.436 335.113 143.436C335.02 142.655 334.974 142.265 334.881 141.484C332.806 141.484 331.769 141.484 329.694 141.484C329.804 141.93 329.859 142.153 329.969 142.599C331.466 142.599 332.214 142.599 333.711 142.599C333.762 142.934 333.787 143.101 333.838 143.436C334.089 145.087 334.214 145.912 334.466 147.563C334.534 148.009 334.568 148.232 334.636 148.679C334.887 150.33 335.013 151.155 335.264 152.805C335.398 153.687 335.466 154.128 335.6 155.01C339.742 155.01 341.808 155.01 345.95 155.01C346.053 154.564 346.104 154.341 346.207 153.894C342.266 153.894 340.299 153.894 336.359 153.894C336.307 153.458 336.281 153.24 336.229 152.805C337.271 152.805 337.792 152.805 338.834 152.805C339.22 152.805 339.413 152.805 339.799 152.805C340.841 152.805 341.362 152.805 342.404 152.805C342.79 152.805 342.983 152.805 343.369 152.805C344.797 152.805 345.511 152.805 346.94 152.805C347.348 151.154 347.552 150.329 347.959 148.679C348.069 148.233 348.124 148.01 348.234 147.563C348.641 145.912 348.845 145.087 349.253 143.436C347.368 143.436 346.426 143.436 344.54 143.436ZM335.246 144.551C336.582 144.551 337.25 144.551 338.585 144.551C338.621 145.755 338.64 146.358 338.676 147.562C337.447 147.562 336.833 147.562 335.604 147.562C335.461 146.358 335.389 145.756 335.246 144.551ZM336.096 151.689C335.952 150.485 335.881 149.882 335.737 148.678C336.926 148.678 337.52 148.678 338.709 148.678C338.745 149.882 338.764 150.485 338.8 151.689C337.719 151.689 337.178 151.689 336.096 151.689ZM342.507 151.689C341.425 151.689 340.884 151.689 339.802 151.689C339.805 150.485 339.807 149.882 339.81 148.678C340.999 148.678 341.594 148.678 342.783 148.678C342.673 149.882 342.618 150.484 342.507 151.689ZM342.887 147.562C341.658 147.562 341.043 147.562 339.814 147.562C339.817 146.358 339.819 145.755 339.823 144.551C341.159 144.551 341.828 144.551 343.164 144.551C343.053 145.756 342.997 146.358 342.887 147.562ZM346.214 151.689C345.132 151.689 344.591 151.689 343.509 151.689C343.66 150.485 343.735 149.882 343.885 148.678C345.074 148.678 345.668 148.678 346.858 148.678C346.6 149.882 346.472 150.484 346.214 151.689ZM347.097 147.562C345.868 147.562 345.254 147.562 344.025 147.562C344.176 146.358 344.251 145.755 344.401 144.551C345.737 144.551 346.405 144.551 347.741 144.551C347.483 145.756 347.354 146.358 347.097 147.562Z" fill="white"/>
<path d="M336.244 156.055C335.512 156.055 334.919 156.648 334.919 157.38C334.919 158.112 335.512 158.705 336.244 158.705C336.976 158.705 337.569 158.112 337.569 157.38C337.569 156.648 336.976 156.055 336.244 156.055Z" fill="white"/>
<path d="M345.656 158.704C346.388 158.704 346.981 158.111 346.981 157.379C346.981 156.647 346.388 156.054 345.656 156.054C344.924 156.054 344.331 156.647 344.331 157.379C344.331 158.111 344.924 158.704 345.656 158.704Z" fill="white"/>
<path d="M75.219 230.557L72.826 230.431L73.3951 219.592C73.7821 212.216 80.098 206.216 87.474 206.216C91.072 206.216 94.385 207.62 96.805 210.169C99.228 212.723 100.458 216.114 100.27 219.718L99.703 230.557L97.3091 230.431L97.8761 219.592C98.0301 216.651 97.033 213.89 95.066 211.818C93.104 209.75 90.408 208.612 87.474 208.612C81.351 208.612 76.109 213.594 75.788 219.719L75.219 230.557Z" fill="#263238"/>
<path d="M126.494 225.737H55.816L53.421 309.586L63.902 307.19L74.384 309.586H128.89L126.494 225.737Z" fill="#407BFF"/>
<path opacity="0.6" d="M126.494 225.737H55.816L53.421 309.586L63.902 307.19L74.384 309.586H128.89L126.494 225.737Z" fill="white"/>
<path d="M74.384 309.586L63.902 307.19L53.421 309.586L55.816 225.737H71.988L74.384 309.586Z" fill="#407BFF"/>
<path opacity="0.3" d="M74.384 309.586L63.902 307.19L53.421 309.586L55.816 225.737H71.988L74.384 309.586Z" fill="white"/>
<path d="M111.527 230.557L110.958 219.718C110.639 213.594 105.397 208.611 99.272 208.611C96.338 208.611 93.642 209.749 91.68 211.817C89.713 213.889 88.716 216.65 88.87 219.591L89.438 230.43L87.045 230.556L86.477 219.717C86.289 216.113 87.519 212.721 89.942 210.168C92.361 207.619 95.674 206.215 99.273 206.215C106.65 206.215 112.966 212.216 113.352 219.592L113.921 230.429L111.527 230.557Z" fill="#263238"/>
<g opacity="0.2">
<path d="M111.527 230.557L110.958 219.718C110.639 213.594 105.397 208.611 99.272 208.611C96.338 208.611 93.642 209.749 91.68 211.817C89.713 213.889 88.716 216.65 88.87 219.591L89.438 230.43L87.045 230.556L86.477 219.717C86.289 216.113 87.519 212.721 89.942 210.168C92.361 207.619 95.674 206.215 99.273 206.215C106.65 206.215 112.966 212.216 113.352 219.592L113.921 230.429L111.527 230.557Z" fill="white"/>
</g>
<path d="M42.738 256.608L41.134 256.523L41.515 249.257C41.775 244.313 46.009 240.29 50.953 240.29C53.365 240.29 55.586 241.231 57.208 242.94C58.832 244.652 59.657 246.925 59.531 249.342L59.151 256.608L57.547 256.523L57.927 249.257C58.031 247.286 57.361 245.435 56.043 244.046C54.728 242.659 52.92 241.896 50.953 241.896C46.848 241.896 43.334 245.236 43.119 249.341L42.738 256.608Z" fill="#263238"/>
<path d="M77.11 253.377H29.731L28.125 309.586L35.151 307.98L42.178 309.586H78.717L77.11 253.377Z" fill="#3030E8"/>
<path d="M42.178 309.586L35.151 307.98L28.125 309.586L29.731 253.377H40.572L42.178 309.586Z" fill="#407BFF"/>
<path opacity="0.2" d="M42.178 309.586L35.151 307.98L28.125 309.586L29.731 253.377H40.572L42.178 309.586Z" fill="black"/>
<path d="M67.0771 256.608L66.6961 249.342C66.4821 245.237 62.9681 241.897 58.8621 241.897C56.8951 241.897 55.0881 242.66 53.7721 244.047C52.4541 245.436 51.7851 247.287 51.8881 249.258L52.2691 256.524L50.6651 256.609L50.284 249.343C50.158 246.927 50.9831 244.653 52.6071 242.941C54.2291 241.232 56.4501 240.291 58.8621 240.291C63.8071 240.291 68.0411 244.314 68.3001 249.259L68.6811 256.524L67.0771 256.608Z" fill="#263238"/>
<g opacity="0.2">
<path d="M67.0771 256.608L66.6961 249.342C66.4821 245.237 62.9681 241.897 58.8621 241.897C56.8951 241.897 55.0881 242.66 53.7721 244.047C52.4541 245.436 51.7851 247.287 51.8881 249.258L52.2691 256.524L50.6651 256.609L50.284 249.343C50.158 246.927 50.9831 244.653 52.6071 242.941C54.2291 241.232 56.4501 240.291 58.8621 240.291C63.8071 240.291 68.0411 244.314 68.3001 249.259L68.6811 256.524L67.0771 256.608Z" fill="white"/>
</g>
<path d="M115.678 304.101L108.068 303.306L108.446 285.529L116.056 286.324L115.678 304.101Z" fill="#B55B52"/>
<path d="M180.064 278.595L173.246 282.068L163.012 267.394L169.83 263.922L180.064 278.595Z" fill="#B55B52"/>
<path d="M171.828 281.121L178.826 276.129C179.081 275.947 179.413 275.977 179.627 276.2L184.374 281.168C184.866 281.683 184.76 282.579 184.166 282.988C181.696 284.687 180.418 285.382 177.34 287.577C175.447 288.928 172.821 291.098 170.206 292.963C167.649 294.787 165.608 292.342 166.529 291.331C170.662 286.799 170.4 284.801 171.059 282.246C171.179 281.786 171.455 281.387 171.828 281.121Z" fill="#263238"/>
<path d="M107.421 302.347L115.971 303.24C116.282 303.273 116.512 303.515 116.524 303.823L116.791 310.689C116.819 311.401 116.146 312.002 115.43 311.915C112.454 311.552 111.036 311.227 107.276 310.834C104.963 310.592 98.294 310.138 95.1 309.805C91.976 309.479 92.065 306.295 93.426 306.148C99.524 305.489 103.915 304.159 106.101 302.682C106.495 302.416 106.966 302.3 107.421 302.347Z" fill="#263238"/>
<g opacity="0.2">
<path d="M108.447 285.534L108.251 294.697L115.865 295.492L116.061 286.329L108.447 285.534Z" fill="black"/>
<path d="M169.834 263.925L163.013 267.399L168.292 274.961L175.113 271.487L169.834 263.925Z" fill="black"/>
</g>
<path d="M112.089 131.932C112.089 131.932 104.198 190.656 103.963 213.995C103.719 238.271 106.803 292.767 106.803 292.767L117.094 293.842C117.094 293.842 121.269 240.243 122.935 216.446C124.751 190.504 134.835 132.649 134.835 132.649L112.089 131.932Z" fill="#263238"/>
<path d="M117.948 294.304L105.873 293.043L105.39 289.099L118.961 290.04L117.948 294.304Z" fill="#3030E8"/>
<path opacity="0.6" d="M125.025 147.013C116.912 162.12 122.126 190.309 124.495 200.81C126.372 185.21 129.308 166.161 131.569 152.175C130.664 144.194 128.766 140.048 125.025 147.013Z" fill="black"/>
<path d="M120.292 132.191C120.292 132.191 125.396 193.662 130.089 213.493C135.661 237.037 165.842 274.224 165.842 274.224L175.14 269.489C175.14 269.489 154.692 228.167 150.257 215.715C140.791 189.141 150.837 150.301 143.15 132.913L120.292 132.191Z" fill="#263238"/>
<path d="M176.459 269.428L164.924 275.303L161.849 272.303L175.106 264.78L176.459 269.428Z" fill="#3030E8"/>
<path d="M169.145 284.259C169.114 284.258 169.083 284.256 169.053 284.252C168.709 284.211 168.439 284.005 168.25 283.642C168.108 283.368 168.17 283.151 168.247 283.018C168.738 282.173 171.501 282.045 171.814 282.033C171.891 282.029 171.953 282.071 171.985 282.136C172.016 282.201 172.006 282.279 171.958 282.333C171.308 283.076 170.097 284.289 169.145 284.259ZM171.389 282.421C170.286 282.505 168.819 282.756 168.56 283.201C168.528 283.257 168.5 283.339 168.57 283.476C168.702 283.73 168.874 283.866 169.095 283.893C169.613 283.953 170.459 283.41 171.389 282.421Z" fill="#407BFF"/>
<path d="M171.557 282.402C170.607 282.372 168.878 281.865 168.553 281.143C168.484 280.989 168.419 280.686 168.756 280.377C168.97 280.181 169.23 280.097 169.521 280.129C170.626 280.246 171.914 282.033 171.968 282.109C172.006 282.161 172.012 282.23 171.986 282.289C171.959 282.348 171.904 282.388 171.84 282.395C171.757 282.403 171.662 282.405 171.557 282.402ZM169.428 280.485C169.264 280.48 169.124 280.532 169.001 280.644C168.829 280.801 168.848 280.914 168.884 280.994C169.103 281.483 170.53 281.988 171.46 282.039C171 281.466 170.142 280.558 169.484 280.489C169.465 280.487 169.446 280.486 169.428 280.485Z" fill="#407BFF"/>
<path d="M104.426 303.379C103.669 303.3 102.984 303.11 102.629 302.718C102.404 302.469 102.325 302.162 102.395 301.806C102.437 301.593 102.56 301.439 102.751 301.359C103.736 300.946 106.609 302.812 106.933 303.026C106.997 303.069 107.028 303.147 107.009 303.221C106.99 303.296 106.927 303.35 106.85 303.357C106.189 303.418 105.264 303.466 104.426 303.379ZM103.234 301.663C103.094 301.648 102.978 301.657 102.891 301.693C102.812 301.726 102.769 301.782 102.751 301.876C102.703 302.117 102.752 302.313 102.898 302.475C103.316 302.938 104.561 303.142 106.277 303.038C105.285 302.427 103.955 301.738 103.234 301.663Z" fill="#407BFF"/>
<path d="M106.814 303.357C106.789 303.354 106.764 303.347 106.742 303.333C105.878 302.828 104.254 300.999 104.485 300.152C104.54 299.951 104.711 299.712 105.215 299.714C105.587 299.715 105.913 299.855 106.181 300.129C107.055 301.026 107.016 303.093 107.014 303.18C107.012 303.244 106.977 303.303 106.921 303.334C106.888 303.353 106.85 303.361 106.814 303.357ZM105.323 300.082C105.288 300.078 105.251 300.076 105.214 300.076C104.881 300.075 104.846 300.204 104.835 300.247C104.697 300.756 105.78 302.174 106.646 302.831C106.619 302.225 106.494 300.97 105.921 300.382C105.748 300.205 105.552 300.106 105.323 300.082Z" fill="#407BFF"/>
<path d="M108.811 100.707C105.922 104.53 102.889 107.937 99.327 111.208C97.544 112.836 95.66 114.401 93.346 115.781C92.182 116.464 90.915 117.131 89.295 117.583C88.485 117.805 87.568 117.976 86.506 117.961C85.984 117.959 85.413 117.893 84.843 117.766C84.557 117.7 84.265 117.613 83.981 117.513C83.678 117.391 83.471 117.328 83.026 117.083C82.253 116.66 81.623 116.07 81.215 115.53C80.797 114.987 80.504 114.449 80.308 113.981C79.894 113.018 79.736 112.214 79.62 111.461C79.408 109.966 79.419 108.671 79.474 107.412C79.598 104.908 79.99 102.588 80.432 100.297C81.355 95.7239 82.629 91.3689 84.193 87.0269L88.334 88.0979C87.735 92.4519 87.19 96.8859 86.859 101.188C86.694 103.334 86.614 105.481 86.697 107.46C86.738 108.44 86.844 109.394 87.026 110.106C87.113 110.453 87.231 110.744 87.284 110.802C87.338 110.9 87.296 110.589 86.697 110.216C86.494 110.117 86.557 110.134 86.513 110.117C86.495 110.103 86.474 110.093 86.461 110.086C86.44 110.066 86.428 110.067 86.467 110.051C86.527 110.035 86.722 109.993 86.983 109.89C87.508 109.686 88.245 109.303 88.977 108.799C90.459 107.788 91.997 106.426 93.485 104.996C94.977 103.553 96.406 101.976 97.822 100.374C99.239 98.7969 100.643 97.0749 101.927 95.4919L108.811 100.707Z" fill="#B55B52"/>
<path d="M107.144 89.6982C104.006 88.8352 94.719 100.694 94.719 100.694L103.598 110.599C103.598 110.599 114.014 101.203 113.622 96.9892C113.213 92.6022 111.723 90.9572 107.144 89.6982Z" fill="#3030E8"/>
<path d="M88.4361 86.9786L88.0891 80.7456L82.0811 85.6906C82.0811 85.6906 82.9871 90.5196 86.0201 91.4786L87.8921 88.8536C88.2821 88.3086 88.4731 87.6476 88.4361 86.9786Z" fill="#B55B52"/>
<path d="M84.1841 75.6338L79.3781 80.0458L82.082 85.6908L88.0891 80.7458L84.1841 75.6338Z" fill="#B55B52"/>
<path d="M81.739 87.6827L80.354 87.1787C79.575 86.8947 79.115 86.0887 79.269 85.2737L81.379 74.0527L85.166 75.4317L84.003 86.2717C83.886 87.3657 82.773 88.0587 81.739 87.6827Z" fill="#263238"/>
<path d="M91.7349 73.4266C91.9709 72.7776 92.1969 72.1356 92.4149 71.4996C91.8199 70.3896 90.6409 69.2006 89.0629 68.0576C88.5589 69.2906 88.0589 70.5756 87.5729 71.9106C87.0869 73.2456 86.6429 74.5516 86.2369 75.8206C88.1809 75.9596 89.8489 75.8076 91.0179 75.3396C91.2579 74.7126 91.4979 74.0756 91.7349 73.4266Z" fill="#263238"/>
<path d="M89.222 72.5159C89.885 70.6949 90.321 68.9859 90.491 67.6959L78.058 63.1689L74.675 72.4599L87.1151 76.9889C87.8091 75.8949 88.566 74.3199 89.222 72.5159Z" fill="#407BFF"/>
<path opacity="0.6" d="M89.222 72.5159C89.885 70.6949 90.321 68.9859 90.491 67.6959L78.058 63.1689L74.675 72.4599L87.1151 76.9889C87.8091 75.8949 88.566 74.3199 89.222 72.5159Z" fill="white"/>
<path d="M81.293 63.4778C80.728 63.2718 67.328 49.4518 65.792 48.8928C64.158 48.2978 60.661 53.7798 57.982 61.1378C55.303 68.4958 54.456 74.9428 56.09 75.5378C57.626 76.0968 76.775 74.1278 77.34 74.3338C78.006 74.5758 79.43 72.3428 80.522 69.3448C81.613 66.3468 81.958 63.7208 81.293 63.4778Z" fill="#407BFF"/>
<path opacity="0.4" d="M81.293 63.4778C80.728 63.2718 67.328 49.4518 65.792 48.8928C64.158 48.2978 60.661 53.7798 57.982 61.1378C55.303 68.4958 54.456 74.9428 56.09 75.5378C57.626 76.0968 76.775 74.1278 77.34 74.3338C78.006 74.5758 79.43 72.3428 80.522 69.3448C81.613 66.3468 81.958 63.7208 81.293 63.4778Z" fill="white"/>
<path d="M63.9 63.2928C61.221 70.6508 57.725 76.1328 56.09 75.5378C54.456 74.9428 55.303 68.4958 57.982 61.1378C60.661 53.7798 64.157 48.2978 65.792 48.8928C67.426 49.4878 66.579 55.9348 63.9 63.2928Z" fill="#407BFF"/>
<path d="M59.946 61.8527C59.769 62.3397 59.601 62.8227 59.439 63.2997C60.061 64.1967 61.23 65.1927 62.765 66.1787C63.153 65.2567 63.534 64.2937 63.899 63.2917C64.264 62.2897 64.591 61.3077 64.886 60.3517C63.076 60.1197 61.54 60.1307 60.487 60.4177C60.305 60.8877 60.123 61.3657 59.946 61.8527Z" fill="#263238"/>
<path opacity="0.7" d="M59.946 61.8527C59.769 62.3397 59.601 62.8227 59.439 63.2997C60.061 64.1967 61.23 65.1927 62.765 66.1787C63.153 65.2567 63.534 64.2937 63.899 63.2917C64.264 62.2897 64.591 61.3077 64.886 60.3517C63.076 60.1197 61.54 60.1307 60.487 60.4177C60.305 60.8877 60.123 61.3657 59.946 61.8527Z" fill="white"/>
<path opacity="0.2" d="M104.524 96.6711C104.984 103.32 103.427 107.278 102.333 109.189L103.598 110.6C103.598 110.6 109.473 105.3 112.232 100.876C109.13 96.2821 104.04 89.6841 104.524 96.6711Z" fill="black"/>
<path d="M139.478 58.846C143.647 58.846 147.026 55.4667 147.026 51.298C147.026 47.1294 143.647 43.75 139.478 43.75C135.309 43.75 131.93 47.1294 131.93 51.298C131.93 55.4667 135.309 58.846 139.478 58.846Z" fill="#263238"/>
<path d="M138.665 54.742C138.665 57.36 136.543 59.483 133.924 59.483C131.306 59.483 129.183 57.361 129.183 54.742C129.183 52.124 131.305 50.001 133.924 50.001C136.543 50.001 138.665 52.124 138.665 54.742Z" fill="#407BFF"/>
<path d="M118.842 48.8488C118.842 48.8488 108.808 48.0298 108.826 65.2308C108.839 77.0098 114.548 82.4608 121.561 78.4998C121.561 78.4998 137.025 77.2308 138.804 63.0838C140.583 48.9368 129.652 43.6628 118.842 48.8488Z" fill="#263238"/>
<path d="M105.097 90.1569C105.097 90.1569 101.554 91.7019 112.093 135.953C124.392 135.059 137.103 134.135 143.088 133.7C141.651 121.123 141.071 113.345 145.218 87.0179C145.218 87.0179 138.621 86.0769 131.93 86.2409C126.696 86.3689 122.41 86.5129 117.856 87.2649C111.85 88.2559 105.097 90.1569 105.097 90.1569Z" fill="#3030E8"/>
<path d="M129.383 70.4951C128.824 75.0881 128.542 83.4501 131.93 86.2411C131.93 86.2411 131.026 90.9251 122.611 91.5371C113.358 92.2101 117.855 87.2651 117.855 87.2651C122.817 85.6921 122.414 81.9551 121.279 78.5001L129.383 70.4951Z" fill="#B55B52"/>
<path opacity="0.2" d="M126.079 73.7612L121.282 78.4962C121.554 79.3132 121.779 80.1462 121.898 80.9632C123.807 80.5442 126.303 78.2342 126.361 76.1992C126.39 75.1832 126.277 74.2182 126.079 73.7612Z" fill="black"/>
<path d="M134.561 62.8498C132.827 70.2428 132.25 73.4098 127.822 76.6008C121.161 81.4008 112.459 77.6528 111.95 69.8908C111.491 62.9038 114.405 51.9868 122.226 50.2618C129.931 48.5628 136.295 55.4568 134.561 62.8498Z" fill="#B55B52"/>
<path d="M121.815 62.7998C121.711 63.4078 121.305 63.8458 120.907 63.7788C120.509 63.7108 120.271 63.1628 120.375 62.5548C120.479 61.9468 120.885 61.5078 121.283 61.5758C121.681 61.6438 121.919 62.1918 121.815 62.7998Z" fill="#263238"/>
<path d="M114.938 61.626C114.834 62.234 114.428 62.672 114.03 62.605C113.632 62.537 113.394 61.989 113.498 61.38C113.602 60.772 114.008 60.333 114.406 60.401C114.804 60.469 115.042 61.018 114.938 61.626Z" fill="#263238"/>
<path d="M114.576 60.4649L113.187 59.7939C113.187 59.7939 113.742 61.0639 114.576 60.4649Z" fill="#263238"/>
<path d="M117.362 63.084C117.362 63.084 115.882 65.527 114.53 66.597C115.205 67.484 116.629 67.374 116.629 67.374L117.362 63.084Z" fill="#A02724"/>
<path d="M135.415 70.0468C134.635 71.4138 133.296 72.2938 132.043 72.6148C130.158 73.0978 129.257 71.4008 129.816 69.6438C130.319 68.0618 131.907 65.9048 133.782 66.2008C135.63 66.4928 136.308 68.4838 135.415 70.0468Z" fill="#B55B52"/>
<path d="M124.814 61.8711C124.661 61.8691 124.521 61.7691 124.474 61.6151C123.98 60.0121 121.932 59.3271 121.912 59.3211C121.722 59.2591 121.618 59.0541 121.68 58.8641C121.742 58.6741 121.945 58.5691 122.137 58.6321C122.236 58.6641 124.564 59.4441 125.167 61.4021C125.226 61.5931 125.119 61.7961 124.927 61.8551C124.889 61.8661 124.851 61.8711 124.814 61.8711Z" fill="#263238"/>
<path d="M113.414 58.0968C113.29 58.0948 113.171 58.0298 113.105 57.9148C113.006 57.7408 113.066 57.5198 113.24 57.4198C114.979 56.4238 116.479 57.1678 116.541 57.1998C116.719 57.2908 116.79 57.5098 116.699 57.6878C116.609 57.8648 116.391 57.9358 116.213 57.8458C116.164 57.8208 114.99 57.2528 113.601 58.0478C113.542 58.0818 113.477 58.0978 113.414 58.0968Z" fill="#263238"/>
<path d="M121.453 61.6388L120.064 60.9678C120.064 60.9678 120.618 62.2378 121.453 61.6388Z" fill="#263238"/>
<path d="M117.234 69.259C117.234 69.259 119.245 68.693 124.955 68.417C124.369 70.166 123.188 71.627 120.262 71.741C117.337 71.854 117.234 69.259 117.234 69.259Z" fill="#263238"/>
<path d="M121.553 70.326C120.141 70.381 119.137 70.7519 118.407 71.3099C118.837 71.5919 119.441 71.77 120.259 71.738C121.671 71.683 122.669 71.321 123.398 70.755C122.968 70.473 122.371 70.294 121.553 70.326Z" fill="#A02724"/>
<path d="M117.491 69.1967C117.671 69.5547 117.849 69.9137 118.427 70.0047C119.621 70.0287 122.649 69.5427 123.459 69.3327C123.979 69.2217 124.417 69.0217 124.708 68.4277C120.312 68.6517 118.178 69.0457 117.491 69.1967Z" fill="white"/>
<path d="M113.24 57.42C113.24 57.42 117.079 55.863 118.977 52.926C118.977 52.926 119.012 58.248 121.15 57.84C123.288 57.432 120.064 52.9211 120.064 52.9211C120.064 52.9211 125.075 55.138 126.773 59.483C128.471 63.828 130.428 68.5571 134.283 67.3781C138.138 66.2001 137.287 53.901 131.605 50.831L123.566 49.394L121.21 49.735C120 49.91 118.838 50.331 117.795 50.971C116.214 51.942 114.973 53.378 114.241 55.083L113.24 57.42Z" fill="#263238"/>
<path d="M131.914 58.0641C131.545 57.2841 129.772 57.3481 127.955 58.2071C126.137 59.0671 126.062 59.8761 126.431 60.6571C126.8 61.4371 127.474 61.8931 129.291 61.0331C131.108 60.1741 132.283 58.8441 131.914 58.0641ZM127.625 60.0921C127.361 59.5341 127.415 58.9551 128.714 58.3411C130.013 57.7271 131.28 57.6811 131.543 58.2391C131.807 58.7971 130.967 59.7471 129.669 60.3611C128.37 60.9751 127.889 60.6501 127.625 60.0921Z" fill="#407BFF"/>
<path opacity="0.2" d="M141.799 97.2841L139.448 95.2642L137.706 96.0482C137.706 96.0482 136.298 104.693 142.136 113.497C142.29 110.17 142.603 106.418 143.127 101.937C142.396 99.2551 141.799 97.2841 141.799 97.2841Z" fill="black"/>
<path d="M173.481 121.648L172.215 121.781L171.613 116.046C171.203 112.144 174.019 108.47 177.889 107.857C179.777 107.558 181.632 108.019 183.114 109.156C184.598 110.295 185.525 111.972 185.726 113.879L186.329 119.613L185.063 119.746L184.46 114.012C184.297 112.456 183.543 111.09 182.339 110.167C181.138 109.245 179.628 108.872 178.089 109.115C174.876 109.624 172.54 112.674 172.88 115.914L173.481 121.648Z" fill="#263238"/>
<path d="M149.914 95.957C150.085 96.818 150.333 97.881 150.559 98.853C150.797 99.846 151.058 100.838 151.338 101.822C151.898 103.79 152.486 105.748 153.197 107.639C154.62 111.407 156.334 115.039 158.587 117.942L158.799 118.212L158.904 118.347C158.879 118.317 158.827 118.265 158.783 118.232C158.608 118.075 158.375 117.969 158.235 117.922C157.932 117.835 157.942 117.919 158.139 117.918C158.544 117.944 159.388 117.766 160.213 117.481C161.907 116.889 163.77 116.003 165.573 115.013C169.205 113.038 172.872 110.732 176.427 108.416L179.192 111.68C176.055 114.908 172.767 117.848 169.068 120.543C167.194 121.863 165.278 123.161 162.949 124.224C161.762 124.744 160.519 125.262 158.753 125.484C157.872 125.573 156.768 125.591 155.446 125.119C154.793 124.887 154.098 124.477 153.519 123.96C153.379 123.832 153.229 123.685 153.108 123.559L152.948 123.385L152.629 123.037C150.926 121.176 149.53 119.162 148.334 117.093C147.119 115.03 146.12 112.899 145.246 110.743C144.376 108.586 143.599 106.413 142.967 104.202C142.654 103.096 142.365 101.985 142.099 100.864C141.826 99.722 141.607 98.662 141.399 97.383L149.914 95.957Z" fill="#B55B52"/>
<path d="M145.217 87.0183C148.391 87.7373 153.943 99.2032 153.943 99.2032L141.477 107.648C141.477 107.648 136.435 99.0412 137.448 94.9332C138.503 90.6532 141.595 86.1983 145.217 87.0183Z" fill="#3030E8"/>
<path d="M175.9 108.444L183.138 104.451L181.621 112.083C181.621 112.083 176.937 113.568 174.658 111.349L175.9 108.444Z" fill="#B55B52"/>
<path d="M189.489 105.475L187.874 111.796L181.621 112.083L183.138 104.451L189.489 105.475Z" fill="#B55B52"/>
<path d="M192.532 118.631L191.333 112.991C190.657 109.804 187.492 107.625 184.278 108.134C182.738 108.378 181.418 109.199 180.561 110.448C179.701 111.699 179.407 113.23 179.733 114.761L180.932 120.401L179.687 120.666L178.488 115.026C178.09 113.15 178.454 111.269 179.513 109.727C180.571 108.188 182.192 107.176 184.081 106.877C187.952 106.264 191.765 108.888 192.58 112.726L193.779 118.365L192.532 118.631Z" fill="#263238"/>
<g opacity="0.3">
<path d="M192.532 118.631L191.333 112.991C190.657 109.804 187.492 107.625 184.278 108.134C182.738 108.378 181.418 109.199 180.561 110.448C179.701 111.699 179.407 113.23 179.733 114.761L180.932 120.401L179.687 120.666L178.488 115.026C178.09 113.15 178.454 111.269 179.513 109.727C180.571 108.188 182.192 107.176 184.081 106.877C187.952 106.264 191.765 108.888 192.58 112.726L193.779 118.365L192.532 118.631Z" fill="white"/>
</g>
<path d="M199.986 114.858L162.899 120.732L168.611 164.928L173.912 162.8L179.611 163.186L208.211 158.656L199.986 114.858Z" fill="#407BFF"/>
<path opacity="0.6" d="M199.986 114.858L162.899 120.732L168.611 164.928L173.912 162.8L179.611 163.186L208.211 158.656L199.986 114.858Z" fill="white"/>
<path d="M179.611 163.186L173.912 162.8L168.611 164.928L162.899 120.732L171.385 119.388L179.611 163.186Z" fill="#407BFF"/>
<path opacity="0.3" d="M179.611 163.186L173.912 162.8L168.611 164.928L162.899 120.732L171.385 119.388L179.611 163.186Z" fill="white"/>
</svg>
