<svg width="388" height="345" viewBox="0 0 388 345" fill="none" xmlns="http://www.w3.org/2000/svg">
<path d="M279.807 2.64797C315.427 11.007 337.597 44.525 334.041 80.48C328.912 132.341 282.376 159.019 260.274 202.104C250.691 220.785 243.888 240.86 233.864 259.348C209.351 304.557 146.954 311.023 127.585 258.913C121.598 242.805 124.943 222.868 111.475 210.089C98.9931 198.247 81.0651 198.091 66.1651 191.166C51.1051 184.166 39.2231 170.229 34.0891 154.511C25.4761 128.146 36.9951 98.172 55.8491 79.063C77.6231 56.999 107.162 61.028 135.293 58.102C163.064 55.213 183.744 41.751 205.553 25.647C227.649 9.32897 251.453 -4.00503 279.807 2.64797Z" fill="#002DE5" fill-opacity="0.1"/>
<path d="M194 344.561C301.082 344.561 387.889 339.492 387.889 333.238C387.889 326.985 301.082 321.915 194 321.915C86.9182 321.915 0.111084 326.985 0.111084 333.238C0.111084 339.492 86.9182 344.561 194 344.561Z" fill="#000F4B"/>
<path d="M102.559 64.6113V69.9598H90.8022V78.7958H146.263V69.9598H118.532V64.6113H102.559Z" fill="#407BFF"/>
<path d="M310 69.9854H90.6753V77.7883H310V69.9854Z" fill="#407BFF"/>
<path d="M310 77.7883H90.6753V201.581H310V77.7883Z" fill="#407BFF"/>
<path opacity="0.4" d="M310 77.7883H90.6753V201.581H310V77.7883Z" fill="white"/>
<path d="M112.493 136.405H97.0044V139.362H112.493V136.405Z" fill="white"/>
<path opacity="0.4" d="M121.379 129.983H96.7603V135.048H121.379V129.983Z" fill="white"/>
<path d="M107.145 150.896H99.2998V153.854H107.145V150.896Z" fill="white"/>
<path d="M108.191 157.291H99.2998V160.248H108.191V157.291Z" fill="white"/>
<path d="M106.215 163.976H99.2998V166.933H106.215V163.976Z" fill="white"/>
<path d="M108.191 170.661H99.2998V173.619H108.191V170.661Z" fill="white"/>
<path d="M108.191 177.347H99.2998V180.304H108.191V177.347Z" fill="white"/>
<path d="M108.191 184.032H99.2998V186.99H108.191V184.032Z" fill="white"/>
<path d="M110.401 190.194H99.2998V193.152H110.401V190.194Z" fill="white"/>
<path d="M303.523 136.063H282.827V142.748H303.523V136.063Z" fill="white"/>
<path d="M303.523 155.062H240.97V163.612H303.523V155.062Z" fill="white"/>
<path d="M303.523 166.834H240.97V175.617H303.523V166.834Z" fill="white"/>
<path d="M303.523 178.493H240.97V188.054H303.523V178.493Z" fill="white"/>
<path opacity="0.7" d="M304.686 90.5781H136.561V129.412H304.686V90.5781Z" fill="white"/>
<path opacity="0.4" d="M157.121 80.5789H136.561V88.4853H157.121V80.5789Z" fill="white"/>
<path opacity="0.4" d="M118.248 71.0447H103.475V75.463H118.248V71.0447Z" fill="white"/>
<path d="M304.686 80.5789H157.121V88.4853H304.686V80.5789Z" fill="white"/>
<path d="M194.928 71.0447H118.248V75.463H194.928V71.0447Z" fill="white"/>
<path opacity="0.5" d="M156.443 135.407H139.003V140.755H156.443V135.407Z" fill="white"/>
<path d="M178.766 135.407H156.443V140.755H178.766V135.407Z" fill="white"/>
<path d="M203.88 135.407H178.766V140.755H203.88V135.407Z" fill="white"/>
<path opacity="0.3" d="M252.782 147.92H239.401V153.268H252.782V147.92Z" fill="white"/>
<path d="M144.317 137.001V139.382H143.875V138.361H142.644V139.382H142.201V137.001H142.644V137.984H143.875V137.001H144.317Z" fill="white"/>
<path d="M145.236 139.287C145.089 139.208 144.974 139.097 144.891 138.956C144.807 138.814 144.767 138.653 144.767 138.474C144.767 138.294 144.808 138.135 144.891 137.994C144.973 137.853 145.089 137.744 145.236 137.664C145.384 137.585 145.549 137.545 145.733 137.545C145.919 137.545 146.086 137.585 146.233 137.664C146.381 137.743 146.496 137.853 146.579 137.994C146.661 138.135 146.703 138.294 146.703 138.474C146.703 138.653 146.661 138.814 146.579 138.956C146.496 139.097 146.381 139.208 146.233 139.287C146.086 139.366 145.919 139.406 145.733 139.406C145.549 139.406 145.384 139.366 145.236 139.287ZM146.121 138.885C146.223 138.781 146.274 138.644 146.274 138.474C146.274 138.304 146.223 138.167 146.121 138.062C146.019 137.958 145.89 137.906 145.733 137.906C145.577 137.906 145.448 137.958 145.347 138.062C145.246 138.167 145.195 138.304 145.195 138.474C145.195 138.644 145.246 138.781 145.347 138.885C145.448 138.989 145.576 139.042 145.733 139.042C145.89 139.042 146.019 138.99 146.121 138.885Z" fill="white"/>
<path d="M149.949 137.744C150.083 137.877 150.149 138.076 150.149 138.342V139.383H149.724V138.397C149.724 138.238 149.689 138.118 149.619 138.038C149.548 137.957 149.447 137.917 149.316 137.917C149.173 137.917 149.058 137.964 148.972 138.058C148.886 138.152 148.843 138.287 148.843 138.461V139.383H148.418V138.397C148.418 138.238 148.382 138.118 148.312 138.038C148.242 137.957 148.141 137.917 148.009 137.917C147.864 137.917 147.749 137.963 147.664 138.056C147.579 138.149 147.537 138.284 147.537 138.461V139.383H147.111V137.566H147.516V137.797C147.584 137.716 147.669 137.653 147.771 137.61C147.873 137.567 147.986 137.546 148.112 137.546C148.248 137.546 148.368 137.571 148.474 137.622C148.579 137.673 148.663 137.749 148.724 137.848C148.799 137.753 148.895 137.679 149.014 137.626C149.132 137.572 149.262 137.546 149.405 137.546C149.633 137.545 149.815 137.611 149.949 137.744Z" fill="white"/>
<path d="M152.412 138.61H150.986C151.011 138.744 151.076 138.85 151.182 138.928C151.287 139.007 151.418 139.046 151.575 139.046C151.775 139.046 151.939 138.98 152.068 138.848L152.296 139.11C152.214 139.208 152.111 139.281 151.986 139.331C151.862 139.381 151.721 139.406 151.565 139.406C151.365 139.406 151.189 139.366 151.037 139.287C150.885 139.208 150.767 139.097 150.685 138.956C150.602 138.814 150.56 138.653 150.56 138.474C150.56 138.297 150.601 138.137 150.681 137.996C150.762 137.854 150.873 137.744 151.016 137.664C151.159 137.585 151.32 137.546 151.499 137.546C151.676 137.546 151.834 137.585 151.973 137.663C152.113 137.742 152.222 137.852 152.3 137.993C152.378 138.135 152.417 138.299 152.417 138.485C152.419 138.514 152.417 138.556 152.412 138.61ZM151.155 138.006C151.061 138.087 151.004 138.194 150.983 138.328H152.014C151.996 138.196 151.94 138.089 151.848 138.008C151.754 137.926 151.639 137.885 151.501 137.885C151.364 137.886 151.249 137.926 151.155 138.006Z" fill="white"/>
<path d="M140.147 146.985H139.034L138.815 147.5H138.389L139.391 145.275H139.798L140.803 147.5H140.37L140.147 146.985ZM140.01 146.661L139.591 145.688L139.174 146.661H140.01Z" fill="white"/>
<path d="M142.431 145.892C142.561 145.964 142.663 146.065 142.737 146.197C142.812 146.329 142.849 146.48 142.849 146.651C142.849 146.823 142.812 146.975 142.737 147.107C142.663 147.24 142.561 147.343 142.431 147.414C142.3 147.486 142.153 147.522 141.987 147.522C141.871 147.522 141.764 147.502 141.668 147.461C141.572 147.421 141.49 147.36 141.425 147.28V147.499H141.046V145.14H141.444V146.009C141.511 145.934 141.591 145.878 141.684 145.84C141.776 145.802 141.877 145.782 141.987 145.782C142.153 145.784 142.3 145.819 142.431 145.892ZM142.304 147.036C142.398 146.938 142.445 146.81 142.445 146.651C142.445 146.492 142.398 146.364 142.304 146.267C142.209 146.169 142.089 146.12 141.943 146.12C141.848 146.12 141.761 146.142 141.685 146.186C141.609 146.229 141.549 146.291 141.504 146.371C141.459 146.452 141.437 146.545 141.437 146.651C141.437 146.757 141.459 146.851 141.504 146.931C141.549 147.012 141.609 147.074 141.685 147.117C141.761 147.16 141.847 147.182 141.943 147.182C142.089 147.182 142.21 147.134 142.304 147.036Z" fill="white"/>
<path d="M143.527 147.411C143.389 147.337 143.281 147.233 143.204 147.101C143.127 146.969 143.088 146.819 143.088 146.651C143.088 146.484 143.127 146.334 143.204 146.203C143.281 146.071 143.389 145.968 143.527 145.894C143.665 145.82 143.819 145.783 143.99 145.783C144.164 145.783 144.32 145.82 144.458 145.894C144.596 145.968 144.703 146.071 144.781 146.203C144.858 146.334 144.897 146.483 144.897 146.651C144.897 146.819 144.858 146.969 144.781 147.101C144.703 147.233 144.596 147.337 144.458 147.411C144.321 147.485 144.165 147.522 143.99 147.522C143.818 147.523 143.664 147.486 143.527 147.411ZM144.353 147.036C144.448 146.938 144.496 146.81 144.496 146.651C144.496 146.492 144.448 146.364 144.353 146.267C144.257 146.169 144.137 146.12 143.99 146.12C143.844 146.12 143.724 146.169 143.629 146.267C143.535 146.364 143.488 146.492 143.488 146.651C143.488 146.81 143.535 146.938 143.629 147.036C143.724 147.133 143.844 147.182 143.99 147.182C144.137 147.182 144.257 147.133 144.353 147.036Z" fill="white"/>
<path d="M146.921 145.803V147.5H146.543V147.284C146.48 147.36 146.4 147.419 146.305 147.461C146.21 147.502 146.107 147.523 145.997 147.523C145.77 147.523 145.591 147.459 145.461 147.333C145.331 147.208 145.265 147.02 145.265 146.773V145.803H145.663V146.718C145.663 146.871 145.697 146.985 145.766 147.06C145.835 147.135 145.933 147.173 146.06 147.173C146.202 147.173 146.315 147.129 146.399 147.041C146.482 146.953 146.525 146.827 146.525 146.661V145.803H146.921Z" fill="white"/>
<path d="M148.463 147.408C148.416 147.446 148.359 147.475 148.293 147.494C148.226 147.513 148.155 147.523 148.081 147.523C147.895 147.523 147.75 147.474 147.649 147.376C147.547 147.278 147.496 147.137 147.496 146.95V146.133H147.216V145.816H147.496V145.428H147.893V145.816H148.348V146.133H147.893V146.941C147.893 147.023 147.914 147.086 147.954 147.13C147.994 147.173 148.052 147.195 148.129 147.195C148.217 147.195 148.292 147.172 148.351 147.125L148.463 147.408Z" fill="white"/>
<path d="M242.391 149.126C242.568 149.205 242.703 149.317 242.797 149.464C242.891 149.61 242.938 149.785 242.938 149.986C242.938 150.185 242.891 150.358 242.797 150.506C242.702 150.654 242.567 150.767 242.391 150.845C242.214 150.924 242.007 150.963 241.768 150.963H241.148V151.756H240.638V149.009H241.768C242.007 149.009 242.214 149.048 242.391 149.126ZM242.251 150.39C242.366 150.296 242.424 150.161 242.424 149.986C242.424 149.811 242.366 149.676 242.251 149.582C242.136 149.488 241.968 149.44 241.745 149.44H241.148V150.532H241.745C241.968 150.532 242.136 150.484 242.251 150.39Z" fill="white"/>
<path d="M243.763 151.646C243.593 151.555 243.46 151.427 243.364 151.264C243.268 151.1 243.221 150.915 243.221 150.709C243.221 150.502 243.269 150.318 243.364 150.155C243.459 149.993 243.592 149.867 243.763 149.775C243.933 149.683 244.124 149.637 244.336 149.637C244.551 149.637 244.743 149.683 244.913 149.775C245.083 149.866 245.216 149.993 245.312 150.155C245.407 150.318 245.455 150.502 245.455 150.709C245.455 150.916 245.407 151.101 245.312 151.264C245.216 151.427 245.083 151.555 244.913 151.646C244.743 151.738 244.551 151.784 244.336 151.784C244.124 151.784 243.933 151.738 243.763 151.646ZM244.783 151.183C244.901 151.062 244.96 150.905 244.96 150.709C244.96 150.512 244.901 150.354 244.783 150.234C244.666 150.114 244.516 150.053 244.335 150.053C244.155 150.053 244.006 150.113 243.89 150.234C243.774 150.354 243.715 150.512 243.715 150.709C243.715 150.905 243.773 151.063 243.89 151.183C244.006 151.303 244.155 151.364 244.335 151.364C244.516 151.364 244.666 151.304 244.783 151.183Z" fill="white"/>
<path d="M246.075 151.717C245.913 151.673 245.783 151.616 245.687 151.549L245.875 151.175C245.969 151.238 246.082 151.289 246.214 151.327C246.346 151.365 246.477 151.384 246.605 151.384C246.898 151.384 247.044 151.306 247.044 151.152C247.044 151.079 247.007 151.027 246.932 150.999C246.858 150.97 246.738 150.943 246.573 150.917C246.401 150.891 246.26 150.861 246.152 150.827C246.043 150.793 245.948 150.733 245.869 150.648C245.789 150.563 245.749 150.445 245.749 150.293C245.749 150.094 245.832 149.935 245.998 149.815C246.164 149.697 246.389 149.636 246.672 149.636C246.815 149.636 246.96 149.652 247.104 149.686C247.247 149.718 247.365 149.762 247.457 149.817L247.268 150.19C247.09 150.086 246.89 150.033 246.668 150.033C246.524 150.033 246.415 150.055 246.34 150.098C246.265 150.142 246.228 150.198 246.228 150.269C246.228 150.348 246.268 150.403 246.348 150.436C246.428 150.468 246.551 150.5 246.719 150.528C246.886 150.555 247.024 150.585 247.131 150.618C247.238 150.652 247.33 150.71 247.408 150.791C247.485 150.872 247.523 150.987 247.523 151.137C247.523 151.333 247.438 151.49 247.268 151.607C247.098 151.725 246.866 151.784 246.573 151.784C246.403 151.784 246.237 151.762 246.075 151.717Z" fill="white"/>
<path d="M249.207 151.642C249.15 151.69 249.079 151.725 248.997 151.749C248.915 151.772 248.828 151.784 248.736 151.784C248.505 151.784 248.328 151.724 248.202 151.603C248.076 151.482 248.014 151.307 248.014 151.076V150.068H247.668V149.675H248.014V149.196H248.504V149.675H249.066V150.068H248.504V151.065C248.504 151.167 248.529 151.244 248.579 151.298C248.629 151.352 248.701 151.379 248.795 151.379C248.905 151.379 248.996 151.35 249.07 151.292L249.207 151.642Z" fill="white"/>
<path d="M249.76 151.717C249.598 151.673 249.469 151.616 249.372 151.549L249.561 151.175C249.655 151.238 249.768 151.289 249.9 151.327C250.032 151.365 250.162 151.384 250.291 151.384C250.584 151.384 250.73 151.306 250.73 151.152C250.73 151.079 250.693 151.027 250.618 150.999C250.544 150.97 250.424 150.943 250.259 150.917C250.087 150.891 249.946 150.861 249.838 150.827C249.729 150.793 249.635 150.733 249.555 150.648C249.475 150.563 249.435 150.445 249.435 150.293C249.435 150.094 249.518 149.935 249.684 149.815C249.851 149.697 250.075 149.636 250.358 149.636C250.502 149.636 250.646 149.652 250.79 149.686C250.933 149.718 251.052 149.762 251.143 149.817L250.955 150.19C250.776 150.086 250.576 150.033 250.354 150.033C250.21 150.033 250.101 150.055 250.026 150.098C249.952 150.142 249.914 150.198 249.914 150.269C249.914 150.348 249.954 150.403 250.034 150.436C250.114 150.468 250.238 150.5 250.405 150.528C250.572 150.555 250.71 150.585 250.817 150.618C250.924 150.652 251.016 150.71 251.094 150.791C251.171 150.872 251.209 150.987 251.209 151.137C251.209 151.333 251.124 151.49 250.954 151.607C250.784 151.725 250.552 151.784 250.259 151.784C250.09 151.784 249.923 151.762 249.76 151.717Z" fill="white"/>
<path d="M99.1197 148.22V148.78H96.4211V145.182H99.0475V145.743H97.0894V146.678H98.8271V147.228H97.0894V148.22H99.1197Z" fill="white"/>
<path d="M102.338 146.036L101.161 148.78H100.498L99.3203 146.036H99.9886L100.842 148.071L101.72 146.036H102.338Z" fill="white"/>
<path d="M105.231 147.614H103.077C103.115 147.816 103.213 147.976 103.372 148.094C103.532 148.212 103.73 148.272 103.966 148.272C104.267 148.272 104.516 148.173 104.711 147.974L105.055 148.37C104.932 148.517 104.776 148.628 104.588 148.704C104.399 148.779 104.186 148.817 103.951 148.817C103.649 148.817 103.383 148.757 103.154 148.637C102.925 148.517 102.747 148.35 102.622 148.136C102.497 147.922 102.435 147.679 102.435 147.408C102.435 147.141 102.495 146.9 102.617 146.686C102.738 146.472 102.907 146.305 103.123 146.185C103.339 146.065 103.582 146.006 103.853 146.006C104.121 146.006 104.359 146.065 104.57 146.183C104.781 146.302 104.945 146.468 105.064 146.682C105.182 146.896 105.241 147.144 105.241 147.424C105.241 147.468 105.238 147.531 105.231 147.614ZM103.332 146.702C103.19 146.824 103.103 146.985 103.073 147.187H104.63C104.603 146.988 104.519 146.827 104.379 146.704C104.238 146.581 104.063 146.519 103.854 146.519C103.648 146.519 103.474 146.58 103.332 146.702Z" fill="white"/>
<path d="M108.248 146.308C108.457 146.511 108.562 146.81 108.562 147.208V148.78H107.919V147.29C107.919 147.05 107.863 146.87 107.749 146.748C107.636 146.626 107.475 146.566 107.266 146.566C107.03 146.566 106.843 146.636 106.706 146.779C106.569 146.921 106.5 147.126 106.5 147.393V148.78H105.858V146.036H106.469V146.391C106.575 146.263 106.709 146.168 106.87 146.102C107.031 146.037 107.212 146.005 107.415 146.005C107.761 146.005 108.039 146.106 108.248 146.308Z" fill="white"/>
<path d="M111.029 148.631C110.954 148.693 110.862 148.739 110.754 148.77C110.646 148.8 110.532 148.816 110.412 148.816C110.11 148.816 109.877 148.737 109.713 148.579C109.548 148.422 109.466 148.192 109.466 147.891V146.569H109.014V146.056H109.466V145.428H110.109V146.056H110.844V146.569H110.109V147.875C110.109 148.009 110.142 148.111 110.207 148.181C110.272 148.252 110.366 148.287 110.49 148.287C110.634 148.287 110.754 148.249 110.85 148.174L111.029 148.631Z" fill="white"/>
<path d="M111.754 148.729C111.541 148.671 111.372 148.597 111.244 148.508L111.491 148.02C111.614 148.102 111.762 148.168 111.936 148.218C112.109 148.268 112.279 148.292 112.447 148.292C112.831 148.292 113.022 148.192 113.022 147.989C113.022 147.893 112.974 147.826 112.876 147.788C112.778 147.751 112.622 147.715 112.406 147.68C112.18 147.646 111.996 147.607 111.853 147.562C111.711 147.518 111.588 147.44 111.483 147.328C111.379 147.217 111.327 147.062 111.327 146.863C111.327 146.603 111.435 146.395 111.653 146.239C111.871 146.083 112.165 146.005 112.535 146.005C112.723 146.005 112.912 146.026 113.1 146.069C113.289 146.112 113.443 146.17 113.563 146.241L113.316 146.73C113.083 146.592 112.821 146.524 112.53 146.524C112.341 146.524 112.198 146.552 112.1 146.609C112.003 146.665 111.954 146.74 111.954 146.833C111.954 146.936 112.007 147.008 112.111 147.051C112.215 147.094 112.377 147.134 112.596 147.172C112.815 147.206 112.995 147.245 113.136 147.29C113.277 147.335 113.397 147.41 113.498 147.516C113.599 147.622 113.65 147.773 113.65 147.969C113.65 148.225 113.539 148.431 113.316 148.585C113.093 148.739 112.79 148.816 112.406 148.816C112.184 148.816 111.966 148.788 111.754 148.729Z" fill="white"/>
<path d="M292.596 74.9447L292.594 73.8874L292.07 74.762H291.938L291.414 73.9009V74.9441H291.131V73.3489H291.375L292.008 74.4062L292.631 73.3489H292.875L292.877 74.9441L292.596 74.9447Z" fill="white"/>
<path d="M294.156 73.8429C294.25 73.9285 294.298 74.0582 294.298 74.2313V74.9443H294.029V74.7961C293.994 74.8491 293.944 74.89 293.88 74.9181C293.815 74.9462 293.737 74.9603 293.646 74.9603C293.555 74.9603 293.475 74.9449 293.406 74.9136C293.338 74.8823 293.285 74.8395 293.248 74.784C293.211 74.7284 293.192 74.6658 293.192 74.5961C293.192 74.4869 293.233 74.3987 293.314 74.3329C293.396 74.2671 293.524 74.2339 293.698 74.2339H294.013V74.216C294.013 74.131 293.987 74.0659 293.936 74.0199C293.886 73.9745 293.81 73.9515 293.709 73.9515C293.641 73.9515 293.574 73.9624 293.507 73.9835C293.442 74.0045 293.385 74.0346 293.34 74.0723L293.228 73.8646C293.292 73.8161 293.369 73.779 293.458 73.7528C293.548 73.7273 293.643 73.7139 293.743 73.7139C293.924 73.7145 294.061 73.7573 294.156 73.8429ZM293.896 74.7041C293.951 74.6715 293.99 74.6249 294.013 74.5642V74.423H293.719C293.555 74.423 293.473 74.4773 293.473 74.5846C293.473 74.6364 293.494 74.6773 293.535 74.7073C293.576 74.738 293.633 74.7527 293.705 74.7527C293.778 74.7533 293.841 74.7373 293.896 74.7041Z" fill="white"/>
<path d="M295.722 73.8486C295.815 73.938 295.861 74.0709 295.861 74.2472V74.9442H295.577V74.2836C295.577 74.1769 295.552 74.0971 295.501 74.0434C295.451 73.9898 295.38 73.9623 295.287 73.9623C295.182 73.9623 295.099 73.9936 295.039 74.0568C294.978 74.1201 294.947 74.2108 294.947 74.329V74.9442H294.662V73.7272H294.934V73.8844C294.981 73.8281 295.04 73.7853 295.111 73.7566C295.183 73.7278 295.264 73.7131 295.353 73.7131C295.507 73.7144 295.63 73.7591 295.722 73.8486Z" fill="white"/>
<path d="M297.099 73.8429C297.195 73.9285 297.242 74.0582 297.242 74.2313V74.9443H296.973V74.7961C296.938 74.8491 296.888 74.89 296.823 74.9181C296.759 74.9462 296.681 74.9603 296.59 74.9603C296.499 74.9603 296.419 74.9449 296.351 74.9136C296.282 74.8823 296.23 74.8395 296.192 74.784C296.155 74.7284 296.137 74.6658 296.137 74.5961C296.137 74.4869 296.178 74.3987 296.259 74.3329C296.34 74.2671 296.468 74.2339 296.643 74.2339H296.957V74.216C296.957 74.131 296.931 74.0659 296.88 74.0199C296.829 73.9745 296.754 73.9515 296.654 73.9515C296.585 73.9515 296.518 73.9624 296.452 73.9835C296.385 74.0045 296.33 74.0346 296.284 74.0723L296.172 73.8646C296.236 73.8161 296.313 73.779 296.402 73.7528C296.492 73.7273 296.587 73.7139 296.687 73.7139C296.868 73.7145 297.005 73.7573 297.099 73.8429ZM296.84 74.7041C296.896 74.6715 296.935 74.6249 296.958 74.5642V74.423H296.664C296.5 74.423 296.418 74.4773 296.418 74.5846C296.418 74.6364 296.438 74.6773 296.48 74.7073C296.521 74.738 296.578 74.7527 296.651 74.7527C296.721 74.7533 296.785 74.7373 296.84 74.7041Z" fill="white"/>
<path d="M298.826 73.7279V74.7603C298.826 75.1889 298.607 75.4029 298.17 75.4029C298.053 75.4029 297.941 75.3882 297.837 75.3589C297.732 75.3288 297.645 75.286 297.577 75.2298L297.704 75.0158C297.757 75.0599 297.825 75.095 297.906 75.1218C297.987 75.1487 298.07 75.1621 298.154 75.1621C298.287 75.1621 298.385 75.1314 298.447 75.0707C298.51 75.01 298.541 74.9174 298.541 74.7928V74.7289C298.492 74.782 298.433 74.8222 298.363 74.8497C298.293 74.8772 298.216 74.8906 298.133 74.8906C298.018 74.8906 297.913 74.8657 297.82 74.8165C297.727 74.7673 297.653 74.6976 297.599 74.6082C297.545 74.5188 297.519 74.4159 297.519 74.3009C297.519 74.1853 297.545 74.0831 297.599 73.9943C297.653 73.9055 297.727 73.8365 297.82 73.7879C297.913 73.7394 298.018 73.7151 298.133 73.7151C298.221 73.7151 298.301 73.7298 298.373 73.7585C298.446 73.7873 298.506 73.8314 298.555 73.8908V73.7291H298.826V73.7279ZM298.442 74.5513C298.511 74.4868 298.545 74.4031 298.545 74.2996C298.545 74.1981 298.511 74.115 298.442 74.0511C298.373 73.9872 298.284 73.9553 298.177 73.9553C298.067 73.9553 297.978 73.9872 297.909 74.0511C297.84 74.115 297.805 74.1974 297.805 74.2996C297.805 74.4031 297.84 74.4868 297.909 74.5513C297.978 74.6159 298.067 74.6485 298.177 74.6485C298.284 74.6485 298.373 74.6165 298.442 74.5513Z" fill="white"/>
<path d="M300.339 74.4274H299.384C299.401 74.5168 299.444 74.5877 299.515 74.6401C299.586 74.6925 299.673 74.7187 299.778 74.7187C299.912 74.7187 300.022 74.6746 300.109 74.5865L300.261 74.7615C300.206 74.8267 300.137 74.8759 300.054 74.9097C299.97 74.9429 299.876 74.9602 299.771 74.9602C299.638 74.9602 299.52 74.9334 299.418 74.8803C299.316 74.8273 299.238 74.7532 299.182 74.658C299.127 74.5635 299.099 74.4555 299.099 74.3354C299.099 74.2172 299.126 74.1099 299.18 74.0153C299.235 73.9208 299.309 73.8467 299.405 73.793C299.501 73.74 299.608 73.7131 299.728 73.7131C299.847 73.7131 299.953 73.7393 300.047 73.7917C300.14 73.8441 300.213 73.9176 300.265 74.0128C300.317 74.1079 300.344 74.2178 300.344 74.3418C300.343 74.3629 300.342 74.391 300.339 74.4274ZM299.497 74.023C299.434 74.0773 299.396 74.1488 299.382 74.2383H300.073C300.061 74.1501 300.024 74.0786 299.961 74.0243C299.898 73.9693 299.821 73.9425 299.728 73.9425C299.637 73.9418 299.56 73.9693 299.497 74.023Z" fill="white"/>
<path d="M301.596 73.6H301.068V73.3496H302.422V73.6H301.893V74.9442H301.596V73.6Z" fill="white"/>
<path d="M303.429 73.8429C303.524 73.9285 303.572 74.0582 303.572 74.2313V74.9443H303.303V74.7961C303.268 74.8491 303.218 74.89 303.153 74.9181C303.089 74.9462 303.011 74.9603 302.919 74.9603C302.828 74.9603 302.749 74.9449 302.68 74.9136C302.611 74.8823 302.558 74.8395 302.521 74.784C302.484 74.7284 302.466 74.6658 302.466 74.5961C302.466 74.4869 302.506 74.3987 302.588 74.3329C302.669 74.2671 302.797 74.2339 302.972 74.2339H303.286V74.216C303.286 74.131 303.261 74.0659 303.209 74.0199C303.158 73.9745 303.083 73.9515 302.983 73.9515C302.914 73.9515 302.847 73.9624 302.781 73.9835C302.715 74.0045 302.659 74.0346 302.613 74.0723L302.502 73.8646C302.565 73.8161 302.642 73.779 302.732 73.7528C302.821 73.7273 302.916 73.7139 303.017 73.7139C303.197 73.7145 303.335 73.7573 303.429 73.8429ZM303.17 74.7041C303.225 74.6715 303.264 74.6249 303.287 74.5642V74.423H302.994C302.829 74.423 302.748 74.4773 302.748 74.5846C302.748 74.6364 302.768 74.6773 302.809 74.7073C302.85 74.738 302.907 74.7527 302.979 74.7527C303.051 74.7533 303.114 74.7373 303.17 74.7041Z" fill="white"/>
<path d="M304.929 73.7918C305.022 73.8436 305.095 73.9164 305.148 74.0103C305.201 74.1042 305.228 74.2128 305.228 74.3361C305.228 74.4594 305.201 74.568 305.148 74.6632C305.095 74.7584 305.022 74.8312 304.929 74.883C304.835 74.9347 304.729 74.9603 304.61 74.9603C304.527 74.9603 304.451 74.9456 304.382 74.9168C304.313 74.8881 304.255 74.8447 304.207 74.7872V74.9443H303.936V73.2539H304.221V73.8762C304.269 73.8231 304.327 73.7829 304.393 73.7554C304.459 73.7279 304.532 73.7145 304.61 73.7145C304.729 73.7145 304.835 73.7401 304.929 73.7918ZM304.838 74.6121C304.906 74.5425 304.939 74.4505 304.939 74.3361C304.939 74.2224 304.906 74.1304 304.838 74.0601C304.77 73.9905 304.684 73.9554 304.579 73.9554C304.511 73.9554 304.449 73.9707 304.394 74.002C304.34 74.0333 304.296 74.0774 304.264 74.1355C304.232 74.193 304.216 74.2601 304.216 74.3361C304.216 74.4122 304.232 74.4786 304.264 74.5367C304.296 74.5942 304.34 74.6389 304.394 74.6702C304.449 74.7015 304.511 74.7169 304.579 74.7169C304.684 74.7169 304.77 74.6817 304.838 74.6121Z" fill="white"/>
<path d="M305.586 74.9219C305.492 74.8963 305.417 74.8637 305.361 74.8241L305.47 74.6076C305.525 74.644 305.59 74.6734 305.667 74.6951C305.744 74.7168 305.819 74.7283 305.894 74.7283C306.064 74.7283 306.149 74.6836 306.149 74.5942C306.149 74.552 306.127 74.522 306.084 74.5054C306.04 74.4887 305.971 74.4728 305.876 74.4574C305.775 74.4421 305.694 74.4249 305.631 74.405C305.568 74.3852 305.513 74.3507 305.467 74.3016C305.421 74.2524 305.397 74.1834 305.397 74.0952C305.397 73.9796 305.446 73.8876 305.542 73.8186C305.638 73.7496 305.769 73.7151 305.933 73.7151C306.017 73.7151 306.1 73.7247 306.183 73.7438C306.267 73.763 306.335 73.7879 306.388 73.8199L306.279 74.0364C306.176 73.9757 306.06 73.9451 305.93 73.9451C305.847 73.9451 305.784 73.9579 305.74 73.9828C305.697 74.0077 305.675 74.0409 305.675 74.0818C305.675 74.1271 305.698 74.1597 305.745 74.1783C305.791 74.1974 305.863 74.2153 305.96 74.2319C306.057 74.2473 306.137 74.2645 306.199 74.2843C306.261 74.3041 306.314 74.3373 306.36 74.3846C306.404 74.4319 306.427 74.4983 306.427 74.5852C306.427 74.6989 306.378 74.7903 306.279 74.8586C306.18 74.927 306.045 74.9615 305.876 74.9615C305.777 74.9609 305.681 74.9474 305.586 74.9219Z" fill="white"/>
<path d="M96.983 117.797H134.245V80.5355H96.983V117.797Z" fill="white"/>
<path d="M111.395 90.4722L114.615 91.7422L115.551 97.124C114.297 104.197 113.039 111.075 111.673 112.123C110.578 113.389 108.127 116.42 102.894 117.215C103.847 115.251 102.217 110.627 102.217 107.222C102.217 103.816 105.955 102.546 106.406 99.8059C106.859 97.0658 106.668 93.9265 107.277 92.1064C107.886 90.2856 111.395 90.4722 111.395 90.4722Z" fill="#263238"/>
<path d="M114.615 91.7424C114.615 91.7424 116.022 92.6329 115.953 94.4518C115.884 96.2706 115.6 98.0319 115.763 99.1403C115.955 100.447 115.134 102.314 115.134 102.314C115.134 102.314 114.973 100.923 114.806 100.567C114.806 100.567 114.803 101.04 114.168 101.213C113.533 101.386 108.453 101.511 107.312 100.567C106.172 99.6233 108.557 91.9845 109.87 91.5354C111.184 91.0856 114.615 91.7424 114.615 91.7424Z" fill="#263238"/>
<path d="M131.228 100.645L125.406 102.49L126.075 104.332L131.8 102.016C131.8 102.016 132.3 102.252 132.497 102.328C132.693 102.405 133.533 102.006 133.533 102.006V98.5813L131.228 100.645Z" fill="#E4897B"/>
<path d="M130.032 103.273C130.032 103.273 123.909 105.687 115.224 106.666C114.972 106.695 114.717 106.721 114.46 106.747C113.97 106.794 113.473 106.834 112.969 106.869L112.673 106.252L112.248 105.36L111.811 102.112C111.811 102.112 121.57 103.45 129.578 100.819L130.032 103.273Z" fill="#407BFF"/>
<path opacity="0.3" d="M130.032 103.273C130.032 103.273 123.909 105.687 115.224 106.666C114.972 106.695 113.473 106.834 112.969 106.869L112.673 106.252L112.248 105.36L111.811 102.112C111.811 102.112 121.57 103.45 129.578 100.819L130.032 103.273Z" fill="black"/>
<path d="M128.522 100.498L129.611 104.221L130.416 103.636L129.562 100.494L128.522 100.498Z" fill="#407BFF"/>
<path opacity="0.2" d="M119.401 106.063C118.911 106.109 118.298 106.239 117.794 106.274L117.499 105.657L117.792 103.199C117.792 103.199 119.169 104.132 119.401 106.063Z" fill="black"/>
<path d="M102.656 103.751L103.224 99.3416C103.224 99.3416 103.824 98.7468 103.824 98.3622C103.824 97.9776 103.134 95.7749 102.835 95.6701C102.535 95.5653 100.916 96.3345 100.886 96.8239C100.856 97.3132 101.725 99.1314 101.875 99.2713L100.719 104.454L102.656 103.751Z" fill="#E4897B"/>
<path d="M117.851 117.215H108.304C108.154 114.841 108.032 113.374 107.316 110.543C107.087 109.628 106.8 108.606 106.433 107.425C106.236 106.794 106.019 106.117 105.776 105.387C105.594 104.834 105.397 104.247 105.18 103.627C106.48 103.213 107.802 102.892 109.146 102.669C110.561 102.417 111.998 102.266 113.436 102.217C115.295 102.202 117.431 102.411 117.431 102.411C117.431 102.411 117.735 102.483 117.926 104.455C118.1 106.304 118.233 110.484 117.851 117.215Z" fill="#407BFF"/>
<path opacity="0.3" d="M117.851 117.215H108.304C108.276 116.871 107.996 113.235 107.316 110.543C107.087 109.628 106.8 108.606 106.433 107.425C106.236 106.794 106.019 106.117 105.776 105.387C105.594 104.834 105.397 104.247 105.18 103.627C106.48 103.213 107.802 102.892 109.146 102.669C110.561 102.417 111.998 102.266 113.436 102.217C115.295 102.202 117.431 102.411 117.431 102.411C117.431 102.411 117.735 102.483 117.926 104.455C118.1 106.304 118.233 110.484 117.851 117.215Z" fill="black"/>
<path d="M112.647 104.327C110.293 104.025 109.585 103.019 109.585 103.019C111.079 101.609 109.838 99.1665 109.838 99.1665L112.672 99.6955C112.598 100.164 112.566 100.557 112.562 100.889C112.54 102.609 113.318 102.626 113.318 102.626C113.816 103.559 112.647 104.327 112.647 104.327Z" fill="#E4897B"/>
<path opacity="0.2" d="M112.672 99.6955C112.597 100.164 112.566 100.557 112.562 100.889C110.647 100.889 109.838 99.1665 109.838 99.1665L112.672 99.6955Z" fill="black"/>
<path opacity="0.2" d="M107.316 110.543C107.087 109.628 106.8 108.606 106.433 107.425C106.537 107.179 106.662 106.953 106.807 106.765C106.807 106.765 108.057 108.568 107.316 110.543Z" fill="black"/>
<path d="M106.798 108.64C103.301 116.995 99.5865 115.788 99.1782 113.891C98.7905 112.097 100.478 103.75 100.478 103.75H103.084L102.464 109.366L102.365 110.261C102.365 110.261 102.443 110.038 102.574 109.67C103.164 108.015 104.832 103.461 105.205 103.686C107.319 104.961 106.798 108.64 106.798 108.64Z" fill="#407BFF"/>
<path opacity="0.3" d="M106.798 108.64C103.301 116.995 99.5865 115.788 99.1782 113.891C98.7905 112.097 100.478 103.75 100.478 103.75H103.084L102.464 109.366L102.365 110.261C102.365 110.261 102.443 110.038 102.574 109.67C103.164 108.015 104.832 103.461 105.205 103.686C107.319 104.961 106.798 108.64 106.798 108.64Z" fill="black"/>
<path opacity="0.2" d="M102.117 112.412C102.314 111.929 102.366 110.261 102.366 110.261C102.366 110.261 102.444 110.038 102.575 109.671C102.879 110.783 102.25 112.14 102.117 112.412Z" fill="black"/>
<path d="M100.527 102.979L100.14 104.04H103.373L103.186 103.143L100.527 102.979Z" fill="#407BFF"/>
<path d="M107.402 103.28C107.402 103.28 110.167 105.524 112.741 105.487C115.315 105.451 116.22 102.556 116.22 102.556C116.22 102.556 112.227 101.374 107.402 103.28Z" fill="#E4897B"/>
<path d="M112.811 92.2228C115.134 92.6195 115.67 93.9911 115.431 96.4143C115.134 99.4425 114.107 101.456 111.311 100.32C107.513 98.7787 108.952 91.5641 112.811 92.2228Z" fill="#E4897B"/>
<path d="M113.951 96.0278C113.951 96.0278 114.17 96.6897 114.463 97.1069C114.463 97.1069 114.21 97.3886 113.805 97.2653L113.951 96.0278Z" fill="#DE5753"/>
<path d="M112.562 95.5953C112.534 95.7869 112.407 95.9269 112.279 95.9083C112.151 95.8898 112.071 95.7192 112.099 95.5276C112.127 95.3359 112.254 95.196 112.381 95.2145C112.509 95.2331 112.59 95.4036 112.562 95.5953Z" fill="#263238"/>
<path d="M112.327 95.2157L112.767 95.1135C112.767 95.1135 112.509 95.4336 112.327 95.2157Z" fill="#263238"/>
<path d="M114.95 95.9046C114.922 96.0963 114.795 96.2362 114.667 96.2177C114.54 96.1991 114.459 96.0286 114.487 95.8369C114.515 95.6452 114.641 95.5053 114.769 95.5239C114.897 95.543 114.978 95.7136 114.95 95.9046Z" fill="#263238"/>
<path d="M114.715 95.5251L115.155 95.4229C115.155 95.4229 114.896 95.7435 114.715 95.5251Z" fill="#263238"/>
<path d="M111.745 94.2665C111.716 94.2665 111.689 94.255 111.669 94.232C111.633 94.1905 111.637 94.1272 111.679 94.0908C112.145 93.6832 112.813 93.8826 112.842 93.8915C112.895 93.9075 112.925 93.9637 112.909 94.0167C112.892 94.0691 112.837 94.0998 112.783 94.0832C112.778 94.0812 112.192 93.9087 111.811 94.2422C111.791 94.2582 111.768 94.2665 111.745 94.2665Z" fill="#263238"/>
<path d="M115.411 94.6263C115.386 94.6263 115.362 94.6173 115.342 94.5988C114.932 94.2116 114.552 94.2723 114.536 94.2755C114.481 94.287 114.43 94.2493 114.419 94.195C114.41 94.1407 114.445 94.089 114.499 94.0788C114.52 94.0749 114.991 93.9932 115.48 94.4531C115.52 94.4908 115.522 94.5547 115.484 94.595C115.464 94.616 115.438 94.6263 115.411 94.6263Z" fill="#263238"/>
<path d="M109.603 95.7053C109.603 95.7053 111.015 93.9817 111.103 92.4797C111.103 92.4797 116.027 91.3847 115.458 96.0969C115.458 96.0969 116.616 92.0236 112.638 91.2499C108.666 90.4769 108.184 98.0972 109.949 100.19C109.949 100.19 108.727 96.7843 109.603 95.7053Z" fill="#263238"/>
<path d="M109.899 96.2603C109.947 95.8833 109.669 95.1844 108.96 95.1416C108.227 95.0975 107.632 96.5171 109.362 97.1777C109.61 97.2728 109.798 97.0461 109.899 96.2603Z" fill="#E4897B"/>
<path d="M110.613 91.957C110.613 91.957 111.616 93.0476 112.711 93.4916C113.806 93.9356 115.902 94.3483 115.902 94.3483C115.468 96.4776 115.561 98.2402 116.586 99.3518C116.212 98.7353 116.816 93.9452 116.752 93.5325C116.602 92.5601 115.637 91.9366 114.519 91.1796C113.4 90.4219 111.745 90.5464 111.745 90.5464L110.613 91.957Z" fill="#263238"/>
<path d="M109.433 92.47V95.2024C109.18 96.1057 109.288 96.9356 109.711 97.7009C109.634 97.1668 109.748 95.9913 109.948 94.5258L110.861 92.7242L109.433 92.47Z" fill="#263238"/>
<path d="M113.551 97.7558C113.424 98.0605 113.31 98.6272 113.31 98.6272C113.257 98.6259 113.203 98.6253 113.15 98.6208C112.429 98.5876 112.105 98.334 111.965 98.0631C111.889 97.9143 111.87 97.759 111.87 97.6325C111.87 97.4862 111.902 97.3821 111.902 97.3821C112.274 97.628 112.944 97.7111 113.304 97.7398C113.455 97.7545 113.551 97.7558 113.551 97.7558Z" fill="#2E353A"/>
<path d="M113.305 97.7405L113.227 97.9954C112.548 97.9628 112.074 97.8485 111.871 97.6325C111.87 97.4862 111.903 97.3821 111.903 97.3821C112.275 97.6287 112.945 97.7117 113.305 97.7405Z" fill="white"/>
<path d="M113.15 98.6214C112.429 98.5882 112.105 98.3346 111.965 98.0637C112.21 98.0842 112.503 98.1366 112.758 98.2592C112.954 98.3512 113.073 98.4866 113.15 98.6214Z" fill="#DE5753"/>
<path d="M230.042 99.3516H138.495V102.354H230.042V99.3516Z" fill="white"/>
<path opacity="0.5" d="M230.042 148.618H138.495V182.845H230.042V148.618Z" fill="white"/>
<path d="M255.87 104.737H138.495V108.147H255.87V104.737Z" fill="white"/>
<path d="M285.938 110.542H138.495V113.593H285.938V110.542Z" fill="white"/>
<path d="M279 116.932H138.495V119.89H279V116.932Z" fill="white"/>
<path d="M296.346 122.668H138.495V125.55H296.346V122.668Z" fill="white"/>
<path d="M99.6614 131.471H100.089V133.773H99.6614V131.471Z" fill="white"/>
<path d="M102.2 132.191C102.334 132.32 102.401 132.512 102.401 132.767V133.773H101.99V132.82C101.99 132.667 101.954 132.551 101.881 132.473C101.809 132.395 101.706 132.356 101.572 132.356C101.421 132.356 101.301 132.401 101.214 132.493C101.126 132.583 101.082 132.714 101.082 132.886V133.774H100.671V132.018H101.062V132.245C101.13 132.164 101.216 132.102 101.319 132.061C101.421 132.019 101.538 131.998 101.667 131.998C101.888 131.997 102.066 132.062 102.2 132.191Z" fill="white"/>
<path d="M103.377 131.925V132.03H103.861V132.359H103.39V133.773H102.98V132.359H102.69V132.03H102.98V131.919C102.98 131.73 103.035 131.582 103.144 131.473C103.254 131.365 103.408 131.31 103.608 131.31C103.765 131.31 103.889 131.342 103.979 131.405L103.864 131.715C103.794 131.666 103.719 131.643 103.638 131.643C103.464 131.643 103.377 131.736 103.377 131.925Z" fill="white"/>
<path d="M104.42 133.681C104.277 133.605 104.166 133.498 104.086 133.36C104.006 133.224 103.966 133.069 103.966 132.895C103.966 132.722 104.006 132.568 104.086 132.432C104.166 132.296 104.277 132.189 104.42 132.113C104.562 132.036 104.722 131.998 104.899 131.998C105.079 131.998 105.241 132.036 105.383 132.113C105.526 132.189 105.637 132.296 105.717 132.432C105.796 132.568 105.837 132.722 105.837 132.895C105.837 133.069 105.796 133.224 105.717 133.36C105.637 133.497 105.526 133.605 105.383 133.681C105.241 133.758 105.08 133.796 104.899 133.796C104.722 133.796 104.561 133.758 104.42 133.681ZM105.274 133.293C105.373 133.192 105.423 133.06 105.423 132.895C105.423 132.731 105.373 132.598 105.274 132.497C105.176 132.396 105.051 132.346 104.899 132.346C104.748 132.346 104.623 132.396 104.526 132.497C104.429 132.598 104.38 132.731 104.38 132.895C104.38 133.059 104.429 133.192 104.526 133.293C104.624 133.394 104.748 133.444 104.899 133.444C105.051 133.444 105.175 133.394 105.274 133.293Z" fill="white"/>
<path d="M107.246 131.997V132.389C107.211 132.382 107.179 132.378 107.151 132.378C106.992 132.378 106.866 132.425 106.776 132.518C106.686 132.612 106.642 132.746 106.642 132.921V133.773H106.231V132.018H106.622V132.274C106.741 132.09 106.949 131.997 107.246 131.997Z" fill="white"/>
<path d="M110.337 132.19C110.466 132.318 110.531 132.511 110.531 132.767V133.773H110.121V132.82C110.121 132.667 110.087 132.551 110.018 132.473C109.951 132.395 109.853 132.356 109.726 132.356C109.588 132.356 109.477 132.401 109.393 132.493C109.31 132.583 109.268 132.714 109.268 132.882V133.774H108.857V132.821C108.857 132.667 108.824 132.552 108.755 132.474C108.687 132.396 108.59 132.357 108.463 132.357C108.322 132.357 108.211 132.401 108.129 132.491C108.046 132.582 108.005 132.712 108.005 132.882V133.774H107.594V132.018H107.986V132.242C108.052 132.162 108.134 132.102 108.233 132.061C108.332 132.019 108.441 131.998 108.562 131.998C108.693 131.998 108.81 132.023 108.912 132.072C109.014 132.122 109.095 132.194 109.153 132.291C109.225 132.199 109.319 132.127 109.433 132.076C109.547 132.024 109.673 131.998 109.811 131.998C110.032 131.997 110.208 132.062 110.337 132.19Z" fill="white"/>
<path d="M112.321 132.183C112.458 132.307 112.527 132.493 112.527 132.744V133.773H112.139V133.56C112.089 133.636 112.017 133.695 111.924 133.735C111.831 133.776 111.718 133.796 111.587 133.796C111.455 133.796 111.34 133.774 111.242 133.728C111.143 133.684 111.067 133.621 111.013 133.541C110.959 133.461 110.933 133.371 110.933 133.27C110.933 133.112 110.991 132.986 111.108 132.891C111.225 132.796 111.41 132.748 111.662 132.748H112.116V132.721C112.116 132.599 112.079 132.504 112.006 132.438C111.932 132.373 111.824 132.34 111.679 132.34C111.58 132.34 111.483 132.355 111.388 132.386C111.293 132.417 111.212 132.46 111.147 132.515L110.986 132.216C111.078 132.145 111.188 132.092 111.318 132.055C111.447 132.017 111.584 131.998 111.729 131.998C111.987 131.997 112.185 132.059 112.321 132.183ZM111.946 133.426C112.026 133.379 112.083 133.312 112.116 133.224V133.02H111.692C111.455 133.02 111.336 133.098 111.336 133.254C111.336 133.328 111.366 133.387 111.425 133.431C111.484 133.475 111.566 133.497 111.672 133.497C111.775 133.496 111.867 133.473 111.946 133.426Z" fill="white"/>
<path d="M114.108 133.677C114.06 133.717 114.002 133.746 113.933 133.766C113.864 133.786 113.791 133.796 113.713 133.796C113.521 133.796 113.372 133.745 113.266 133.644C113.161 133.543 113.108 133.396 113.108 133.203V132.358H112.819V132.029H113.108V131.629H113.519V132.03H113.989V132.359H113.519V133.194C113.519 133.28 113.54 133.345 113.582 133.39C113.623 133.435 113.684 133.457 113.763 133.457C113.855 133.457 113.931 133.433 113.993 133.385L114.108 133.677Z" fill="white"/>
<path d="M114.467 131.657C114.416 131.61 114.391 131.552 114.391 131.481C114.391 131.411 114.416 131.352 114.467 131.306C114.517 131.259 114.58 131.235 114.654 131.235C114.729 131.235 114.791 131.257 114.842 131.302C114.892 131.347 114.917 131.404 114.917 131.471C114.917 131.543 114.892 131.604 114.843 131.654C114.794 131.703 114.731 131.728 114.654 131.728C114.58 131.727 114.517 131.704 114.467 131.657ZM114.447 132.017H114.858V133.772H114.447V132.017Z" fill="white"/>
<path d="M115.707 133.681C115.564 133.605 115.453 133.498 115.373 133.36C115.293 133.224 115.253 133.069 115.253 132.895C115.253 132.722 115.293 132.568 115.373 132.432C115.453 132.296 115.564 132.189 115.707 132.113C115.849 132.036 116.01 131.998 116.187 131.998C116.366 131.998 116.527 132.036 116.67 132.113C116.813 132.189 116.924 132.296 117.004 132.432C117.083 132.568 117.124 132.722 117.124 132.895C117.124 133.069 117.083 133.224 117.004 133.36C116.924 133.497 116.813 133.605 116.67 133.681C116.528 133.758 116.367 133.796 116.187 133.796C116.009 133.796 115.849 133.758 115.707 133.681ZM116.562 133.293C116.66 133.192 116.709 133.06 116.709 132.895C116.709 132.731 116.66 132.598 116.562 132.497C116.463 132.396 116.338 132.346 116.187 132.346C116.035 132.346 115.911 132.396 115.813 132.497C115.716 132.598 115.667 132.731 115.667 132.895C115.667 133.059 115.716 133.192 115.813 133.293C115.911 133.394 116.035 133.444 116.187 133.444C116.338 133.444 116.463 133.394 116.562 133.293Z" fill="white"/>
<path d="M119.047 132.191C119.18 132.32 119.247 132.512 119.247 132.767V133.773H118.836V132.82C118.836 132.667 118.8 132.551 118.728 132.473C118.656 132.395 118.552 132.356 118.419 132.356C118.267 132.356 118.148 132.401 118.06 132.493C117.973 132.583 117.929 132.714 117.929 132.886V133.774H117.518V132.018H117.909V132.245C117.977 132.164 118.062 132.102 118.165 132.061C118.268 132.019 118.384 131.998 118.514 131.998C118.735 131.997 118.913 132.062 119.047 132.191Z" fill="white"/>
<path opacity="0.3" d="M147.31 91.2573H137.252V97.9429H147.31V91.2573Z" fill="black"/>
<path d="M142.003 93.354L141.275 95.5497H140.842L140.299 93.9251L139.747 95.5497H139.311L138.583 93.354H139.007L139.552 95.0227L140.12 93.354H140.496L141.052 95.0323L141.613 93.354H142.003Z" fill="white"/>
<path d="M143.378 94.0332C143.509 94.1514 143.574 94.3296 143.574 94.5679V95.5498H143.204V95.346C143.156 95.4195 143.088 95.4751 142.998 95.514C142.909 95.5524 142.802 95.5722 142.677 95.5722C142.552 95.5722 142.442 95.5505 142.348 95.5077C142.254 95.4648 142.181 95.4054 142.13 95.3288C142.079 95.2527 142.053 95.1665 142.053 95.07C142.053 94.9193 142.109 94.7985 142.221 94.7078C142.333 94.6171 142.509 94.5711 142.75 94.5711H143.183V94.5462C143.183 94.4293 143.148 94.3392 143.077 94.2766C143.007 94.214 142.903 94.1827 142.765 94.1827C142.671 94.1827 142.578 94.1974 142.488 94.2267C142.397 94.2561 142.32 94.297 142.257 94.3488L142.103 94.0632C142.191 93.9961 142.297 93.945 142.42 93.9092C142.543 93.8735 142.674 93.8562 142.812 93.8562C143.058 93.8556 143.247 93.915 143.378 94.0332ZM143.02 95.2182C143.097 95.1735 143.151 95.109 143.182 95.0253V94.8311H142.778C142.552 94.8311 142.439 94.9052 142.439 95.0534C142.439 95.1243 142.467 95.1812 142.524 95.2227C142.58 95.2649 142.659 95.2853 142.759 95.2853C142.857 95.286 142.944 95.2636 143.02 95.2182Z" fill="white"/>
<path d="M144.076 93.2224H144.468V95.5498H144.076V93.2224Z" fill="white"/>
<path d="M144.982 93.2224H145.374V95.5498H144.982V93.2224Z" fill="white"/>
<path d="M105.161 74.3301C104.983 74.2758 104.842 74.2043 104.738 74.1142L104.897 73.7571C104.998 73.8369 105.123 73.9027 105.27 73.9532C105.417 74.0037 105.566 74.0292 105.714 74.0292C105.898 74.0292 106.035 73.9998 106.125 73.9411C106.216 73.8823 106.261 73.8043 106.261 73.7079C106.261 73.6376 106.236 73.5788 106.185 73.5328C106.135 73.4868 106.07 73.4511 105.993 73.4249C105.915 73.3993 105.809 73.3693 105.675 73.3367C105.486 73.292 105.334 73.2473 105.217 73.2025C105.101 73.1578 105.001 73.0876 104.917 72.9924C104.833 72.8972 104.792 72.7681 104.792 72.6052C104.792 72.4685 104.829 72.3446 104.903 72.2328C104.977 72.121 105.089 72.0322 105.239 71.9657C105.389 71.8999 105.572 71.8667 105.789 71.8667C105.939 71.8667 106.088 71.8859 106.234 71.9229C106.38 71.9606 106.506 72.0149 106.611 72.0858L106.466 72.4429C106.358 72.3791 106.245 72.3311 106.127 72.2979C106.009 72.2647 105.895 72.2481 105.785 72.2481C105.603 72.2481 105.468 72.2788 105.38 72.3401C105.292 72.4014 105.248 72.4826 105.248 72.5841C105.248 72.6544 105.273 72.7125 105.324 72.7573C105.375 72.802 105.439 72.8371 105.516 72.8633C105.594 72.8895 105.7 72.9189 105.835 72.9515C106.019 72.9936 106.169 73.0377 106.287 73.0837C106.404 73.1297 106.505 73.2 106.589 73.2939C106.673 73.3878 106.714 73.5149 106.714 73.6753C106.714 73.812 106.677 73.936 106.603 74.0465C106.529 74.1576 106.417 74.2458 106.266 74.3116C106.115 74.3774 105.931 74.4106 105.714 74.4106C105.523 74.4113 105.339 74.3844 105.161 74.3301Z" fill="white"/>
<path d="M108.894 73.5738H107.413C107.44 73.7131 107.507 73.8229 107.617 73.9041C107.726 73.9852 107.862 74.0261 108.025 74.0261C108.232 74.0261 108.403 73.9577 108.537 73.821L108.774 74.0932C108.689 74.1947 108.582 74.2708 108.452 74.3225C108.322 74.3743 108.177 74.4005 108.014 74.4005C107.806 74.4005 107.624 74.3596 107.466 74.2765C107.309 74.1941 107.187 74.0791 107.101 73.9322C107.015 73.7852 106.972 73.6185 106.972 73.432C106.972 73.248 107.014 73.0825 107.097 72.9356C107.181 72.7886 107.297 72.6736 107.445 72.5912C107.594 72.5088 107.761 72.4673 107.947 72.4673C108.131 72.4673 108.295 72.5082 108.439 72.5893C108.584 72.6704 108.697 72.7848 108.779 72.9317C108.86 73.0787 108.901 73.2492 108.901 73.4422C108.901 73.4741 108.899 73.5176 108.894 73.5738ZM107.588 72.9471C107.491 73.0308 107.431 73.1419 107.41 73.2812H108.481C108.462 73.1445 108.404 73.0339 108.308 72.949C108.211 72.864 108.091 72.8219 107.947 72.8219C107.806 72.8212 107.686 72.8634 107.588 72.9471Z" fill="white"/>
<path d="M110.631 72.6678C110.778 72.8007 110.852 73.0013 110.852 73.2703V74.3761H110.435V74.1468C110.381 74.2292 110.303 74.2924 110.204 74.3359C110.103 74.3793 109.983 74.401 109.842 74.401C109.7 74.401 109.576 74.3768 109.47 74.3289C109.364 74.2803 109.283 74.2139 109.224 74.1276C109.167 74.042 109.138 73.9443 109.138 73.8363C109.138 73.6664 109.201 73.5303 109.327 73.4281C109.453 73.3259 109.652 73.2741 109.923 73.2741H110.41V73.246C110.41 73.1138 110.371 73.0128 110.292 72.9419C110.213 72.871 110.096 72.8359 109.941 72.8359C109.835 72.8359 109.73 72.8525 109.628 72.885C109.525 72.9183 109.439 72.9643 109.368 73.023L109.195 72.7017C109.294 72.6263 109.413 72.5688 109.552 72.5286C109.691 72.4883 109.838 72.4685 109.994 72.4685C110.271 72.4679 110.484 72.5343 110.631 72.6678ZM110.228 74.0037C110.314 73.9532 110.375 73.8804 110.41 73.7865V73.5673H109.954C109.7 73.5673 109.573 73.651 109.573 73.8184C109.573 73.8983 109.605 73.9622 109.668 74.0094C109.732 74.0567 109.82 74.0803 109.933 74.0803C110.044 74.0797 110.142 74.0541 110.228 74.0037Z" fill="white"/>
<path d="M112.509 72.4678V72.8881C112.471 72.8811 112.437 72.8773 112.407 72.8773C112.235 72.8773 112.1 72.9271 112.003 73.0274C111.907 73.1277 111.858 73.2721 111.858 73.4606V74.376H111.417V72.4889H111.837V72.7642C111.965 72.5668 112.189 72.4678 112.509 72.4678Z" fill="white"/>
<path d="M113.205 74.2772C113.05 74.1947 112.928 74.0798 112.841 73.9328C112.754 73.7859 112.71 73.6191 112.71 73.4326C112.71 73.2467 112.753 73.0806 112.841 72.9343C112.928 72.788 113.049 72.6736 113.203 72.5912C113.358 72.5088 113.533 72.4673 113.731 72.4673C113.917 72.4673 114.081 72.505 114.221 72.5804C114.361 72.6557 114.466 72.7644 114.537 72.9055L114.198 73.1036C114.144 73.0167 114.076 72.9509 113.995 72.9075C113.914 72.864 113.825 72.8423 113.728 72.8423C113.563 72.8423 113.427 72.896 113.318 73.0033C113.21 73.1106 113.156 73.2537 113.156 73.4326C113.156 73.6115 113.21 73.7546 113.317 73.8619C113.424 73.9692 113.562 74.0229 113.729 74.0229C113.825 74.0229 113.914 74.0012 113.995 73.9577C114.076 73.9143 114.144 73.8485 114.198 73.7616L114.538 73.9597C114.465 74.1008 114.358 74.2101 114.218 74.2867C114.078 74.3634 113.915 74.4017 113.731 74.4017C113.536 74.4011 113.361 74.3602 113.205 74.2772Z" fill="white"/>
<path d="M116.544 72.6762C116.688 72.8154 116.76 73.0211 116.76 73.2946V74.3755H116.319V73.3508C116.319 73.186 116.28 73.0614 116.202 72.9777C116.125 72.894 116.013 72.8525 115.87 72.8525C115.707 72.8525 115.579 72.901 115.484 72.9988C115.391 73.0965 115.343 73.2371 115.343 73.4211V74.3755H114.902V71.7537H115.343V72.7075C115.417 72.6295 115.507 72.5701 115.614 72.5292C115.721 72.4883 115.84 72.4673 115.973 72.4673C116.21 72.4679 116.401 72.5375 116.544 72.6762Z" fill="white"/>
<path d="M138.935 83.6001V84.552H140.445V85.0439H138.935V86.2418H138.354V83.1133H140.638V83.6007H138.935V83.6001Z" fill="white"/>
<path d="M142.483 83.8281V84.3597C142.435 84.3507 142.393 84.3462 142.354 84.3462C142.136 84.3462 141.967 84.4095 141.844 84.536C141.722 84.6625 141.661 84.8452 141.661 85.0835V86.2411H141.103V83.8543H141.635V84.2031C141.795 83.9533 142.078 83.8281 142.483 83.8281Z" fill="white"/>
<path d="M142.984 83.3656C142.916 83.3017 142.881 83.2218 142.881 83.1267C142.881 83.0315 142.916 82.9516 142.984 82.8877C143.052 82.8238 143.137 82.7913 143.239 82.7913C143.34 82.7913 143.425 82.8219 143.493 82.8826C143.561 82.9439 143.596 83.0206 143.596 83.1126C143.596 83.211 143.563 83.2934 143.496 83.3605C143.429 83.4276 143.343 83.4608 143.239 83.4608C143.137 83.4621 143.052 83.4301 142.984 83.3656ZM142.957 83.855H143.515V86.2417H142.957V83.855Z" fill="white"/>
<path d="M146.483 85.2274H144.611C144.643 85.4031 144.729 85.5423 144.867 85.6452C145.006 85.748 145.178 85.7991 145.384 85.7991C145.646 85.7991 145.861 85.7129 146.031 85.5398L146.331 85.8835C146.224 86.0119 146.088 86.1084 145.924 86.1742C145.76 86.24 145.575 86.2725 145.37 86.2725C145.108 86.2725 144.877 86.2202 144.678 86.116C144.478 86.0119 144.324 85.8662 144.215 85.6803C144.107 85.4944 144.052 85.2836 144.052 85.0479C144.052 84.8153 144.105 84.6064 144.211 84.4199C144.317 84.2339 144.463 84.0883 144.651 83.9842C144.839 83.88 145.05 83.8276 145.285 83.8276C145.518 83.8276 145.725 83.8794 145.909 83.9816C146.092 84.0845 146.235 84.2288 146.338 84.4147C146.441 84.6013 146.492 84.816 146.492 85.0606C146.492 85.1002 146.489 85.1558 146.483 85.2274ZM144.832 84.4339C144.708 84.54 144.633 84.6805 144.606 84.8562H145.961C145.937 84.6837 145.863 84.5432 145.741 84.4365C145.619 84.3291 145.467 84.2755 145.285 84.2755C145.107 84.2755 144.956 84.3285 144.832 84.4339Z" fill="white"/>
<path d="M149.106 84.0921C149.288 84.2678 149.379 84.5285 149.379 84.8741V86.2412H148.821V84.945C148.821 84.7367 148.771 84.5796 148.673 84.4735C148.575 84.3681 148.435 84.3151 148.253 84.3151C148.048 84.3151 147.885 84.3771 147.767 84.5004C147.648 84.6237 147.588 84.8019 147.588 85.0344V86.2412H147.029V83.8545H147.561V84.163C147.654 84.0532 147.77 83.9695 147.91 83.9126C148.05 83.8557 148.208 83.8276 148.384 83.8276C148.683 83.8283 148.925 83.9164 149.106 84.0921Z" fill="white"/>
<path d="M152.449 82.9253V86.2409H151.913V85.9324C151.82 86.0455 151.706 86.1304 151.571 86.1873C151.436 86.2441 151.286 86.2722 151.122 86.2722C150.892 86.2722 150.686 86.2218 150.503 86.1202C150.319 86.0193 150.176 85.8755 150.072 85.689C149.967 85.5024 149.915 85.2891 149.915 85.0476C149.915 84.8061 149.967 84.5933 150.072 84.4087C150.176 84.2241 150.319 84.081 150.503 83.9794C150.686 83.8785 150.892 83.8274 151.122 83.8274C151.28 83.8274 151.424 83.8542 151.556 83.9079C151.687 83.9615 151.798 84.042 151.891 84.1493V82.9253H152.449ZM151.551 85.703C151.658 85.6417 151.743 85.5548 151.805 85.4417C151.868 85.3287 151.899 85.1977 151.899 85.0482C151.899 84.8993 151.868 84.7684 151.805 84.6553C151.743 84.5422 151.658 84.4547 151.551 84.394C151.443 84.3327 151.322 84.3027 151.188 84.3027C151.054 84.3027 150.933 84.3333 150.826 84.394C150.719 84.4554 150.634 84.5422 150.572 84.6553C150.509 84.7684 150.478 84.8993 150.478 85.0482C150.478 85.1971 150.509 85.328 150.572 85.4417C150.634 85.5548 150.719 85.6423 150.826 85.703C150.933 85.7644 151.054 85.7944 151.188 85.7944C151.322 85.7944 151.443 85.7637 151.551 85.703Z" fill="white"/>
<path d="M153.351 86.1965C153.167 86.146 153.019 86.0822 152.909 86.0042L153.123 85.58C153.231 85.6516 153.36 85.7091 153.51 85.7519C153.661 85.7953 153.808 85.8164 153.954 85.8164C154.288 85.8164 154.455 85.7289 154.455 85.5525C154.455 85.4695 154.413 85.4114 154.328 85.3781C154.243 85.3456 154.107 85.3143 153.919 85.2842C153.722 85.2542 153.562 85.2203 153.438 85.1814C153.314 85.143 153.208 85.0747 153.116 84.9782C153.026 84.8817 152.98 84.7469 152.98 84.5738C152.98 84.3477 153.074 84.1669 153.263 84.0308C153.452 83.8954 153.708 83.8276 154.03 83.8276C154.193 83.8276 154.358 83.8462 154.521 83.8832C154.685 83.9203 154.819 83.9701 154.924 84.0327L154.709 84.4576C154.506 84.3387 154.278 84.2787 154.025 84.2787C153.862 84.2787 153.737 84.3029 153.652 84.3528C153.567 84.402 153.525 84.4665 153.525 84.547C153.525 84.6364 153.571 84.6997 153.661 84.7367C153.752 84.7738 153.893 84.8089 154.084 84.8415C154.274 84.8715 154.43 84.9054 154.552 84.9444C154.674 84.9833 154.78 85.0485 154.867 85.1411C154.955 85.2338 154.999 85.3647 154.999 85.5347C154.999 85.7583 154.902 85.9371 154.708 86.0707C154.515 86.2048 154.251 86.2719 153.917 86.2719C153.725 86.2732 153.536 86.2476 153.351 86.1965Z" fill="white"/>
<path d="M251.078 193.509C265.028 195.414 272.498 214.224 277.178 240.391C281.858 266.558 278.978 287.677 278.978 301.634C278.978 315.591 268.178 325.941 268.178 325.941C216.434 339.149 140.228 334.691 123.428 327.757C106.628 320.823 98.52 303.845 98.52 303.845C98.52 303.845 110.179 273.481 122.579 266.557C134.979 259.634 182.066 252.202 182.066 252.202C186.036 236.674 206.109 216.586 232.629 203.686C232.629 203.686 237.128 191.604 251.078 193.509Z" fill="#3030E8"/>
<path opacity="0.2" d="M124.107 289.146L190.052 278.88H190.051C197.267 276.267 204.759 273.64 212.007 271.026L234.783 214.176C235.129 216.992 240.577 217.068 242.795 216.383C239.211 228.331 230.415 241.968 230.083 252.351C231.244 249.579 236.214 245.535 239.158 245.226C232.183 250.512 227.439 269.469 222.143 285.036C223.593 283.912 225.881 283.556 228.958 283.926C224.016 283.839 215.805 289.208 208.708 293.182C200.195 293.659 192.906 292.817 189.188 295.326L186.732 293.182C175.053 292.712 163.616 293.367 152.458 295.326C154.38 294.028 156.71 292.708 159.352 291.374C148.421 290.808 138.865 291.328 130.999 293.182C110.535 306.594 108.351 309.811 105.046 313.652L99.823 306.638L124.107 289.146Z" fill="black"/>
<path d="M130.557 247.036C134.307 245.376 150.961 246.819 161.731 248.999C163.191 249.289 164.621 249.579 165.991 249.869C166.311 249.939 166.631 250.009 166.941 250.079C171.031 250.949 174.591 251.779 176.981 252.419C179.901 253.199 181.741 253.699 181.741 253.699L183.851 250.069L187.741 243.359L220.741 245.889C220.741 245.889 229.741 291.479 202.111 291.479C201.311 291.479 200.501 291.449 199.661 291.379C193.511 290.919 186.521 288.789 179.431 285.919C173.411 283.499 167.321 280.539 161.591 277.609C161.221 277.429 160.861 277.249 160.501 277.059C159.421 276.509 158.361 275.959 157.311 275.419C145.951 269.519 136.611 264.409 133.131 265.039C132.017 273.183 112.284 288.508 97.107 302.076L90.168 299.237C90.168 299.237 126.807 248.696 130.557 247.036Z" fill="#E4897B"/>
<path d="M166.306 248.244L159.898 279.421C159.898 279.421 181.945 297.029 200.898 290.161C219.851 283.293 213.898 251.572 213.898 251.572L188.898 244.037L182.065 252.064L166.306 248.244Z" fill="#407BFF"/>
<path opacity="0.6" d="M159.901 279.424C159.901 279.424 160.271 279.601 160.961 280.102C163.051 281.625 168.031 284.663 174.381 287.611H174.391C181.761 290.56 190.981 293.106 199.661 290.452C200.081 290.324 200.491 290.246 200.901 290.098C219.851 283.237 213.901 251.539 213.901 251.539L188.901 244.025L183.851 249.959L182.061 252.056L167.231 248.47L166.301 248.245L165.991 249.769L163.191 263.412L160.501 276.495L159.901 279.424Z" fill="white"/>
<path d="M167.398 247.64L160.731 281.386L156.731 278.284L162.065 246.985L167.398 247.64Z" fill="#407BFF"/>
<path opacity="0.4" d="M156.731 278.284L160.731 281.39L160.961 280.22L161.591 277.035L164.301 263.314L166.941 249.976L167.231 248.472L167.401 247.637L162.061 246.988L161.731 248.914L159.231 263.599L157.311 274.883L156.731 278.284Z" fill="white"/>
<path opacity="0.2" d="M132.801 264.819C132.901 264.989 133.011 265.059 133.131 265.039C136.611 264.409 145.951 269.519 157.311 275.419L156.731 278.879L160.731 282.039L160.961 280.729C163.051 282.279 168.031 285.369 174.381 288.369H174.391L179.431 285.799L186.731 281.979L183.731 254.702L179.398 260.702C179.398 260.702 169.299 263.15 164.301 263.634C163.931 263.664 163.551 263.712 163.191 263.742C161.821 263.852 160.481 263.926 159.231 263.936C158.351 263.936 157.521 263.918 156.731 263.868C148.131 263.268 138.831 262.949 132.801 264.819Z" fill="black"/>
<path d="M131.621 271.536C137.991 265.979 187.771 263.869 187.771 263.869L202.901 290.369L139.823 283.915C137.268 291.735 105.95 306.147 90.762 314.421L85.406 311.663C85.406 311.663 126.969 275.595 131.621 271.536Z" fill="#E4897B"/>
<path d="M169.113 264.372L175.271 291.855L190.57 291.283C190.57 291.283 228.545 309.331 221.56 249.362L191.255 241.128L181.428 261.339L169.113 264.372Z" fill="#407BFF"/>
<path opacity="0.6" d="M169.113 264.372L175.271 291.855L190.57 291.283C190.57 291.283 228.545 309.331 221.56 249.362L191.255 241.128L181.428 261.339L169.113 264.372Z" fill="white"/>
<path d="M170.863 262.997L177.908 292.437L172.75 292.135L166.7 264.231L170.863 262.997Z" fill="#407BFF"/>
<path opacity="0.4" d="M170.863 262.997L177.908 292.437L172.75 292.135L166.7 264.231L170.863 262.997Z" fill="white"/>
<path d="M95.367 312.926C95.612 312.222 86.826 309.558 86.826 309.558C86.826 309.558 79.538 312.952 73.958 312.24C68.378 311.528 70.093 315.677 75.824 317.822C81.555 319.967 85.929 321.603 90.002 323.127C94.075 324.651 92.828 320.229 95.367 312.926Z" fill="#263238"/>
<path opacity="0.2" d="M127.778 272.718L134.457 270.072C133.988 277.519 113.299 291.392 98.3671 302.416L99.3571 303.726C99.3571 303.726 93.6061 313.235 91.7821 313.626C89.9581 314.017 87.1941 309.844 87.1941 309.844L127.778 272.718Z" fill="black"/>
<path d="M133.131 265.039L121.734 257.065L90.168 299.237L95.372 303.076C111.658 290.417 134.157 275.376 133.131 265.039Z" fill="#E4897B"/>
<path d="M77.658 301.115C79.641 302.77 81.426 304.271 83.078 305.651C85.34 307.535 87.345 309.224 89.269 310.825C92.61 313.617 92.893 309.033 97.72 302.985C97.841 302.838 97.431 302.368 96.775 301.752C95.366 300.433 92.76 298.451 91.502 297.514C91.063 297.179 90.785 296.979 90.785 296.979C90.785 296.979 89.164 297.134 86.925 297.075C84.19 297.009 80.521 296.616 77.757 295.222C72.729 292.701 72.973 297.185 77.658 301.115Z" fill="#263238"/>
<path d="M140.533 244.526C141.73 243.35 147.594 240.2 148.591 239.29C148.814 239.087 176.601 230.332 180.422 230.32L183.047 214.512L191.307 216.067C191.307 216.067 187.825 236.526 185.501 238.441C183.177 240.355 152.888 243.45 152.888 243.45C152.888 243.45 150.122 246.724 148.591 247.161C147.06 247.597 139.336 245.702 140.533 244.526Z" fill="#E4897B"/>
<path opacity="0.2" d="M182.527 217.638L190.62 219.853L191.029 217.638L182.804 215.971L182.527 217.638Z" fill="black"/>
<path d="M181.787 216.418L191.305 218.875C191.375 210.833 190.887 203.318 189.519 196.634C185.232 197.8 183.394 206.742 181.787 216.418Z" fill="#3030E8"/>
<path d="M204.03 158.08L193.847 162.097L190.885 179.116C194.852 201.485 198.83 223.235 203.152 226.55C206.614 230.555 214.364 240.139 230.916 242.655C227.902 236.442 233.055 221.821 233.055 211.05C233.055 200.279 221.058 195.742 222.142 187.026C226.461 152.29 204.03 158.08 204.03 158.08Z" fill="#263238"/>
<path d="M193.847 162.097C193.847 162.097 189.397 164.913 189.616 170.665C189.835 176.416 190.046 181.954 190.217 185.493C191.029 202.313 213.336 192.989 216.943 190.004C220.55 187.019 213.008 162.863 208.854 161.442C204.701 160.02 193.847 162.097 193.847 162.097Z" fill="#263238"/>
<path d="M188.133 239.898L183.567 250.233C200.336 250.899 222.346 257.343 222.346 257.343C222.346 257.343 222.233 251.439 221.938 247.674C221.128 237.325 220.059 219.644 224.718 205.624C225.021 204.7 225.34 203.745 225.674 202.759C226.135 201.399 225.363 199.929 223.982 199.535C220.878 198.65 217.73 197.942 214.545 197.411C210.261 196.651 205.927 196.194 201.584 196.042C195.965 196 189.519 196.633 189.519 196.633C189.519 196.633 189.438 196.995 188.024 202.801C184.884 216.744 185.316 219.569 188.133 239.898Z" fill="#3030E8"/>
<path d="M213.078 197.357C213.078 197.357 210.936 200.4 203.826 201.309C203.826 201.309 200.302 198.992 201.797 196.176C201.797 196.176 203.336 195.695 203.668 193.246C203.834 192.066 203.72 190.422 203.012 188.148C202.933 187.886 202.837 187.606 202.741 187.326L211.73 181.703C211.732 181.704 208.566 193.098 213.078 197.357Z" fill="#E4897B"/>
<path opacity="0.2" d="M209.712 184.966C209.712 184.966 209.231 191.393 203.67 193.247C203.836 192.067 203.722 190.423 203.014 188.149C206.293 186.418 209.712 184.966 209.712 184.966Z" fill="black"/>
<path d="M200.659 163.274C193.311 164.528 191.618 168.866 192.372 176.53C193.314 186.107 196.56 192.472 205.402 188.883C217.411 184.009 212.861 161.191 200.659 163.274Z" fill="#E4897B"/>
<path d="M197.051 175.308C197.051 175.308 196.36 177.401 195.433 178.72C195.433 178.72 196.233 179.612 197.512 179.221L197.051 175.308Z" fill="#DE5753"/>
<path d="M201.446 173.94C201.535 174.546 201.934 174.989 202.338 174.93C202.742 174.871 202.997 174.331 202.908 173.725C202.819 173.119 202.42 172.676 202.016 172.735C201.613 172.795 201.357 173.334 201.446 173.94Z" fill="#263238"/>
<path d="M202.189 172.74L200.795 172.416C200.795 172.416 201.615 173.429 202.189 172.74Z" fill="#263238"/>
<path d="M193.894 174.919C193.983 175.525 194.382 175.968 194.787 175.909C195.191 175.85 195.447 175.31 195.358 174.704C195.269 174.098 194.869 173.655 194.466 173.714C194.061 173.774 193.805 174.313 193.894 174.919Z" fill="#263238"/>
<path d="M194.637 173.719L193.243 173.396C193.243 173.396 194.063 174.408 194.637 173.719Z" fill="#263238"/>
<path d="M204.03 169.737C204.118 169.737 204.206 169.7 204.269 169.629C204.384 169.497 204.371 169.297 204.239 169.182C202.765 167.893 200.65 168.524 200.561 168.551C200.394 168.602 200.3 168.779 200.351 168.946C200.402 169.113 200.578 169.209 200.746 169.156C200.764 169.151 202.616 168.604 203.821 169.659C203.882 169.711 203.956 169.737 204.03 169.737Z" fill="#263238"/>
<path d="M192.435 170.875C192.513 170.875 192.591 170.846 192.652 170.789C193.951 169.564 195.153 169.757 195.204 169.766C195.375 169.802 195.54 169.682 195.571 169.511C195.602 169.339 195.49 169.175 195.319 169.143C195.254 169.131 193.763 168.872 192.218 170.328C192.091 170.448 192.085 170.649 192.205 170.776C192.266 170.842 192.35 170.875 192.435 170.875Z" fill="#263238"/>
<path d="M210.803 174.288C210.803 174.288 206.337 168.837 206.062 164.088C206.062 164.088 190.486 160.625 192.29 175.527C192.29 175.527 188.627 162.646 201.209 160.198C213.77 157.753 213.573 177.701 210.803 174.288Z" fill="#263238"/>
<path d="M209.867 176.043C209.714 174.852 210.593 172.641 212.834 172.505C215.153 172.365 217.036 176.854 211.565 178.945C210.78 179.246 210.186 178.53 209.867 176.043Z" fill="#E4897B"/>
<path d="M203.152 180.136C203.152 180.136 202.881 182.176 198.798 182.329" stroke="#263238" stroke-width="0.5" stroke-miterlimit="10" stroke-linecap="round" stroke-linejoin="round"/>
<path d="M207.609 162.434C207.609 162.434 204.438 165.883 200.975 167.287C197.512 168.691 190.885 169.997 190.885 169.997C192.256 176.731 192.713 184.05 186.471 186.456C188.302 180.842 186.166 174.996 187.456 169.737C190.263 158.297 199.918 155.616 204.535 157.974C205.74 158.59 207.609 162.434 207.609 162.434Z" fill="#263238"/>
<path d="M211.341 164.057V172.699C212.14 175.556 211.8 178.181 210.462 180.601C210.704 178.913 210.344 175.195 209.712 170.559L206.822 164.861L211.341 164.057Z" fill="#263238"/>
<path d="M163.632 244.976C164.829 243.8 170.308 240.766 171.69 239.74C172.443 239.181 213.859 234.745 215.126 236.223L217.435 219.854L226.461 221.519C226.461 221.519 225.263 243.896 221.971 246.159C218.679 248.422 175.986 243.9 175.986 243.9C175.986 243.9 173.22 247.174 171.69 247.611C170.16 248.047 162.435 246.152 163.632 244.976Z" fill="#E4897B"/>
<path opacity="0.2" d="M226.219 225.099L216.976 223.113L217.435 219.853L226.461 221.518L226.219 225.099Z" fill="black"/>
<path d="M229.232 224.22L216.419 221.868C217.893 210.393 220.033 201.482 223.987 199.536C226.819 200.928 228.11 205.859 228.927 211.878C229.275 215.548 229.332 219.742 229.232 224.22Z" fill="#3030E8"/>
<path d="M127.612 246.823L127.505 249.471C127.478 250.15 128.266 250.461 128.937 250.488L181.855 252.627C182.534 252.654 183.363 252.409 183.391 251.73L183.498 249.082L127.612 246.823Z" fill="#263238"/>
<path opacity="0.4" d="M127.612 246.823L127.505 249.471C127.478 250.15 128.266 250.461 128.937 250.488L181.855 252.627C182.534 252.654 183.363 252.409 183.391 251.73L183.498 249.082L127.612 246.823Z" fill="white"/>
<path opacity="0.2" d="M127.612 246.823L127.505 249.471C127.478 250.15 128.266 250.461 128.937 250.488L163.839 251.899C164.518 251.927 165.335 251.681 165.363 251.002L165.47 248.354L127.612 246.823Z" fill="black"/>
<path d="M119.869 218.972L125.014 247.8C125.18 248.749 126.069 249.469 126.994 249.507L161.405 250.898C162.322 250.935 162.945 250.105 162.77 249.155L157.625 220.545C157.45 219.604 156.561 219.102 155.636 219.065L121.225 217.674C120.3 217.636 119.702 218.031 119.869 218.972Z" fill="#263238"/>
<path opacity="0.4" d="M119.869 218.972L125.014 247.8C125.18 248.749 126.069 249.469 126.994 249.507L160.235 250.851C161.16 250.888 161.775 250.058 161.609 249.108L156.455 220.498C156.288 219.557 155.391 219.055 154.466 219.018L121.225 217.674C120.3 217.636 119.702 218.031 119.869 218.972Z" fill="white"/>
<path opacity="0.2" d="M136.249 234.181V234.189C136.15 236.635 138.693 238.729 140.615 238.807C142.538 238.885 143.758 236.943 143.308 234.474C142.857 232.055 141.023 230.022 139.144 229.872C139.593 232.341 138.339 234.273 136.424 234.196C136.384 234.194 136.248 234.189 136.249 234.181Z" fill="black"/>
</svg>
