<svg width="388" height="336" viewBox="0 0 388 336" fill="none" xmlns="http://www.w3.org/2000/svg">
<path d="M371.21 128.24C362.84 155.42 341.56 175.29 315.38 185.18C265.85 203.87 234.14 173.53 189.9 156.94C137.63 137.33 119.61 173.32 71.79 184.27C33.27 193.09 -1.73002 174.34 2.68998 127.61C6.02998 92.21 29.89 68.64 58.17 59.25C87.92 49.38 112.83 31.18 141.4 19.01C151.49 14.72 161.7 11.31 172.03 8.62998C193.43 3.08998 215.36 0.68998 237.9 0.0899796C260.07 -0.50002 283.05 2.10998 304.11 9.23998C351.95 25.42 386.8 77.6 371.21 128.24Z" fill="#002DE5" fill-opacity="0.1"/>
<path d="M194 335.561C301.082 335.561 387.889 330.492 387.889 324.238C387.889 317.985 301.082 312.915 194 312.915C86.9181 312.915 0.110992 317.985 0.110992 324.238C0.110992 330.492 86.9181 335.561 194 335.561Z" fill="black" fill-opacity="0.5"/>
<path d="M271.51 103.389C271.354 106.105 271.031 108.598 270.67 111.18C270.298 113.739 269.794 116.279 269.245 118.814C268.12 123.885 266.56 128.896 264.359 133.772L263.95 134.686C263.75 135.109 263.499 135.565 263.247 135.942C262.735 136.719 262.175 137.365 261.606 137.937C260.453 139.065 259.262 139.914 258.07 140.673C255.686 142.175 253.252 143.248 250.818 144.221C245.909 146.072 241.015 147.434 235.92 148.357L234.928 144.565C237.193 143.706 239.515 142.79 241.759 141.822C244.018 140.873 246.236 139.854 248.36 138.738C250.491 137.654 252.54 136.448 254.312 135.146C255.186 134.492 255.983 133.796 256.567 133.116C256.863 132.783 257.101 132.456 257.259 132.174C257.344 132.024 257.385 131.925 257.445 131.778L257.76 130.958C259.496 126.611 260.6 121.914 261.588 117.199C262.055 114.829 262.427 112.434 262.777 110.036C263.129 107.66 263.401 105.176 263.613 102.895L271.51 103.389Z" fill="#E4897B"/>
<path d="M266.123 93.9579C262.933 94.7699 260.702 107.896 260.702 107.896L269.492 113.874C269.492 113.874 277.919 100.632 275.466 97.1249C272.911 93.4729 270.778 92.7729 266.123 93.9579Z" fill="#002DE5"/>
<path d="M266.411 96.8899L263.961 110.12L268.901 113.47L266.411 96.8899Z" fill="#407BFF"/>
<path opacity="0.5" d="M266.411 96.8899L263.961 110.12L268.901 113.47L266.411 96.8899Z" fill="black"/>
<path d="M236.598 144.409L231.108 138.845L230.387 146.682C230.387 146.682 234.503 149.467 237.35 147.97L236.598 144.409Z" fill="#E4897B"/>
<path d="M224.655 138.014L224.407 144.607L230.387 146.682L231.109 138.845L224.655 138.014Z" fill="#E4897B"/>
<path d="M283.38 314.885H275.641L275.125 296.963H282.864L283.38 314.885Z" fill="#E4897B"/>
<path d="M343.214 286.76L336.432 290.488L325.619 275.981L332.401 272.253L343.214 286.76Z" fill="#E4897B"/>
<path d="M334.969 289.576L341.884 284.306C342.136 284.114 342.473 284.133 342.696 284.352L347.653 289.223C348.167 289.728 348.088 290.637 347.5 291.07C345.057 292.866 343.788 293.61 340.747 295.927C338.876 297.353 336.291 299.63 333.707 301.599C331.18 303.525 329.039 301.118 329.938 300.067C333.971 295.353 333.643 293.342 334.228 290.739C334.334 290.269 334.601 289.856 334.969 289.576Z" fill="#263238"/>
<path d="M275.376 313.989H284.07C284.386 313.989 284.643 314.209 284.688 314.518L285.679 321.397C285.782 322.111 285.168 322.786 284.438 322.773C281.407 322.721 279.946 322.543 276.122 322.543C273.77 322.543 268.904 322.787 265.656 322.787C262.479 322.787 262.235 319.575 263.587 319.284C269.652 317.98 272.039 316.181 274.082 314.465C274.451 314.155 274.913 313.989 275.376 313.989Z" fill="#263238"/>
<path d="M275.126 296.968L275.391 306.206H283.133L282.868 296.968H275.126Z" fill="#CE6F64"/>
<path d="M332.405 272.256L325.62 275.985L331.198 283.461L337.983 279.732L332.405 272.256Z" fill="#CE6F64"/>
<path d="M291.431 71.389C295.264 70.944 298.764 70.222 299.709 72.278C300.653 74.333 298.619 77.5 296.858 77.5C295.098 77.5 290.709 77.5 290.709 77.5L291.431 71.389Z" fill="#263238"/>
<path d="M297.265 76.445L296.876 77.912C298.348 77.629 300.654 79.39 300.654 79.39C300.654 79.39 299.292 76.222 297.265 76.445Z" fill="#263238"/>
<path d="M295.573 71.4509L296.64 72.5299C297.142 71.1179 299.83 70.0239 299.83 70.0239C299.83 70.0239 296.41 69.5909 295.573 71.4509Z" fill="#263238"/>
<path d="M290.34 74.24C294.161 74.78 297.73 74.967 298.123 77.195C298.517 79.423 295.747 81.971 294.044 81.526C292.341 81.081 288.095 79.97 288.095 79.97L290.34 74.24Z" fill="#263238"/>
<path d="M266.123 93.9579C266.123 93.9579 262.436 95.2569 269.821 140.667C282.293 140.667 295.183 140.667 301.252 140.667C300.724 127.875 300.71 119.987 306.824 93.7339C306.824 93.7339 300.239 92.3009 293.477 91.9759C288.188 91.7209 283.854 91.5519 279.205 91.9769C273.075 92.5359 266.123 93.9579 266.123 93.9579Z" fill="#002DE5"/>
<path opacity="0.3" d="M266.123 93.9579C266.123 93.9579 262.436 95.2569 269.821 140.667C282.293 140.667 295.183 140.667 301.252 140.667C300.724 127.875 300.71 119.987 306.824 93.7339C306.824 93.7339 300.239 92.3009 293.477 91.9759C288.188 91.7209 283.854 91.5519 279.205 91.9769C273.075 92.5359 266.123 93.9579 266.123 93.9579Z" fill="#002DE5"/>
<path d="M292.063 75.9049C291.163 80.4969 290.264 88.9109 293.477 91.9759C293.477 91.9759 292.222 96.6339 283.689 96.6339C274.306 96.6339 279.205 91.9759 279.205 91.9759C284.326 90.7529 284.194 86.9539 283.302 83.3859L292.063 75.9049Z" fill="#E4897B"/>
<path d="M293.474 91.98C288.184 91.72 283.854 91.55 279.204 91.98C278.894 92.01 278.584 92.04 278.274 92.07C277.134 94.23 276.844 97.55 279.574 102.42C279.574 102.42 292.094 97.38 295.354 92.1C294.734 92.05 294.104 92.01 293.474 91.98Z" fill="#E4897B"/>
<path d="M294.794 106.2L285.706 106.023L285.691 106.801L294.779 106.978L294.794 106.2Z" fill="#407BFF"/>
<path opacity="0.4" d="M294.794 106.2L285.706 106.023L285.691 106.801L294.779 106.978L294.794 106.2Z" fill="white"/>
<path d="M288.491 78.9569L283.305 83.3809C283.519 84.2249 283.686 85.0819 283.745 85.9139C285.701 85.6309 288.389 83.4839 288.596 81.4349C288.701 80.4149 288.658 79.4329 288.491 78.9569Z" fill="#CE6F64"/>
<path d="M274.904 56.2499C272.848 54.9719 263.495 56.0009 271.514 77.8329C272.626 80.8609 269.765 80.5389 269.793 82.4359C269.821 84.3329 272.043 85.9409 275.071 85.9149C275.071 85.9149 270.541 84.5279 271.695 82.7499C272.849 80.9719 274.96 80.1669 274.099 77.9719C273.237 75.7779 274.904 56.2499 274.904 56.2499Z" fill="#263238"/>
<path d="M291.748 64.1929C292.763 71.8059 293.355 75.0069 290.313 79.6139C285.738 86.5439 276.165 86.1249 272.896 78.9679C269.954 72.5259 268.788 61.1579 275.564 56.7189C282.241 52.3459 290.734 56.5799 291.748 64.1929Z" fill="#E4897B"/>
<path d="M273.102 56.944C276.353 62.5 287.764 70.5879 296.612 72.8869C296.612 72.8869 301.154 58.2499 289.431 53.1109C279.535 48.7729 273.102 56.944 273.102 56.944Z" fill="#263238"/>
<path d="M269.822 140.667C269.822 140.667 263.718 200.282 264.225 223.882C264.753 248.43 273.748 304.416 273.748 304.416H284.213C284.213 304.416 282.557 249.864 283.482 225.756C284.491 199.473 292.839 140.667 292.839 140.667H269.822Z" fill="#263238"/>
<path d="M285.119 304.792H272.841L271.94 300.875L285.69 300.396L285.119 304.792Z" fill="#407BFF"/>
<path opacity="0.3" d="M285.119 304.792H272.841L271.94 300.875L285.69 300.396L285.119 304.792Z" fill="black"/>
<path d="M283.379 155.5C275.659 171.03 281.829 199.36 284.559 209.9C285.959 194.07 288.319 174.72 290.159 160.51C288.99 152.47 286.94 148.34 283.379 155.5Z" fill="#407BFF"/>
<path opacity="0.8" d="M283.379 155.5C275.659 171.03 281.829 199.36 284.559 209.9C285.959 194.07 288.319 174.72 290.159 160.51C288.99 152.47 286.94 148.34 283.379 155.5Z" fill="black"/>
<path d="M278.122 140.667C278.122 140.667 285.242 202.644 290.619 222.542C297.003 246.165 328.698 282.794 328.698 282.794L337.946 277.71C337.946 277.71 315.958 236.59 311.077 224.145C300.66 197.584 309.577 158 301.252 140.667H278.122Z" fill="#263238"/>
<path d="M339.278 277.608L327.805 283.915L324.6 280.979L337.762 272.952L339.278 277.608Z" fill="#407BFF"/>
<path opacity="0.3" d="M339.278 277.608L327.805 283.915L324.6 280.979L337.762 272.952L339.278 277.608Z" fill="black"/>
<path d="M280.751 68.5359C280.871 69.1489 280.644 69.7089 280.244 69.7869C279.844 69.8659 279.422 69.4329 279.301 68.8199C279.181 68.2069 279.408 67.6469 279.808 67.5689C280.209 67.4909 280.631 67.9229 280.751 68.5359Z" fill="#263238"/>
<path d="M273.827 69.8949C273.947 70.5079 273.72 71.0679 273.32 71.1459C272.92 71.2249 272.497 70.7919 272.377 70.1789C272.257 69.5659 272.484 69.0059 272.884 68.9279C273.285 68.8499 273.707 69.2829 273.827 69.8949Z" fill="#263238"/>
<path d="M273.068 68.928L271.514 68.793C271.514 68.793 272.494 69.793 273.068 68.928Z" fill="#263238"/>
<path d="M275.864 70.5879C275.864 70.5879 275.342 73.4289 274.448 74.9259C275.405 75.5219 276.712 74.9069 276.712 74.9069L275.864 70.5879Z" fill="#DE5753"/>
<path d="M279.306 76.8999C279.22 76.8999 279.143 76.8389 279.126 76.7519C279.106 76.6529 279.171 76.5569 279.271 76.5369C281.96 76.0089 282.846 73.8849 282.855 73.8629C282.892 73.7689 282.998 73.7239 283.093 73.7619C283.187 73.7999 283.233 73.9059 283.195 74.0009C283.157 74.0959 282.223 76.3309 279.342 76.8959C279.329 76.8989 279.318 76.8999 279.306 76.8999Z" fill="#263238"/>
<path d="M294.711 71.9349C294.464 73.5079 293.514 74.82 292.444 75.574C290.835 76.707 289.374 75.427 289.272 73.565C289.18 71.889 289.906 69.279 291.786 68.8859C293.638 68.4979 294.993 70.1369 294.711 71.9349Z" fill="#E4897B"/>
<path d="M281.867 65.283C281.776 65.283 281.685 65.249 281.614 65.182C280.405 64.03 277.968 64.143 277.946 64.146C277.75 64.157 277.572 64.002 277.56 63.799C277.549 63.597 277.705 63.425 277.907 63.413C278.012 63.406 280.678 63.279 282.12 64.65C282.266 64.79 282.272 65.022 282.133 65.168C282.061 65.245 281.964 65.283 281.867 65.283Z" fill="#263238"/>
<path d="M269.615 65.454C269.55 65.454 269.484 65.437 269.426 65.401C269.252 65.297 269.197 65.071 269.302 64.898C270.352 63.163 272.042 63.087 272.113 63.084C272.118 63.083 272.122 63.083 272.126 63.083C272.323 63.083 272.485 63.239 272.492 63.438C272.499 63.64 272.342 63.809 272.14 63.816C272.078 63.819 270.765 63.895 269.929 65.277C269.861 65.391 269.74 65.454 269.615 65.454Z" fill="#263238"/>
<path d="M310.22 102.006C312.077 106.533 313.596 111.002 314.892 115.665C316.213 120.301 317.219 125.063 317.673 130.093L317.774 132.015C317.785 132.344 317.821 132.576 317.784 133.225C317.768 133.812 317.661 134.212 317.577 134.692C317.16 136.383 316.514 137.604 315.866 138.777C314.555 141.088 313.064 143.032 311.525 144.923C308.399 148.654 305.108 152.048 301.503 155.232L298.651 152.543C301.398 148.859 304.183 145.119 306.617 141.324C307.834 139.439 308.993 137.51 309.842 135.667C310.257 134.763 310.576 133.83 310.677 133.235C310.669 133.136 310.713 132.965 310.683 132.964C310.692 133.027 310.661 132.677 310.631 132.423L310.466 130.847C309.862 126.574 308.666 122.207 307.364 117.868C306.026 113.554 304.487 109.17 302.894 105.001L310.22 102.006Z" fill="#E4897B"/>
<path d="M306.824 93.734C309.973 94.692 313.755 105.535 313.755 105.535L301.538 114.27C301.538 114.27 297.083 105.219 298.406 101.148C299.784 96.909 303.231 92.641 306.824 93.734Z" fill="#002DE5"/>
<path d="M332.357 292.833C332.326 292.833 332.296 292.832 332.264 292.829C331.914 292.799 331.635 292.6 331.432 292.239C331.28 291.967 331.335 291.745 331.41 291.607C331.88 290.738 334.669 290.519 334.985 290.498C335.06 290.482 335.127 290.531 335.161 290.597C335.194 290.661 335.186 290.74 335.14 290.797C334.506 291.568 333.321 292.833 332.357 292.833ZM334.568 290.903C333.455 291.022 331.98 291.324 331.733 291.782C331.702 291.84 331.675 291.924 331.753 292.059C331.895 292.312 332.072 292.444 332.297 292.463C332.826 292.513 333.658 291.933 334.568 290.903Z" fill="#407BFF"/>
<path d="M334.737 290.879C333.775 290.879 332.011 290.422 331.66 289.702C331.586 289.549 331.51 289.244 331.841 288.922C332.051 288.717 332.297 288.625 332.608 288.646C333.729 288.729 335.087 290.495 335.144 290.57C335.184 290.622 335.193 290.691 335.167 290.752C335.143 290.811 335.088 290.854 335.022 290.863C334.939 290.874 334.842 290.879 334.737 290.879ZM332.523 289.01C332.357 289.01 332.216 289.067 332.096 289.184C331.927 289.349 331.95 289.462 331.989 289.541C332.227 290.028 333.685 290.494 334.627 290.516C334.144 289.952 333.248 289.061 332.58 289.012C332.56 289.01 332.541 289.01 332.523 289.01Z" fill="#407BFF"/>
<path d="M272.471 315.342C271.701 315.342 270.991 315.223 270.594 314.864C270.341 314.637 270.23 314.337 270.263 313.971C270.283 313.753 270.39 313.584 270.573 313.484C271.526 312.967 274.606 314.541 274.955 314.722C275.023 314.757 275.062 314.833 275.052 314.91C275.041 314.986 274.983 315.049 274.906 315.063C274.249 315.195 273.323 315.342 272.471 315.342ZM271.091 313.74C270.949 313.74 270.833 313.761 270.749 313.806C270.674 313.847 270.637 313.908 270.628 314.004C270.606 314.251 270.675 314.443 270.839 314.591C271.309 315.014 272.583 315.086 274.297 314.803C273.235 314.294 271.824 313.74 271.091 313.74Z" fill="#407BFF"/>
<path d="M274.87 315.068C274.845 315.068 274.818 315.062 274.795 315.051C273.872 314.634 272.048 312.965 272.19 312.088C272.224 311.881 272.371 311.622 272.879 311.57C273.263 311.533 273.597 311.639 273.895 311.886C274.868 312.697 275.046 314.781 275.053 314.868C275.058 314.933 275.029 314.995 274.976 315.032C274.945 315.057 274.908 315.068 274.87 315.068ZM273.027 311.931C272.991 311.931 272.954 311.933 272.917 311.937C272.582 311.97 272.561 312.105 272.554 312.149C272.468 312.675 273.706 313.988 274.647 314.558C274.557 313.951 274.299 312.702 273.661 312.17C273.467 312.01 273.259 311.931 273.027 311.931Z" fill="#407BFF"/>
<path d="M299.692 151.641L291.402 152.729L297.214 158.036C297.214 158.036 301.919 156.437 302.445 153.263L299.692 151.641Z" fill="#E4897B"/>
<path d="M286.843 157.372L291.949 161.551L297.214 158.036L291.402 152.729L286.843 157.372Z" fill="#E4897B"/>
<path d="M279.992 67.568L278.437 67.433C278.437 67.433 279.418 68.434 279.992 67.568Z" fill="#263238"/>
<path d="M301.723 138.823L302.527 141.636C302.637 141.854 302.379 142.077 302.015 142.077H269.666C269.383 142.077 269.148 141.938 269.13 141.76L268.846 138.947C268.826 138.752 269.072 138.587 269.382 138.587H301.211C301.446 138.587 301.653 138.682 301.723 138.823Z" fill="#407BFF"/>
<path opacity="0.6" d="M301.723 138.823L302.527 141.636C302.637 141.854 302.379 142.077 302.015 142.077H269.666C269.383 142.077 269.148 141.938 269.13 141.76L268.846 138.947C268.826 138.752 269.072 138.587 269.382 138.587H301.211C301.446 138.587 301.653 138.682 301.723 138.823Z" fill="white"/>
<path d="M297.449 142.382H298.301C298.471 142.382 298.6 142.294 298.588 142.187L298.188 138.532C298.176 138.425 298.028 138.337 297.858 138.337H297.006C296.836 138.337 296.707 138.424 296.719 138.532L297.119 142.187C297.13 142.294 297.279 142.382 297.449 142.382Z" fill="#263238"/>
<path d="M272.062 142.382H272.915C273.085 142.382 273.214 142.294 273.202 142.187L272.802 138.532C272.79 138.425 272.642 138.337 272.472 138.337H271.619C271.449 138.337 271.32 138.424 271.332 138.532L271.732 142.187C271.744 142.294 271.892 142.382 272.062 142.382Z" fill="#263238"/>
<path d="M284.755 142.382H285.607C285.777 142.382 285.906 142.294 285.894 142.187L285.494 138.532C285.482 138.425 285.334 138.337 285.164 138.337H284.311C284.141 138.337 284.012 138.424 284.024 138.532L284.424 142.187C284.437 142.294 284.586 142.382 284.755 142.382Z" fill="#263238"/>
<path d="M197.803 125.643L196.824 125.435C197.78 120.949 200.121 116.958 203.595 113.894L204.257 114.644C200.945 117.565 198.713 121.369 197.803 125.643Z" fill="#002DE5"/>
<path d="M183.557 131.834L183.348 132.812L188.947 134.005L189.155 133.027L183.557 131.834Z" fill="#002DE5"/>
<path d="M227.51 144.792C231.772 141.989 234.844 137.371 235.456 131.754C236.354 123.514 231.276 115.585 223.411 112.968C213.12 109.543 202.442 115.86 200.247 126.164C199.229 130.945 200.23 135.686 202.672 139.502L178.226 134.295C175.482 133.71 172.784 135.461 172.2 138.205L156.494 211.934C155.909 214.678 157.66 217.376 160.404 217.96L184.85 223.167C182.1 218.87 181.177 213.401 182.907 208.022C185.445 200.131 193.314 194.961 201.563 195.776C212.356 196.843 219.532 206.963 217.337 217.267C216.318 222.048 213.472 225.969 209.687 228.458L234.133 233.666C236.877 234.25 239.575 232.5 240.159 229.756L255.865 156.027C256.45 153.283 254.699 150.585 251.955 150.001L227.51 144.792Z" fill="#002DE5"/>
<path d="M211.851 236.243C215.436 232.613 217.478 227.457 216.906 221.835C216.067 213.589 209.448 206.892 201.211 205.971C190.433 204.766 181.306 213.169 181.306 223.704C181.306 228.592 183.273 233.02 186.457 236.244H161.463C158.658 236.244 156.384 238.518 156.384 241.323V316.706C156.384 319.511 158.658 321.785 161.463 321.785H236.846C239.651 321.785 241.925 319.511 241.925 316.706V241.323C241.925 238.518 239.651 236.244 236.846 236.244L211.851 236.243Z" fill="#407BFF"/>
<path opacity="0.4" d="M211.851 236.243C215.436 232.613 217.478 227.457 216.906 221.835C216.067 213.589 209.448 206.892 201.211 205.971C190.433 204.766 181.306 213.169 181.306 223.704C181.306 228.592 183.273 233.02 186.457 236.244H161.463C158.658 236.244 156.384 238.518 156.384 241.323V316.706C156.384 319.511 158.658 321.785 161.463 321.785H236.846C239.651 321.785 241.925 319.511 241.925 316.706V241.323C241.925 238.518 239.651 236.244 236.846 236.244L211.851 236.243Z" fill="white"/>
<path d="M101.438 315.206H108.724L110.663 298.333H103.377L101.438 315.206Z" fill="#E4897B"/>
<path d="M50.165 315.206H57.451L63.127 298.333H55.841L50.165 315.206Z" fill="#E4897B"/>
<path d="M58.423 314.362H49.54C49.242 314.362 48.984 314.569 48.92 314.86L47.481 321.336C47.332 322.008 47.86 322.643 48.548 322.632C51.406 322.583 53.491 322.415 57.091 322.415C59.306 322.415 63.868 322.645 66.927 322.645C69.918 322.645 70.385 319.621 69.133 319.347C63.519 318.119 61.405 316.425 59.607 314.81C59.282 314.519 58.859 314.362 58.423 314.362Z" fill="#263238"/>
<path d="M108.673 314.362H100.716C100.418 314.362 100.16 314.569 100.096 314.86L98.657 321.336C98.508 322.007 99.018 322.644 99.705 322.632C102.575 322.583 106.723 322.415 110.33 322.415C114.548 322.415 118.191 322.645 123.138 322.645C126.129 322.645 126.959 319.621 125.707 319.347C120.007 318.1 115.353 317.967 110.428 314.929C109.893 314.6 109.302 314.362 108.673 314.362Z" fill="#263238"/>
<path d="M100.965 125.63C101.859 131.336 102.606 137.028 103.232 142.76C103.553 145.624 103.834 148.495 104.09 151.373C104.216 152.814 104.35 154.253 104.449 155.701L104.729 159.763C104.793 160.466 105.001 161.141 105.395 161.881C105.799 162.613 106.419 163.377 107.202 164.108C108.783 165.578 110.938 166.906 113.273 168.016C115.613 169.142 118.147 170.091 120.749 170.921C123.327 171.776 126.081 172.473 128.678 173.071L128.184 178.519C126.596 178.521 125.151 178.445 123.644 178.315C122.152 178.188 120.658 178.033 119.166 177.807C116.183 177.353 113.198 176.693 110.209 175.701C107.234 174.681 104.216 173.381 101.346 171.219C99.924 170.124 98.535 168.8 97.362 167.134C96.188 165.476 95.302 163.436 94.918 161.306L92.393 144.153C91.552 138.515 90.757 132.846 90.033 127.203L100.965 125.63Z" fill="#E4897B"/>
<path d="M87.633 123.549C85.178 130.068 91.059 151.917 91.059 151.917L107.245 143.823C107.245 143.823 106.481 132.929 102.781 124.556C99.04 116.092 90.328 116.395 87.633 123.549Z" fill="#263238"/>
<path d="M124.803 172.376L132.754 172.904L129.04 181.438C129.04 181.438 123.938 181.435 122.494 176.329L124.803 172.376Z" fill="#E4897B"/>
<path d="M137.049 175.598L132.643 181.573L129.04 181.438L132.754 172.904L137.049 175.598Z" fill="#E4897B"/>
<path d="M110.661 298.337L109.663 307.035H102.374L103.372 298.337H110.661Z" fill="#CE6F64"/>
<path d="M55.838 298.337H63.127L60.197 307.035H52.908L55.838 298.337Z" fill="#CE6F64"/>
<path d="M96.285 118.563C96.285 118.563 104.884 140.565 96.716 181.539C84.974 181.539 63.459 181.539 57.746 181.539C57.477 175.557 61.236 146.375 55.466 118.187C55.466 118.187 62.146 116.847 68.512 116.54C73.491 116.3 80.701 116.141 85.078 116.541C90.849 117.067 96.285 118.563 96.285 118.563Z" fill="#263238"/>
<path d="M63.408 131.657C62.138 125.227 59.658 126.337 57.308 129.507C58.428 138.577 58.738 147.417 58.698 155.207C60.298 152.477 65.538 142.437 63.408 131.657Z" fill="#407BFF"/>
<path opacity="0.8" d="M63.408 131.657C62.138 125.227 59.658 126.337 57.308 129.507C58.428 138.577 58.738 147.417 58.698 155.207C60.298 152.477 65.538 142.437 63.408 131.657Z" fill="black"/>
<path d="M70.153 97.887C71.198 103.217 72.241 112.984 68.512 116.54C68.512 116.54 69.969 121.947 79.873 121.947C90.764 121.947 85.078 116.541 85.078 116.541C79.134 115.122 79.288 110.712 80.323 106.57L70.153 97.887Z" fill="#E4897B"/>
<path d="M74.299 101.43L80.318 106.565C80.07 107.545 79.876 108.539 79.807 109.506C77.536 109.178 74.417 106.685 74.176 104.308C74.056 103.121 74.106 101.982 74.299 101.43Z" fill="#CE6F64"/>
<path d="M87.094 81.49C90.679 83.007 92.627 93.061 88.041 95.37C83.454 97.68 80.303 78.616 87.094 81.49Z" fill="#263238"/>
<path d="M69.519 89.865C69.962 97.082 69.855 101.329 73.5 105.034C78.983 110.606 87.892 107.301 89.614 100.097C91.164 93.612 90.179 82.899 83.114 80.026C76.154 77.196 69.076 82.648 69.519 89.865Z" fill="#E4897B"/>
<path d="M70.022 96.938C73.833 98.507 81.024 86.755 69.96 82.696C57.725 78.208 63.862 94.402 70.022 96.938Z" fill="#263238"/>
<path d="M71.684 85.542C78.142 87.5 87.245 85.52 88.413 82.271C89.455 79.375 90.375 80.648 92.142 82.542C97.003 87.75 106.698 85.667 98.503 77.778C100.356 80.035 96.55 86.106 93.767 77.458C91.629 70.815 83.202 68.92 80.466 73.5C77.214 78.944 55.669 66.722 66.114 83.333C67.975 88.105 71.684 85.542 71.684 85.542Z" fill="#263238"/>
<path d="M66.663 82.139C66.663 82.139 64.426 81.532 61.746 79.264C61.746 79.264 61.955 83.556 66.663 82.139Z" fill="#263238"/>
<path d="M66.259 97.821C67.283 99.48 68.977 100.512 70.542 100.856C72.896 101.374 73.938 99.236 73.172 97.085C72.482 95.149 70.425 92.546 68.117 92.993C65.843 93.432 65.088 95.924 66.259 97.821Z" fill="#E4897B"/>
<path d="M96.716 181.539C96.716 181.539 125.129 220.913 124.336 243.132C123.512 266.243 112.397 305.351 112.397 305.351H100.054C100.054 305.351 105.108 267.594 104.559 244.896C103.96 220.152 71.099 200.628 71.099 181.539C83.15 181.539 96.716 181.539 96.716 181.539Z" fill="#407BFF"/>
<path opacity="0.6" d="M96.716 181.539C96.716 181.539 125.129 220.913 124.336 243.132C123.512 266.243 112.397 305.351 112.397 305.351H100.054C100.054 305.351 105.108 267.594 104.559 244.896C103.96 220.152 71.099 200.628 71.099 181.539C83.15 181.539 96.716 181.539 96.716 181.539Z" fill="white"/>
<path d="M82.892 181.539C82.892 181.539 97.37 222.118 92.831 242.979C87.86 265.823 63.625 305.351 63.625 305.351H50.28C50.28 305.351 68.136 267.667 70.972 245.05C74.051 220.503 57.745 199.795 57.745 181.54C72.67 181.539 82.892 181.539 82.892 181.539Z" fill="#407BFF"/>
<path opacity="0.6" d="M82.892 181.539C82.892 181.539 97.37 222.118 92.831 242.979C87.86 265.823 63.625 305.351 63.625 305.351H50.28C50.28 305.351 68.136 267.667 70.972 245.05C74.051 220.503 57.745 199.795 57.745 181.54C72.67 181.539 82.892 181.539 82.892 181.539Z" fill="white"/>
<path d="M65.986 305.639H48.541V300.944L68.041 300.639L65.986 305.639Z" fill="#407BFF"/>
<path opacity="0.4" d="M65.986 305.639H48.541V300.944L68.041 300.639L65.986 305.639Z" fill="white"/>
<path d="M115.152 305.639H97.708V300.889L117.208 300.639L115.152 305.639Z" fill="#407BFF"/>
<path opacity="0.4" d="M115.152 305.639H97.708V300.889L117.208 300.639L115.152 305.639Z" fill="white"/>
<path d="M80.466 91.883C80.466 92.471 80.777 92.947 81.162 92.947C81.546 92.947 81.857 92.471 81.857 91.883C81.857 91.295 81.546 90.819 81.162 90.819C80.778 90.818 80.466 91.295 80.466 91.883Z" fill="#263238"/>
<path d="M87.109 91.883C87.109 92.471 87.42 92.947 87.804 92.947C88.188 92.947 88.5 92.471 88.5 91.883C88.5 91.295 88.189 90.819 87.804 90.819C87.421 90.818 87.109 91.295 87.109 91.883Z" fill="#263238"/>
<path d="M84.997 92.175C84.997 92.175 86.333 95.565 87.804 97.201C86.764 98.171 84.997 97.728 84.997 97.728V92.175Z" fill="#DE5753"/>
<path d="M83.285 99.351C80.52 99.351 79.253 97.455 79.2 97.374C79.148 97.294 79.171 97.188 79.25 97.135C79.328 97.083 79.436 97.105 79.489 97.185C79.501 97.203 80.713 99.005 83.284 99.005C83.379 99.005 83.456 99.082 83.456 99.177C83.457 99.273 83.38 99.351 83.285 99.351Z" fill="#263238"/>
<path d="M78.464 89.7401C78.392 89.7401 78.319 89.717 78.256 89.67C78.104 89.555 78.074 89.3391 78.189 89.1861C79.342 87.6641 80.934 87.761 80.999 87.762C81.189 87.775 81.332 87.9401 81.319 88.1301C81.306 88.3201 81.142 88.469 80.952 88.45C80.902 88.449 79.658 88.3871 78.739 89.6021C78.672 89.6931 78.569 89.7401 78.464 89.7401Z" fill="#263238"/>
<path d="M103.232 233.858L163.157 188.124C165.387 186.422 165.815 183.235 164.113 181.005L148.949 161.136C148.239 166.188 145.379 170.94 140.563 173.896C133.499 178.233 124.16 177.034 118.43 171.044C110.933 163.207 112.075 150.853 120.45 144.462C124.336 141.496 129.049 140.373 133.543 140.949L118.379 121.08C116.677 118.85 113.49 118.422 111.26 120.124L51.335 165.858C49.105 167.56 48.677 170.747 50.379 172.978L96.113 232.903C97.814 235.132 101.002 235.56 103.232 233.858Z" fill="#0020A0"/>
<path d="M90.017 89.601C89.889 89.601 89.766 89.53 89.706 89.407C89.04 88.036 87.811 87.854 87.759 87.847C87.571 87.821 87.438 87.648 87.463 87.46C87.488 87.272 87.663 87.137 87.847 87.163C87.914 87.171 89.493 87.389 90.327 89.106C90.41 89.277 90.339 89.484 90.167 89.567C90.119 89.589 90.068 89.601 90.017 89.601Z" fill="#263238"/>
<path d="M62.737 128.433C61.845 130.606 60.85 133.014 60.007 135.349C59.127 137.7 58.311 140.069 57.538 142.435C56.772 144.807 56.104 147.181 55.516 149.547L55.106 151.322L54.754 153.084C54.622 153.675 54.547 154.253 54.457 154.834L54.322 155.707L54.288 155.925C54.273 156.025 54.284 155.947 54.277 155.967C54.266 155.95 54.267 155.977 54.258 155.994C54.201 156.23 54.394 157.161 54.74 158.076C55.085 159.018 55.58 160.044 56.133 161.069C57.246 163.133 58.582 165.236 60.002 167.308C62.853 171.443 65.994 175.605 69.151 179.627L65.305 183.517C61.092 180.105 57.192 176.493 53.524 172.434C51.701 170.397 49.929 168.276 48.294 165.882C47.482 164.674 46.695 163.412 45.98 161.959C45.283 160.485 44.576 158.906 44.355 156.519C44.336 156.21 44.318 155.909 44.33 155.565L44.346 155.117L44.364 154.847L44.438 153.768C44.489 153.049 44.53 152.322 44.624 151.623L44.879 149.506L45.224 147.427C45.718 144.673 46.317 141.962 47.066 139.322C47.793 136.673 48.634 134.073 49.557 131.509C50.03 130.231 50.516 128.959 51.027 127.693C51.534 126.406 52.056 125.206 52.686 123.856L62.737 128.433Z" fill="#E4897B"/>
<path d="M53.945 118.667C47.444 121.169 42.779 144.946 42.779 144.946L58.261 151.046C58.261 151.046 63.451 139.095 65.191 130.262C67.024 120.961 61.32 115.829 53.945 118.667Z" fill="#263238"/>
<path d="M60.832 315.636C60.158 315.636 59.432 315.496 58.926 315.374C58.859 315.357 58.807 315.303 58.796 315.233C58.785 315.165 58.816 315.096 58.875 315.059C59.14 314.892 61.492 313.451 62.296 313.863C62.421 313.927 62.574 314.064 62.592 314.351C62.616 314.737 62.496 315.043 62.235 315.263C61.905 315.541 61.386 315.636 60.832 315.636ZM59.427 315.131C60.664 315.38 61.615 315.335 62.014 314.999C62.189 314.853 62.266 314.647 62.248 314.373C62.24 314.239 62.185 314.194 62.139 314.171C61.723 313.954 60.383 314.578 59.427 315.131Z" fill="#407BFF"/>
<path d="M58.967 315.379C58.934 315.379 58.902 315.369 58.873 315.351C58.82 315.317 58.79 315.256 58.795 315.193C58.802 315.104 58.976 313.002 59.822 312.31C60.043 312.13 60.289 312.049 60.557 312.088C60.97 312.138 61.078 312.393 61.106 312.539C61.26 313.352 59.802 314.948 59.048 315.357C59.023 315.372 58.995 315.379 58.967 315.379ZM60.437 312.425C60.295 312.425 60.165 312.475 60.041 312.576C59.498 313.019 59.266 314.245 59.181 314.859C59.931 314.29 60.859 313.084 60.768 312.604C60.76 312.56 60.74 312.458 60.516 312.429C60.489 312.427 60.463 312.425 60.437 312.425Z" fill="#407BFF"/>
<path d="M111.702 315.636C110.9 315.636 110.03 315.498 109.413 315.375C109.341 315.361 109.286 315.303 109.276 315.23C109.266 315.157 109.302 315.086 109.368 315.052C109.698 314.881 112.627 313.397 113.512 313.889C113.683 313.985 113.782 314.143 113.797 314.349C113.823 314.693 113.714 314.975 113.474 315.188C113.095 315.524 112.426 315.636 111.702 315.636ZM109.989 315.13C111.596 315.398 112.797 315.328 113.245 314.93C113.403 314.79 113.471 314.61 113.453 314.375C113.446 314.285 113.413 314.229 113.344 314.191C112.865 313.921 111.193 314.556 109.989 315.13Z" fill="#407BFF"/>
<path d="M109.447 315.379C109.411 315.379 109.376 315.368 109.346 315.347C109.296 315.311 109.269 315.251 109.275 315.19C109.283 315.107 109.479 313.144 110.406 312.383C110.689 312.151 111.01 312.05 111.363 312.087C111.837 312.135 111.974 312.376 112.006 312.569C112.139 313.392 110.398 314.969 109.518 315.363C109.495 315.374 109.471 315.379 109.447 315.379ZM111.224 312.425C111.005 312.425 110.809 312.499 110.625 312.65C110.016 313.15 109.757 314.324 109.664 314.897C110.561 314.357 111.745 313.119 111.665 312.624C111.659 312.584 111.639 312.462 111.328 312.431C111.293 312.427 111.258 312.425 111.224 312.425Z" fill="#407BFF"/>
<path d="M67.489 178.655L74.637 180.556L68.711 187.733C68.711 187.733 62.985 184.763 64.22 181.554L67.489 178.655Z" fill="#E4897B"/>
<path d="M79.812 186.526L74.637 192.145L68.711 187.733L74.637 180.556L79.812 186.526Z" fill="#E4897B"/>
</svg>
