<svg width="391" height="344" viewBox="0 0 391 344" fill="none" xmlns="http://www.w3.org/2000/svg">
<path d="M259.968 45.243C188.275 61.817 97.148 -34.537 29.658 24.666C-65.421 108.071 93.308 184.612 156.317 202.323C239.657 225.748 325.588 204.377 366.993 121.3C385.055 85.059 399.195 34.474 355.102 9.45804C303.771 -19.667 305.398 34.74 259.968 45.243Z" fill="#002DE5" fill-opacity="0.1"/>
<path d="M197 343.561C304.082 343.561 390.889 338.492 390.889 332.238C390.889 325.985 304.082 320.915 197 320.915C89.9181 320.915 3.111 325.985 3.111 332.238C3.111 338.492 89.9181 343.561 197 343.561Z" fill="#000F4B"/>
<path d="M199.758 314.627L205.635 319.886L216.819 308.239L210.941 302.979L199.758 314.627Z" fill="#FF8B7B"/>
<path d="M219.887 325.575H227.301L228.264 308.407H220.85L219.887 325.575Z" fill="#FF8B7B"/>
<path d="M227.69 324.717H219.361C219.058 324.717 218.829 324.927 218.811 325.223L218.407 331.813C218.365 332.497 219.007 333.143 219.705 333.131C222.605 333.081 223.99 332.91 227.653 332.91C229.906 332.91 239.486 333.144 242.598 333.144C245.641 333.144 245.621 330.067 244.302 329.788C238.389 328.538 231.06 326.815 228.967 325.171C228.589 324.876 228.133 324.717 227.69 324.717Z" fill="#0F264C"/>
<path d="M207.257 317.776L200.112 312.966C199.844 312.786 199.505 312.796 199.294 312.989L193.833 318.5C193.348 318.947 193.506 319.717 194.096 320.171C198.654 323.681 201.947 326.331 204.541 329.25C207.574 332.663 209.166 333.145 216.166 333.145C219.404 333.145 221.235 330.418 219.916 330C208.249 326.306 211.368 324.7 208.535 319.291C208.228 318.703 207.821 318.156 207.257 317.776Z" fill="#0F264C"/>
<path d="M255.682 79.4091C255.818 79.8461 256.043 80.5161 256.245 81.0811L256.886 82.8661C257.329 84.0571 257.808 85.2411 258.318 86.4061C259.335 88.7361 260.441 91.0181 261.676 93.1741C264.134 97.4761 267.124 101.367 270.646 103.858L271.266 104.285C271.274 104.299 271.266 104.319 271.262 104.326C271.249 104.348 271.259 104.393 271.407 104.413C271.701 104.47 272.482 104.308 273.339 103.891C275.085 103.045 277.096 101.523 278.939 99.8211C280.826 98.1261 282.643 96.2161 284.424 94.2441C286.211 92.2901 287.958 90.1771 289.611 88.1471L294.375 91.0261C291.845 96.2481 288.938 101.086 285.111 105.703C283.141 107.967 281.055 110.238 278.006 112.147C276.468 113.075 274.637 113.991 272.169 114.279C270.943 114.406 269.556 114.311 268.228 113.917C267.563 113.727 266.926 113.454 266.328 113.142L265.182 112.492C262.274 110.78 259.793 108.62 257.664 106.292C255.513 103.973 253.702 101.468 252.106 98.8931C250.501 96.3191 249.137 93.6551 247.937 90.9361C247.343 89.5731 246.791 88.1981 246.275 86.8031C246.019 86.1051 245.764 85.4041 245.534 84.6891C245.299 83.9471 245.098 83.3041 244.855 82.4151L255.682 79.4091Z" fill="#FF8B7B"/>
<path d="M242.163 77.992C239.895 84.625 253.23 104.158 253.23 104.158L266.018 97.08C266.018 97.08 262.537 87.144 258.338 79.277C253.832 70.836 244.652 70.713 242.163 77.992Z" fill="#002DE5"/>
<path d="M241.969 78.832C244.829 77.456 248.128 78.607 251.591 84.086C255.01 89.508 258.015 98.721 258.338 101.333L253.228 104.159C253.228 104.159 240.915 86.122 241.969 78.832Z" fill="#0C203D"/>
<path d="M289.34 87.959L291.992 81.515L297.934 86.06C297.934 86.06 294.319 93.325 291.867 92.666L289.34 87.959Z" fill="#FF8B7B"/>
<path d="M300.417 80.694L303.194 84.1L297.934 86.061L291.992 81.515L300.417 80.694Z" fill="#FF8B7B"/>
<path d="M216.815 308.241L211.051 314.246L205.171 308.984L210.935 302.979L216.815 308.241Z" fill="#EA7063"/>
<path d="M220.848 308.412H228.265L227.765 317.261H220.348L220.848 308.412Z" fill="#EA7063"/>
<path d="M250.79 72.919C250.79 72.919 260.316 95.306 253.452 136.998C241.504 136.998 219.613 136.998 213.799 136.998C213.315 130.911 216.109 101.218 209.244 72.537C209.244 72.537 215.993 71.173 222.46 70.861C227.518 70.617 234.848 70.455 239.316 70.862C245.206 71.398 250.79 72.919 250.79 72.919Z" fill="#002DE5"/>
<path d="M218.102 79.618C218.926 84.338 217.829 95.631 213.786 108.681C213.424 98.638 212.416 86.993 209.892 75.39L209.89 75.334C212.494 75.067 217.317 75.194 218.102 79.618Z" fill="#0C203D"/>
<path d="M223.471 51.881C224.722 57.305 226.128 67.242 222.459 70.861C222.459 70.861 224.042 75.354 234.12 75.354C245.201 75.354 239.315 70.861 239.315 70.861C233.217 69.417 233.217 64.929 234.125 60.715L223.471 51.881Z" fill="#FF8B7B"/>
<path d="M227.814 55.486L234.12 60.711C233.902 61.708 233.74 62.72 233.704 63.703C231.382 63.369 228.12 60.833 227.791 58.414C227.627 57.208 227.637 56.048 227.814 55.486Z" fill="#EA7063"/>
<path d="M236.619 33.498C240.417 34.788 243.44 44.837 239.024 47.491C234.607 50.145 229.426 31.055 236.619 33.498Z" fill="#0F264C"/>
<path d="M221.101 46.198C223.36 53.221 224.323 57.434 228.88 60.296C235.734 64.6 243.757 59.402 243.653 51.921C243.56 45.187 239.881 34.833 232.135 33.536C224.504 32.257 218.841 39.174 221.101 46.198Z" fill="#FF8B7B"/>
<path d="M213.556 35.611C210.223 37.5 208.597 42.446 212.111 46.556C216.722 51.948 224.682 55.263 226.868 53.086C230.514 51.542 229.375 48.958 224.005 41.138C226.25 40.916 241.651 39.859 244.889 31.055C246.667 26.222 239.378 20.083 231.668 19.666C234.667 27.222 214.125 27 213.556 35.611Z" fill="#263238"/>
<path d="M219.865 54.754C221.301 56.168 223.245 56.817 224.887 56.816C227.357 56.815 227.855 54.479 226.55 52.524C225.376 50.764 222.676 48.644 220.494 49.586C218.345 50.515 218.223 53.137 219.865 54.754Z" fill="#FF8B7B"/>
<path d="M253.452 136.998C253.452 136.998 261.261 191.056 263.927 220.483C266.066 244.086 215.015 314.515 215.015 314.515L205.139 305.222C205.139 305.222 242.427 242.111 239.557 215.833C236.777 190.379 227.352 136.997 227.352 136.997H253.452V136.998Z" fill="#9FC6FF"/>
<path d="M239.553 215.83C238.123 202.72 234.923 182.18 232.173 165.36C233.613 162.54 237.651 156.833 237.651 156.833C241.271 169.343 249.139 216.5 237.913 280.19C226.213 299.05 215.013 314.51 215.013 314.51L213.483 290.19C224.293 269.85 241.543 234.02 239.553 215.83Z" fill="#77B3FC"/>
<path d="M204.539 304.658L215.616 315.08L219.181 311.25L206.514 299.708L204.539 304.658Z" fill="#0053CC"/>
<path d="M239.352 136.998C239.352 136.998 240.058 193.654 238.855 214.879C237.538 238.122 230.945 315.125 230.945 315.125H217.367C217.367 315.125 217.772 239.999 216.954 216.986C216.066 192.009 213.766 136.998 213.766 136.998H239.352Z" fill="#9FC6FF"/>
<path d="M216.819 315.125H231.492L232.306 309.972L216.112 310.778L216.819 315.125Z" fill="#0053CC"/>
<path d="M231.966 45.9841C232.114 46.5641 232.544 46.9661 232.925 46.8821C233.307 46.7981 233.496 46.2611 233.348 45.6811C233.2 45.1011 232.77 44.6991 232.388 44.7831C232.007 44.8661 231.818 45.4041 231.966 45.9841Z" fill="#0F264C"/>
<path d="M238.569 44.539C238.717 45.119 239.147 45.521 239.529 45.437C239.911 45.353 240.1 44.816 239.952 44.236C239.804 43.656 239.374 43.254 238.992 43.338C238.61 43.421 238.421 43.959 238.569 44.539Z" fill="#0F264C"/>
<path d="M237.068 45.11C237.068 45.11 239.251 48.164 241.125 49.458C240.336 50.641 238.467 50.588 238.467 50.588L237.068 45.11Z" fill="#FF5652"/>
<path d="M236.318 53.197C234.29 53.197 233.05 52.06 232.99 52.003C232.92 51.937 232.916 51.826 232.982 51.755C233.048 51.686 233.159 51.682 233.23 51.747C233.246 51.762 234.906 53.277 237.468 52.72C237.563 52.698 237.656 52.759 237.677 52.854C237.697 52.949 237.637 53.043 237.542 53.063C237.109 53.157 236.7 53.197 236.318 53.197Z" fill="#0F264C"/>
<path d="M229.874 44.14C229.827 44.14 229.779 44.131 229.734 44.111C229.556 44.033 229.474 43.827 229.551 43.649C230.316 41.889 231.925 41.634 231.993 41.624C232.191 41.597 232.364 41.729 232.391 41.921C232.418 42.112 232.287 42.29 232.096 42.319C232.043 42.327 230.799 42.537 230.195 43.928C230.139 44.061 230.01 44.14 229.874 44.14Z" fill="#0F264C"/>
<path d="M241.431 41.852C241.333 41.876 241.226 41.857 241.139 41.793C239.855 40.841 238.618 41.251 238.602 41.252C238.384 41.32 238.218 41.216 238.156 41.033C238.093 40.85 238.192 40.65 238.375 40.588C238.445 40.566 239.983 40.062 241.557 41.229C241.713 41.345 241.746 41.565 241.63 41.72C241.58 41.788 241.508 41.833 241.431 41.852Z" fill="#0F264C"/>
<path d="M216.811 83.682L215.053 86.716C214.458 87.755 213.878 88.809 213.314 89.869C212.177 91.985 211.076 94.118 210.03 96.262C209.005 98.411 208.02 100.572 207.141 102.739C206.303 104.909 205.468 107.089 204.891 109.243L204.772 109.649L204.712 109.852C204.692 109.921 204.703 109.879 204.695 109.897C204.674 109.907 204.659 109.986 204.638 110.077C204.605 110.283 204.606 110.618 204.641 111.006C204.705 111.794 204.92 112.778 205.228 113.785C205.858 115.811 206.742 117.991 207.762 120.127C209.783 124.421 212.19 128.796 214.616 133.02L210.23 136.448C206.57 132.69 203.306 128.75 200.351 124.32C198.909 122.085 197.498 119.78 196.357 117.105C195.785 115.764 195.259 114.336 194.897 112.649C194.724 111.801 194.599 110.881 194.593 109.831C194.599 109.295 194.623 108.746 194.72 108.139L194.79 107.722L194.841 107.467L194.944 106.958C195.992 101.486 197.813 96.457 199.901 91.612C200.954 89.195 202.102 86.837 203.329 84.524C203.947 83.37 204.581 82.226 205.236 81.088C205.891 79.929 206.546 78.862 207.33 77.652L216.811 83.682Z" fill="#FF8B7B"/>
<path d="M209.243 72.537C202.264 73.557 195.074 97.862 195.074 97.862L210.094 106.183C210.094 106.183 216.181 94.623 219.083 86.039C222.124 77.045 216.728 71.443 209.243 72.537Z" fill="#002DE5"/>
<path d="M230.318 326.008C229.633 326.008 228.875 325.867 228.341 325.743C228.275 325.727 228.224 325.675 228.21 325.607C228.197 325.541 228.226 325.472 228.281 325.433C228.517 325.269 230.629 323.831 231.521 324.19C231.731 324.272 231.871 324.441 231.923 324.678C232.011 325.072 231.939 325.387 231.707 325.616C231.415 325.909 230.893 326.008 230.318 326.008ZM228.817 325.493C230.141 325.757 231.121 325.716 231.465 325.372C231.609 325.229 231.649 325.027 231.588 324.755C231.56 324.629 231.499 324.552 231.397 324.512C230.91 324.325 229.676 324.946 228.817 325.493Z" fill="#407BFF"/>
<path d="M228.381 325.748C228.354 325.748 228.326 325.741 228.302 325.728C228.249 325.701 228.214 325.648 228.209 325.589C228.201 325.498 228.035 323.366 228.783 322.646C228.985 322.451 229.236 322.364 229.515 322.405C229.857 322.446 230.079 322.632 230.142 322.927C230.313 323.737 229.207 325.284 228.468 325.723C228.442 325.739 228.411 325.748 228.381 325.748ZM229.395 322.742C229.252 322.742 229.129 322.793 229.023 322.894C228.577 323.324 228.516 324.545 228.537 325.249C229.182 324.704 229.918 323.528 229.806 322.998C229.785 322.897 229.728 322.777 229.476 322.746C229.447 322.744 229.42 322.742 229.395 322.742Z" fill="#407BFF"/>
<path d="M212.058 321.794C210.969 321.794 209.331 320.94 208.358 320.369C208.293 320.331 208.259 320.255 208.277 320.181C208.294 320.108 208.357 320.054 208.432 320.048C208.83 320.019 212.342 319.781 213.012 320.587C213.131 320.73 213.169 320.901 213.121 321.081C213.042 321.38 212.864 321.588 212.592 321.7C212.438 321.766 212.257 321.794 212.058 321.794ZM209.038 320.359C210.639 321.235 211.903 321.62 212.46 321.381C212.63 321.312 212.737 321.185 212.787 320.993C212.807 320.92 212.794 320.865 212.747 320.807C212.38 320.368 210.473 320.297 209.038 320.359Z" fill="#407BFF"/>
<path d="M208.444 320.394C208.385 320.394 208.331 320.364 208.299 320.315C208.267 320.264 208.263 320.201 208.289 320.146C208.345 320.03 209.682 317.311 211.392 318.128C211.864 318.353 211.914 318.632 211.872 318.826C211.699 319.631 209.47 320.371 208.448 320.394H208.444ZM210.756 318.324C209.84 318.324 209.062 319.482 208.748 320.023C209.813 319.886 211.434 319.223 211.534 318.752C211.557 318.647 211.46 318.54 211.244 318.437C211.078 318.358 210.915 318.324 210.756 318.324Z" fill="#407BFF"/>
<path d="M212.633 131.379L220.015 130.093L216.227 138.637C216.227 138.637 209.489 138.598 209.798 135.125L212.633 131.379Z" fill="#FF8B7B"/>
<path d="M225.521 134.387L222.054 141.29L216.226 138.637L220.014 130.093L225.521 134.387Z" fill="#FF8B7B"/>
<path d="M166.547 237.111C107.97 237.111 60.315 164.129 60.315 74.421C60.315 73.869 60.763 73.421 61.315 73.421C61.867 73.421 62.315 73.869 62.315 74.421C62.315 163.026 109.073 235.111 166.547 235.111C224.021 235.111 270.778 163.026 270.778 74.421C270.778 73.869 271.225 73.421 271.778 73.421C272.331 73.421 272.778 73.869 272.778 74.421C272.778 164.129 225.123 237.111 166.547 237.111Z" fill="#318FFF"/>
<path d="M119.176 202.095H61.315V213.839H119.176V202.095Z" fill="#318FFF"/>
<path d="M119.176 161.233H61.315V172.978H119.176V161.233Z" fill="#318FFF"/>
<path d="M119.176 120.371H61.315V132.115H119.176V120.371Z" fill="#318FFF"/>
<path d="M119.176 84.1001H61.315V95.8441H119.176V84.1001Z" fill="#318FFF"/>
<path d="M119.774 202.095H107.042V213.839H119.774V202.095Z" fill="#0053CC"/>
<path d="M120.682 161.233H107.95V172.977H120.682V161.233Z" fill="#0053CC"/>
<path d="M121.488 120.372H108.756V132.116H121.488V120.372Z" fill="#0053CC"/>
<path d="M122.294 84.1001H109.562V95.8441H122.294V84.1001Z" fill="#0053CC"/>
<path d="M127.464 307.5H110.889V332.052H127.464V307.5Z" fill="#318FFF"/>
<path d="M126.555 161.233H111.797V202.095H126.555V161.233Z" fill="#318FFF"/>
<path d="M125.75 120.371H112.603V161.233H125.75V120.371Z" fill="#318FFF"/>
<path d="M124.944 79.509H113.408V120.371H124.944V79.509Z" fill="#318FFF"/>
<path d="M280.066 202.095H263.491V307.5H280.066V202.095Z" fill="#318FFF"/>
<path d="M280.066 253.55H263.491V266.833L280.066 275.167V253.55Z" fill="#0053CC"/>
<path d="M69.602 202.095H53.027V307.5H69.602V202.095Z" fill="#318FFF"/>
<path d="M69.602 253.55H53.027V266.833L69.602 275.167V253.55Z" fill="#0053CC"/>
<path d="M35.112 244.639H20.076V245.639H35.112V244.639Z" fill="#318FFF"/>
<path d="M17.853 244.639H13.853V245.639H17.853V244.639Z" fill="#318FFF"/>
<path d="M390.889 248.138H3.111V259.461H390.889V248.138Z" fill="#318FFF"/>
<path d="M134 248.138H119.176V259.461H134V248.138Z" fill="#0053CC"/>
<path d="M127.464 202.095H110.889V307.5H127.464V202.095Z" fill="#318FFF"/>
<path d="M129.176 307.5H109.176V332.052H129.176V307.5Z" fill="#318FFF"/>
<path d="M71.315 307.5H51.315V332.052H71.315V307.5Z" fill="#318FFF"/>
<path d="M68.694 161.233H53.936V202.095H68.694V161.233Z" fill="#318FFF"/>
<path d="M67.888 120.371H54.741V161.233H67.888V120.371Z" fill="#318FFF"/>
<path d="M67.083 79.509H55.547V120.371H67.083V79.509Z" fill="#318FFF"/>
<path d="M122.676 79.509H115.676V72.833C115.676 70.9 117.243 69.333 119.176 69.333C121.109 69.333 122.676 70.9 122.676 72.833V79.509Z" fill="#318FFF"/>
<path d="M64.815 79.509H57.815V72.833C57.815 70.9 59.382 69.333 61.315 69.333C63.248 69.333 64.815 70.9 64.815 72.833V79.509Z" fill="#318FFF"/>
<path d="M329.64 202.095H271.779V213.839H329.64V202.095Z" fill="#318FFF"/>
<path d="M329.64 161.233H271.779V172.978H329.64V161.233Z" fill="#318FFF"/>
<path d="M329.64 120.371H271.779V132.115H329.64V120.371Z" fill="#318FFF"/>
<path d="M329.64 84.1001H271.779V95.8441H329.64V84.1001Z" fill="#318FFF"/>
<path d="M330.238 202.095H317.506V213.839H330.238V202.095Z" fill="#0053CC"/>
<path d="M331.146 161.233H318.414V172.977H331.146V161.233Z" fill="#0053CC"/>
<path d="M331.952 120.372H319.22V132.116H331.952V120.372Z" fill="#0053CC"/>
<path d="M332.758 84.1001H320.026V95.8441H332.758V84.1001Z" fill="#0053CC"/>
<path d="M337.928 307.5H321.353V332.052H337.928V307.5Z" fill="#318FFF"/>
<path d="M337.019 161.233H322.261V202.095H337.019V161.233Z" fill="#318FFF"/>
<path d="M336.214 120.371H323.067V161.233H336.214V120.371Z" fill="#318FFF"/>
<path d="M335.408 79.509H323.872V120.371H335.408V79.509Z" fill="#318FFF"/>
<path d="M344.464 248.138H329.64V259.461H344.464V248.138Z" fill="#0053CC"/>
<path d="M337.928 202.095H321.353V307.5H337.928V202.095Z" fill="#318FFF"/>
<path d="M339.64 307.5H319.64V332.052H339.64V307.5Z" fill="#318FFF"/>
<path d="M281.779 307.5H261.779V332.052H281.779V307.5Z" fill="#318FFF"/>
<path d="M279.158 161.233H264.4V202.095H279.158V161.233Z" fill="#318FFF"/>
<path d="M278.352 120.371H265.205V161.233H278.352V120.371Z" fill="#318FFF"/>
<path d="M277.547 79.509H266.011V120.371H277.547V79.509Z" fill="#318FFF"/>
<path d="M333.14 79.509H326.14V72.833C326.14 70.9 327.707 69.333 329.64 69.333C331.573 69.333 333.14 70.9 333.14 72.833V79.509Z" fill="#318FFF"/>
<path d="M275.279 79.509H268.279V72.833C268.279 70.9 269.846 69.333 271.779 69.333C273.712 69.333 275.279 70.9 275.279 72.833V79.509Z" fill="#318FFF"/>
<path d="M224.408 237.111C165.831 237.111 118.176 164.129 118.176 74.421C118.176 73.869 118.624 73.421 119.176 73.421C119.728 73.421 120.176 73.869 120.176 74.421C120.176 163.026 166.934 235.111 224.408 235.111C281.882 235.111 328.64 163.026 328.64 74.421C328.64 73.869 329.087 73.421 329.64 73.421C330.193 73.421 330.64 73.869 330.64 74.421C330.641 164.129 282.985 237.111 224.408 237.111Z" fill="#318FFF"/>
</svg>
