<svg width="449" height="354" viewBox="0 0 449 354" fill="none" xmlns="http://www.w3.org/2000/svg">
<path d="M131.922 19.352C151.864 8.13597 174.239 1.07098 197.054 0.916975C223.812 0.735975 251.078 10.691 269.326 30.262C276.698 38.169 282.489 47.425 289.727 55.455C296.965 63.484 306.209 70.479 316.944 71.754C328.483 73.124 339.74 67.742 351.337 67.011C378.351 65.308 397.277 90.242 398.956 115.129C400.951 144.707 379.11 175.472 359.409 195.221C335.515 219.172 307.553 238.422 280.729 258.849C254.603 278.745 230.927 302.27 202.07 318.341C189.508 325.337 175.711 330.938 161.332 331.083C139.514 331.304 122.595 318.155 118.742 296.631C116.35 283.268 118.674 269.693 116.469 256.29C111.026 223.211 80.499 200.345 66.874 169.714C55.503 144.15 56.808 113.878 67.7 88.106C78.592 62.334 98.462 40.938 121.813 25.524C125.102 23.352 128.476 21.29 131.922 19.352Z" fill="#002DE5" fill-opacity="0.1"/>
<path d="M229 353.561C336.082 353.561 422.889 348.492 422.889 342.238C422.889 335.985 336.082 330.915 229 330.915C121.918 330.915 35.111 335.985 35.111 342.238C35.111 348.492 121.918 353.561 229 353.561Z" fill="#000F4B"/>
<path d="M256.333 342.238H201.667L210.924 269.57H247.076L256.333 342.238Z" fill="#407BFF"/>
<path opacity="0.6" d="M256.33 342.24H201.668L208.003 292.523L210.925 269.57H247.073L251.388 303.432L256.33 342.24Z" fill="white"/>
<path opacity="0.1" d="M251.388 303.432L208.003 292.523L210.925 269.57H247.073L251.388 303.432Z" fill="black"/>
<path d="M357.866 90.3821H352.403H105.596H100.133C96.49 90.3821 93.538 93.3351 93.538 96.9771V271.458C93.538 275.1 96.491 278.053 100.133 278.053H105.596H352.404H357.867C361.51 278.053 364.463 275.1 364.463 271.458V96.9771C364.462 93.3351 361.509 90.3821 357.866 90.3821Z" fill="#407BFF"/>
<path opacity="0.7" d="M357.866 90.3821H352.403H105.596H100.133C96.49 90.3821 93.538 93.3351 93.538 96.9771V271.458C93.538 275.1 96.491 278.053 100.133 278.053H105.596H352.404H357.867C361.51 278.053 364.463 275.1 364.463 271.458V96.9771C364.462 93.3351 361.509 90.3821 357.866 90.3821Z" fill="white"/>
<path d="M355.787 96.8411H102.217V265.091H355.787V96.8411Z" fill="#407BFF"/>
<path d="M274.908 336.778H183.091C182.519 336.778 182.054 337.242 182.054 337.815V341.114C182.054 341.687 182.518 342.151 183.091 342.151H274.908C275.481 342.151 275.945 341.687 275.945 341.114V337.815C275.945 337.242 275.481 336.778 274.908 336.778Z" fill="#407BFF"/>
<path opacity="0.7" d="M274.908 336.778H183.091C182.519 336.778 182.054 337.242 182.054 337.815V341.114C182.054 341.687 182.518 342.151 183.091 342.151H274.908C275.481 342.151 275.945 341.687 275.945 341.114V337.815C275.945 337.242 275.481 336.778 274.908 336.778Z" fill="white"/>
<path opacity="0.2" d="M355.787 97.001H102.217V122.079H355.787V97.001Z" fill="black"/>
<path opacity="0.4" d="M210.879 122.376H102.217V265.091H210.879V122.376Z" fill="white"/>
<path d="M316.762 158.781V161.281H314.262" stroke="white" stroke-miterlimit="10"/>
<path d="M308.978 161.281H227.08" stroke="white" stroke-miterlimit="10" stroke-dasharray="5.28 5.28"/>
<path d="M224.439 161.281H221.939V158.781" stroke="white" stroke-miterlimit="10"/>
<path d="M221.939 154.252V111.222" stroke="white" stroke-miterlimit="10" stroke-dasharray="4.53 4.53"/>
<path d="M221.939 108.958V106.458H224.439" stroke="white" stroke-miterlimit="10"/>
<path d="M229.722 106.458H311.62" stroke="white" stroke-miterlimit="10" stroke-dasharray="5.28 5.28"/>
<path d="M314.262 106.458H316.762V108.958" stroke="white" stroke-miterlimit="10"/>
<path d="M316.762 113.487V156.516" stroke="white" stroke-miterlimit="10" stroke-dasharray="4.53 4.53"/>
<path d="M318.347 104.873H315.177V108.043H318.347V104.873Z" fill="#407BFF" stroke="white" stroke-miterlimit="10"/>
<path d="M318.347 159.696H315.177V162.866H318.347V159.696Z" fill="#407BFF" stroke="white" stroke-miterlimit="10"/>
<path d="M223.523 104.873H220.353V108.043H223.523V104.873Z" fill="#407BFF" stroke="white" stroke-miterlimit="10"/>
<path d="M223.523 159.696H220.353V162.866H223.523V159.696Z" fill="#407BFF" stroke="white" stroke-miterlimit="10"/>
<path d="M270.935 104.873H267.765V108.043H270.935V104.873Z" fill="#407BFF" stroke="white" stroke-miterlimit="10"/>
<path d="M270.935 159.696H267.765V162.866H270.935V159.696Z" fill="#407BFF" stroke="white" stroke-miterlimit="10"/>
<path d="M318.347 132.284H315.177V135.454H318.347V132.284Z" fill="#407BFF" stroke="white" stroke-miterlimit="10"/>
<path d="M223.523 132.284H220.353V135.454H223.523V132.284Z" fill="#407BFF" stroke="white" stroke-miterlimit="10"/>
<path opacity="0.7" d="M308.15 134.858H284.948C283.902 134.858 283.054 134.01 283.054 132.965V126.766C283.054 125.72 283.902 124.873 284.948 124.873H308.15C309.196 124.873 310.044 125.721 310.044 126.766V132.965C310.044 134.01 309.196 134.858 308.15 134.858Z" fill="white"/>
<path opacity="0.7" d="M268.15 134.858H244.948C243.902 134.858 243.054 134.01 243.054 132.965V126.766C243.054 125.72 243.902 124.873 244.948 124.873H268.15C269.196 124.873 270.044 125.721 270.044 126.766V132.965C270.044 134.01 269.196 134.858 268.15 134.858Z" fill="white"/>
<path d="M339.055 105.918H347.495" stroke="white" stroke-width="1.5" stroke-miterlimit="10" stroke-linecap="round" stroke-linejoin="round"/>
<path d="M339.055 109.918H347.495" stroke="white" stroke-width="1.5" stroke-miterlimit="10" stroke-linecap="round" stroke-linejoin="round"/>
<path d="M339.055 113.918H347.495" stroke="white" stroke-width="1.5" stroke-miterlimit="10" stroke-linecap="round" stroke-linejoin="round"/>
<path opacity="0.5" d="M204.46 144.498H119.407V229.551H204.46V144.498Z" fill="white"/>
<path d="M155.011 151.455V224.815" stroke="#407BFF" stroke-miterlimit="10"/>
<path d="M191.691 224.815C171.433 224.815 155.011 208.393 155.011 188.135C155.011 167.877 171.433 151.455 191.691 151.455" stroke="#407BFF" stroke-miterlimit="10"/>
<path d="M193.276 149.87H190.106V153.04H193.276V149.87Z" fill="white" stroke="#407BFF" stroke-miterlimit="10"/>
<path d="M193.276 223.23H190.106V226.4H193.276V223.23Z" fill="white" stroke="#407BFF" stroke-miterlimit="10"/>
<path d="M156.596 186.55H153.426V189.72H156.596V186.55Z" fill="white" stroke="#407BFF" stroke-miterlimit="10"/>
<path d="M155.833 151.455C155.833 151.909 155.465 152.277 155.011 152.277C154.557 152.277 154.189 151.909 154.189 151.455C154.189 151.001 154.557 150.633 155.011 150.633C155.465 150.633 155.833 151.001 155.833 151.455Z" fill="white" stroke="#407BFF" stroke-miterlimit="10"/>
<path d="M155.833 224.815C155.833 225.269 155.465 225.637 155.011 225.637C154.557 225.637 154.189 225.269 154.189 224.815C154.189 224.361 154.557 223.993 155.011 223.993C155.465 223.993 155.833 224.361 155.833 224.815Z" fill="white" stroke="#407BFF" stroke-miterlimit="10"/>
<path opacity="0.7" d="M295.928 247.669H270.182C266.073 247.669 262.742 244.338 262.742 240.229C262.742 236.12 266.073 232.789 270.182 232.789H295.928C300.037 232.789 303.368 236.12 303.368 240.229C303.368 244.338 300.037 247.669 295.928 247.669Z" fill="white"/>
<path opacity="0.7" d="M318.551 184.218H239.011C238.113 184.218 237.385 183.49 237.385 182.592C237.385 181.694 238.113 180.966 239.011 180.966H318.551C319.449 180.966 320.177 181.694 320.177 182.592C320.177 183.49 319.449 184.218 318.551 184.218Z" fill="white"/>
<path opacity="0.7" d="M318.551 196.095H239.011C238.113 196.095 237.385 195.367 237.385 194.469C237.385 193.571 238.113 192.843 239.011 192.843H318.551C319.449 192.843 320.177 193.571 320.177 194.469C320.177 195.367 319.449 196.095 318.551 196.095Z" fill="white"/>
<path opacity="0.7" d="M318.551 207.971H269.011C268.113 207.971 267.385 207.243 267.385 206.345C267.385 205.447 268.113 204.719 269.011 204.719H318.551C319.449 204.719 320.177 205.447 320.177 206.345C320.177 207.243 319.449 207.971 318.551 207.971Z" fill="white"/>
<path opacity="0.4" d="M115.844 103.953H110.225V109.572H115.844V103.953Z" fill="black"/>
<path opacity="0.4" d="M125.33 109.572H122.59C121.795 109.572 121.15 108.927 121.15 108.133V105.393C121.15 104.598 121.795 103.954 122.59 103.954H125.33C126.125 103.954 126.77 104.599 126.77 105.393V108.133C126.77 108.927 126.125 109.572 125.33 109.572Z" fill="black"/>
<path opacity="0.4" d="M135.124 109.572H134.648C133.228 109.572 132.077 108.421 132.077 107.001V106.525C132.077 105.105 133.228 103.954 134.648 103.954H135.124C136.544 103.954 137.696 105.105 137.696 106.525V107C137.695 108.42 136.544 109.572 135.124 109.572Z" fill="black"/>
<path d="M316.177 105.892L320.419 117.23L327.515 110.135L316.177 105.892Z" fill="#407BFF"/>
<path d="M322.997 111.136L321.416 112.718L324.929 116.23L326.51 114.649L322.997 111.136Z" fill="#407BFF"/>
<path opacity="0.4" d="M327.515 110.135L316.177 105.892L320.419 117.23L323.177 114.473L324.933 116.229L326.514 114.648L324.758 112.892L327.515 110.135Z" fill="white"/>
<path d="M142.462 146.417L153.13 150.409L147.537 144.816C147.117 145.05 146.584 145.006 146.227 144.649C145.796 144.218 145.796 143.518 146.227 143.087C146.658 142.656 147.357 142.656 147.789 143.087C148.146 143.444 148.19 143.976 147.956 144.397L153.549 149.991L149.557 139.323L146.024 140.107L145.886 138.831L145.217 138.162L141.301 142.078L141.97 142.747L143.246 142.885L142.462 146.417Z" fill="#263238"/>
<path opacity="0.2" d="M142.462 146.417L153.13 150.409L147.537 144.816C147.117 145.05 146.584 145.006 146.227 144.649C145.796 144.218 145.796 143.518 146.227 143.087C146.658 142.656 147.357 142.656 147.789 143.087C148.146 143.444 148.19 143.976 147.956 144.397L153.549 149.991L149.557 139.323L146.024 140.107L145.886 138.831L145.217 138.162L141.301 142.078L141.97 142.747L143.246 142.885L142.462 146.417Z" fill="white"/>
<path d="M420.902 133.958C424.45 138.055 442.509 172.844 439.018 180.966C435.527 189.088 406.59 179.725 406.59 179.725L408.319 168.263C408.319 168.263 419.564 168.659 420.64 167.593C421.716 166.527 405.429 150.26 405.429 150.26L420.902 133.958Z" fill="#263238"/>
<g opacity="0.2">
<path d="M439.02 180.97C438.62 181.9 437.89 182.6 436.91 183.11C436.9 183.11 436.89 183.12 436.88 183.13C436.7 183.22 436.5 183.31 436.3 183.39C436.28 183.4 436.25 183.41 436.22 183.42C436.05 183.49 435.86 183.56 435.67 183.61C434.92 183.86 434.08 184.03 433.17 184.13C432.93 184.16 432.69 184.18 432.44 184.2C432.08 184.23 431.72 184.25 431.35 184.26C431.04 184.27 430.72 184.28 430.4 184.28C420.7 184.29 406.59 179.73 406.59 179.73L408.32 168.26C408.32 168.26 419.56 168.66 420.64 167.59C420.9 167.33 420.13 166.17 418.82 164.56C418.81 164.55 418.81 164.55 418.8 164.54C415.62 160.63 409.25 154.12 406.62 151.46C405.88 150.71 405.43 150.26 405.43 150.26L420.9 133.96C424.45 138.05 442.51 172.84 439.02 180.97Z" fill="white"/>
</g>
<path opacity="0.2" d="M436.91 183.11C436.9 183.11 436.89 183.12 436.88 183.13C436.7 183.22 436.5 183.31 436.3 183.39C436.28 183.4 436.25 183.41 436.22 183.42C436.05 183.49 435.86 183.56 435.67 183.61C434.92 183.86 434.08 184.03 433.17 184.13C432.93 184.16 432.69 184.18 432.44 184.2C432.08 184.23 431.72 184.25 431.35 184.26C431.04 184.27 430.72 184.28 430.4 184.28C420.7 184.29 406.59 179.73 406.59 179.73L408.32 168.26C408.32 168.26 420.98 169.33 422.06 168.26C422.08 168.24 422.08 168.23 422.09 168.21C422.29 167.79 420.89 166.37 418.82 164.56C418.81 164.55 418.81 164.55 418.8 164.54C415.62 160.63 409.25 154.12 406.62 151.46L413.94 143.64L419.51 143.04C419.51 143.04 431.81 162.95 436.91 183.11Z" fill="black"/>
<path d="M384.415 132.817C382.41 134.271 381.424 136.331 382.213 137.417L435.055 210.271C435.843 211.358 438.107 211.06 440.112 209.607C442.116 208.153 443.102 206.093 442.314 205.007L389.472 132.153C388.683 131.066 386.419 131.364 384.415 132.817Z" fill="#263238"/>
<path opacity="0.7" d="M389.469 132.154L442.311 205.008C443.098 206.093 442.111 208.155 440.111 209.605C438.103 211.061 435.844 211.353 435.058 210.268L382.216 137.414C381.781 136.815 381.888 135.923 382.409 134.989C382.65 134.555 382.987 134.1 383.412 133.681C383.703 133.383 384.044 133.087 384.416 132.817C386.415 131.367 388.682 131.069 389.469 132.154Z" fill="white"/>
<path opacity="0.3" d="M442.311 205.008C443.098 206.093 442.111 208.155 440.111 209.605C438.103 211.061 435.844 211.353 435.058 210.268C434.624 209.669 435.714 208.764 436.348 207.45L382.409 134.989C382.65 134.555 382.987 134.1 383.412 133.681L436.26 206.543C436.559 206.24 436.886 205.941 437.258 205.671C439.257 204.221 441.524 203.923 442.311 205.008Z" fill="black"/>
<path d="M377.87 130.796C376.178 132.604 375.6 134.813 376.58 135.731L442.28 197.241C443.26 198.159 445.427 197.437 447.119 195.629C448.811 193.822 449.389 191.612 448.408 190.695L382.708 129.185C381.729 128.267 379.563 128.988 377.87 130.796Z" fill="#407BFF"/>
<path opacity="0.7" d="M382.707 129.186L448.407 190.696C449.385 191.612 448.807 193.824 447.119 195.627C445.424 197.437 443.262 198.152 442.283 197.237L376.583 135.727C376.043 135.221 375.978 134.325 376.312 133.309C376.466 132.837 376.711 132.326 377.049 131.834C377.278 131.487 377.556 131.131 377.871 130.795C379.559 128.992 381.729 128.27 382.707 129.186Z" fill="white"/>
<path opacity="0.3" d="M448.407 190.695C449.385 191.611 448.807 193.823 447.119 195.626C445.424 197.436 443.262 198.151 442.283 197.236C441.743 196.73 442.642 195.635 443.015 194.225L376.312 133.309C376.466 132.837 376.711 132.326 377.049 131.834L442.756 193.351C442.992 192.997 443.256 192.641 443.571 192.305C445.26 190.502 447.429 189.78 448.407 190.695Z" fill="black"/>
<path d="M393.66 327.1L388.65 327.18C383.56 303.27 379.96 273.68 377.72 251.36C377.37 247.86 377.05 244.55 376.77 241.46C376.64 239.99 376.51 238.58 376.39 237.22C375.79 230.51 375.38 225.19 375.13 221.9C374.95 219.5 374.86 218.18 374.86 218.18H392.96L392.79 222.79L392.23 238.01L392.17 239.75L391.79 249.8L391.16 266.91C397.37 291 393.66 327.1 393.66 327.1Z" fill="#FF8B7B"/>
<path d="M434.26 325.82L429.33 326.75C419.46 302.08 410.19 270.49 404.16 248.42C403.23 245 402.37 241.8 401.6 238.9C401.56 238.75 401.53 238.61 401.49 238.47C399.97 232.71 398.8 228.12 398.07 225.21C397.51 222.93 397.2 221.68 397.2 221.68L415.04 218.6L416.05 226.1L417.54 237.12L417.83 239.28L418.84 246.79L421.55 266.93C431.77 289.61 434.26 325.82 434.26 325.82Z" fill="#FF8B7B"/>
<path opacity="0.2" d="M417.54 237.12L401.6 238.9C401.56 238.75 401.53 238.61 401.49 238.47C399.97 232.71 398.8 228.12 398.07 225.21L416.05 226.1L417.54 237.12Z" fill="black"/>
<path opacity="0.2" d="M392.79 222.79L392.23 238.01L392.17 239.75L376.77 241.46C376.64 239.99 376.51 238.58 376.39 237.22C375.79 230.51 375.38 225.19 375.13 221.9L392.79 222.79Z" fill="black"/>
<path d="M378.869 343.72C379.801 342.965 380.864 342.387 382.004 342.015C382.004 342.015 385.414 338.632 387.055 328.448L391.519 327.284C393.071 326.908 394.693 327.541 395.58 328.87C395.704 329.05 395.8 329.248 395.864 329.457C396.094 330.549 396.253 331.654 396.341 332.766C396.79 336.213 396.405 343.949 396.405 343.949H395.598L395.277 336.927C395.158 334.544 393.334 337.34 392.811 339.906C392.288 342.472 391.179 345.204 385.954 345.333C379.859 345.452 377.329 345.214 378.869 343.72Z" fill="#263238"/>
<path d="M395.736 328.952C396.029 326.569 396.121 322.425 396.121 322.425L386.203 323.525C386.203 323.525 387.404 328.237 386.414 331.775C391.409 330.465 395.736 328.952 395.736 328.952Z" fill="#263238"/>
<path d="M419.228 343.72C420.16 342.965 421.223 342.387 422.363 342.015C422.363 342.015 425.773 338.632 427.414 328.448L431.878 327.284C433.43 326.908 435.052 327.541 435.939 328.87C436.063 329.05 436.159 329.248 436.223 329.457C436.453 330.549 436.612 331.654 436.7 332.766C437.149 336.213 436.764 343.949 436.764 343.949H435.957L435.636 336.927C435.517 334.544 433.693 337.34 433.17 339.906C432.647 342.472 431.538 345.204 426.313 345.333C420.218 345.452 417.688 345.214 419.228 343.72Z" fill="#263238"/>
<path d="M436.095 328.952C436.388 326.569 436.48 322.425 436.48 322.425L426.562 323.525C426.562 323.525 427.763 328.237 426.773 331.775C431.768 330.465 436.095 328.952 436.095 328.952Z" fill="#263238"/>
<path d="M419.26 232.21L400.39 234.62L399.66 234.71L395.78 220.49L394.76 235.73L374.54 234.67C365.53 181.8 380.93 169.31 380.93 169.31L408.36 174.83C420.783 195.945 417.827 220.491 417.827 220.491L419.26 232.21Z" fill="#1A4CEF"/>
<path d="M393.284 103.44C393.284 105.516 392.363 107.198 391.227 107.198C390.091 107.198 389.17 105.515 389.17 103.44C389.17 101.364 390.091 99.6821 391.227 99.6821C392.363 99.6811 393.284 101.364 393.284 103.44Z" stroke="#263238" stroke-width="0.5" stroke-miterlimit="10" stroke-linecap="round" stroke-linejoin="round"/>
<path d="M406.829 116.033C406.756 116.097 406.673 116.161 406.591 116.207C405.482 116.995 404.208 117.752 402.759 118.082C398.707 119.017 395.939 118.462 394.133 116.629C394.124 116.629 394.124 116.629 394.124 116.629C391.594 113.879 390.961 109.007 391.319 103.131C391.475 100.436 391.86 98.092 392.603 96.267C392.612 96.249 392.612 96.181 392.621 96.163C392.658 96.09 392.685 95.987 392.722 95.914C393.831 93.366 395.674 91.715 398.616 91.018C399.633 90.78 400.788 90.646 402.09 90.628C413.548 90.509 415.611 109.488 406.829 116.033Z" fill="#FF8B7B"/>
<path opacity="0.2" d="M406.591 116.208C405.482 116.996 404.208 117.592 402.759 117.922C398.707 118.857 395.939 118.169 394.133 116.309C396.122 116.749 398.799 116.914 401.402 115.713C403.043 114.961 404.867 115.346 406.591 116.208Z" fill="black"/>
<path d="M407.755 126.557C408.461 129.82 404.235 131.15 404.235 131.15C397.323 128.198 396.04 124.522 396.04 124.522C401.806 121.515 400.137 113.009 400.137 113.009L401.31 113.586L409.544 115.197C409.544 115.197 407.259 119.581 406.957 120.58C406.957 120.589 406.948 120.598 406.948 120.608C405.399 125.833 407.755 126.557 407.755 126.557Z" fill="#FF8B7B"/>
<path d="M392.598 96.1922C392.598 96.1922 391.966 104.228 399.581 107.679C399.581 107.679 402.851 116.026 407.664 116.144C414.227 116.305 420.01 106.966 417.737 97.4562C414.789 85.1222 396.104 84.1192 392.598 96.1922Z" fill="#263238"/>
<path d="M395.725 105.372C395.728 104.119 396.735 102.013 398.684 102.299C400.7 102.595 401.818 107.566 396.862 108.677C396.151 108.836 395.719 107.987 395.725 105.372Z" fill="#EBB376"/>
<path d="M406.591 87.6521C406.591 87.6521 398.925 85.7131 394.688 88.7961C389.74 92.3961 387.863 96.1191 393.722 101.899C393.722 101.899 406.593 97.7271 410.872 98.6101C415.151 99.4931 418.211 100.741 418.211 100.741C419.111 92.2411 410.871 85.9141 406.591 87.6521Z" fill="#263238"/>
<path d="M395.725 103.436C395.725 103.436 397.773 112.703 394.584 120.595C394.584 120.595 412.782 126.909 419.111 123.48C425.441 120.051 419.638 108.536 419.375 101.898C419.111 95.26 416.225 85.449 406.591 87.651C396.957 89.854 395.725 103.436 395.725 103.436Z" fill="#263238"/>
<path d="M389.17 102.846H396.859" stroke="#263238" stroke-width="0.5" stroke-miterlimit="10" stroke-linecap="round" stroke-linejoin="round"/>
<path opacity="0.2" d="M400.39 234.62L399.66 234.71L395.78 220.49C395.78 220.49 404.1 206.28 401.5 198.88C401.87 199.4 410.83 212.69 400.39 234.62Z" fill="black"/>
<path d="M384.81 125.839C384.81 125.839 393.96 122.575 407.755 126.556C421.55 130.538 422.056 136.414 422.056 136.414C422.056 136.414 413.316 156.222 411.941 178.648L375.998 177.305C375.998 177.305 371.712 145.655 384.81 125.839Z" fill="#263238"/>
<path opacity="0.2" d="M422.06 136.41C422.06 136.41 413.32 156.22 411.94 178.65L376 177.31C376 177.31 375.4 172.9 375.34 166.35C375.29 161.78 375.5 156.16 376.34 150.26C377.54 141.96 380.01 133.1 384.81 125.84C384.81 125.84 393.96 122.58 407.75 126.56C421.55 130.54 422.06 136.41 422.06 136.41Z" fill="white"/>
<path opacity="0.2" d="M384.31 151.61C384.31 151.61 382.82 160.73 375.34 166.35C375.29 161.78 375.5 156.16 376.34 150.26L384.31 151.61Z" fill="black"/>
<path d="M344.604 125.213L340.073 118.491C340.073 118.491 339.376 115.572 338.504 114.905C337.633 114.238 328.919 110.544 327.873 110.561C326.827 110.578 326.827 117.341 327.873 118.491C328.919 119.641 334.408 122.104 335.846 122.354C337.284 122.604 336.587 122.354 336.587 122.354L340.595 130.346L344.604 125.213Z" fill="#FF8B7B"/>
<path d="M384.81 125.839C384.81 125.839 372.199 130.802 356.787 140.296L342.165 120.346C342.165 120.346 338.216 121.571 336.762 128.428C336.762 128.428 344.275 157.043 354.033 159.879C363.791 162.714 384.31 151.614 384.31 151.614C384.31 151.614 390.269 136.701 384.81 125.839Z" fill="#263238"/>
<path opacity="0.2" d="M384.81 125.839C384.81 125.839 372.199 130.802 356.787 140.296L342.165 120.346C342.165 120.346 338.216 121.571 336.762 128.428C336.762 128.428 344.275 157.043 354.033 159.879C363.791 162.714 384.31 151.614 384.31 151.614C384.31 151.614 390.269 136.701 384.81 125.839Z" fill="white"/>
<path d="M394.06 124.583C394.06 124.583 397.251 147.419 407.363 148.341C417.475 149.263 422 132.394 420.286 130.346C418.571 128.297 405.549 124.43 394.06 124.583Z" fill="#263238"/>
<path opacity="0.3" d="M394.06 124.583C394.06 124.583 397.251 147.419 407.363 148.341C417.475 149.263 422 132.394 420.286 130.346C418.571 128.297 405.549 124.43 394.06 124.583Z" fill="white"/>
<path d="M34.362 334.666H41.767L42.379 317.513H34.965L34.362 334.666Z" fill="#FF8B7B"/>
<path d="M42.793 333.809H33.797C33.494 333.811 33.232 334.022 33.166 334.318L31.706 340.912C31.581 341.502 31.958 342.082 32.549 342.207C32.628 342.224 32.709 342.232 32.789 342.231C35.7 342.184 37.819 342.005 41.474 342.005C43.725 342.005 50.517 342.241 53.626 342.241C56.735 342.241 57.14 339.17 55.868 338.888C50.159 337.645 45.864 335.921 44.036 334.282C43.698 333.969 43.253 333.801 42.793 333.809Z" fill="#263238"/>
<path d="M43.302 334.836C43.231 334.817 43.179 334.758 43.17 334.685C43.158 334.616 43.193 334.547 43.255 334.516C43.519 334.346 45.912 332.877 46.731 333.301C46.919 333.39 47.038 333.582 47.032 333.791C47.081 334.147 46.942 334.504 46.664 334.733C46.247 335.017 45.745 335.15 45.242 335.11C44.588 335.09 43.937 334.998 43.302 334.836ZM43.811 334.591C44.675 334.883 45.618 334.836 46.449 334.459C46.626 334.3 46.714 334.064 46.684 333.828C46.675 333.687 46.618 333.621 46.571 333.621C46.502 333.584 46.423 333.567 46.345 333.574C45.443 333.748 44.583 334.093 43.811 334.591Z" fill="#407BFF"/>
<path d="M43.255 334.874C43.201 334.839 43.169 334.778 43.17 334.714C43.179 334.61 43.358 332.481 44.216 331.784C44.42 331.605 44.691 331.522 44.96 331.558C45.235 331.557 45.471 331.751 45.525 332.02C45.676 332.802 44.197 334.431 43.434 334.846H43.349C43.322 334.864 43.289 334.874 43.255 334.874ZM44.442 331.991C43.921 332.656 43.616 333.465 43.566 334.308C44.329 333.733 45.271 332.499 45.177 332.019C45.168 331.972 45.149 331.84 44.923 331.84H44.838C44.692 331.841 44.551 331.895 44.442 331.991Z" fill="#407BFF"/>
<path opacity="0.2" d="M34.965 317.522H42.379L42.059 326.367H34.645L34.965 317.522Z" fill="black"/>
<path d="M72.494 335.223L80.136 336.03L81.57 319.549L73.928 318.741L72.494 335.223Z" fill="#FF8B7B"/>
<path d="M80.944 333.574H71.948C71.645 333.575 71.383 333.787 71.317 334.083L69.857 340.677C69.732 341.267 70.109 341.847 70.7 341.972C70.779 341.989 70.86 341.997 70.941 341.996C73.852 341.949 75.971 341.77 79.626 341.77C81.877 341.77 88.669 342.005 91.778 342.005C94.887 342.005 95.292 338.934 94.02 338.652C88.311 337.409 84.016 335.685 82.188 334.046C81.849 333.734 81.404 333.565 80.944 333.574Z" fill="#263238"/>
<path d="M81.453 334.6C81.382 334.581 81.33 334.522 81.321 334.449C81.309 334.38 81.343 334.311 81.406 334.279C81.67 334.11 84.062 332.64 84.882 333.064C85.07 333.153 85.189 333.345 85.183 333.554C85.232 333.91 85.093 334.267 84.816 334.496C84.399 334.78 83.897 334.913 83.394 334.873C82.739 334.854 82.088 334.763 81.453 334.6ZM81.962 334.355C82.826 334.647 83.769 334.6 84.6 334.223C84.777 334.064 84.865 333.828 84.836 333.592C84.827 333.451 84.77 333.385 84.723 333.385C84.654 333.348 84.575 333.331 84.497 333.338C83.594 333.512 82.734 333.858 81.962 334.355Z" fill="#407BFF"/>
<path d="M81.406 334.638C81.352 334.603 81.32 334.542 81.321 334.478C81.33 334.374 81.509 332.245 82.367 331.548C82.571 331.369 82.842 331.286 83.111 331.322C83.385 331.321 83.622 331.514 83.676 331.784C83.827 332.566 82.348 334.195 81.585 334.61H81.5C81.473 334.629 81.439 334.639 81.406 334.638ZM82.593 331.756C82.072 332.421 81.766 333.23 81.717 334.073C82.48 333.498 83.422 332.264 83.328 331.784C83.319 331.737 83.3 331.605 83.074 331.605H82.989C82.843 331.605 82.702 331.659 82.593 331.756Z" fill="#407BFF"/>
<path opacity="0.2" d="M73.928 318.741L81.57 319.549L80.824 328.05L73.182 327.242L73.928 318.741Z" fill="black"/>
<path d="M38.023 167.05H77.327C81.064 187.457 92.762 259.671 84.369 324.014L71.063 322.364C71.063 322.364 72.295 236.946 60.547 205.368C59.196 222.268 57.591 240.25 56.198 249.818C52.779 273.368 45.459 324.835 45.459 324.835H31.913C31.913 324.835 34.683 275.572 35.963 252.427C37.364 227.299 37.969 172.21 38.023 167.05Z" fill="#263238"/>
<path d="M85.891 327.113L69.422 324.663L69.926 320.103L87.057 322.351L85.891 327.113Z" fill="#407BFF"/>
<path d="M47.089 324.945H31.112V320.169L47.692 319.858L47.089 324.945Z" fill="#407BFF"/>
<path opacity="0.2" d="M60.55 205.37C62.283 210.024 63.725 215.836 64.94 222.373C66.039 207.334 61.643 191.384 61.643 191.384L60.55 205.37Z" fill="black"/>
<path d="M92.737 132.759C92.737 132.759 102.253 162.75 108.757 164.711C115.261 166.672 131.805 141.923 131.805 141.923C131.805 141.923 146.631 141.78 147.295 140.767C147.959 139.755 143.442 129.315 142.358 129.296C141.274 129.277 128.366 134.154 127.865 134.967C127.364 135.781 112.551 149.947 111.828 149.548C111.105 149.149 105.505 131.303 105.505 131.303L92.737 132.759Z" fill="#FF8B7B"/>
<path d="M133.697 140.35C133.825 140.323 133.943 140.295 134.053 140.259C133.989 140.223 133.934 140.186 133.879 140.149C133.825 140.222 133.77 140.286 133.697 140.35Z" fill="#B97964"/>
<path d="M87.338 129.297L88.498 131.434L93.914 141.444L95.037 143.508L110.225 138.229C110.225 138.229 103.914 114.648 101.722 112.237L87.338 129.297Z" fill="#1A4CEF"/>
<path opacity="0.4" d="M87.338 129.297L88.498 131.434L93.914 141.444L95.037 143.508L110.225 138.229C110.225 138.229 103.914 114.648 101.722 112.237L87.338 129.297Z" fill="#1A4CEF"/>
<path opacity="0.2" d="M88.498 131.434L93.914 141.444C97.256 134.868 96.288 125.872 96.288 125.872L88.498 131.434Z" fill="black"/>
<path d="M101.72 112.235C101.72 112.235 93.734 101.831 78.845 101.132C63.955 100.433 59.281 101.914 53.839 106.771C45.89 113.866 36.015 175.017 36.015 175.017C36.015 175.017 56.811 181.447 80.633 179.871C80.633 179.871 80.812 162.898 86.182 151.456C96.626 129.202 101.72 112.235 101.72 112.235Z" fill="#1A4CEF"/>
<path d="M66.879 122.079C66.879 122.079 58.967 141.154 57.385 156.978L78.687 159.696C78.687 159.696 88.253 133.931 90.226 125.872C90.226 125.872 73.209 124.169 66.879 122.079Z" fill="#1A4CEF"/>
<path opacity="0.4" d="M86.066 126.615L89.033 126.912L86.857 128.593L86.066 126.615Z" fill="#1A4CEF"/>
<path d="M74.467 103.198C76.076 107.8 82.067 109.898 85.21 110.164C89.62 110.537 90.906 107.077 90.906 107.077C90.906 107.077 87.322 105.294 87.676 103.278C87.884 102.105 88.44 100.96 89.155 99.858C89.524 99.276 89.948 98.713 90.383 98.166L84.634 85.844C83.347 91.223 79.418 101.478 74.467 103.198Z" fill="#FF8B7B"/>
<path opacity="0.2" d="M84.402 91.5701C81.658 97.5401 85.533 101.699 87.676 103.279C87.884 102.106 88.44 100.961 89.155 99.8591L84.402 91.5701Z" fill="black"/>
<path d="M103.685 75.5591C103.685 75.5591 105.525 85.7161 100.221 89.7931C94.9179 93.8701 94.3799 74.8801 94.3799 74.8801L103.685 75.5591Z" fill="#B97964"/>
<path opacity="0.4" d="M103.685 75.5591C103.685 75.5591 105.525 85.7161 100.221 89.7931C94.9179 93.8701 94.3799 74.8801 94.3799 74.8801L103.685 75.5591Z" fill="black"/>
<path d="M84.732 98.345C87.466 102.047 91.778 102.914 95.464 101.632C97.835 100.811 99.944 99.093 101.214 96.673C101.384 96.357 101.535 96.023 101.676 95.68C104.164 89.371 104.726 73.968 97.996 74.543C92.483 75.014 87.077 73.307 84.262 78.079C83.452 79.431 82.987 80.961 82.88 82.538C82.277 89.848 81.577 94.118 84.732 98.345Z" fill="#FF8B7B"/>
<path d="M93.615 86.13C93.491 86.71 93.772 87.242 94.165 87.297C94.558 87.352 94.9309 86.912 95.0189 86.324C95.1059 85.736 94.853 85.21 94.469 85.157C94.085 85.104 93.704 85.533 93.615 86.13Z" fill="#263238"/>
<path d="M100.3 87.0781C100.176 87.6581 100.466 88.1921 100.85 88.2461C101.234 88.2991 101.616 87.8611 101.704 87.2731C101.791 86.6851 101.538 86.1591 101.154 86.1061C100.77 86.0521 100.381 86.5181 100.3 87.0781Z" fill="#263238"/>
<path d="M98.134 87.0681C98.582 88.9761 99.291 90.8141 100.242 92.5281C99.336 92.9991 98.268 93.0461 97.325 92.6561L98.134 87.0681Z" fill="#A24E3F"/>
<path d="M91.848 83.6721C91.974 83.7081 92.109 83.6751 92.204 83.5841C92.822 82.9411 93.706 82.6261 94.591 82.7361C94.779 82.7771 94.964 82.6571 95.005 82.4691C95.046 82.2811 94.926 82.0951 94.738 82.0551H94.736C93.621 81.8881 92.494 82.2711 91.713 83.0851C91.572 83.2171 91.565 83.4371 91.697 83.5781C91.699 83.5801 91.701 83.5821 91.703 83.5841C91.746 83.6201 91.795 83.6501 91.848 83.6721Z" fill="#263238"/>
<path d="M103.499 85.1801C103.56 85.2151 103.631 85.2301 103.702 85.2231C103.886 85.1671 103.99 84.9721 103.934 84.7881C103.933 84.7861 103.933 84.7831 103.932 84.7811C103.61 83.6961 102.781 82.8361 101.708 82.4751C101.522 82.4241 101.331 82.5341 101.28 82.7201C101.234 82.9061 101.343 83.0951 101.525 83.1491C102.363 83.4581 103.005 84.1461 103.257 85.0031C103.308 85.0951 103.396 85.1601 103.499 85.1801Z" fill="#263238"/>
<path d="M92.684 92.918C92.684 92.918 93.914 95.561 96.419 95.462" stroke="#263238" stroke-width="0.5" stroke-miterlimit="10" stroke-linecap="round" stroke-linejoin="round"/>
<path d="M89.493 74.2332L89.585 77.4892C88.477 77.9532 87.729 79.0851 88.097 80.3981C88.883 83.2031 86.955 87.2592 84.721 88.7392C84.721 88.7392 84.766 87.5601 83.751 87.7451C82.735 87.9311 82.438 94.0651 84.096 97.1591C84.096 97.1591 80.556 93.9062 79.506 87.3392C78.535 81.2662 78.703 77.4172 79.565 74.5132L89.493 74.2332Z" fill="#B97964"/>
<path opacity="0.4" d="M89.493 74.2332L89.585 77.4892C88.477 77.9532 87.729 79.0851 88.097 80.3981C88.883 83.2031 86.955 87.2592 84.721 88.7392C84.721 88.7392 84.766 87.5601 83.751 87.7451C82.735 87.9311 82.438 94.0651 84.096 97.1591C84.096 97.1591 80.556 93.9062 79.506 87.3392C78.535 81.2662 78.703 77.4172 79.565 74.5132L89.493 74.2332Z" fill="black"/>
<path d="M78.92 78.143C78.92 78.143 83.081 78.783 89.586 77.489C99.666 75.484 103.95 79.193 103.95 79.193C103.95 79.193 106.342 77.137 106.045 74.234C105.748 71.331 101.721 70.836 101.721 70.836C101.721 70.836 100.506 67.572 97.836 66.583C95.166 65.594 92.489 68.067 92.489 68.067C92.489 68.067 89.156 64.853 85.279 65.766C80.516 66.888 80.627 71.43 80.627 71.43C80.627 71.43 76.077 71.896 76.176 74.234C76.275 76.572 78.92 78.143 78.92 78.143Z" fill="#263238"/>
<path d="M94.3879 90.382C96.1917 90.382 97.6539 88.6964 97.6539 86.6171C97.6539 84.5377 96.1917 82.8521 94.3879 82.8521C92.5842 82.8521 91.1219 84.5377 91.1219 86.6171C91.1219 88.6964 92.5842 90.382 94.3879 90.382Z" stroke="#263238" stroke-width="0.5" stroke-miterlimit="10" stroke-linecap="round" stroke-linejoin="round"/>
<path d="M105.875 87.1752C105.875 89.2552 104.413 90.9411 102.609 90.9411C100.805 90.9411 99.343 89.2552 99.343 87.1752C99.343 85.0962 100.805 83.4102 102.609 83.4102C104.413 83.4102 105.875 85.0962 105.875 87.1752Z" stroke="#263238" stroke-width="0.5" stroke-miterlimit="10" stroke-linecap="round" stroke-linejoin="round"/>
<path d="M97.654 87.0681C97.654 87.0681 98.707 86.4051 99.342 87.1751" stroke="#263238" stroke-width="0.5" stroke-miterlimit="10" stroke-linecap="round" stroke-linejoin="round"/>
<path d="M91.122 86.6169L85.386 85.8529C84.637 85.7529 83.879 85.9579 83.283 86.4229L83.033 86.6179" stroke="#263238" stroke-width="0.5" stroke-miterlimit="10" stroke-linecap="round" stroke-linejoin="round"/>
<path d="M78.863 88.0421C79.436 89.7991 80.682 91.2581 82.328 92.0981C84.516 93.1951 86.076 91.3481 85.864 89.0371C85.656 86.9851 84.289 83.8781 81.897 83.7651C79.505 83.6521 78.188 85.8761 78.863 88.0421Z" fill="#FF8B7B"/>
<path opacity="0.2" d="M42.322 141.791C51.756 137.873 59.218 121.68 59.218 121.68L53.857 118.438L46.578 124.292C46.359 125.087 46.14 125.899 45.92 126.721C44.943 130.429 43.984 134.384 43.08 138.384C42.824 139.517 42.568 140.658 42.322 141.791Z" fill="black"/>
<path d="M52.1031 184.681L4.90979 177.193L0.291683 206.302L47.485 213.789L52.1031 184.681Z" fill="#1A4CEF"/>
<path d="M21.625 188.261L12.04 193.229L19.617 200.92" stroke="white" stroke-width="2" stroke-miterlimit="10" stroke-linecap="round" stroke-linejoin="round"/>
<path d="M30.789 202.692L40.374 197.724L32.796 190.033" stroke="white" stroke-width="2" stroke-miterlimit="10" stroke-linecap="round" stroke-linejoin="round"/>
<path d="M22.956 201.449L29.457 189.503" stroke="white" stroke-width="2" stroke-miterlimit="10" stroke-linecap="round" stroke-linejoin="round"/>
<path d="M48.205 109.375C48.205 109.375 30.423 127.228 27.993 130.701C25.563 134.174 20.929 172.637 20.929 172.637C20.929 172.637 19.952 172.976 19.867 173.808C19.782 174.64 19.711 185.442 19.867 185.942C20.023 186.442 28.213 191.493 29.417 190.292C30.621 189.091 32.307 176.857 32.307 176.857L27.992 172.636C27.992 172.636 33.016 144.305 36.154 139.721C39.292 135.136 52.252 125.312 52.252 125.312L48.205 109.375Z" fill="#FF8B7B"/>
<path d="M61.878 102.188C64.47 107.677 62.499 119.236 57.723 123.315C50.497 129.487 41.735 134.786 41.735 134.786L32.997 123.363C32.997 123.363 42.277 114.302 47.897 109.082C54.732 102.733 61.878 102.188 61.878 102.188Z" fill="#1A4CEF"/>
</svg>
