<svg width="388" height="387" viewBox="0 0 388 387" fill="none" xmlns="http://www.w3.org/2000/svg">
<path d="M288.107 197.05C236.377 118.872 245.319 -2.28795 131.775 49.132C73.998 75.297 26.525 48.073 9.71599 95.582C-1.82401 128.199 19.206 198.627 38.214 226.339C66.849 268.086 107.293 266.83 152.315 269.088C203.268 271.644 228.282 302.782 273.778 314.795C306.977 323.561 361.182 299.592 361.785 258.049C362.526 207.15 310.149 230.362 288.107 197.05Z" fill="#002DE5" fill-opacity="0.1"/>
<path d="M194 373.561C301.082 373.561 387.889 368.492 387.889 362.238C387.889 355.985 301.082 350.915 194 350.915C86.918 350.915 0.110962 355.985 0.110962 362.238C0.110962 368.492 86.918 373.561 194 373.561Z" fill="#000F4B"/>
<path d="M201.468 215.203C269.998 186.816 321.994 155.213 317.605 144.615C313.215 134.018 254.101 148.439 185.571 176.826C117.04 205.213 65.0442 236.816 69.4339 247.413C73.8236 258.011 132.937 243.59 201.468 215.203Z" fill="#407BFF"/>
<path opacity="0.2" d="M201.468 215.203C269.998 186.816 321.994 155.213 317.605 144.615C313.215 134.018 254.101 148.439 185.571 176.826C117.04 205.213 65.0442 236.816 69.4339 247.413C73.8236 258.011 132.937 243.59 201.468 215.203Z" fill="black"/>
<path d="M237.729 100.368C236.22 99.9232 234.681 99.5022 233.155 99.1162L233.401 98.1472C234.939 98.5362 236.491 98.9612 238.012 99.4092L237.729 100.368Z" fill="#407BFF"/>
<path d="M226.227 97.576C218.615 96.115 210.801 95.375 203.003 95.375V94.375C210.864 94.375 218.74 95.122 226.414 96.594L226.227 97.576Z" fill="#407BFF"/>
<path d="M203.097 340.659V339.659C219.132 339.659 234.838 336.521 249.78 330.332L250.163 331.256C235.099 337.496 219.264 340.659 203.097 340.659Z" fill="#407BFF"/>
<path d="M287.623 302.094C334.333 255.383 334.333 179.651 287.623 132.94C240.912 86.2296 165.179 86.2296 118.469 132.94C71.7581 179.651 71.7581 255.383 118.469 302.094C165.179 348.805 240.912 348.805 287.623 302.094Z" fill="#3030E8"/>
<path d="M291.927 159.596L310.758 165.521C292.417 127.409 256.054 103.093 216.311 98.6321L210.584 113.917L194.679 119.055C194.679 119.055 176.926 135.435 177.004 136.486C177.073 137.54 176.706 153.928 176.706 153.928L164.467 169.822L153.967 176.693L153.908 192.228L160.161 207.324L169.546 205.601L177.726 195.718L176.402 189.047L195.706 178.161L210.539 186.088L231.604 177.73L245.208 186.166L227.578 202.842L199.92 209.969L180.158 218.154L160.806 235.013L165.517 255.976L180.933 266.183L211.161 267.733L228.533 286.154L239.467 305.438L245.997 313.798L256.573 307.974L267.303 281.16L274.667 246.841L270.696 226.924L262.365 232.811L256.369 220.087L244.415 207.778L240.354 199.715L266.505 212.338L294.002 208.168L303.533 187.617L293.62 171.525L277.638 175.612L266.123 175.695L262.316 168.255L276.346 166.405L291.927 159.596Z" fill="#6695FF"/>
<path d="M146.867 320.701L140.834 302.635L112.585 285.837L103.273 283.503C124.848 316.227 160.964 335.817 199.113 337.085L198.298 335.117C198.298 335.117 167.038 324.978 165.988 325.055C164.935 325.124 146.867 320.701 146.867 320.701Z" fill="#6695FF"/>
<path d="M96.232 208.909L97.381 175.961L117.404 163.337L130.934 130.673L122.307 129.235C88.118 160.498 74.2189 209.962 89.7079 255.718L109.032 243.287L96.232 208.909Z" fill="#6695FF"/>
<path opacity="0.2" d="M311.261 166.579C293.46 181.302 253.235 203.007 204.731 223.098C157.059 242.844 113.947 255.831 90.634 258.344C91.224 260.004 91.861 261.645 92.542 263.29C98.581 277.869 107.175 290.621 117.589 301.233C142.059 296.942 180.748 284.748 223.016 267.24C266.041 249.418 302.543 230.326 322.672 215.971C322.498 201.204 319.55 186.221 313.553 171.744C312.829 169.999 312.069 168.268 311.261 166.579Z" fill="black"/>
<path d="M317.587 144.615L335.872 188.758C340.261 199.355 288.268 230.958 219.743 259.342C151.21 287.73 92.098 302.148 87.708 291.551L69.423 247.408C73.812 258.005 132.924 243.586 201.458 215.199C269.983 186.815 321.977 155.213 317.587 144.615Z" fill="#407BFF"/>
<path opacity="0.5" d="M317.587 144.615L335.872 188.758C340.261 199.355 288.268 230.958 219.743 259.342C151.21 287.73 92.098 302.148 87.708 291.551L69.423 247.408C73.812 258.005 132.924 243.586 201.458 215.199C269.983 186.815 321.977 155.213 317.587 144.615Z" fill="white"/>
<path d="M128.092 252.456C131.254 251.459 134.409 250.445 137.558 249.415C140.953 253.925 144.336 258.43 147.709 262.944C147.099 257.519 146.502 252.081 145.92 246.634C149.047 245.579 152.164 244.504 155.277 243.417C159.133 247.737 162.97 252.058 166.792 256.38C165.715 251.084 164.647 245.779 163.588 240.465C166.685 239.352 169.773 238.22 172.855 237.069C174.375 246.735 175.933 256.378 177.523 265.992C174.366 267.135 171.202 268.26 168.031 269.368C163.715 264.495 159.377 259.621 155.02 254.755C155.667 260.896 156.33 267.025 157.01 273.138C153.823 274.204 150.628 275.255 147.426 276.286C141.023 268.333 134.577 260.389 128.092 252.456Z" fill="white"/>
<path d="M182.061 233.582C185.148 232.398 188.225 231.191 191.297 229.972C194.5 234.483 197.691 238.997 200.873 243.515C200.388 237.922 199.912 232.306 199.455 226.69C202.504 225.446 205.545 224.185 208.581 222.909C212.23 227.199 215.862 231.489 219.479 235.785C218.54 230.349 217.608 224.904 216.687 219.455C219.706 218.152 222.717 216.833 225.723 215.497C227.006 225.427 228.325 235.337 229.679 245.217C226.604 246.557 223.52 247.879 220.43 249.182C216.347 244.345 212.243 239.508 208.114 234.669C208.622 241.004 209.146 247.325 209.688 253.632C206.58 254.895 203.466 256.141 200.345 257.37C194.291 249.433 188.198 241.504 182.061 233.582Z" fill="white"/>
<path d="M234.698 211.451C237.705 210.077 240.706 208.683 243.699 207.278C246.709 211.793 249.705 216.303 252.691 220.818C252.33 215.055 251.983 209.281 251.648 203.495C254.617 202.064 257.582 200.615 260.539 199.154C263.981 203.411 267.403 207.667 270.81 211.925C270.008 206.354 269.214 200.776 268.433 195.199C271.373 193.708 274.306 192.202 277.231 190.679C278.275 200.866 279.355 211.027 280.47 221.168C277.477 222.703 274.476 224.22 271.467 225.72C267.617 220.916 263.75 216.123 259.857 211.324C260.225 217.845 260.609 224.358 261.009 230.848C257.985 232.311 254.95 233.748 251.91 235.173C246.216 227.261 240.48 219.358 234.698 211.451Z" fill="white"/>
<path d="M155.093 14.6441C154.107 10.7531 147.07 7.44906 140.606 8.50206C132.816 9.77206 129.954 16.2751 130.587 24.9601C131.39 35.9651 121.198 35.8131 124.885 47.0261C129.061 45.4861 135.123 42.9631 144.798 47.0881C153.346 50.7331 163.705 47.2841 166.848 43.8371C156.266 37.6161 173.048 13.2641 155.093 14.6441Z" fill="#263238"/>
<path d="M168.041 43.2972C168.016 43.2972 167.99 43.2932 167.965 43.2852C161.412 41.1872 162.455 34.3782 163.465 27.7922C164.19 23.0622 164.874 18.5952 162.645 16.3142C161.245 14.8812 158.786 14.4162 155.125 14.8912C154.988 14.9092 154.862 14.8122 154.845 14.6752C154.827 14.5382 154.924 14.4132 155.061 14.3952C158.883 13.8992 161.485 14.4112 163.002 15.9642C165.406 18.4232 164.703 23.0112 163.959 27.8672C162.981 34.2452 161.971 40.8402 168.117 42.8072C168.249 42.8492 168.321 42.9902 168.279 43.1212C168.245 43.2292 168.146 43.2972 168.041 43.2972Z" fill="#263238"/>
<path d="M120.355 58.7942C119.249 59.2462 118.344 59.5782 117.336 59.8992C116.352 60.2222 115.364 60.5192 114.37 60.8012C112.377 61.3432 110.351 61.7932 108.284 62.1212C106.224 62.4742 104.104 62.6642 101.949 62.7292L100.324 62.7522L98.6751 62.6812C98.1321 62.6702 97.5621 62.5792 97.0081 62.5292L96.1731 62.4372C96.0731 62.4292 95.7831 62.3832 95.5831 62.3502C95.3661 62.3172 95.1411 62.2652 94.9171 62.2092C93.1161 61.7962 91.3311 60.6542 90.2391 59.3192C89.1151 57.9902 88.5061 56.6142 88.0961 55.3552C87.3191 52.8202 87.2401 50.5702 87.2791 48.4102C87.4261 44.0902 88.2681 40.1952 89.5281 36.2512C89.9461 34.9412 91.3471 34.2192 92.6571 34.6372C93.7441 34.9842 94.4261 36.0082 94.3881 37.0952L94.3821 37.2362C94.2521 40.8642 94.2931 44.6852 94.7411 48.0692C94.9691 49.7472 95.3581 51.3722 95.8981 52.4682C96.1551 53.0112 96.4591 53.3732 96.6341 53.4722C96.8291 53.5702 96.7751 53.4632 96.8611 53.4522L96.9051 53.4432C96.9431 53.4382 96.8911 53.4392 97.0321 53.4392H97.6391C98.0471 53.4302 98.4361 53.4652 98.8571 53.4252C99.6821 53.3822 100.511 53.3372 101.359 53.2392C103.047 53.0492 104.759 52.7722 106.483 52.3962C108.202 52.0172 109.932 51.5882 111.649 51.0932C112.509 50.8512 113.368 50.5972 114.214 50.3212L116.645 49.5052L116.872 49.4292C119.489 48.5512 122.322 49.9602 123.2 52.5762C124.043 55.0862 122.766 57.8012 120.355 58.7942Z" fill="#FF8B7B"/>
<path d="M89.9051 39.4112L87.3101 34.9722L94.0671 31.4702C94.0671 31.4702 95.7071 36.4272 93.8961 39.7512L89.9051 39.4112Z" fill="#FF8B7B"/>
<path d="M105.665 269.37L98.651 268.832L99.159 250.535L107.08 250.799L105.665 269.37Z" fill="#FF8B7B"/>
<path d="M98.104 268.531L106.188 264.371C106.482 264.22 106.82 264.301 107 264.568L111.012 270.504C111.428 271.12 111.161 272.043 110.477 272.38C107.635 273.782 106.265 273.675 102.709 275.504C100.522 276.63 95.429 279.267 92.133 280.088C88.909 280.891 87.942 277.708 89.25 277.073C95.112 274.223 95.987 272.17 97.115 269.594C97.319 269.129 97.674 268.753 98.104 268.531Z" fill="#263238"/>
<path opacity="0.2" d="M107.081 250.805L99.157 250.54L98.884 260.51L106.313 260.933L107.081 250.805Z" fill="black"/>
<path d="M83.5262 244.764L76.6692 246.339L71.7072 228.72L79.3472 226.613L83.5262 244.764Z" fill="#FF8B7B"/>
<path d="M74.6821 242.215L83.7611 241.742C84.0911 241.725 84.3651 241.938 84.4201 242.255L85.6411 249.315C85.7681 250.047 85.1451 250.779 84.3831 250.806C81.2161 250.917 80.0211 250.06 76.0281 250.268C73.5721 250.396 68.0391 250.185 64.6971 249.58C61.4281 248.988 61.8541 245.689 63.3071 245.647C69.8221 245.456 71.2581 244.664 73.3451 242.778C73.7201 242.437 74.1981 242.24 74.6821 242.215Z" fill="#263238"/>
<path opacity="0.2" d="M79.3502 226.619L71.7072 228.725L74.4142 238.324L81.6331 236.517L79.3502 226.619Z" fill="black"/>
<path d="M129.234 61.4632C123.357 64.1202 115.359 63.9442 115.359 63.9442C113.325 58.4022 111.055 52.7252 112.668 49.2812C112.668 49.2812 122.253 46.0932 130.254 47.5662C134.63 48.3732 133.909 59.3502 129.234 61.4632Z" fill="#263238"/>
<path d="M116.225 56.33C114.706 63.112 113.364 74.532 113.808 93.379C126.627 95.386 139.882 97.467 146.121 98.445C148.986 83.132 152.303 74.624 159.024 63.257C161.047 59.836 159.501 55.421 155.803 53.964C148.064 50.916 137.533 48.371 128.88 47.403C123.002 46.745 117.517 50.558 116.225 56.33Z" fill="#3030E8"/>
<path d="M134.458 48.1611C134.458 48.1611 126.889 49.7781 128.627 58.7781C142.278 58.0681 148.895 51.6551 148.895 51.6551L134.458 48.1611Z" fill="#263238"/>
<path d="M149.33 41.3001C148.073 45.1211 147.385 49.2411 148.895 51.6551C148.895 51.6551 144.821 55.1221 131.259 55.4461C129.295 49.1431 134.458 48.1611 134.458 48.1611C139.972 48.1881 140.997 44.8061 141.145 38.7841L145.694 38.2131C147.797 37.1801 150.052 39.1031 149.33 41.3001Z" fill="#FF8B7B"/>
<path opacity="0.2" d="M145.699 38.2121C147.681 37.2361 149.807 38.8991 149.42 40.9431C146.742 43.1431 143.817 44.7311 140.162 45.0821C140.854 43.5251 141.087 41.4011 141.152 38.7831L145.699 38.2121Z" fill="black"/>
<path d="M156.622 26.0052C154.976 33.8972 154.446 37.2692 149.882 40.8642C143.018 46.2712 133.821 42.7622 133.109 34.5962C132.468 27.2452 135.268 15.5732 143.417 13.3522C151.447 11.1632 158.268 18.1132 156.622 26.0052Z" fill="#FF8B7B"/>
<path d="M153.128 14.0481C146.05 14.4951 146.629 27.7771 155.714 32.2751C161.366 25.2911 157.083 15.4731 153.128 14.0481Z" fill="#263238"/>
<path d="M152.957 13.7151C147.377 10.3151 140 10.6171 136.374 15.6451C130.87 23.2751 144.79 16.2261 149.886 16.5591C153.333 19.7051 152.957 13.7151 152.957 13.7151Z" fill="#263238"/>
<path d="M134.131 22.1032C134.113 22.0882 134.096 22.0722 134.08 22.0532C133.945 21.8932 133.963 21.6492 134.121 21.5082C135.704 20.0972 137.378 20.5562 137.448 20.5762C137.648 20.6332 137.762 20.8462 137.703 21.0512C137.644 21.2562 137.436 21.3762 137.237 21.3202C137.174 21.3032 135.87 20.9652 134.61 22.0882C134.471 22.2122 134.269 22.2142 134.131 22.1032Z" fill="#263238"/>
<path d="M157.765 33.758C156.786 35.295 155.2 36.257 153.747 36.584C151.562 37.076 150.641 35.11 151.392 33.121C152.068 31.331 154.019 28.917 156.143 29.315C158.237 29.706 158.884 32.001 157.765 33.758Z" fill="#FF8B7B"/>
<path d="M113.808 93.3792C111.491 97.4492 108.677 102.496 106.776 106.307C94.7091 116.509 68.2271 142.451 59.4821 163.414C57.0001 183.833 73.333 236.144 73.333 236.144L81.2461 232.173C81.2461 232.173 75.969 190.962 76.066 168.899C92.444 151.169 141.328 122.754 136.826 96.9882L113.808 93.3792Z" fill="#263238"/>
<path opacity="0.3" d="M120.591 113.76C120.591 113.76 110.662 126.833 101.276 147.138C114.173 136.514 127.634 124.657 133.736 112.792L120.591 113.76Z" fill="black"/>
<path d="M123.103 94.8352C123.103 94.8352 107.181 141.284 100.754 174.17C97.176 198.589 97.997 257.646 97.997 257.646L107.177 258.736C107.177 258.736 116.543 201.655 116.471 176.811C130.598 145.523 150.623 124.213 146.121 98.4462L123.103 94.8352Z" fill="#263238"/>
<path opacity="0.2" d="M117.105 113.482C117.019 113.482 116.938 113.438 116.892 113.363C116.81 113.23 114.893 110.079 115.195 107.167C115.492 104.314 118.198 95.462 118.313 95.086C118.354 94.954 118.495 94.88 118.626 94.92C118.758 94.96 118.832 95.1 118.792 95.232C118.764 95.323 115.985 104.413 115.693 107.218C115.475 109.312 116.527 111.621 117.045 112.609L122.44 96.015C122.483 95.884 122.626 95.812 122.754 95.855C122.886 95.898 122.957 96.039 122.914 96.17L117.343 113.309C117.314 113.402 117.232 113.468 117.135 113.48C117.125 113.481 117.115 113.482 117.105 113.482Z" fill="white"/>
<path opacity="0.2" d="M144.489 107.043C144.458 107.043 144.426 107.037 144.396 107.025C135.626 103.53 131.652 97.9952 131.613 97.9402C131.533 97.8272 131.56 97.6712 131.673 97.5922C131.786 97.5132 131.942 97.5392 132.022 97.6522C132.06 97.7062 135.958 103.125 144.583 106.561C144.711 106.612 144.774 106.757 144.723 106.886C144.683 106.983 144.589 107.043 144.489 107.043Z" fill="white"/>
<path d="M97.1221 253.748L97.7571 258.808L107.921 259.344L108.53 253.893L97.1221 253.748Z" fill="#407BFF"/>
<path d="M70.873 232.587L73.013 237.217L82.86 234.643L81.787 229.265L70.873 232.587Z" fill="#407BFF"/>
<path d="M144.732 26.8491C144.637 27.4961 144.222 27.9801 143.804 27.9291C143.386 27.8781 143.124 27.3111 143.219 26.6641C143.314 26.0171 143.729 25.5331 144.147 25.5851C144.565 25.6351 144.827 26.2021 144.732 26.8491Z" fill="#263238"/>
<path d="M137.505 25.9632C137.41 26.6102 136.995 27.0942 136.577 27.0422C136.159 26.9912 135.897 26.4242 135.992 25.7772C136.087 25.1302 136.502 24.6462 136.92 24.6982C137.338 24.7492 137.6 25.3152 137.505 25.9632Z" fill="#263238"/>
<path d="M137.1 24.7561L135.63 24.1191C135.63 24.1191 136.24 25.4311 137.1 24.7561Z" fill="#263238"/>
<path d="M138.74 27.1621C138.74 27.1621 137.247 29.8161 135.856 31.0151C136.583 31.9161 138.072 31.7281 138.072 31.7281L138.74 27.1621Z" fill="#FF5652"/>
<path d="M140.045 34.5941C139.982 34.5571 139.944 34.4841 139.956 34.4051C139.971 34.3001 140.068 34.2251 140.172 34.2381C142.97 34.5811 144.579 32.7581 144.595 32.7391C144.665 32.6581 144.788 32.6501 144.863 32.7161C144.941 32.7841 144.948 32.9041 144.879 32.9861C144.809 33.0681 143.125 34.9881 140.116 34.6181C140.09 34.6151 140.066 34.6071 140.045 34.5941Z" fill="#263238"/>
<path d="M146.51 24.6741C146.459 24.6351 146.418 24.5831 146.393 24.5191C145.764 22.9561 144.392 22.7011 144.378 22.6991C144.173 22.6641 144.038 22.4661 144.08 22.2581C144.121 22.0501 144.322 21.9111 144.528 21.9461C144.601 21.9591 146.32 22.2771 147.101 24.2161C147.179 24.4101 147.084 24.6341 146.888 24.7181C146.756 24.7751 146.613 24.7541 146.51 24.6741Z" fill="#263238"/>
<path d="M144.326 25.6431L142.856 25.0061C142.856 25.0061 143.467 26.3171 144.326 25.6431Z" fill="#263238"/>
<path d="M161.905 62.5971C162.565 65.0471 163.082 67.4431 163.626 69.8771C164.146 72.3071 164.622 74.7511 165.031 77.2191C165.456 79.6831 165.818 82.1731 166.091 84.7131C166.371 87.2671 166.589 89.8021 166.514 92.6671L166.507 92.9321C166.505 93.0181 166.495 93.1151 166.483 93.1981C166.078 95.7751 165.418 97.9751 164.744 100.197C164.069 102.404 163.289 104.538 162.491 106.651C161.676 108.759 160.827 110.843 159.919 112.899C158.987 114.951 158.075 116.985 157.03 119.007C156.397 120.232 154.891 120.712 153.666 120.079C152.634 119.546 152.132 118.39 152.377 117.308L155.29 104.469C155.782 102.349 156.214 100.225 156.625 98.1421C157.023 96.0731 157.382 93.9551 157.517 92.1361L157.486 92.6661C157.386 90.6381 157.016 88.3071 156.64 86.0201C156.242 83.7191 155.785 81.3871 155.298 79.0491L153.777 72.0221L152.201 65.0131L152.197 64.9951C151.591 62.3001 153.285 59.6251 155.979 59.0191C158.602 58.4301 161.208 60.0281 161.905 62.5971Z" fill="#FF8B7B"/>
<path d="M148.237 59.9202C146.482 66.1262 153.37 79.7782 153.37 79.7782C157.15 79.5772 161.098 73.4822 165.667 69.5842C165.667 69.5842 161.866 59.0262 158.194 55.5972C154.942 52.5592 149.633 54.9822 148.237 59.9202Z" fill="#263238"/>
<path d="M86.316 33.2212L87.311 34.9722L94.068 31.4702L92.905 29.7012C92.274 28.7412 91.052 28.3612 89.988 28.7932L87.506 29.8002C86.157 30.3482 85.598 31.9562 86.316 33.2212Z" fill="#FF8B7B"/>
<path d="M153.176 115.108L148.137 119.903L153.246 126.595C153.246 126.595 159.131 123.104 157.791 116.839L153.176 115.108Z" fill="#FF8B7B"/>
<path d="M146.683 124.77L148.136 119.903L153.245 126.595L150.986 129.401C150.582 129.903 149.809 129.877 149.439 129.349L146.818 125.602C146.648 125.359 146.598 125.053 146.683 124.77Z" fill="#FF8B7B"/>
<path d="M113.764 91.017C112.807 90.776 112.453 93.641 113.209 94.433C113.965 95.225 128.238 98.919 146.383 100.136C148.361 99.582 147.882 96.552 146.517 96.364C141.971 96.654 124.626 93.748 113.764 91.017Z" fill="#407BFF"/>
<path opacity="0.2" d="M113.764 91.017C112.807 90.776 112.453 93.641 113.209 94.433C113.965 95.225 128.238 98.919 146.383 100.136C148.361 99.582 147.882 96.552 146.517 96.364C141.971 96.654 124.626 93.748 113.764 91.017Z" fill="white"/>
<path d="M103.659 0.474121L71.3 24.7991L85.153 26.0411L79.106 36.9871L85.818 40.6951L91.8651 29.7501L100.292 40.8161L103.659 0.474121Z" fill="#3030E8"/>
<path d="M94.288 38.8632C96.483 36.1912 95.497 32.7722 95.564 29.5182C95.572 29.1222 94.757 28.6132 93.935 29.8742C93.408 30.6822 93.283 32.1792 93.445 32.9562C91.8 33.6942 90.677 35.8992 91.95 38.4172C93.32 38.9362 94.288 38.8632 94.288 38.8632Z" fill="#FF8B7B"/>
<path d="M150.235 16.0262C149.1 17.7972 143.004 19.5392 140.28 19.9632C145.888 17.8222 147.83 15.9802 147.83 15.9802L150.235 16.0262Z" fill="#263238"/>
</svg>
