<svg width="388" height="340" viewBox="0 0 388 340" fill="none" xmlns="http://www.w3.org/2000/svg">
<path d="M252.637 4.57196C260.628 1.77496 269.141 0.530968 277.32 1.04897C318.882 3.68097 345.036 40.1 352.685 78.193C363.776 133.433 335.658 189.951 296.192 227.293C294.908 228.508 293.607 229.704 292.286 230.879C251.211 267.436 196.219 286.144 141.679 287.699C107.381 288.677 66.698 277.093 44.05 249.869C20.385 221.421 25.633 157.132 70.705 154.129C89.058 152.906 106.185 159.573 123.857 163.234C148.373 168.313 175.056 163.388 195.164 148.145C235.124 117.851 199.15 62.479 223.627 26.123C230.399 16.061 240.96 8.65896 252.637 4.57196Z" fill="#002DE5" fill-opacity="0.1"/>
<path d="M194 339.561C301.082 339.561 387.889 334.492 387.889 328.238C387.889 321.985 301.082 316.915 194 316.915C86.918 316.915 0.110962 321.985 0.110962 328.238C0.110962 334.492 86.918 339.561 194 339.561Z" fill="#000F4B"/>
<path d="M307.124 306.33L278.311 303.498V263.006H266.892V303.487L237.963 306.33C235.091 306.612 232.902 309.027 232.902 311.913V316.24H271.485H273.601H312.184V311.913C312.185 309.027 309.995 306.612 307.124 306.33Z" fill="#263238"/>
<path opacity="0.2" d="M307.124 306.33L278.311 303.498V263.006H266.892V303.487L237.963 306.33C235.091 306.612 232.902 309.027 232.902 311.913V316.24H271.485H273.601H312.184V311.913C312.185 309.027 309.995 306.612 307.124 306.33Z" fill="white"/>
<path d="M235.951 329.072C240.074 329.072 243.417 325.729 243.417 321.606C243.417 317.483 240.074 314.14 235.951 314.14C231.828 314.14 228.485 317.483 228.485 321.606C228.485 325.729 231.828 329.072 235.951 329.072Z" fill="#263238"/>
<path d="M309.135 329.072C313.258 329.072 316.601 325.729 316.601 321.606C316.601 317.483 313.258 314.14 309.135 314.14C305.012 314.14 301.669 317.483 301.669 321.606C301.669 325.729 305.012 329.072 309.135 329.072Z" fill="#263238"/>
<path d="M276.144 271.709H269.058C266.775 271.709 264.925 269.859 264.925 267.576V235.643H280.277V267.576C280.277 269.859 278.427 271.709 276.144 271.709Z" fill="#263238"/>
<path opacity="0.3" d="M276.144 271.709H269.058C266.775 271.709 264.925 269.859 264.925 267.576V235.643H280.277V267.576C280.277 269.859 278.427 271.709 276.144 271.709Z" fill="white"/>
<path d="M299.901 172.35C299.901 172.35 302.077 226.347 287.044 235.643H304.207C304.207 235.643 317.505 217.247 313.747 172.35H299.901Z" fill="#263238"/>
<path opacity="0.3" d="M299.901 172.35C299.901 172.35 302.077 226.347 287.044 235.643H304.207C304.207 235.643 317.505 217.247 313.747 172.35H299.901Z" fill="white"/>
<path d="M238.132 228.092H305.053C307.815 228.092 310.053 230.331 310.053 233.092V239.781H233.132V233.092C233.132 230.33 235.371 228.092 238.132 228.092Z" fill="#263238"/>
<path d="M231.937 233.937H311.248C312.359 233.937 313.259 234.837 313.259 235.948V237.77C313.259 238.881 312.359 239.781 311.248 239.781H231.937C230.826 239.781 229.926 238.881 229.926 237.77V235.948C229.926 234.837 230.826 233.937 231.937 233.937Z" fill="#263238"/>
<path opacity="0.6" d="M231.937 233.937H311.248C312.359 233.937 313.259 234.837 313.259 235.948V237.77C313.259 238.881 312.359 239.781 311.248 239.781H231.937C230.826 239.781 229.926 238.881 229.926 237.77V235.948C229.926 234.837 230.826 233.937 231.937 233.937Z" fill="white"/>
<path d="M317.954 183.321H290.46C282.405 183.321 275.876 176.792 275.876 168.737V157.985C275.876 149.93 282.405 143.401 290.46 143.401H317.955C326.01 143.401 332.539 149.93 332.539 157.985V168.737C332.539 176.792 326.009 183.321 317.954 183.321Z" fill="#263238"/>
<path d="M207.051 99.2789L201.565 84.8089C201.565 84.8089 203.918 82.6309 202.304 80.4219C200.69 78.2129 190.564 71.9959 188.718 73.0889C186.872 74.1809 182.774 78.3019 184.99 80.5879C187.205 82.8739 197.015 86.6899 197.015 86.6899L201.868 105.675L207.051 99.2789Z" fill="#E4897B"/>
<path d="M245.383 126.791C245.383 126.791 220.413 121.658 217.705 120.433C214.998 119.208 204.945 89.769 204.945 89.769L197.241 93.369C197.241 93.369 203.443 122.91 209.784 129.935C216.126 136.96 243.175 142.901 243.175 142.901L245.383 126.791Z" fill="#1A4CEF"/>
<path d="M205.067 89.1909L206.659 92.2599L196.759 95.6689L197.141 91.9179L205.067 89.1909Z" fill="#1A4CEF"/>
<path opacity="0.2" d="M243.363 142.494C241.977 142.294 237.648 141.621 232.474 140.536C235.424 135.443 244.063 132.824 244.063 132.824L243.363 142.494Z" fill="black"/>
<path d="M280.583 106.413C280.583 106.413 282.052 120.243 276.927 123.639C271.802 127.035 246.601 123.057 243.741 117.494C240.882 111.931 251.64 96.822 251.64 96.822L280.583 106.413Z" fill="#263238"/>
<path d="M178.593 288.395L185.169 289.979L188.497 280.901L191.519 272.644L184.029 269.449L181.149 279.47L178.593 288.395Z" fill="#E4897B"/>
<path opacity="0.2" d="M181.149 279.47L188.497 280.901L191.519 272.644L184.029 269.449L181.149 279.47Z" fill="black"/>
<path d="M181.81 274.678L190.93 278.068C190.93 278.068 215.26 217.238 220.26 217.028C225.26 216.818 276.17 240.218 288.93 227.238C301.69 214.268 283.24 182.998 283.24 182.998C283.24 182.998 252.55 178.618 250.24 185.548C249.79 186.888 249.3 189.518 248.94 191.768C248.59 193.888 248.35 195.668 248.35 195.668C248.35 195.668 248.34 195.668 248.33 195.658C247.38 195.418 216.57 187.468 204.43 195.668C192.1 204.008 181.81 274.678 181.81 274.678Z" fill="#407BFF"/>
<path opacity="0.6" d="M181.81 274.678L190.93 278.068C190.93 278.068 215.26 217.238 220.26 217.028C225.26 216.818 276.17 240.218 288.93 227.238C301.69 214.268 283.24 182.998 283.24 182.998C283.24 182.998 252.55 178.618 250.24 185.548C249.79 186.888 249.3 189.518 248.94 191.768C248.59 193.888 248.35 195.668 248.35 195.668C248.35 195.668 248.34 195.668 248.33 195.658C247.38 195.418 216.57 187.468 204.43 195.668C192.1 204.008 181.81 274.678 181.81 274.678Z" fill="white"/>
<path d="M234.267 314.344L240.819 312.665L239.558 303.266L238.388 294.644L230.285 295.371L232.389 305.417L234.267 314.344Z" fill="#E4897B"/>
<path opacity="0.2" d="M232.441 305.619L239.604 303.445L238.411 294.734L230.297 295.416L232.441 305.619Z" fill="black"/>
<path d="M194.696 274.694L181.413 270.179L180.845 275.621L190.921 279.183L194.696 274.694Z" fill="#1A4CEF"/>
<path d="M266.89 230.359C266.89 230.359 264.812 230.408 232.621 228.908C232.621 228.908 237.432 269.153 240.056 299.281L230.43 300.922C230.43 300.922 207.43 236.409 207.68 226.159C207.93 215.909 219.68 212.909 219.68 212.909C219.68 212.909 242.614 226.158 266.89 230.359Z" fill="#407BFF"/>
<path opacity="0.6" d="M266.89 230.359C266.89 230.359 264.812 230.408 232.621 228.908C232.621 228.908 237.432 269.153 240.056 299.281L230.43 300.922C230.43 300.922 207.43 236.409 207.68 226.159C207.93 215.909 219.68 212.909 219.68 212.909C219.68 212.909 242.614 226.158 266.89 230.359Z" fill="white"/>
<path opacity="0.1" d="M266.89 230.359C266.89 230.359 264.812 230.408 232.621 228.908C232.621 228.908 237.432 269.153 240.056 299.281L230.43 300.922C230.43 300.922 207.43 236.409 207.68 226.159C207.93 215.909 219.68 212.909 219.68 212.909C219.68 212.909 242.614 226.158 266.89 230.359Z" fill="black"/>
<path d="M241.464 296.361L228.234 297.866L230.786 303.052L241.496 301.679L241.464 296.361Z" fill="#1A4CEF"/>
<path opacity="0.1" d="M248.35 195.668L266.3 199.408C266.3 199.408 256.38 193.928 248.94 191.768C248.59 193.888 248.35 195.668 248.35 195.668Z" fill="black"/>
<path d="M282.499 178.227L283.237 183.001L250.238 185.546L249.365 179.9L282.499 178.227Z" fill="#263238"/>
<path opacity="0.2" d="M282.499 178.227L283.237 183.001L250.238 185.546L249.365 179.9L282.499 178.227Z" fill="black"/>
<path d="M272.071 186.218L273.701 186.05L272.847 177.745L271.217 177.913L272.071 186.218Z" fill="#407BFF"/>
<path d="M257.458 185.381L264.688 184.917L264.336 179.434L257.106 179.899L257.458 185.381Z" fill="white"/>
<path d="M251.857 187.113L253.488 186.946L252.634 178.642L251.003 178.81L251.857 187.113Z" fill="#407BFF"/>
<path opacity="0.6" d="M272.071 186.218L273.701 186.05L272.847 177.745L271.217 177.913L272.071 186.218Z" fill="white"/>
<path opacity="0.6" d="M251.857 187.113L253.488 186.946L252.634 178.642L251.003 178.81L251.857 187.113Z" fill="white"/>
<path d="M244.784 126.335C244.784 126.335 253.209 128.978 263.797 128.434C274.385 127.89 287.044 133.033 287.044 133.033L282.499 178.227L249.365 179.9C249.365 179.9 238.232 142.16 244.784 126.335Z" fill="#1A4CEF"/>
<path d="M250.107 100.814C250.107 100.814 251.97 78.8659 270.315 86.8409C293.342 96.8509 275.031 123.583 263.782 118.095C252.533 112.607 250.107 100.814 250.107 100.814Z" fill="#263238"/>
<path opacity="0.2" d="M255.25 129.66L255.777 142.061L259.892 136.227C259.892 136.227 258.424 149.943 259.283 157.411C259.283 157.411 260.069 144.019 261.933 136.227L266.3 142.061L272.575 129.736C272.575 129.736 262.422 126.089 255.25 129.66Z" fill="black"/>
<path d="M260.932 131.967L270.418 129.287C264.573 125.264 267.52 116.269 267.52 116.269L258.123 119.573C258.625 121.132 258.941 122.457 259.131 123.588C260.113 129.45 257.466 129.918 257.466 129.918L260.932 131.967Z" fill="#E4897B"/>
<path opacity="0.2" d="M258.124 119.573C258.626 121.132 258.942 122.457 259.132 123.588C263.63 121.785 267.521 116.269 267.521 116.269L258.124 119.573Z" fill="black"/>
<path d="M264.256 91.449C255.933 89.607 252.268 93.4699 249.76 101.912C246.626 112.462 247.317 120.603 258.23 120.617C273.052 120.635 278.078 94.508 264.256 91.449Z" fill="#E4897B"/>
<path d="M255.243 102.638C255.243 102.638 253.609 104.557 252.057 105.554C252.057 105.554 252.519 106.844 254.043 106.981L255.243 102.638Z" fill="#DE5753"/>
<path d="M260.488 103.085C260.321 103.765 260.553 104.407 261.006 104.518C261.459 104.629 261.963 104.169 262.13 103.489C262.297 102.809 262.065 102.167 261.612 102.055C261.159 101.943 260.656 102.404 260.488 103.085Z" fill="#263238"/>
<path d="M261.793 102.134L260.456 101.19C260.456 101.19 260.887 102.616 261.793 102.134Z" fill="#263238"/>
<path d="M252.068 100.863C251.901 101.543 252.133 102.185 252.586 102.297C253.04 102.409 253.543 101.948 253.71 101.268C253.877 100.588 253.645 99.9457 253.192 99.8347C252.738 99.7217 252.235 100.183 252.068 100.863Z" fill="#263238"/>
<path d="M253.373 99.9128L252.037 98.9688C252.037 98.9688 252.467 100.395 253.373 99.9128Z" fill="#263238"/>
<path d="M261.844 97.356C261.844 97.356 264.25 97.5699 265.175 99.4129" stroke="#263238" stroke-width="0.7247" stroke-miterlimit="10" stroke-linecap="round" stroke-linejoin="round"/>
<path d="M255.872 95.6648C255.872 95.6648 254.522 94.7949 252.404 95.6149" stroke="#263238" stroke-width="0.7247" stroke-miterlimit="10" stroke-linecap="round" stroke-linejoin="round"/>
<path d="M270.248 107.49C270.248 107.49 267.87 99.7909 269.628 94.6419C269.628 94.6419 254.626 84.2539 250.107 100.815C250.107 100.815 251.785 85.5929 266.166 88.4279C280.524 91.2589 275.853 112.181 267.084 116.782C267.084 116.782 271.709 112.299 270.248 107.49Z" fill="#263238"/>
<path d="M268.5 108.946C268.852 107.618 270.737 105.656 273.169 106.48C275.686 107.332 275.743 112.899 269.046 112.752C268.085 112.731 267.765 111.716 268.5 108.946Z" fill="#E4897B"/>
<path d="M252.554 110.143C252.849 111.244 252.985 113.236 252.985 113.236C253.168 113.256 253.351 113.276 253.534 113.287C256.019 113.498 257.241 112.775 257.843 111.91C258.17 111.435 258.307 110.911 258.361 110.478C258.429 109.979 258.363 109.607 258.363 109.607C256.979 110.282 254.647 110.264 253.402 110.201C252.881 110.181 252.554 110.143 252.554 110.143Z" fill="#263238"/>
<path d="M253.402 110.201L253.553 111.11C255.894 111.303 257.568 111.125 258.361 110.478C258.429 109.979 258.363 109.607 258.363 109.607C256.979 110.282 254.647 110.263 253.402 110.201Z" fill="white"/>
<path d="M253.534 113.286C256.019 113.497 257.241 112.774 257.843 111.909C256.994 111.87 255.965 111.917 255.037 112.221C254.327 112.452 253.859 112.86 253.534 113.286Z" fill="#DE5753"/>
<path d="M264.289 92.1149C264.289 92.1149 264.611 106.552 273.273 108.285C281.935 110.018 272.466 89.7329 272.466 89.7329C272.466 89.7329 259.569 81.3089 250.972 87.2459C242.375 93.1829 250.107 100.815 250.107 100.815C250.107 100.815 251.923 90.0909 264.289 92.1149Z" fill="#263238"/>
<path d="M264.588 91.1609C264.588 91.1609 261.501 100.287 267.597 105.078" stroke="#263238" stroke-width="0.5" stroke-miterlimit="10" stroke-linecap="round" stroke-linejoin="round"/>
<path d="M275.802 111.255C274.7 114.191 271.871 115.843 269.482 114.947C267.094 114.05 266.051 110.944 267.153 108.009C268.255 105.073 271.084 103.421 273.473 104.317C275.861 105.213 276.904 108.319 275.802 111.255Z" fill="#407BFF"/>
<path opacity="0.4" d="M275.802 111.255C274.7 114.191 271.871 115.843 269.482 114.947C267.094 114.05 266.051 110.944 267.153 108.009C268.255 105.073 271.084 103.421 273.473 104.317C275.861 105.213 276.904 108.319 275.802 111.255Z" fill="black"/>
<path d="M273.044 106.441C273.044 106.441 276.63 90.3709 268.582 86.1589C268.582 86.1589 270.259 86.3849 271.299 86.6879C272.339 86.9909 278.768 93.5079 275.519 107.951L273.044 106.441Z" fill="#407BFF"/>
<path opacity="0.2" d="M273.044 106.441C273.044 106.441 276.63 90.3709 268.582 86.1589C268.582 86.1589 270.259 86.3849 271.299 86.6879C272.339 86.9909 278.768 93.5079 275.519 107.951L273.044 106.441Z" fill="black"/>
<path d="M257.949 115.638C257.75 115.612 257.55 115.582 257.348 115.548L257.51 114.562C264.757 115.742 270.149 111.907 270.203 111.867L270.794 112.674C270.569 112.839 265.325 116.608 257.949 115.638Z" fill="#407BFF"/>
<g opacity="0.2">
<path d="M257.949 115.638C257.75 115.612 257.55 115.582 257.348 115.548L257.51 114.562C264.757 115.742 270.149 111.907 270.203 111.867L270.794 112.674C270.569 112.839 265.325 116.608 257.949 115.638Z" fill="black"/>
</g>
<path d="M275.464 110.853C274.735 112.794 272.865 113.886 271.286 113.294C269.707 112.701 269.018 110.648 269.746 108.707C270.475 106.766 272.345 105.674 273.924 106.266C275.503 106.859 276.192 108.912 275.464 110.853Z" fill="#407BFF"/>
<path d="M257.055 115.966L256.252 115.86C255.656 115.782 255.237 115.235 255.315 114.639C255.393 114.043 255.94 113.624 256.535 113.702L257.338 113.808C257.934 113.886 258.353 114.433 258.275 115.029C258.198 115.625 257.651 116.044 257.055 115.966Z" fill="#407BFF"/>
<path opacity="0.4" d="M257.055 115.966L256.252 115.86C255.656 115.782 255.237 115.235 255.315 114.639C255.393 114.043 255.94 113.624 256.535 113.702L257.338 113.808C257.934 113.886 258.353 114.433 258.275 115.029C258.198 115.625 257.651 116.044 257.055 115.966Z" fill="black"/>
<path d="M267.875 125.848L261.933 131.684L264.309 138.835L272.575 129.736L267.875 125.848Z" fill="#407BFF"/>
<path d="M259.283 127.068L260.244 131.56L257.167 137.912L255.25 129.66L259.283 127.068Z" fill="#407BFF"/>
<path d="M266.603 130.914L270.054 118.284C270.054 118.284 268.382 115.138 268.743 114.479C269.104 113.821 270.9 105.341 272.181 104.417C273.461 103.494 278.725 105.07 279.258 105.93C279.791 106.79 274.213 118.283 274.213 118.283L272.18 131.966L266.603 130.914Z" fill="#E4897B"/>
<path d="M287.044 133.033C296.539 142.752 277.508 164.77 266.603 163.832C255.698 162.894 266.875 122.969 266.875 122.969L273.858 124.118C273.858 124.118 271.408 141.396 272.18 142.752C272.954 144.107 283.853 129.766 287.044 133.033Z" fill="#153DBF"/>
<path d="M266.301 121.692L265.267 124.989L274.997 125.848V122.969L266.301 121.692Z" fill="#407BFF"/>
<path d="M167.705 301.168C168.705 300.708 169.78 300.435 170.879 300.362C170.879 300.362 174.677 298.126 178.441 289.442L182.674 289.417C184.139 289.434 185.439 290.364 185.926 291.746C185.996 291.934 186.036 292.132 186.046 292.332C186.003 293.355 185.895 294.374 185.721 295.383C185.34 298.549 183.246 305.342 183.246 305.342L182.529 305.159L183.833 298.843C184.267 296.697 182.012 298.77 180.966 300.934C179.92 303.098 178.316 305.276 173.641 304.207C168.193 302.932 165.997 302.148 167.705 301.168Z" fill="#1A4CEF"/>
<path d="M179.207 287.166C179.207 287.166 173.922 298.227 170.878 300.361C170.878 300.361 174.958 302.794 179.207 297.379C184.701 290.376 186.045 292.332 186.045 292.332C186.045 292.332 185.812 289.936 185.383 288.763C184.559 286.503 179.207 287.166 179.207 287.166Z" fill="#E4897B"/>
<path d="M225.926 327.521C226.788 326.837 227.768 326.316 228.818 325.985C228.818 325.985 231.977 322.912 233.575 313.583L237.681 312.555C239.109 312.224 240.591 312.82 241.392 314.047C241.504 314.213 241.59 314.396 241.647 314.588C241.848 315.592 241.984 316.607 242.054 317.629C242.435 320.795 242.012 327.891 242.012 327.891L241.272 327.884L241.041 321.439C240.953 319.251 239.254 321.8 238.751 324.15C238.248 326.5 237.206 328.997 232.411 329.067C226.819 329.119 224.5 328.877 225.926 327.521Z" fill="#1A4CEF"/>
<path d="M233.78 311.19C233.78 311.19 231.268 323.189 228.818 325.984C228.818 325.984 233.359 327.38 236.202 321.112C239.878 313.006 241.648 314.587 241.648 314.587C241.648 314.587 240.854 312.314 240.159 311.276C238.821 309.277 233.78 311.19 233.78 311.19Z" fill="#E4897B"/>
<path d="M326.76 94.2189H291.844C289.047 94.2189 286.779 91.951 286.779 89.154V74.213C286.779 71.416 289.047 69.1479 291.844 69.1479H326.76C329.557 69.1479 331.825 71.416 331.825 74.213V89.154C331.825 91.951 329.557 94.2189 326.76 94.2189Z" fill="#1A4CEF"/>
<path d="M298.851 91.3608L288.332 105.659L305.303 92.3199L298.851 91.3608Z" fill="#1A4CEF"/>
<path d="M299.244 81.683C299.244 82.498 298.584 83.158 297.769 83.158C296.954 83.158 296.294 82.497 296.294 81.683C296.294 80.868 296.954 80.208 297.769 80.208C298.583 80.208 299.244 80.868 299.244 81.683Z" fill="white"/>
<path d="M306.933 81.683C306.933 82.498 306.272 83.158 305.458 83.158C304.644 83.158 303.983 82.497 303.983 81.683C303.983 80.868 304.644 80.208 305.458 80.208C306.272 80.208 306.933 80.868 306.933 81.683Z" fill="white"/>
<path d="M314.622 81.683C314.622 82.498 313.962 83.158 313.147 83.158C312.332 83.158 311.672 82.497 311.672 81.683C311.672 80.868 312.333 80.208 313.147 80.208C313.962 80.208 314.622 80.868 314.622 81.683Z" fill="white"/>
<path d="M322.311 81.683C322.311 82.498 321.65 83.158 320.836 83.158C320.021 83.158 319.361 82.497 319.361 81.683C319.361 80.868 320.021 80.208 320.836 80.208C321.651 80.208 322.311 80.868 322.311 81.683Z" fill="white"/>
<path d="M186.431 74.505L161.531 61.094C160.858 60.731 160.606 59.892 160.969 59.218L168.91 44.473C169.273 43.8 170.112 43.548 170.786 43.91L195.686 57.321C196.359 57.684 196.611 58.523 196.249 59.197L188.308 73.942C187.944 74.615 187.104 74.867 186.431 74.505Z" fill="#407BFF"/>
<path opacity="0.7" d="M186.431 74.505L161.531 61.094C160.858 60.731 160.606 59.892 160.969 59.218L168.91 44.473C169.273 43.8 170.112 43.548 170.786 43.91L195.686 57.321C196.359 57.684 196.611 58.523 196.249 59.197L188.308 73.942C187.944 74.615 187.104 74.867 186.431 74.505Z" fill="white"/>
<path opacity="0.2" d="M168.253 45.6919L176.043 60.2389C176.65 61.3719 177.878 62.0279 179.157 61.9009L195.371 60.2979L178.866 62.7279C177.386 62.9459 175.939 62.1659 175.306 60.8109L168.253 45.6919Z" fill="black"/>
<path d="M149.342 42.982C149.607 37.418 153.725 26.208 158.736 22.78C163.747 19.351 160.45 24.099 160.45 24.099C160.45 24.099 165.197 19.484 167.703 19.616C170.209 19.748 167.703 22.649 167.703 22.649C167.703 22.649 172.846 19.479 175.22 19.613C177.594 19.748 175.22 22.517 175.22 22.517C175.22 22.517 179.44 19.484 181.154 20.935C182.868 22.386 159.264 37.946 156.627 44.276C153.989 50.604 149.074 48.613 149.342 42.982Z" fill="#407BFF"/>
<path opacity="0.4" d="M149.342 42.982C149.607 37.418 153.725 26.208 158.736 22.78C163.747 19.351 160.45 24.099 160.45 24.099C160.45 24.099 165.197 19.484 167.703 19.616C170.209 19.748 167.703 22.649 167.703 22.649C167.703 22.649 172.846 19.479 175.22 19.613C177.594 19.748 175.22 22.517 175.22 22.517C175.22 22.517 179.44 19.484 181.154 20.935C182.868 22.386 159.264 37.946 156.627 44.276C153.989 50.604 149.074 48.613 149.342 42.982Z" fill="white"/>
<path d="M169.615 42.1611L172.768 44.1801C172.995 44.3251 172.877 44.6771 172.608 44.6561L169.296 44.3981L169.581 46.9401C169.612 47.2161 169.269 47.3681 169.085 47.1601L167.175 44.9971L169.615 42.1611Z" fill="#407BFF"/>
<path opacity="0.3" d="M169.615 42.1611L172.768 44.1801C172.995 44.3251 172.877 44.6771 172.608 44.6561L169.296 44.3981L169.581 46.9401C169.612 47.2161 169.269 47.3681 169.085 47.1601L167.175 44.9971L169.615 42.1611Z" fill="white"/>
<path d="M125.374 29.6391C125.374 29.6391 129.726 26.6041 136.319 28.5821C136.319 28.5821 138.215 37.2851 143.399 40.1861C146.246 41.7791 153.221 41.6421 158.737 39.8561C165.288 37.7351 168.495 37.7351 169.682 40.1861C170.806 42.5071 169.55 45.1971 164.539 46.3841C159.528 47.5711 155.572 56.2741 146.473 56.4061C137.374 56.5381 132.585 47.4151 134.869 39.3951C134.869 39.3951 132.099 33.4171 125.374 29.6391Z" fill="#407BFF"/>
<path opacity="0.5" d="M125.374 29.6391C125.374 29.6391 129.726 26.6041 136.319 28.5821C136.319 28.5821 138.215 37.2851 143.399 40.1861C146.246 41.7791 153.221 41.6421 158.737 39.8561C165.288 37.7351 168.495 37.7351 169.682 40.1861C170.806 42.5071 169.55 45.1971 164.539 46.3841C159.528 47.5711 155.572 56.2741 146.473 56.4061C137.374 56.5381 132.585 47.4151 134.869 39.3951C134.869 39.3951 132.099 33.4171 125.374 29.6391Z" fill="white"/>
<path d="M167.176 41.8351C167.176 42.0811 166.977 42.2801 166.731 42.2801C166.485 42.2801 166.286 42.0811 166.286 41.8351C166.286 41.5891 166.485 41.3901 166.731 41.3901C166.977 41.3901 167.176 41.5891 167.176 41.8351Z" fill="#263238"/>
<path d="M144.361 49.1591C138.987 50.6241 127.054 50.1671 122.246 46.4591C117.438 42.7511 122.971 44.4211 122.971 44.4211C122.971 44.4211 117.116 41.3301 116.468 38.9061C115.82 36.4821 119.353 37.9701 119.353 37.9701C119.353 37.9701 114.75 34.0571 114.145 31.7581C113.54 29.4591 116.907 30.8621 116.907 30.8621C116.907 30.8621 112.72 27.7841 113.57 25.7061C114.42 23.6281 136.507 41.2771 143.342 41.8311C150.177 42.3871 149.8 47.6761 144.361 49.1591Z" fill="#407BFF"/>
<path opacity="0.4" d="M144.361 49.1591C138.987 50.6241 127.054 50.1671 122.246 46.4591C117.438 42.7511 122.971 44.4211 122.971 44.4211C122.971 44.4211 117.116 41.3301 116.468 38.9061C115.82 36.4821 119.353 37.9701 119.353 37.9701C119.353 37.9701 114.75 34.0571 114.145 31.7581C113.54 29.4591 116.907 30.8621 116.907 30.8621C116.907 30.8621 112.72 27.7841 113.57 25.7061C114.42 23.6281 136.507 41.2771 143.342 41.8311C150.177 42.3871 149.8 47.6761 144.361 49.1591Z" fill="white"/>
<path d="M109.163 24.459C108.223 24.124 107.272 23.812 106.313 23.521" stroke="#407BFF" stroke-width="0.75" stroke-linecap="round" stroke-linejoin="round"/>
<path d="M100.467 22.0299C96.962 21.2959 93.399 20.8199 89.86 20.5739C80.137 19.8969 64.895 18.9339 58.939 28.6229C53.512 37.4519 62.849 52.5159 66.163 60.7129C70.222 70.7519 75.048 83.1659 70.252 93.7939C60.396 115.633 18.206 104.293 3.974 84.1789" stroke="#407BFF" stroke-width="0.75" stroke-linecap="round" stroke-linejoin="round" stroke-dasharray="6.03 6.03"/>
<path d="M2.35597 81.6389C1.85497 80.7569 1.40897 79.8609 1.02197 78.9529" stroke="#407BFF" stroke-width="0.75" stroke-linecap="round" stroke-linejoin="round"/>
<path d="M148.146 168.664L149.133 164.934H189.685L208.359 166.799L209.069 168.664H148.146Z" fill="#263238"/>
<path opacity="0.4" d="M189.685 164.934V168.664H148.146L149.133 164.934H189.685Z" fill="black"/>
<path d="M181.538 147.079C181.718 149.049 180.278 150.649 178.318 150.649H116.198C114.228 150.649 112.488 149.049 112.308 147.079L108.618 107.309C108.578 106.899 108.608 106.509 108.698 106.149C109.048 104.749 110.278 103.739 111.838 103.739H173.958C175.928 103.739 177.668 105.339 177.848 107.309L181.538 147.079Z" fill="#263238"/>
<path opacity="0.4" d="M178.099 150.649H116.199C114.229 150.649 112.489 149.049 112.309 147.079L108.619 107.309C108.579 106.899 108.609 106.509 108.699 106.149H170.599C172.559 106.149 174.299 107.749 174.489 109.719L178.179 149.489C178.219 149.899 178.188 150.289 178.099 150.649Z" fill="black"/>
<path d="M135.421 126.257H148.272L144.846 163.05L165.168 166.101V168.664H122.368V166.101L131.136 163.05L135.421 126.257Z" fill="#263238"/>
<path opacity="0.1" d="M148.272 126.257L138.751 168.079L131.136 167.853L135.421 126.257H148.272Z" fill="white"/>
<path d="M148.213 329.072H142.087L131.08 175.825H139.208L148.213 329.072Z" fill="#263238"/>
<path opacity="0.4" d="M148.217 329.072H142.087L131.617 183.437L131.077 176.072H139.207L139.647 183.437L148.217 329.072Z" fill="white"/>
<path opacity="0.2" d="M139.647 183.072H131.617L131.077 176.072H139.207L139.647 183.072Z" fill="black"/>
<path d="M193.172 329.072H187.046L186.046 175.825H194.173L193.172 329.072Z" fill="#263238"/>
<path opacity="0.5" d="M194.177 176.072L194.017 200.797L193.177 329.072H187.047L186.207 200.797L186.047 176.072H194.177Z" fill="white"/>
<path opacity="0.2" d="M194.177 176.072L194.017 201.072H186.207L186.047 176.072H194.177Z" fill="black"/>
<path d="M258.213 329.072H252.087L241.08 175.825H249.208L258.213 329.072Z" fill="#263238"/>
<path opacity="0.5" d="M258.217 329.072H252.087L241.617 183.437L241.077 176.072H249.207L249.647 183.437L258.217 329.072Z" fill="white"/>
<path opacity="0.2" d="M249.647 183.072H241.617L241.077 176.072H249.207L249.647 183.072Z" fill="black"/>
<path d="M78.132 329.072H72.005L81.011 175.825H89.138L78.132 329.072Z" fill="#263238"/>
<path opacity="0.5" d="M89.1369 176.072L88.597 183.437L78.127 329.072H72.007L80.567 183.437L81.007 176.072H89.1369Z" fill="white"/>
<path opacity="0.2" d="M81.007 176.072H89.137L88.597 183.072H80.567L81.007 176.072Z" fill="black"/>
<path d="M253.488 179.663H76.731C75.537 179.663 74.569 178.695 74.569 177.501V171.987H255.65V177.5C255.65 178.695 254.682 179.663 253.488 179.663Z" fill="#407BFF"/>
<path opacity="0.6" d="M253.488 179.663H76.731C75.537 179.663 74.569 178.695 74.569 177.501V171.987H255.65V177.5C255.65 178.695 254.682 179.663 253.488 179.663Z" fill="white"/>
<path opacity="0.2" d="M255.65 171.987H74.569V175.825H255.65V171.987Z" fill="black"/>
<path d="M259.447 172.988H70.772C69.578 172.988 68.61 172.02 68.61 170.826C68.61 169.632 69.578 168.664 70.772 168.664H259.448C260.642 168.664 261.61 169.632 261.61 170.826C261.609 172.02 260.641 172.988 259.447 172.988Z" fill="#407BFF"/>
<path opacity="0.6" d="M259.447 172.988H70.772C69.578 172.988 68.61 172.02 68.61 170.826C68.61 169.632 69.578 168.664 70.772 168.664H259.448C260.642 168.664 261.61 169.632 261.61 170.826C261.609 172.02 260.641 172.988 259.447 172.988Z" fill="white"/>
<path d="M214.806 162.003L217.13 158.524C217.593 157.83 218.372 157.414 219.207 157.414H222.15C222.395 157.414 222.64 157.45 222.874 157.521L233.362 160.7C233.958 160.881 234.466 161.278 234.784 161.813L236.289 164.343L214.806 162.003Z" fill="#407BFF"/>
<path opacity="0.2" d="M236.289 164.344L221.019 162.684L214.809 162.004L217.129 158.524C217.589 157.834 218.369 157.414 219.209 157.414H222.149C222.399 157.414 222.639 157.454 222.879 157.524L223.109 157.594L233.359 160.704C233.959 160.884 234.469 161.274 234.789 161.814L236.289 164.344Z" fill="black"/>
<path opacity="0.2" d="M236.289 164.344L221.019 162.684L223.109 157.594L233.359 160.704C233.959 160.884 234.469 161.274 234.789 161.814L236.289 164.344Z" fill="black"/>
<path d="M243.548 168.333V168.663H230.238H211.128L212.328 163.973C212.798 162.213 214.398 160.983 216.218 160.983H230.598C231.078 160.983 231.548 161.063 231.998 161.233L233.798 161.903L240.938 164.563C242.509 165.154 243.548 166.654 243.548 168.333Z" fill="#407BFF"/>
<path opacity="0.2" d="M243.548 168.333V168.663H230.238L230.948 163.593C231.138 162.253 232.528 161.433 233.798 161.903L240.938 164.563C242.509 165.154 243.548 166.654 243.548 168.333Z" fill="black"/>
<path d="M232.311 165.217L236.545 152.509C236.728 151.96 237.357 151.705 237.871 151.97C238.263 152.172 238.462 152.62 238.35 153.046L234.784 166.613C234.784 166.613 232.41 167.573 232.311 165.217Z" fill="#263238"/>
<path opacity="0.2" d="M214.806 167.608H212.927L213.289 165.762H215.168L214.806 167.608Z" fill="black"/>
<path opacity="0.2" d="M217.608 167.536H215.729L216.091 165.69H217.971L217.608 167.536Z" fill="black"/>
</svg>
