<svg width="388" height="354" viewBox="0 0 388 354" fill="none" xmlns="http://www.w3.org/2000/svg">
<path d="M161.825 103.482C222.165 70.0391 345.37 -55.7219 376.767 68.8431C399.316 158.301 277.358 218.355 218.231 237.963C142.595 263.046 30.024 235.151 2.59302 138.274C-8.39098 99.4821 18.204 84.1691 52.844 94.7761C93.495 107.222 117.374 128.119 161.825 103.482Z" fill="#002DE5" fill-opacity="0.1"/>
<path opacity="0.9" d="M161.825 103.482C222.165 70.0391 345.37 -55.7219 376.767 68.8431C399.316 158.301 277.358 218.355 218.231 237.963C142.595 263.046 30.024 235.151 2.59302 138.274C-8.39098 99.4821 18.204 84.1691 52.844 94.7761C93.495 107.222 117.374 128.119 161.825 103.482Z" fill="#002DE5" fill-opacity="0.1"/>
<path d="M193.889 353.229C86.8071 353.229 0 348.16 0 341.906C0 335.652 86.8071 330.583 193.889 330.583C300.971 330.583 387.778 335.652 387.778 341.906C387.778 348.16 300.971 353.229 193.889 353.229Z" fill="#000F4B"/>
<path d="M82.85 68.114C82.85 70.932 85.134 73.216 87.952 73.216C90.77 73.216 93.054 70.932 93.054 68.114C93.054 65.296 90.77 63.012 87.952 63.012C85.134 63.013 82.85 65.297 82.85 68.114Z" fill="#263238"/>
<path d="M86.389 72.7411C86.389 75.3671 88.517 77.4951 91.143 77.4951C93.769 77.4951 95.897 75.3661 95.897 72.7411C95.897 70.1151 93.768 67.9871 91.143 67.9871C88.518 67.9871 86.389 70.1151 86.389 72.7411Z" fill="#263238"/>
<path d="M57.586 293.796L62.3091 299.098L75.201 288.849L70.478 283.547L57.586 293.796Z" fill="#7F3E3B"/>
<path d="M63.17 298.829L57.864 292.872C57.671 292.655 57.375 292.626 57.152 292.801L52.182 296.711C51.666 297.116 51.613 297.987 52.066 298.479C53.949 300.521 54.954 301.403 57.287 304.023C58.723 305.635 62.413 309.261 64.395 311.486C66.334 313.663 68.521 311.688 67.881 310.567C65.007 305.542 63.816 302.577 63.658 300.033C63.629 299.574 63.453 299.146 63.17 298.829Z" fill="#263238"/>
<path opacity="0.2" d="M70.473 283.548L75.198 288.852L68.551 294.133L63.825 288.828L70.473 283.548Z" fill="black"/>
<path d="M112.223 155.69C112.223 155.69 122.513 210.643 122.924 231.001C123.374 253.295 71.918 295.266 71.918 295.266L63.705 285.181C63.705 285.181 95.038 252.195 101.785 231.543C99.102 207.756 86.94 153.516 86.94 153.516L112.223 155.69Z" fill="#263238"/>
<path opacity="0.3" d="M102.717 191.867C104.629 201.52 103.355 213.996 100.673 223.251C98.522 209.096 94.685 189.829 91.605 175.137C94.983 175.271 100.332 179.771 102.717 191.867Z" fill="black"/>
<path d="M63.208 285.13L72.212 295.755L77.064 293.219L65.963 281.703L63.208 285.13Z" fill="#407BFF"/>
<path d="M63.921 301.531C63.485 301.041 63.103 300.409 62.852 299.949C62.821 299.892 62.826 299.821 62.866 299.77C62.906 299.718 62.972 299.695 63.036 299.71C63.305 299.775 65.668 300.362 65.99 301.235C66.065 301.437 66.033 301.645 65.896 301.834C65.671 302.147 65.399 302.296 65.088 302.277C64.691 302.252 64.287 301.942 63.921 301.531ZM63.334 300.129C63.99 301.246 64.641 301.918 65.108 301.946C65.301 301.958 65.471 301.858 65.627 301.64C65.699 301.539 65.716 301.447 65.679 301.349C65.505 300.88 64.273 300.396 63.334 300.129Z" fill="#407BFF"/>
<path d="M62.873 299.98C62.856 299.961 62.843 299.937 62.836 299.911C62.822 299.856 62.837 299.797 62.876 299.756C62.936 299.693 64.355 298.216 65.347 298.291C65.614 298.311 65.829 298.437 65.986 298.661C66.174 298.931 66.183 299.209 66.011 299.442C65.542 300.079 63.731 300.275 62.946 300.027C62.918 300.019 62.893 300.002 62.873 299.98ZM65.668 298.79C65.576 298.687 65.463 298.632 65.323 298.621C64.731 298.575 63.819 299.31 63.329 299.773C64.129 299.887 65.439 299.664 65.746 299.246C65.805 299.167 65.855 299.049 65.716 298.85C65.701 298.829 65.685 298.809 65.668 298.79Z" fill="#407BFF"/>
<path d="M109.452 100.729C109.644 101.516 109.805 102.11 109.993 102.778C110.172 103.429 110.377 104.066 110.581 104.702C110.992 105.972 111.431 107.229 111.897 108.477C112.82 110.977 113.915 113.42 115.129 115.834C117.598 120.626 120.636 125.328 124.964 129.344C126.062 130.333 127.238 131.271 128.513 132.122C128.83 132.341 129.334 132.621 129.741 132.852C130.173 133.082 130.613 133.261 131.052 133.455C131.491 133.625 131.927 133.762 132.368 133.902C132.803 134.017 133.235 134.109 133.668 134.205C137.109 134.824 140.116 134.408 142.882 133.771C145.65 133.117 148.195 132.154 150.615 131.024C151.829 130.469 153.001 129.845 154.15 129.193C155.313 128.534 156.4 127.881 157.559 127.074L155.062 122.363C153.998 122.705 152.809 123.094 151.675 123.426C150.525 123.759 149.368 124.052 148.226 124.339C145.936 124.888 143.655 125.32 141.487 125.498C139.336 125.671 137.246 125.586 135.787 125.093L135.28 124.896C135.136 124.814 134.978 124.755 134.841 124.682C134.722 124.595 134.582 124.532 134.473 124.45C134.355 124.344 134.305 124.325 134.119 124.173C133.355 123.573 132.618 122.892 131.907 122.153C129.068 119.153 126.707 115.246 124.755 111.089C123.756 109.015 122.889 106.849 122.051 104.667C121.64 103.573 121.251 102.468 120.89 101.359L120.364 99.7C120.195 99.169 120.014 98.56 119.896 98.135L109.452 100.729Z" fill="#7F3E3B"/>
<path d="M129.705 115.937L117.808 123.32C117.808 123.32 117.418 122.812 116.78 121.933C116.316 121.285 115.717 120.432 115.025 119.431C111.137 113.766 105.616 103.559 105.97 98.8229C106.499 91.7639 113.911 91.3539 121.509 99.2749C124.787 102.692 126.193 108.017 127.722 111.374C128.228 112.481 128.65 113.447 128.976 114.198C129.442 115.288 129.705 115.937 129.705 115.937Z" fill="#1A4CEF"/>
<path d="M78.478 332.95H85.578L86.501 316.506H79.4L78.478 332.95Z" fill="#7F3E3B"/>
<path d="M85.9509 332.128H77.9739C77.6839 332.128 77.4649 332.33 77.4479 332.613L77.0609 338.925C77.0209 339.58 77.6349 340.199 78.3039 340.188C81.0809 340.14 82.4079 339.977 85.9159 339.977C88.0739 339.977 94.3179 340.201 97.2979 340.201C100.213 340.201 100.193 337.254 98.9299 336.987C93.2659 335.79 89.1789 334.14 87.1739 332.565C86.8119 332.28 86.3749 332.128 85.9509 332.128Z" fill="#263238"/>
<path opacity="0.2" d="M79.3979 316.51H86.502L86.0229 324.986H78.9189L79.3979 316.51Z" fill="black"/>
<path d="M98.436 154.141C98.436 154.141 101.401 207.803 99.026 228.027C96.426 250.173 89.068 322.94 89.068 322.94H76.063C76.063 322.94 77.42 250.827 77.966 228.777C78.558 204.846 74.02 152.042 74.02 152.042L98.436 154.141Z" fill="#263238"/>
<path d="M75.559 322.94H90.031L90.833 317.189L74.861 318.088L75.559 322.94Z" fill="#407BFF"/>
<path d="M88.4669 333.365C87.8109 333.365 87.085 333.23 86.575 333.111C86.511 333.097 86.462 333.046 86.45 332.981C86.438 332.917 86.4639 332.852 86.5179 332.814C86.7449 332.656 88.7549 331.282 89.6219 331.623C89.8229 331.702 89.956 331.863 90.007 332.092C90.091 332.468 90.021 332.77 89.8 332.99C89.518 333.269 89.0169 333.365 88.4669 333.365ZM87.0299 332.871C88.2999 333.124 89.236 333.085 89.567 332.755C89.704 332.618 89.743 332.425 89.684 332.164C89.657 332.043 89.5989 331.969 89.5009 331.932C89.0349 331.748 87.8539 332.346 87.0299 332.871Z" fill="#407BFF"/>
<path d="M86.613 333.115C86.587 333.115 86.561 333.109 86.537 333.097C86.487 333.071 86.453 333.021 86.448 332.964C86.441 332.877 86.281 330.835 86.998 330.145C87.191 329.959 87.427 329.882 87.699 329.914C88.026 329.953 88.239 330.131 88.299 330.415C88.463 331.189 87.404 332.672 86.697 333.093C86.671 333.107 86.642 333.115 86.613 333.115ZM87.583 330.237C87.446 330.237 87.329 330.285 87.228 330.383C86.8 330.794 86.742 331.964 86.762 332.639C87.379 332.118 88.084 330.991 87.977 330.483C87.957 330.386 87.902 330.271 87.661 330.242C87.634 330.238 87.608 330.237 87.583 330.237Z" fill="#407BFF"/>
<path opacity="0.3" d="M105.825 99.6308C108.495 98.1778 109.969 102.659 114.647 106.74C116.734 108.56 120.698 119.597 120.097 121.9L117.805 123.321C117.805 123.321 105.165 106.655 105.825 99.6308Z" fill="black"/>
<path d="M153.664 123.106L159.426 117.297L162.917 124.341C162.917 124.341 156.641 128.926 154.846 127.284L153.664 123.106Z" fill="#7F3E3B"/>
<path d="M166.735 117.717L167.89 123.245L162.918 124.341L159.427 117.297L166.735 117.717Z" fill="#7F3E3B"/>
<path d="M112.223 155.69L74.386 152.438C74.409 149.037 76.137 138.111 76.758 124.062C77.175 114.629 77.088 103.787 75.651 92.8779C75.545 92.0989 75.438 91.3309 75.322 90.5519C75.322 90.5519 77.274 90.3249 80.056 90.1609C82.365 90.0229 85.258 89.9259 88.075 90.0329C92.923 90.2189 99.931 90.6679 104.154 91.4149C106.606 91.8569 108.985 92.4749 110.881 93.0119C113.3 93.7199 114.715 94.2689 114.715 94.2689C114.715 94.2689 122.198 116.47 112.223 155.69Z" fill="#1A4CEF"/>
<path opacity="0.3" d="M76.757 124.065C77.174 114.632 77.087 103.79 75.65 92.8799C78.198 92.8779 82.499 93.4969 82.864 97.6439C83.26 102.099 81.399 112.341 76.757 124.065Z" fill="black"/>
<path d="M72.744 94.8831C71.897 95.9731 71.183 96.9381 70.463 97.9901C69.745 99.0221 69.046 100.062 68.362 101.112C67.002 103.219 65.713 105.375 64.51 107.595C62.121 112.047 59.97 116.697 58.521 121.833L58.381 122.311L58.311 122.55L58.21 122.942C58.068 123.514 58 124.035 57.95 124.546C57.87 125.549 57.913 126.436 58.009 127.26C58.216 128.9 58.601 130.305 59.037 131.632C59.907 134.278 61.064 136.593 62.257 138.844C64.714 143.313 67.506 147.341 70.69 151.228L75.156 148.317C73.187 144.087 71.249 139.714 69.673 135.451C68.874 133.329 68.21 131.176 67.775 129.191C67.564 128.204 67.439 127.248 67.443 126.49C67.442 126.116 67.469 125.796 67.516 125.603C67.544 125.518 67.565 125.444 67.585 125.436C67.594 125.419 67.581 125.458 67.605 125.394L67.679 125.205L67.826 124.828C68.554 122.82 69.529 120.808 70.507 118.806C71.524 116.81 72.641 114.829 73.795 112.862C74.97 110.902 76.195 108.957 77.453 107.031C78.684 105.119 80.065 103.162 81.298 101.413L72.744 94.8831Z" fill="#7F3E3B"/>
<path d="M83.604 104.241C81.604 108.837 78.502 114.281 76.233 118.075C75.637 119.081 75.089 119.976 74.643 120.697C73.861 121.966 73.372 122.732 73.372 122.732L59.721 113.56C59.721 113.56 59.954 112.975 60.365 111.991C60.679 111.249 61.089 110.275 61.589 109.155C64.56 102.556 70.479 90.8369 75.32 90.5509C82.559 90.1249 87.243 95.9109 83.604 104.241Z" fill="#1A4CEF"/>
<path d="M89.969 72.0259L93.966 75.9649L99.407 81.3349C99.167 82.1119 98.965 82.9029 98.831 83.6699C98.243 86.8199 98.815 89.7829 103.396 91.2909C103.396 91.2909 109.104 96.4139 100.873 96.1119C92.024 95.7879 87.451 90.0169 87.451 90.0169C91.251 86.8639 90.716 77.3099 89.969 72.0259Z" fill="#7F3E3B"/>
<path d="M88.728 88.113C88.728 88.113 92.981 93.879 99.802 96.045C95.702 97.189 94.611 100.112 94.611 100.112C94.611 100.112 86.75 96.48 86.458 89.986C87.513 88.903 88.728 88.113 88.728 88.113Z" fill="white"/>
<path d="M102.782 90.96C102.782 90.96 104.953 94.44 101.138 96.121C103.705 97.613 104.555 100.113 104.555 100.113C104.555 100.113 107.727 95.3169 105.323 91.4799C103.856 91.1129 102.782 90.96 102.782 90.96Z" fill="white"/>
<path opacity="0.2" d="M99.407 81.3349C99.167 82.1119 98.964 82.9029 98.831 83.6699C96.684 83.0429 93.964 80.4629 93.85 78.2039C93.808 77.3539 93.858 76.5419 93.966 75.9639L99.407 81.3349Z" fill="black"/>
<path d="M99.6173 61.3274C95.6605 57.3707 95.6605 50.9555 99.6173 46.9987C103.574 43.042 109.989 43.042 113.946 46.9988C117.903 50.9555 117.903 57.3707 113.946 61.3274C109.989 65.2842 103.574 65.2842 99.6173 61.3274Z" fill="#263238"/>
<path d="M98.374 61.0128C94.3854 61.0128 91.152 57.7794 91.152 53.7908C91.152 49.8022 94.3854 46.5688 98.374 46.5688C102.363 46.5688 105.596 49.8022 105.596 53.7908C105.596 57.7794 102.363 61.0128 98.374 61.0128Z" fill="#263238"/>
<path d="M86.105 56.291C86.105 59.408 88.632 61.935 91.749 61.935C94.866 61.935 97.393 59.408 97.393 56.291C97.393 53.174 94.866 50.647 91.749 50.647C88.632 50.647 86.105 53.174 86.105 56.291Z" fill="#263238"/>
<path d="M101.134 63.5129C101.134 66.6299 103.661 69.1569 106.778 69.1569C109.895 69.1569 112.422 66.6299 112.422 63.5129C112.422 60.3959 109.895 57.8689 106.778 57.8689C103.661 57.8689 101.134 60.3959 101.134 63.5129Z" fill="#263238"/>
<path d="M87.451 67.4309C84.4571 67.4309 82.03 65.0038 82.03 62.0099C82.03 59.0159 84.4571 56.5889 87.451 56.5889C90.445 56.5889 92.872 59.0159 92.872 62.0099C92.872 65.0038 90.445 67.4309 87.451 67.4309Z" fill="#263238"/>
<path d="M88.8351 64.421C89.7401 71.429 89.913 75.564 93.707 79.053C99.413 84.3 107.874 80.802 109.079 73.738C110.164 67.379 108.502 56.987 101.432 54.417C94.468 51.884 87.9301 57.413 88.8351 64.421Z" fill="#7F3E3B"/>
<path d="M89.215 69.4999C86.5894 69.4999 84.461 67.3715 84.461 64.7459C84.461 62.1204 86.5894 59.9919 89.215 59.9919C91.8406 59.9919 93.969 62.1204 93.969 64.7459C93.969 67.3715 91.8406 69.4999 89.215 69.4999Z" fill="#263238"/>
<path d="M97.44 62.3789C93.471 64.8639 88.238 63.6619 85.753 59.6929L100.126 50.6919C102.611 54.6609 101.409 59.8929 97.44 62.3789Z" fill="#263238"/>
<path d="M107.417 59.0939C103.109 60.4389 98.526 58.0359 97.181 53.7279L112.783 48.8589C114.128 53.1659 111.725 57.7489 107.417 59.0939Z" fill="#263238"/>
<path d="M86.633 71.4639C87.736 73.0479 89.354 74.0659 90.776 74.4359C92.914 74.9929 93.575 73.0248 92.639 70.9888C91.797 69.1558 89.67 66.6578 87.688 67.0038C85.736 67.3438 85.372 69.6519 86.633 71.4639Z" fill="#7F3E3B"/>
<path d="M99.631 66.036C99.67 66.608 100.004 67.061 100.378 67.049C100.752 67.037 101.024 66.563 100.986 65.992C100.947 65.42 100.613 64.967 100.239 64.979C99.864 64.991 99.592 65.464 99.631 66.036Z" fill="#263238"/>
<path d="M106.101 65.825C106.14 66.397 106.474 66.85 106.848 66.838C107.222 66.826 107.494 66.3521 107.456 65.7811C107.418 65.2091 107.083 64.7561 106.709 64.7681C106.334 64.7801 106.062 65.253 106.101 65.825Z" fill="#263238"/>
<path d="M104.063 66.176C104.063 66.176 105.587 69.432 107.127 70.977C106.178 71.954 104.427 71.579 104.427 71.579L104.063 66.176Z" fill="#630F0F"/>
<path d="M102.192 73.1959C99.944 73.0029 98.808 71.4929 98.756 71.4229C98.701 71.3479 98.717 71.2429 98.792 71.1879C98.867 71.1319 98.972 71.1489 99.027 71.2239C99.04 71.2409 100.332 72.9619 102.849 72.8769C102.943 72.8729 103.02 72.9469 103.022 73.0399C103.025 73.1329 102.952 73.2109 102.859 73.2129C102.627 73.2199 102.405 73.2139 102.192 73.1959Z" fill="#263238"/>
<path d="M97.4891 64.015C97.4341 64.01 97.3801 63.992 97.3301 63.959C97.1761 63.855 97.1351 63.646 97.2391 63.492C98.2661 61.967 99.8261 62.008 99.8911 62.01C100.067 61.999 100.222 62.172 100.214 62.358C100.207 62.544 100.051 62.688 99.866 62.682C99.801 62.681 98.6031 62.669 97.7961 63.867C97.7261 63.973 97.6071 64.025 97.4891 64.015Z" fill="#263238"/>
<path d="M108.733 63.5118C108.626 63.5028 108.525 63.4418 108.468 63.3418C107.718 62.0088 106.473 61.8788 106.461 61.8778C106.276 61.8608 106.139 61.6968 106.157 61.5118C106.174 61.3278 106.337 61.1918 106.521 61.2078H106.523C106.589 61.2138 108.134 61.3738 109.055 63.0118C109.146 63.1738 109.089 63.3788 108.927 63.4698C108.865 63.5038 108.798 63.5168 108.733 63.5118Z" fill="#263238"/>
<path d="M73.4 146.587L80.55 145.965L76.234 153.807C76.234 153.807 69.808 153.217 70.387 149.929L73.4 146.587Z" fill="#7F3E3B"/>
<path d="M85.452 150.515L81.577 156.818L76.234 153.808L80.549 145.966L85.452 150.515Z" fill="#7F3E3B"/>
<path d="M207.307 82.88C213.98 95.065 210.823 111.609 200.785 117.902C190.275 124.491 170.149 111.921 164.379 106.033C173.527 106.235 175.743 98.292 176.121 90.531C176.556 81.595 180.837 72.915 186.483 75.886C195.272 69.689 202.843 74.729 207.307 82.88Z" fill="#263238"/>
<path d="M168.629 104.269C170.477 104.269 172.019 103.751 173.167 102.729C175.016 101.085 175.774 98.1679 175.36 94.2929C174.429 85.5889 177.818 78.0539 181.492 76.0639C183.084 75.2029 184.69 75.3709 186.137 76.5529L186.453 76.1649C184.835 74.8449 183.036 74.6599 181.255 75.6229C177.439 77.6889 173.91 85.4349 174.862 94.3439C175.258 98.0519 174.557 100.821 172.835 102.353C171.283 103.733 168.919 104.113 166.004 103.449L165.893 103.936C166.863 104.159 167.778 104.269 168.629 104.269Z" fill="#263238"/>
<path d="M207.26 122.771C208.597 124.639 209.935 126.213 211.389 127.839C212.823 129.45 214.386 130.959 216.035 132.413C217.699 133.853 219.454 135.243 221.446 136.435C222.437 137.033 223.483 137.587 224.611 138.061C225.725 138.543 226.931 138.946 228.227 139.189C229.511 139.444 230.906 139.544 232.326 139.363C233.757 139.199 235.09 138.748 236.233 138.196C238.534 137.074 240.337 135.609 241.946 134.058C245.114 130.897 247.565 127.473 249.622 123.666L246.543 121.629C243.954 124.532 241.114 127.419 238.136 129.65C236.65 130.752 235.105 131.713 233.656 132.23C232.927 132.484 232.279 132.635 231.674 132.645C231.062 132.687 230.393 132.603 229.688 132.411C228.282 132.052 226.75 131.296 225.286 130.31C223.811 129.337 222.36 128.171 220.973 126.897C219.582 125.623 218.266 124.225 216.964 122.804C215.685 121.395 214.401 119.829 213.308 118.414L207.26 122.771Z" fill="#FFC3BD"/>
<path d="M206.38 114.568C213.043 114.394 214.992 118.538 214.992 118.538L208.208 130.8C208.208 130.8 204.663 127.524 203.488 123.648C202.264 119.612 201.853 114.686 206.38 114.568Z" fill="#1A4CEF"/>
<path d="M246.143 122.262L248.564 116.396L252.884 122.772C252.884 122.772 250.367 125.353 247.37 125.021L246.143 122.262Z" fill="#FFC3BD"/>
<path d="M253.84 112.938L256.188 118.262L252.885 122.772L248.564 116.397L253.84 112.938Z" fill="#FFC3BD"/>
<path d="M168.987 332.937L176.238 333.625L178.449 316.867L171.198 316.179L168.987 332.937Z" fill="#FFC3BD"/>
<path d="M110.675 315.453L116.242 319.827L125.8 305.236L120.233 300.862L110.675 315.453Z" fill="#FFC3BD"/>
<path d="M118.533 317.204L113.171 310.896C112.976 310.666 112.661 310.612 112.413 310.764L106.891 314.162C106.318 314.514 106.215 315.364 106.674 315.886C108.581 318.054 109.609 319.007 111.967 321.782C113.418 323.489 116.38 327.471 118.383 329.827C120.342 332.132 122.786 330.387 122.159 329.232C119.35 324.051 119.026 320.937 118.991 318.427C118.984 317.975 118.818 317.54 118.533 317.204Z" fill="#263238"/>
<path d="M176.892 331.45H168.245C167.93 331.45 167.646 331.669 167.562 331.976L165.682 338.817C165.487 339.527 166.009 340.198 166.737 340.186C169.758 340.134 171.234 339.957 175.037 339.957C177.376 339.957 183.423 340.2 186.653 340.2C189.813 340.2 190.474 337.006 189.166 336.716C183.304 335.419 179.925 333.63 178.116 331.923C177.79 331.615 177.352 331.45 176.892 331.45Z" fill="#263238"/>
<path opacity="0.2" d="M178.447 316.872L177.308 325.51H169.964L171.193 316.183L178.447 316.872Z" fill="black"/>
<path opacity="0.2" d="M120.229 300.865L125.799 305.241L120.869 312.76L115.3 308.384L120.229 300.865Z" fill="black"/>
<path d="M211.513 115.552C211.513 115.552 214.728 117.426 200.454 157.945C188.861 155.656 176.88 153.291 171.239 152.177C173.816 140.478 175.117 133.206 173.718 107.876C173.718 107.876 180.073 107.763 186.411 108.704C191.369 109.44 195.424 110.079 199.677 111.324C205.283 112.964 211.513 115.552 211.513 115.552Z" fill="#1A4CEF"/>
<path d="M183.369 108.328C184.369 108.428 185.389 108.558 186.409 108.708C191.369 109.438 195.419 110.078 199.679 111.328C200.859 111.678 202.079 112.068 203.249 112.458C203.749 115.198 203.339 119.798 198.339 125.968L196.139 128.688L193.789 126.098C186.079 117.628 182.639 111.788 183.369 108.328Z" fill="white"/>
<path d="M190.347 94.144C190.435 98.544 189.897 106.468 186.411 108.704C186.411 108.704 184.521 111.473 196.005 124.082C202.827 115.663 199.677 111.324 199.677 111.324C195.117 109.256 195.859 105.777 197.271 102.651L190.347 94.144Z" fill="#FFC3BD"/>
<path opacity="0.2" d="M191.099 95.071C190.937 96.334 190.573 99.224 191.587 102.69C192.083 104.399 194.068 105.526 196.22 106.111C196.335 104.969 196.757 103.787 197.267 102.649L191.099 95.071Z" fill="black"/>
<path d="M183.807 89.4749C185.812 96.4579 186.511 99.4539 190.885 102.373C197.463 106.764 205.58 102.977 205.697 95.5849C205.802 88.9309 202.506 78.6289 194.968 77.1909C187.542 75.7739 181.803 82.4919 183.807 89.4749Z" fill="#FFC3BD"/>
<path d="M185.65 78.6521C182.231 81.7011 206.4 84.0921 204.215 80.3761C202.03 76.6601 191.427 73.5011 185.65 78.6521Z" fill="#263238"/>
<path d="M184.137 93.4181C191.387 95.4251 192.082 75.4371 187.992 76.7991C183.902 78.1621 176.677 91.3531 184.137 93.4181Z" fill="#263238"/>
<path d="M182.48 94.972C182.949 96.405 184.033 97.503 185.144 98.065C186.815 98.911 187.981 97.528 187.793 95.78C187.624 94.207 186.551 91.872 184.74 91.751C182.957 91.632 181.943 93.334 182.48 94.972Z" fill="#FFC3BD"/>
<path d="M200.454 157.945C200.454 157.945 199.311 227.014 195.195 248.762C190.914 271.384 180.784 322.996 180.784 322.996L167.123 322.336C167.123 322.336 174.28 262.033 175.482 244.548C177.14 220.443 179.061 153.721 179.061 153.721L200.454 157.945Z" fill="#407BFF"/>
<path opacity="0.4" d="M200.454 157.945C200.454 157.945 199.311 227.014 195.195 248.762C190.914 271.384 180.784 322.996 180.784 322.996L167.123 322.336C167.123 322.336 174.28 262.033 175.482 244.548C177.14 220.443 179.061 153.721 179.061 153.721L200.454 157.945Z" fill="white"/>
<path opacity="0.5" d="M178.506 171.745C180.676 170.305 184.136 162.821 185.466 178.096C186.433 189.207 180.556 202.763 177.247 207.585C177.736 194.885 178.176 181.825 178.506 171.745Z" fill="#407BFF"/>
<path d="M166.166 322.996L181.739 323.749L183.579 318.056L166.7 316.739L166.166 322.996Z" fill="#407BFF"/>
<path d="M192.739 156.422C192.739 156.422 174.081 217.444 162.888 243.429C153.848 264.417 123.996 311.812 123.996 311.812L115.805 305.811C115.805 305.811 136.586 253.834 142.843 239.597C162.869 194.028 159.591 163.265 171.238 152.177L192.739 156.422Z" fill="#407BFF"/>
<path opacity="0.4" d="M192.739 156.422C192.739 156.422 174.081 217.444 162.888 243.429C153.848 264.417 123.996 311.812 123.996 311.812L115.805 305.811C115.805 305.811 136.586 253.834 142.843 239.597C162.869 194.028 159.591 163.265 171.238 152.177L192.739 156.422Z" fill="white"/>
<path d="M114.945 305.534L124.132 312.563L128.217 309.159L116.262 300.562L114.945 305.534Z" fill="#407BFF"/>
<path d="M171.102 150.39L169.326 152.724C169.188 152.905 169.392 153.158 169.73 153.225L200.368 159.274C200.631 159.326 200.872 159.241 200.918 159.08L201.64 156.538C201.69 156.362 201.489 156.165 201.201 156.108L171.617 150.267C171.399 150.223 171.191 150.273 171.102 150.39Z" fill="white"/>
<path d="M174.495 154.456L173.703 154.3C173.545 154.269 173.439 154.164 173.468 154.068L174.436 150.771C174.464 150.675 174.617 150.621 174.774 150.652L175.566 150.809C175.724 150.84 175.83 150.945 175.801 151.041L174.833 154.338C174.805 154.434 174.653 154.488 174.495 154.456Z" fill="#407BFF"/>
<path opacity="0.4" d="M174.495 154.456L173.703 154.3C173.545 154.269 173.439 154.164 173.468 154.068L174.436 150.771C174.464 150.675 174.617 150.621 174.774 150.652L175.566 150.809C175.724 150.84 175.83 150.945 175.801 151.041L174.833 154.338C174.805 154.434 174.653 154.488 174.495 154.456Z" fill="black"/>
<path d="M198.092 159.115L197.3 158.959C197.142 158.928 197.036 158.823 197.065 158.727L198.033 155.43C198.061 155.334 198.214 155.28 198.371 155.311L199.163 155.467C199.321 155.498 199.427 155.603 199.398 155.699L198.43 158.996C198.402 159.093 198.25 159.146 198.092 159.115Z" fill="#407BFF"/>
<path opacity="0.4" d="M198.092 159.115L197.3 158.959C197.142 158.928 197.036 158.823 197.065 158.727L198.033 155.43C198.061 155.334 198.214 155.28 198.371 155.311L199.163 155.467C199.321 155.498 199.427 155.603 199.398 155.699L198.43 158.996C198.402 159.093 198.25 159.146 198.092 159.115Z" fill="black"/>
<path d="M186.293 156.786L185.501 156.63C185.343 156.599 185.237 156.494 185.266 156.398L186.234 153.101C186.262 153.005 186.415 152.951 186.572 152.982L187.364 153.138C187.522 153.169 187.628 153.274 187.599 153.37L186.631 156.667C186.604 156.764 186.451 156.817 186.293 156.786Z" fill="#407BFF"/>
<path opacity="0.4" d="M186.293 156.786L185.501 156.63C185.343 156.599 185.237 156.494 185.266 156.398L186.234 153.101C186.262 153.005 186.415 152.951 186.572 152.982L187.364 153.138C187.522 153.169 187.628 153.274 187.599 153.37L186.631 156.667C186.604 156.764 186.451 156.817 186.293 156.786Z" fill="black"/>
<path d="M196.276 89.2211C196.404 89.7971 196.812 90.2031 197.188 90.1281C197.564 90.0531 197.765 89.5261 197.637 88.9501C197.509 88.3741 197.101 87.9681 196.725 88.0431C196.349 88.1181 196.148 88.6451 196.276 89.2211Z" fill="#263238"/>
<path d="M202.775 87.9281C202.903 88.5041 203.311 88.9101 203.687 88.8351C204.063 88.7601 204.264 88.2331 204.136 87.6571C204.008 87.0811 203.6 86.6751 203.224 86.7501C202.848 86.8251 202.647 87.3521 202.775 87.9281Z" fill="#263238"/>
<path d="M203.065 86.8151L204.358 86.1421C204.358 86.1421 203.889 87.3631 203.065 86.8151Z" fill="#263238"/>
<path d="M199.96 89.3569C199.96 89.3569 201.486 91.6409 202.826 92.6229C202.224 93.4829 200.862 93.4159 200.862 93.4159L199.96 89.3569Z" fill="#ED847E"/>
<path d="M199.405 96.0601C199.46 96.0221 199.489 95.9541 199.473 95.8841C199.452 95.7911 199.36 95.7301 199.267 95.7491C196.751 96.2501 195.173 94.7211 195.157 94.7051C195.089 94.6371 194.982 94.6341 194.913 94.7021C194.846 94.7691 194.848 94.8781 194.916 94.9451C194.985 95.0141 196.637 96.6241 199.343 96.0861C199.365 96.0821 199.386 96.0731 199.405 96.0601Z" fill="#263238"/>
<path d="M191.993 86.821C192.041 86.788 192.08 86.743 192.106 86.687C192.747 85.304 194.005 85.13 194.018 85.128C194.207 85.104 194.337 84.931 194.309 84.743C194.281 84.554 194.104 84.421 193.916 84.444C193.85 84.453 192.273 84.671 191.477 86.386C191.397 86.557 191.474 86.763 191.648 86.847C191.765 86.902 191.895 86.888 191.993 86.821Z" fill="#263238"/>
<path d="M203.868 84.3891C203.886 84.3771 203.902 84.3631 203.917 84.3481C204.049 84.2131 204.045 83.9951 203.907 83.8601C202.525 82.5101 200.966 82.8171 200.9 82.8311C200.714 82.8701 200.598 83.0521 200.642 83.2391C200.685 83.4251 200.871 83.5441 201.056 83.5061C201.114 83.4951 202.329 83.2721 203.428 84.3471C203.55 84.4661 203.735 84.4801 203.868 84.3891Z" fill="#263238"/>
<path d="M172.459 111.005C171.313 111.777 170.374 112.477 169.388 113.261C168.418 114.03 167.469 114.821 166.54 115.635C164.686 117.269 162.935 119.025 161.263 120.875C159.589 122.723 158.025 124.699 156.625 126.825C155.214 128.942 153.986 131.227 153.014 133.668L152.669 134.534L152.758 135.267C153.021 137.425 153.588 139.547 154.459 141.499C155.308 143.463 156.452 145.254 157.745 146.862C159.055 148.463 160.532 149.869 162.095 151.124C162.881 151.749 163.71 152.31 164.553 152.843C165.412 153.385 166.23 153.844 167.245 154.307L169.035 151.078C168.451 150.609 167.743 150.015 167.127 149.44C166.495 148.855 165.902 148.23 165.324 147.604C164.169 146.351 163.135 145.011 162.298 143.596C161.434 142.199 160.759 140.732 160.276 139.242C159.778 137.754 159.547 136.224 159.461 134.7L159.205 136.298C160.967 132.536 163.668 129.071 166.673 125.861C168.184 124.257 169.815 122.744 171.492 121.281C172.328 120.546 173.182 119.831 174.051 119.14C174.905 118.466 175.839 117.746 176.624 117.182L172.459 111.005Z" fill="#FFC3BD"/>
<path d="M166.623 150.62L171.897 151.202L169.362 157.065C169.362 157.065 165.613 155.704 164.642 152.809L166.623 150.62Z" fill="#FFC3BD"/>
<path d="M176.692 152.62L175.075 157.341L169.363 157.065L171.897 151.202L176.692 152.62Z" fill="#FFC3BD"/>
<path d="M173.718 107.876C170.635 108.181 169.003 111.433 169.003 111.433L175.169 123.468C175.169 123.468 179.731 120.18 179.166 116.184C178.576 112.022 177.236 107.527 173.718 107.876Z" fill="#1A4CEF"/>
<path d="M121.077 320.589C121.148 320.537 121.216 320.475 121.282 320.401C121.476 320.184 121.467 319.97 121.425 319.828C121.16 318.931 118.628 318.133 118.34 318.045C118.274 318.025 118.203 318.044 118.159 318.098C118.115 318.151 118.108 318.224 118.14 318.286C118.589 319.155 119.48 320.632 120.4 320.763C120.644 320.798 120.871 320.74 121.077 320.589ZM118.646 318.506C119.65 318.854 120.953 319.446 121.093 319.918C121.111 319.977 121.118 320.059 121.021 320.168C120.841 320.369 120.651 320.452 120.44 320.422C119.943 320.352 119.285 319.645 118.646 318.506Z" fill="#407BFF"/>
<path d="M121.412 318.172C121.471 318.129 121.522 318.081 121.563 318.029C121.662 317.905 121.791 317.642 121.548 317.275C121.393 317.042 121.174 316.902 120.894 316.859C119.843 316.695 118.246 318.02 118.179 318.077C118.132 318.116 118.111 318.177 118.122 318.238C118.133 318.299 118.176 318.349 118.234 318.371C118.928 318.634 120.728 318.673 121.412 318.172ZM118.712 318.105C119.276 317.693 120.239 317.104 120.848 317.2C121.027 317.228 121.162 317.314 121.26 317.462C121.384 317.649 121.341 317.747 121.29 317.812C120.977 318.206 119.54 318.321 118.666 318.139C118.682 318.127 118.697 318.116 118.712 318.105Z" fill="#407BFF"/>
<path d="M180.727 332.877C181.395 332.877 182.018 332.774 182.415 332.473C182.686 332.268 182.834 331.988 182.854 331.642C182.868 331.385 182.744 331.244 182.637 331.172C181.853 330.641 178.908 331.978 178.326 332.252C178.259 332.283 178.22 332.354 178.228 332.427C178.236 332.5 178.29 332.561 178.362 332.577C178.989 332.717 179.894 332.877 180.727 332.877ZM182.104 331.386C182.252 331.386 182.369 331.409 182.443 331.459C182.479 331.483 182.515 331.522 182.508 331.623C182.495 331.867 182.395 332.055 182.206 332.198C181.699 332.582 180.504 332.632 178.956 332.346C180.02 331.884 181.41 331.386 182.104 331.386Z" fill="#407BFF"/>
<path d="M178.399 332.581C178.421 332.581 178.443 332.577 178.464 332.568C179.44 332.169 181.408 330.591 181.298 329.775C181.274 329.596 181.152 329.372 180.707 329.319C178.997 329.114 178.261 332.237 178.231 332.37C178.217 332.433 178.238 332.498 178.288 332.54C178.319 332.567 178.359 332.581 178.399 332.581ZM180.549 329.655C180.587 329.655 180.626 329.657 180.665 329.662C180.846 329.684 180.944 329.738 180.955 329.822C181.019 330.295 179.659 331.542 178.665 332.088C178.893 331.334 179.514 329.655 180.549 329.655Z" fill="#407BFF"/>
<path d="M196.566 88.1081L197.859 87.4351C197.859 87.4351 197.39 88.6561 196.566 88.1081Z" fill="#263238"/>
<path d="M276.587 332.748L284.044 333.074L284.164 315.536L276.707 315.21L276.587 332.748Z" fill="#FF8B7B"/>
<path d="M284.165 331.566L275.722 331.674C275.415 331.678 275.186 331.894 275.171 332.194L274.847 338.88C274.813 339.573 275.472 340.221 276.18 340.2C279.119 340.112 280.521 339.921 284.234 339.874C286.518 339.845 292.007 339.879 295.161 339.839C298.246 339.8 298.186 336.681 296.845 336.415C290.834 335.225 287.609 333.651 285.465 332.012C285.079 331.716 284.614 331.56 284.165 331.566Z" fill="#263238"/>
<path opacity="0.2" d="M276.705 315.215L284.165 315.541L284.1 324.581L276.636 324.685L276.705 315.215Z" fill="black"/>
<path d="M291.018 157.072C291.018 157.072 294.517 204.13 294.993 225.679C295.515 249.276 286.83 320.251 286.83 320.251L273.802 320.991C273.802 320.991 275.686 252.748 273.025 229.554C270.137 204.381 264.264 154.671 264.264 154.671L291.018 157.072Z" fill="#263238"/>
<path opacity="0.3" d="M273.226 173.821C275.794 184.064 273.564 200.035 270.879 210.965C269.167 196.304 267.222 179.814 265.89 168.494C268.765 167.954 272.052 169.085 273.226 173.821Z" fill="black"/>
<path d="M272.824 322.482L287.565 322.673L288.91 317.036L271.401 316.688L272.824 322.482Z" fill="#263238"/>
<path d="M286.845 332.842C286.151 332.851 285.381 332.718 284.839 332.599C284.772 332.585 284.719 332.531 284.705 332.464C284.691 332.396 284.719 332.327 284.775 332.286C285.013 332.116 287.122 330.635 288.044 330.983C288.258 331.063 288.401 331.233 288.458 331.474C288.552 331.871 288.483 332.191 288.251 332.427C287.956 332.727 287.427 332.834 286.845 332.842ZM285.318 332.338C286.666 332.589 287.655 332.535 288.002 332.181C288.146 332.035 288.184 331.83 288.118 331.554C288.088 331.427 288.025 331.349 287.921 331.31C287.425 331.123 286.182 331.772 285.318 332.338Z" fill="#407BFF"/>
<path d="M284.879 332.602C284.852 332.602 284.824 332.596 284.799 332.584C284.745 332.557 284.709 332.504 284.703 332.444C284.694 332.353 284.498 330.193 285.247 329.453C285.449 329.253 285.698 329.168 285.986 329.199C286.332 329.236 286.561 329.422 286.628 329.721C286.812 330.539 285.711 332.122 284.968 332.577C284.941 332.594 284.91 332.602 284.879 332.602ZM285.867 329.543C285.721 329.545 285.598 329.597 285.493 329.702C285.046 330.143 285 331.382 285.03 332.096C285.676 331.536 286.407 330.334 286.287 329.798C286.264 329.696 286.205 329.575 285.95 329.547C285.921 329.544 285.893 329.543 285.867 329.543Z" fill="#407BFF"/>
<path d="M282.931 99.1948C283.592 100.978 284.222 102.524 284.937 104.143C285.636 105.743 286.359 107.328 287.111 108.904C288.633 112.046 290.264 115.148 292.092 118.182C293.905 121.224 295.88 124.211 298.157 127.099C300.41 129.996 302.984 132.798 306.207 135.324L306.528 135.576C306.864 135.84 307.247 136.046 307.627 136.187C309.049 136.705 310.519 137.101 312.007 137.272C313.491 137.433 314.958 137.427 316.37 137.284C319.19 136.973 321.727 136.079 323.973 134.975C326.224 133.848 328.201 132.476 329.995 130.967C330.892 130.212 331.732 129.409 332.538 128.581C333.356 127.725 334.056 126.919 334.859 125.875C335.963 124.439 335.694 122.38 334.259 121.276C333.171 120.439 331.725 120.391 330.608 121.041L330.252 121.25C329.557 121.656 328.661 122.196 327.846 122.634C327.017 123.098 326.168 123.521 325.327 123.916C323.641 124.695 321.952 125.355 320.321 125.755C318.699 126.196 317.143 126.33 315.796 126.261C314.443 126.166 313.333 125.792 312.322 125.253L313.742 126.115C311.824 124.354 309.971 122.072 308.25 119.597C307.389 118.36 306.557 117.071 305.761 115.739C304.951 114.418 304.165 113.066 303.412 111.681C301.905 108.915 300.466 106.069 299.099 103.178C298.408 101.736 297.739 100.28 297.096 98.8158C296.471 97.3708 295.798 95.8358 295.248 94.5008L295.203 94.3908C293.815 91.0268 289.962 89.4248 286.598 90.8128C283.31 92.1688 281.71 95.8888 282.931 99.1948Z" fill="#1A4CEF"/>
<path opacity="0.3" d="M298.994 118.971C299.266 121.392 299.334 125.062 299.021 128.186C298.727 127.824 298.443 127.462 298.161 127.099C295.874 124.212 293.903 121.22 292.096 118.177C291.338 116.919 290.612 115.638 289.919 114.355C289.555 113.012 289.235 111.666 288.937 110.309C288.849 109.86 288.762 109.432 288.673 108.983C292.142 107.741 297.961 110.003 298.994 118.971Z" fill="black"/>
<path d="M333.486 120.009L339.42 117.66L340.294 126.249C340.294 126.249 337.357 127.075 333.903 127.273C331.727 127.398 330.042 125.408 330.574 123.294C330.952 121.791 332.039 120.565 333.486 120.009Z" fill="#FF8B7B"/>
<path d="M345.309 119.32L343.572 126.368L340.294 126.249L339.42 117.659L345.309 119.32Z" fill="#FF8B7B"/>
<path d="M224.99 324.944L232.331 326.56L237.026 309.771L229.686 308.155L224.99 324.944Z" fill="#FF8B7B"/>
<path d="M232.89 324.871L224.975 321.928C224.687 321.821 224.395 321.94 224.274 322.215L221.562 328.335C221.281 328.97 221.662 329.811 222.329 330.046C225.102 331.023 226.479 331.35 229.959 332.644C232.1 333.44 237.917 335.856 240.874 336.955C243.766 338.03 244.834 335.099 243.679 334.368C238.501 331.092 235.35 328.056 233.942 325.754C233.689 325.34 233.312 325.028 232.89 324.871Z" fill="#263238"/>
<path opacity="0.2" d="M229.683 308.16L237.026 309.776L234.602 318.429L227.259 316.813L229.683 308.16Z" fill="black"/>
<path d="M276.397 155.759C276.397 155.759 268.729 205.224 264.987 226.45C260.889 249.694 238.217 317.007 238.217 317.007L224.773 314.047C224.773 314.047 240.765 249.226 242.686 225.959C244.771 200.706 250.981 153.478 250.981 153.478L276.397 155.759Z" fill="#263238"/>
<path d="M223.437 313.719L239.83 317.328L241.759 312.404L223.685 309.261L223.437 313.719Z" fill="#263238"/>
<path d="M234.931 327.027C234.28 326.785 233.61 326.383 233.147 326.077C233.089 326.039 233.059 325.97 233.071 325.902C233.083 325.834 233.133 325.779 233.2 325.761C233.483 325.688 235.984 325.066 236.719 325.724C236.89 325.876 236.962 326.086 236.929 326.331C236.874 326.735 236.693 327.009 236.392 327.146C236.009 327.32 235.477 327.23 234.931 327.027ZM233.687 326.007C234.854 326.727 235.796 327.033 236.247 326.828C236.434 326.743 236.543 326.566 236.581 326.285C236.599 326.155 236.568 326.06 236.485 325.987C236.091 325.633 234.698 325.79 233.687 326.007Z" fill="#407BFF"/>
<path d="M233.183 326.095C233.157 326.086 233.134 326.07 233.115 326.049C233.075 326.004 233.06 325.942 233.076 325.884C233.101 325.796 233.696 323.71 234.662 323.29C234.922 323.177 235.185 323.187 235.443 323.32C235.753 323.48 235.899 323.735 235.854 324.038C235.731 324.867 234.133 325.947 233.277 326.104C233.244 326.109 233.212 326.106 233.183 326.095ZM235.207 323.597C235.071 323.546 234.937 323.55 234.801 323.61C234.225 323.86 233.736 325 233.506 325.676C234.311 325.386 235.425 324.529 235.506 323.985C235.522 323.882 235.51 323.747 235.282 323.63C235.257 323.617 235.232 323.606 235.207 323.597Z" fill="#407BFF"/>
<path d="M293.329 95.971C292.803 93.361 290.805 91.229 288.254 90.469C286.25 89.892 285.328 89.481 282.734 89.004C278.267 88.196 270.85 87.693 265.719 87.477C262.738 87.352 259.676 87.444 257.23 87.581L257.142 87.586C254.446 87.736 252.41 90.084 252.644 92.775C253.254 99.781 254.171 112.125 253.603 123.453C252.859 138.32 251.017 149.88 250.979 153.48L291.017 157.073C296.699 121.135 295.031 104.423 293.329 95.971Z" fill="white"/>
<path d="M295.368 96.3309C294.621 93.2919 292.5 90.8649 289.813 90.0639C287.788 89.4849 282.87 88.6059 281.839 88.5129C284.003 99.6729 287.167 132.978 283.392 157.92C283.27 158.724 283.844 159.459 284.653 159.531L292.012 160.192C293.035 160.284 293.959 159.557 294.114 158.541C299.672 122.064 297.096 103.364 295.368 96.3309Z" fill="#1A4CEF"/>
<path d="M281.931 88.8698C277.088 87.2548 276.494 84.1168 277.13 80.7848C277.274 79.9728 277.492 79.1368 277.749 78.3158L272.011 72.6098L267.796 68.4238C268.566 74.0208 269.094 84.1348 265.06 87.4578C265.06 87.4578 269.353 92.9328 276.495 95.4188C282.924 92.1438 281.931 88.8698 281.931 88.8698Z" fill="#FF8B7B"/>
<path opacity="0.2" d="M277.748 78.3159C277.491 79.1379 277.273 79.9739 277.129 80.7849C274.858 80.1119 271.99 77.3709 271.879 74.9799C271.838 74.0809 271.894 73.2199 272.01 72.6099L277.748 78.3159Z" fill="black"/>
<path d="M278.729 58.7209C278.715 62.2599 280.311 65.1349 282.294 65.1429C284.276 65.1509 285.895 62.2879 285.908 58.7489C285.922 55.2099 284.326 52.3349 282.343 52.3269C280.361 52.3189 278.743 55.1819 278.729 58.7209Z" fill="#263238"/>
<path d="M264.13 61.1588C265.525 68.5068 265.968 72.8658 270.196 76.3148C276.554 81.5018 285.275 77.2738 286.106 69.7338C286.854 62.9468 284.446 52.0698 276.815 49.7978C269.295 47.5588 262.734 53.8108 264.13 61.1588Z" fill="#FF8B7B"/>
<path d="M279.415 54.3559C276.802 56.2649 270.019 56.9689 267.054 56.1759C268.082 56.8579 268.17 58.9459 267.289 62.0589C268.786 63.9089 269.605 66.5519 269.605 66.5519L263.941 65.5139C263.941 65.5139 249.231 55.7069 260.065 51.5079C259.302 43.2569 276.214 42.6989 282.321 48.0429C287.889 52.9149 283.996 55.9129 279.415 54.3559Z" fill="#263238"/>
<path d="M260.623 52.3308C260.623 52.3308 258.773 50.1878 259.654 46.3408C257.364 48.9548 257.981 51.1268 260.623 52.3308Z" fill="#263238"/>
<path d="M262.846 67.0289C263.772 68.5539 265.207 69.587 266.498 70.011C268.439 70.648 269.163 68.87 268.417 66.937C267.746 65.197 265.927 62.768 264.078 62.974C262.256 63.176 261.787 65.2849 262.846 67.0289Z" fill="#FF8B7B"/>
<path d="M275.814 62.3079C275.891 62.9099 276.272 63.3679 276.667 63.3319C277.062 63.2959 277.319 62.7779 277.243 62.1769C277.166 61.5749 276.785 61.1169 276.39 61.1529C275.996 61.1889 275.738 61.7059 275.814 62.3079Z" fill="#263238"/>
<path d="M282.638 61.6799C282.715 62.2819 283.097 62.7399 283.491 62.7039C283.886 62.6679 284.143 62.1499 284.067 61.5489C283.99 60.9469 283.609 60.4889 283.214 60.5249C282.819 60.5609 282.561 61.0779 282.638 61.6799Z" fill="#263238"/>
<path d="M280.33 62.0588C280.33 62.0588 282.144 65.4038 283.869 66.9398C282.927 68.0318 281.054 67.7448 281.054 67.7448L280.33 62.0588Z" fill="#FF5652"/>
<path d="M278.794 69.5939C276.406 69.5309 275.111 68.0069 275.052 67.9359C274.989 67.8599 274.999 67.7479 275.075 67.6859C275.151 67.6229 275.263 67.6329 275.326 67.7089C275.341 67.7259 276.814 69.4629 279.468 69.2159C279.567 69.2059 279.653 69.2789 279.661 69.3769C279.67 69.4749 279.598 69.5619 279.5 69.5699C279.255 69.5919 279.02 69.5999 278.794 69.5939Z" fill="#263238"/>
<path d="M272.404 60.1649C272.346 60.1639 272.287 60.1469 272.233 60.1159C272.064 60.0159 272.007 59.7979 272.107 59.6279C273.096 57.9519 274.747 57.8969 274.817 57.8959C275.002 57.8739 275.176 58.0469 275.181 58.2439C275.185 58.4409 275.03 58.6029 274.834 58.6079C274.766 58.6109 273.498 58.6739 272.722 59.9899C272.652 60.1059 272.529 60.1679 272.404 60.1649Z" fill="#263238"/>
<path d="M285.313 59.155C285.199 59.152 285.089 59.095 285.023 58.992C284.147 57.63 282.823 57.571 282.81 57.571C282.613 57.565 282.459 57.4 282.466 57.204C282.472 57.008 282.636 56.854 282.831 56.86H282.833C282.903 56.862 284.546 56.935 285.621 58.607C285.727 58.772 285.68 58.993 285.514 59.099C285.452 59.139 285.382 59.156 285.313 59.155Z" fill="#263238"/>
<path d="M252.445 124.73C253.039 112.782 252.069 99.767 251.429 92.381C251.185 89.54 253.331 87.065 256.176 86.903L256.268 86.901C258.846 86.756 262.071 86.658 265.215 86.788C269.134 105.715 268.681 130.141 266.707 156.481C266.648 157.265 265.957 157.853 265.174 157.783L251.548 156.56C250.485 156.465 249.693 155.537 249.78 154.473C250.201 149.331 251.761 138.349 252.445 124.73Z" fill="#1A4CEF"/>
<path opacity="0.3" d="M255.732 92.1438C257.952 93.3808 259.854 98.1898 257.085 104.215C255.753 107.111 254.178 109.437 252.55 111.202C252.476 108.443 252.36 105.769 252.212 103.253C253.628 99.0468 254.812 95.1988 255.732 92.1438Z" fill="black"/>
<path d="M252.235 88.729L251.228 89.493L250.321 90.21C249.726 90.689 249.159 91.188 248.589 91.683C247.456 92.678 246.355 93.701 245.276 94.752C243.134 96.869 241.096 99.114 239.216 101.547C237.332 103.972 235.576 106.56 234.085 109.4C232.576 112.219 231.311 115.297 230.562 118.656C230.371 119.433 230.193 120.472 230.087 121.428L229.984 122.853L229.982 124.238C230.049 126.058 230.308 127.769 230.666 129.398C231.385 132.652 232.577 135.56 233.892 138.3C235.244 141.03 236.772 143.579 238.444 146.001C240.139 148.434 241.876 150.682 243.958 152.916C245.195 154.243 247.273 154.317 248.6 153.08C249.69 152.064 249.935 150.48 249.301 149.211L249.223 149.056C246.883 144.376 244.621 139.384 243.141 134.554C241.623 129.743 240.908 124.844 242.128 121.708C242.452 120.695 242.872 119.676 243.379 118.663C243.864 117.647 244.423 116.63 245.051 115.629C246.3 113.628 247.771 111.663 249.38 109.764C250.991 107.866 252.742 106.027 254.565 104.248C255.475 103.357 256.41 102.483 257.364 101.642L258.799 100.401L259.506 99.798L260.139 99.275L260.408 99.053C263.213 96.737 263.609 92.587 261.294 89.782C259.04 87.052 255.033 86.613 252.235 88.729Z" fill="#1A4CEF"/>
<path d="M251.336 149.597L255.403 150.608L248.389 156.978C248.389 156.978 242.157 154.181 243.866 151.087L245.053 150.428C246.967 149.367 249.212 149.069 251.336 149.597Z" fill="#FF8B7B"/>
<path d="M258.711 154.651L253.87 158.1L248.39 156.978L255.403 150.608L258.711 154.651Z" fill="#FF8B7B"/>
<path d="M285.631 37.9811C299.696 46.4621 316.241 35.0781 330.306 43.5591C331.559 33.5261 332.812 23.4931 334.064 13.4591C320 4.97811 303.454 16.3621 289.389 7.8811C288.136 17.9141 286.884 27.9481 285.631 37.9811Z" fill="#1A4CEF"/>
<path opacity="0.3" d="M334.06 13.455L331.01 37.885C321.348 38.351 311.417 40.971 302.494 35.594L305.544 11.164C315.206 10.698 325.138 8.07803 334.06 13.455Z" fill="black"/>
<path d="M323.054 3.84095C325.827 3.84095 328.612 3.57695 331.559 3.29695C334.5 3.01795 337.532 2.73096 340.538 2.73096V1.73096C337.484 1.73096 334.43 2.02096 331.475 2.30096C328.541 2.57896 325.78 2.84196 323.054 2.84196V3.84095Z" fill="#1A4CEF"/>
<path d="M317.445 3.372L317.629 2.389C315.287 1.951 313.205 1.17 311.265 0L310.749 0.857002C312.793 2.089 314.983 2.912 317.445 3.372Z" fill="#1A4CEF"/>
<path d="M305.699 33.0961C319.764 41.5771 336.309 30.1931 350.374 38.6741C351.627 28.6411 352.88 18.6081 354.132 8.57409C340.068 0.0930891 323.522 11.4771 309.457 2.99609C308.205 13.0301 306.952 23.0631 305.699 33.0961Z" fill="#1A4CEF"/>
<path d="M319.405 288.428C320.406 288.553 321.326 287.837 321.451 286.836L356.391 7.00891C356.516 6.00791 355.8 5.0879 354.799 4.9629C353.798 4.8379 352.878 5.5539 352.753 6.5549L317.814 286.382C317.688 287.383 318.405 288.303 319.405 288.428Z" fill="#407BFF"/>
</svg>
