<svg width="388" height="352" viewBox="0 0 388 352" fill="none" xmlns="http://www.w3.org/2000/svg">
<path d="M32.093 43.2999C60.012 -16.1491 159.152 -7.76212 197.41 34.0449C235.668 75.8509 248.106 102.644 282.618 87.0279C317.13 71.4119 361.136 75.5879 363.66 125.192C366.184 174.796 325.747 233.455 261.57 250.807C197.393 268.159 197.409 329.566 112.47 317.175C66.16 310.419 65.105 260.315 71.645 218.874C78.185 177.433 -0.285008 112.244 32.093 43.2999Z" fill="#002DE5" fill-opacity="0.1"/>
<path d="M194 351.561C301.082 351.561 387.889 346.492 387.889 340.238C387.889 333.985 301.082 328.915 194 328.915C86.918 328.915 0.110962 333.985 0.110962 340.238C0.110962 346.492 86.918 351.561 194 351.561Z" fill="#000F4B"/>
<path d="M231.923 325.208H212.802V322.253C212.802 320.214 214.455 318.561 216.494 318.561H228.23C230.269 318.561 231.922 320.214 231.922 322.253V325.208H231.923Z" stroke="#263238" stroke-width="2" stroke-miterlimit="10"/>
<path d="M244.267 322.619H202.23C200.931 322.619 199.879 323.672 199.879 324.97V342H246.619V324.971C246.619 323.672 245.566 322.619 244.267 322.619Z" fill="#263238"/>
<path opacity="0.2" d="M225.289 322.619H202.23C200.931 322.619 199.879 323.672 199.879 324.97V342H227.64V324.971C227.64 323.672 226.587 322.619 225.289 322.619Z" fill="white"/>
<path opacity="0.2" d="M246.619 328.329H199.879V329.336H246.619V328.329Z" fill="black"/>
<path d="M79.6379 141.035L83.8899 136.039C83.8899 136.039 82.9009 131.898 83.8899 130.901C84.8789 129.904 86.9239 126.661 88.9669 126.205C91.0109 125.749 95.6439 130.557 94.0199 132.901C92.3959 135.244 91.0109 137.391 89.8239 137.406C88.6369 137.421 88.6369 137.421 88.6369 137.421L83.2959 142.598L79.6379 141.035Z" fill="#E4897B"/>
<path d="M49.968 151.099C55.605 151.86 64.704 153.214 68.66 150.559C72.616 147.904 81.769 137.404 81.769 137.404L86.665 140.189C86.665 140.189 74.792 158.359 71.429 159.757C68.066 161.156 48.433 161.122 48.433 161.122L49.968 151.099Z" fill="#407BFF"/>
<path opacity="0.6" d="M86.6599 140.185C86.6599 140.185 74.7899 158.355 71.4299 159.755C69.5999 160.515 62.9299 160.855 57.2399 161.005C52.4899 161.135 48.4299 161.125 48.4299 161.125L49.5499 153.845L49.9699 151.095C55.5999 151.855 64.6999 153.215 68.6599 150.555C72.6199 147.905 81.7699 137.405 81.7699 137.405L86.6599 140.185Z" fill="white"/>
<path opacity="0.2" d="M57.2399 161.005C52.4899 161.135 48.4299 161.125 48.4299 161.125L49.5499 153.845C51.3699 154.905 55.0099 157.335 57.2399 161.005Z" fill="black"/>
<path d="M21.781 137.404C21.781 137.404 17.601 139.251 17.515 144.764C17.429 150.277 14.462 158.189 15.253 163.728C16.044 169.266 21.84 168.596 23.684 161.582C25.527 154.568 22.255 150.019 23.007 145.797C23.759 141.574 27.47 139.479 27.47 139.479L21.781 137.404Z" fill="#263238"/>
<path d="M76.774 334.276L71.233 335.254L68.961 327.699L66.887 320.764L73.276 318.533L75.132 326.867L76.774 334.276Z" fill="#E4897B"/>
<path opacity="0.2" d="M75.162 327.038L68.988 327.851L66.901 320.841L73.283 318.571L75.162 327.038Z" fill="black"/>
<path d="M39.782 336.829H34.155L33.231 328.904L32.395 321.671L39.074 320.561L39.452 329.17L39.782 336.829Z" fill="#E4897B"/>
<path opacity="0.2" d="M39.452 329.242L33.231 328.969L32.395 321.703L39.074 320.578L39.452 329.242Z" fill="black"/>
<path d="M75.683 322.641L66.574 324.246C57.382 301.344 50.843 282.228 46.226 266.364C43.739 257.804 41.664 250.192 40.175 243.437L40.454 268.368V324.529H31.477C8.975 217.355 24.922 192.929 24.922 192.929L51.842 188.447C52.865 192.465 53.639 199.038 54.097 203.571L55.312 212.502L65.835 266.855L75.683 322.641Z" fill="#263238"/>
<path d="M32.84 332.992C32.854 332.405 40.072 332.865 40.072 332.865C40.072 332.865 44.513 337.382 48.826 338.397C53.14 339.412 50.729 342 45.908 342C41.087 342 37.407 342 33.982 342C30.557 342 32.698 339.082 32.84 332.992Z" fill="#263238"/>
<path d="M43.8701 334.712C42.8611 334.712 41.2581 333.978 40.8781 333.797C40.8531 333.785 40.8311 333.768 40.8141 333.748C40.8041 333.736 40.7951 333.722 40.7881 333.708C40.7671 333.663 40.7631 333.611 40.7811 333.562C40.8061 333.49 41.4131 331.805 42.3921 331.398C42.7031 331.269 43.0171 331.278 43.3261 331.424C43.6551 331.58 43.8151 331.784 43.8001 332.031C43.7791 332.41 43.2641 332.791 42.6771 333.104C43.2881 333.044 43.9131 333.061 44.2961 333.281C44.4991 333.398 44.6291 333.562 44.6821 333.769C44.7911 334.197 44.6471 334.424 44.5071 334.539C44.3571 334.662 44.1341 334.712 43.8701 334.712ZM41.5391 333.677C42.6021 334.127 43.9251 334.526 44.2651 334.246C44.2951 334.221 44.3851 334.147 44.3131 333.864C44.2861 333.759 44.2191 333.676 44.1061 333.611C43.5861 333.313 42.3491 333.497 41.5391 333.677ZM42.8301 331.689C42.7331 331.689 42.6361 331.71 42.5381 331.751C42.0051 331.973 41.5491 332.757 41.2991 333.303C42.3681 332.897 43.4011 332.335 43.4201 332.01C43.4261 331.909 43.2621 331.815 43.1631 331.769C43.0511 331.716 42.9411 331.689 42.8301 331.689Z" fill="#407BFF"/>
<path d="M69.737 332.992C69.751 332.405 76.969 332.865 76.969 332.865C76.969 332.865 81.41 337.382 85.723 338.397C90.037 339.412 87.626 342 82.805 342C77.984 342 74.304 342 70.879 342C67.453 342 69.594 339.082 69.737 332.992Z" fill="#263238"/>
<path d="M80.7661 334.712C79.7571 334.712 78.1541 333.978 77.7741 333.797C77.7491 333.785 77.7271 333.768 77.7101 333.748C77.7001 333.736 77.6921 333.722 77.6841 333.708C77.6631 333.663 77.6591 333.611 77.6771 333.562C77.7021 333.49 78.3091 331.805 79.2881 331.398C79.5991 331.269 79.9131 331.278 80.2221 331.424C80.5511 331.58 80.7101 331.784 80.6961 332.031C80.6751 332.41 80.1601 332.791 79.5731 333.104C80.1841 333.044 80.8091 333.061 81.1921 333.281C81.3951 333.398 81.5251 333.562 81.5771 333.769C81.6861 334.197 81.5421 334.424 81.4021 334.539C81.2531 334.662 81.0301 334.712 80.7661 334.712ZM78.4351 333.677C79.4981 334.127 80.8211 334.526 81.1611 334.246C81.1911 334.221 81.2811 334.147 81.2091 333.864C81.1821 333.759 81.1151 333.676 81.0021 333.611C80.4831 333.313 79.2451 333.497 78.4351 333.677ZM79.7271 331.689C79.6301 331.689 79.5331 331.71 79.4351 331.751C78.9021 331.973 78.4461 332.757 78.1961 333.303C79.2661 332.897 80.2981 332.335 80.3171 332.01C80.3231 331.909 80.1591 331.815 80.0601 331.769C79.9471 331.716 79.8371 331.689 79.7271 331.689Z" fill="#407BFF"/>
<path opacity="0.2" d="M46.226 266.365C43.739 257.805 41.8 250.193 40.311 243.438C40.311 243.438 40.461 230.311 42.05 219.53C42.05 219.53 45.994 250.368 46.226 266.365Z" fill="black"/>
<path d="M32.869 197.313L46.994 196.064V191.482L32.869 192.702V197.313Z" fill="black"/>
<path d="M31.627 192.809L24.541 193.421L23.908 198.105L31.627 197.422V192.809Z" fill="black"/>
<path d="M48.074 191.389V195.969L51.244 195.688V191.115L48.074 191.389Z" fill="black"/>
<path d="M43.2609 191.914C42.9199 191.602 42.4629 191.442 41.9989 191.484L38.6639 191.772C37.8009 191.847 37.1489 192.556 37.1489 193.423V195.553C37.1489 196.016 37.3449 196.462 37.6869 196.774C37.9929 197.054 38.3949 197.209 38.8069 197.209C38.8549 197.209 38.9029 197.207 38.9519 197.202L42.2869 196.908C43.1479 196.832 43.7979 196.123 43.7979 195.258V193.135C43.7979 192.673 43.6019 192.228 43.2609 191.914ZM42.2119 196.058L38.8769 196.352C38.6479 196.374 38.4319 196.299 38.2639 196.144C38.0959 195.99 38.0039 195.78 38.0039 195.553V193.423C38.0039 193.003 38.3189 192.66 38.7379 192.623L42.0729 192.335C42.0969 192.333 42.1209 192.332 42.1439 192.332C42.3449 192.332 42.5339 192.406 42.6849 192.544C42.8529 192.698 42.9449 192.908 42.9449 193.135V193.458C42.9019 193.451 42.8599 193.438 42.8139 193.442L41.8799 193.514C41.5689 193.538 41.3349 193.812 41.3589 194.122C41.3829 194.433 41.6569 194.667 41.9669 194.643L42.9009 194.571C42.9169 194.57 42.9299 194.561 42.9449 194.559V195.258C42.9429 195.678 42.6289 196.021 42.2119 196.058Z" fill="white"/>
<path d="M19.235 165.1C20.262 168.401 21.063 171.256 21.702 173.812C23.7 181.723 24.12 186.787 24.541 193.421L51.244 191.115C52.312 172.308 51.834 161.969 51.349 156.8C50.815 151.291 49.966 151.089 49.966 151.089C49.966 151.089 43.996 150.507 38.803 150.547C34.783 150.684 30.77 151.105 26.814 151.809C23.94 152.286 21.098 152.924 18.294 153.717C16.901 154.11 16.116 155.581 16.58 156.953C16.865 157.795 17.137 158.613 17.398 159.405C18.078 161.444 18.685 163.337 19.235 165.1Z" fill="#407BFF"/>
<path opacity="0.6" d="M16.578 156.959C16.868 157.799 17.138 158.619 17.398 159.419C17.478 159.639 17.548 159.859 17.628 160.069C17.628 160.079 17.628 160.079 17.638 160.089C17.938 161.059 18.248 161.999 18.538 162.889C18.778 163.649 19.008 164.389 19.228 165.099C19.978 167.489 20.608 169.639 21.128 171.609H21.138C21.328 172.369 21.518 173.109 21.698 173.819C21.778 174.139 21.858 174.449 21.938 174.759C23.088 179.469 23.658 183.179 24.028 186.909C24.248 189.019 24.398 191.129 24.548 193.419L51.248 191.129C52.318 172.309 51.838 161.979 51.348 156.809C50.808 151.299 49.968 151.099 49.968 151.099C49.968 151.099 45.238 150.629 40.528 150.569C40.258 150.559 39.968 150.559 39.698 150.559H38.798C38.318 150.569 37.828 150.589 37.338 150.629C36.728 150.649 36.118 150.689 35.508 150.739C32.698 150.929 29.898 151.269 27.128 151.759C27.028 151.779 26.918 151.799 26.818 151.809C26.248 151.909 25.688 152.009 25.128 152.109C22.828 152.549 20.548 153.079 18.288 153.719C16.898 154.119 16.108 155.589 16.578 156.959Z" fill="white"/>
<path d="M35.574 156.252C29.342 155.454 27.469 152.792 27.469 152.792C31.423 149.061 28.138 142.596 28.138 142.596L35.64 143.997C35.443 145.237 35.359 146.277 35.347 147.155C35.29 151.708 37.349 151.753 37.349 151.753C38.665 154.219 35.574 156.252 35.574 156.252Z" fill="#E4897B"/>
<path opacity="0.2" d="M35.6401 143.997C35.4431 145.237 35.3591 146.277 35.3471 147.155C30.2801 147.155 28.1381 142.596 28.1381 142.596L35.6401 143.997Z" fill="black"/>
<path d="M53.36 192.805L41.36 194.125L40.02 189.575L39.54 194.125L23.01 194.985L23.37 188.185L23.62 183.475L23.48 183.075L22.28 179.635L20.4 174.205L19.51 165.855L18.15 153.215L20.92 152.545L23.67 151.885L25.7 151.395L37.67 161.885L39.54 149.425L41.42 149.655L44.42 150.015L48.75 150.545L52.84 166.295L52.22 180.055L51.98 185.455L51.89 187.505L53.36 192.805Z" fill="#407BFF"/>
<path opacity="0.7" d="M52.22 180.055L51.98 185.455L23.37 188.185L23.62 183.475L23.48 183.075L31.78 182.205C31.56 178.475 30.88 171.995 28.77 167.015C26.53 161.735 22.85 155.625 20.92 152.545L23.67 151.885C25.7 154.665 28.86 159.465 30.66 164.515C32.68 170.175 34.44 177.945 35.26 181.835L46.62 180.645C46.85 177.445 47.18 170.595 46.27 164.715C45.49 159.635 43.07 153.455 41.42 149.655L44.42 150.015C46.24 153.935 48.57 159.745 49.03 164.665C49.61 170.745 49.42 177.285 49.28 180.365L52.22 180.055Z" fill="white"/>
<path opacity="0.2" d="M22.28 179.635L20.4 174.205L19.51 165.855C19.94 165.695 20.41 165.575 20.92 165.505C20.92 165.505 24.16 173.845 22.28 179.635Z" fill="black"/>
<path d="M40.947 131.367C40.947 131.367 44.058 119.629 32.898 118.925C18.575 118.021 14.162 138.72 28.138 141.821C42.114 144.922 40.947 131.367 40.947 131.367Z" fill="#263238"/>
<path d="M41.0039 141.01C40.9439 141.232 40.8849 141.446 40.8159 141.651C39.9449 144.299 38.0819 145.931 34.8019 145.999C34.3489 146.016 33.8709 145.999 33.3669 145.948C33.0679 145.914 32.7429 145.871 32.4189 145.82C21.2109 143.992 20.6649 123.618 31.4959 123.02C38.0139 122.661 40.3029 126.044 41.1489 132.733C41.5499 135.918 41.5759 138.772 41.0039 141.01Z" fill="#E4897B"/>
<path d="M36.9139 132.601C36.9139 132.601 37.9109 134.255 38.9599 135.202C38.9599 135.202 38.4499 136.119 37.2809 136.034L36.9139 132.601Z" fill="#DE5753"/>
<path d="M32.8939 132.286C32.9359 132.821 32.6809 133.277 32.3239 133.305C31.9669 133.333 31.6439 132.922 31.6019 132.387C31.5599 131.852 31.8149 131.396 32.1719 131.368C32.5289 131.34 32.8519 131.751 32.8939 132.286Z" fill="#263238"/>
<path d="M32.0249 131.406L33.1529 130.858C33.1529 130.858 32.6509 131.883 32.0249 131.406Z" fill="#263238"/>
<path d="M39.5349 131.654C39.5769 132.189 39.3219 132.645 38.9649 132.673C38.6079 132.701 38.2849 132.29 38.2429 131.755C38.2009 131.22 38.4569 130.764 38.8129 130.736C39.1709 130.709 39.4939 131.12 39.5349 131.654Z" fill="#263238"/>
<path d="M38.6669 130.774L39.7949 130.227C39.7949 130.227 39.2919 131.251 38.6669 130.774Z" fill="#263238"/>
<path d="M32.581 127.787C32.581 127.787 30.736 127.649 29.807 128.928" stroke="#263238" stroke-width="0.7247" stroke-miterlimit="10" stroke-linecap="round" stroke-linejoin="round"/>
<path d="M37.3059 127.252C37.3059 127.252 38.4339 126.762 39.9339 127.646" stroke="#263238" stroke-width="0.7247" stroke-miterlimit="10" stroke-linecap="round" stroke-linejoin="round"/>
<path d="M24.9679 134.403C24.9679 134.403 27.7229 128.878 27.0349 124.768C27.0349 124.768 39.6679 118.781 41.0239 131.862C41.0239 131.862 41.6489 120.146 30.4249 120.501C19.2189 120.855 20.1469 137.252 26.2039 141.822C26.2039 141.822 23.2649 137.857 24.9679 134.403Z" fill="#263238"/>
<path d="M26.108 135.721C26.007 134.673 24.826 132.956 22.885 133.276C20.876 133.607 20.14 137.809 25.221 138.53C25.951 138.634 26.32 137.906 26.108 135.721Z" fill="#E4897B"/>
<path d="M33.8099 137.225C33.8099 137.225 34.3159 139.253 36.9139 139.478" stroke="#263238" stroke-width="0.5" stroke-miterlimit="10" stroke-linecap="round" stroke-linejoin="round"/>
<path d="M36.01 132.901C36.01 134.378 34.813 135.575 33.336 135.575C31.859 135.575 30.662 134.378 30.662 132.901C30.662 131.424 31.859 130.227 33.336 130.227C34.813 130.227 36.01 131.424 36.01 132.901Z" stroke="#263238" stroke-width="0.5" stroke-miterlimit="10" stroke-linecap="round" stroke-linejoin="round"/>
<path d="M43.0229 131.828C43.0229 133.305 41.8259 134.502 40.3489 134.502C38.8719 134.502 37.6749 133.305 37.6749 131.828C37.6749 130.351 38.8719 129.154 40.3489 129.154C41.8259 129.154 43.0229 130.352 43.0229 131.828Z" stroke="#263238" stroke-width="0.5" stroke-miterlimit="10" stroke-linecap="round" stroke-linejoin="round"/>
<path d="M35.95 132.337C35.95 132.337 36.992 131.205 37.689 132.103" stroke="#263238" stroke-width="0.5" stroke-miterlimit="10" stroke-linecap="round" stroke-linejoin="round"/>
<path d="M30.6619 132.901L24.7839 133.307" stroke="#263238" stroke-width="0.5" stroke-miterlimit="10" stroke-linecap="round" stroke-linejoin="round"/>
<path d="M29.077 119.61C29.077 119.61 33.749 119.377 37.306 121.31C40.864 123.243 41.03 126.2 41.03 126.2L39.79 125.74L37.305 123.75C37.305 123.75 37.756 124.426 37.808 125.778C37.808 125.778 37.032 124.121 35.949 123.851C35.949 123.851 36.449 125.271 35.361 126.2C35.361 126.2 34.92 124.595 33.921 124.088C33.921 124.088 34.107 125.017 32.247 126.2C32.247 126.2 32.338 124.595 31.193 123.919C31.193 123.919 30.299 125.609 29.075 125.862C29.075 125.862 29.986 125.017 29.806 124.51C29.806 124.51 28.198 126.031 26.166 126.2C24.136 126.369 21.429 122.06 29.077 119.61Z" fill="#263238"/>
<path d="M23.006 126.584C23.006 126.584 27.276 144.475 36.247 146.327L38.001 145.797C38.001 145.797 33.224 145.877 29.896 140.542C26.568 135.207 24.303 126.301 24.303 126.301L23.006 126.584Z" fill="black"/>
<path d="M43.4609 123.344C39.0139 128.85 27.2879 124.832 23.1549 127.952C19.0479 131.05 19.6669 133.96 19.6749 133.997C16.7789 134.892 18.3549 130.143 18.3549 130.143C15.2949 120.827 20.9469 115.46 29.6409 114.437C37.7849 113.479 40.0219 121.677 40.0219 121.677L43.4609 123.344Z" fill="#407BFF"/>
<path opacity="0.2" d="M40.021 121.676C38.188 124.927 26.7379 124.087 22.4629 125.53C18.1879 126.973 18.3539 130.143 18.3539 130.143C15.2939 120.827 20.946 115.46 29.64 114.437C37.785 113.479 40.021 121.676 40.021 121.676Z" fill="black"/>
<path d="M23.6289 116.589C27.0919 115.333 30.9519 118.262 32.4569 120.387C33.9619 122.512 37.1179 121.729 37.1809 119.356C37.2439 116.983 35.0629 112.489 35.0629 112.489C35.0629 112.489 20.7249 112.228 18.8409 120.256C18.8409 120.256 20.0659 117.882 23.6289 116.589Z" fill="#407BFF"/>
<path d="M34.2069 146.405C34.2069 146.405 35.2219 145.216 36.8259 144.917C38.4289 144.618 39.0539 144.918 39.0539 144.918C39.0539 144.918 38.6269 146.001 36.8709 146.588C35.1149 147.175 34.2069 146.405 34.2069 146.405Z" fill="#263238"/>
<path d="M27.768 150.556L32.898 153.032L35.362 155.307L35.95 152.931L35.64 148.977L39.698 150.556L41.031 155.702L38.62 154.318L36.819 159.757L31.627 156.252L30.489 158.472L25.697 152.538L27.768 150.556Z" fill="#407BFF"/>
<path opacity="0.5" d="M25.698 152.539L30.488 158.469L31.628 156.249L36.818 159.759L38.618 154.319L41.028 155.699L39.698 150.559L35.638 148.979L35.948 152.929L35.358 155.309L32.898 153.029L27.768 150.559L25.698 152.539Z" fill="white"/>
<path opacity="0.2" d="M30.488 158.469L31.628 156.249L36.818 159.759L31.888 154.369L30.488 158.469Z" fill="black"/>
<path opacity="0.2" d="M36.818 159.758L38.618 154.318L41.028 155.698L38.228 152.278L36.818 159.758Z" fill="black"/>
<path d="M49.421 173.023C49.421 173.023 48.483 187.959 61.835 187.068C73.518 186.289 85.428 146.538 88.222 136.613C88.593 135.295 89.798 134.386 91.167 134.386H93.035" stroke="#263238" stroke-miterlimit="10"/>
<path d="M51.891 174.186H38.88L41.005 153.845H54.016L51.891 174.186Z" fill="#263238"/>
<path opacity="0.2" d="M41.8 174.186H38.88L41.005 153.845H43.925L41.8 174.186Z" fill="white"/>
<path d="M94.056 134.385C94.056 134.98 93.574 135.463 92.978 135.463C92.383 135.463 91.9 134.981 91.9 134.385C91.9 133.79 92.383 133.307 92.978 133.307C93.574 133.307 94.056 133.79 94.056 134.385Z" fill="#263238"/>
<path d="M31.889 175.793L35.956 173.022C35.956 173.022 36.184 170.716 36.63 170.254C37.076 169.792 43.853 167.761 45.252 167.88C46.651 168 46.9 173.023 45.582 174.342C44.263 175.661 38.857 176.781 38.461 176.32L34.207 178.957L31.889 175.793Z" fill="#E4897B"/>
<path d="M16.944 154.7C13.103 156.747 8.54699 185.822 14.276 190.521C20.005 195.22 36.818 178.296 36.818 178.296L34.041 172.312C34.041 172.312 23.767 180.976 21.152 179.507C18.536 178.039 21.152 169.817 21.152 169.817C21.152 169.817 21.859 165.82 21.152 161.284C20.446 156.747 16.944 154.7 16.944 154.7Z" fill="#407BFF"/>
<path opacity="0.6" d="M16.944 154.7C13.103 156.747 8.54699 185.822 14.276 190.521C20.005 195.22 36.818 178.296 36.818 178.296L34.041 172.312C34.041 172.312 23.767 180.976 21.152 179.507C18.536 178.039 21.152 169.817 21.152 169.817C21.152 169.817 21.859 165.82 21.152 161.284C20.446 156.747 16.944 154.7 16.944 154.7Z" fill="white"/>
<path d="M367.36 226.1C367.36 241.57 363.11 254.12 357.87 254.12H237.14C231.89 254.12 227.64 241.57 227.64 226.1C227.64 210.62 231.89 198.08 237.14 198.08H357.87C363.11 198.08 367.36 210.62 367.36 226.1Z" fill="#3030E8"/>
<path d="M247.496 195.382C245.697 195.382 239.295 195.382 237.496 195.382C231.353 195.382 226.373 209.035 226.373 225.877C226.373 242.719 231.353 256.372 237.496 256.372C239.295 256.372 245.697 256.372 247.496 256.372C253.639 256.372 258.619 242.719 258.619 225.877C258.619 209.034 253.639 195.382 247.496 195.382Z" fill="#407BFF"/>
<path opacity="0.4" d="M237.496 256.37C243.639 256.37 248.619 242.718 248.619 225.876C248.619 209.035 243.639 195.382 237.496 195.382C231.353 195.382 226.373 209.035 226.373 225.876C226.373 242.718 231.353 256.37 237.496 256.37Z" fill="white"/>
<path opacity="0.2" d="M247.496 195.382C245.697 195.382 239.295 195.382 237.496 195.382C231.353 195.382 226.373 209.035 226.373 225.877C226.373 242.719 231.353 256.372 237.496 256.372C239.295 256.372 245.697 256.372 247.496 256.372C253.639 256.372 258.619 242.719 258.619 225.877C258.619 209.034 253.639 195.382 247.496 195.382Z" fill="white"/>
<path d="M235.496 195.382C233.697 195.382 227.295 195.382 225.496 195.382C219.353 195.382 214.373 209.035 214.373 225.877C214.373 242.719 219.353 256.372 225.496 256.372C227.295 256.372 233.697 256.372 235.496 256.372C241.639 256.372 246.619 242.719 246.619 225.877C246.619 209.034 241.639 195.382 235.496 195.382Z" fill="#407BFF"/>
<path opacity="0.4" d="M225.496 256.37C231.639 256.37 236.619 242.718 236.619 225.876C236.619 209.035 231.639 195.382 225.496 195.382C219.353 195.382 214.373 209.035 214.373 225.876C214.373 242.718 219.353 256.37 225.496 256.37Z" fill="white"/>
<path opacity="0.2" d="M235.496 195.382C233.697 195.382 227.295 195.382 225.496 195.382C219.353 195.382 214.373 209.035 214.373 225.877C214.373 242.719 219.353 256.372 225.496 256.372C227.295 256.372 233.697 256.372 235.496 256.372C241.639 256.372 246.619 242.719 246.619 225.877C246.619 209.034 241.639 195.382 235.496 195.382Z" fill="white"/>
<path d="M232.36 226.1C232.36 241.57 228.11 254.12 222.87 254.12H132.14C126.89 254.12 122.64 241.57 122.64 226.1C122.64 210.62 126.89 198.08 132.14 198.08H222.87C228.11 198.08 232.36 210.62 232.36 226.1Z" fill="#3030E8"/>
<path d="M156.496 195.382C154.697 195.382 148.295 195.382 146.496 195.382C140.353 195.382 135.373 209.035 135.373 225.877C135.373 242.719 140.353 256.372 146.496 256.372C148.295 256.372 154.697 256.372 156.496 256.372C162.639 256.372 167.619 242.719 167.619 225.877C167.619 209.034 162.639 195.382 156.496 195.382Z" fill="#407BFF"/>
<path opacity="0.4" d="M146.496 256.37C152.639 256.37 157.619 242.718 157.619 225.876C157.619 209.035 152.639 195.382 146.496 195.382C140.353 195.382 135.373 209.035 135.373 225.876C135.373 242.718 140.353 256.37 146.496 256.37Z" fill="white"/>
<path opacity="0.2" d="M156.496 195.382C154.697 195.382 148.295 195.382 146.496 195.382C140.353 195.382 135.373 209.035 135.373 225.877C135.373 242.719 140.353 256.372 146.496 256.372C148.295 256.372 154.697 256.372 156.496 256.372C162.639 256.372 167.619 242.719 167.619 225.877C167.619 209.034 162.639 195.382 156.496 195.382Z" fill="white"/>
<path d="M144.87 198.08H93.516V254.12H144.87C150.11 254.12 154.36 241.57 154.36 226.1C154.36 210.62 150.11 198.08 144.87 198.08Z" fill="#3030E8"/>
<path d="M137.809 40.4512H81.7689V341.638H137.809V40.4512Z" fill="#3030E8"/>
<path opacity="0.4" d="M137.809 40.4512H81.7689V341.638H137.809V40.4512Z" fill="#3030E8"/>
<path d="M138.544 279H81.0339C80.2629 279 79.6379 278.375 79.6379 277.604V269.714C79.6379 268.943 80.2629 268.318 81.0339 268.318H138.544C139.315 268.318 139.94 268.943 139.94 269.714V277.604C139.939 278.375 139.314 279 138.544 279Z" fill="#407BFF"/>
<path d="M138.544 188H81.0339C80.2629 188 79.6379 187.375 79.6379 186.604V178.714C79.6379 177.943 80.2629 177.318 81.0339 177.318H138.544C139.315 177.318 139.94 177.943 139.94 178.714V186.604C139.939 187.375 139.314 188 138.544 188Z" fill="#407BFF"/>
<path d="M142.939 342H76.6379L79.6379 338.539H139.939L142.939 342Z" fill="#407BFF"/>
<path d="M138.544 140H81.0339C80.2629 140 79.6379 139.375 79.6379 138.604V120.714C79.6379 119.943 80.2629 119.318 81.0339 119.318H138.544C139.315 119.318 139.94 119.943 139.94 120.714V138.604C139.939 139.375 139.314 140 138.544 140Z" fill="#407BFF"/>
<path opacity="0.2" d="M138.544 279H81.0339C80.2629 279 79.6379 278.375 79.6379 277.604V269.714C79.6379 268.943 80.2629 268.318 81.0339 268.318H138.544C139.315 268.318 139.94 268.943 139.94 269.714V277.604C139.939 278.375 139.314 279 138.544 279Z" fill="white"/>
<path opacity="0.2" d="M138.544 188H81.0339C80.2629 188 79.6379 187.375 79.6379 186.604V178.714C79.6379 177.943 80.2629 177.318 81.0339 177.318H138.544C139.315 177.318 139.94 177.943 139.94 178.714V186.604C139.939 187.375 139.314 188 138.544 188Z" fill="white"/>
<path opacity="0.2" d="M138.544 140H81.0339C80.2629 140 79.6379 139.375 79.6379 138.604V120.714C79.6379 119.943 80.2629 119.318 81.0339 119.318H138.544C139.315 119.318 139.94 119.943 139.94 120.714V138.604C139.939 139.375 139.314 140 138.544 140Z" fill="white"/>
<path d="M81.754 122.306C81.32 122.306 79.777 122.306 79.343 122.306C77.862 122.306 76.661 125.598 76.661 129.659C76.661 133.72 77.862 137.012 79.343 137.012C79.777 137.012 81.321 137.012 81.754 137.012C83.235 137.012 84.436 133.72 84.436 129.659C84.436 125.598 83.236 122.306 81.754 122.306Z" fill="#407BFF"/>
<path opacity="0.4" d="M79.343 137.012C80.8242 137.012 82.025 133.72 82.025 129.659C82.025 125.598 80.8242 122.306 79.343 122.306C77.8618 122.306 76.661 125.598 76.661 129.659C76.661 133.72 77.8618 137.012 79.343 137.012Z" fill="white"/>
<path opacity="0.1" d="M81.754 122.306C81.32 122.306 79.777 122.306 79.343 122.306C77.862 122.306 76.661 125.598 76.661 129.659C76.661 133.72 77.862 137.012 79.343 137.012C79.777 137.012 81.321 137.012 81.754 137.012C83.235 137.012 84.436 133.72 84.436 129.659C84.436 125.598 83.236 122.306 81.754 122.306Z" fill="white"/>
<path d="M77.966 127.352C77.743 127.352 66.679 127.352 66.456 127.352C65.695 127.352 65.079 128.385 65.079 129.659C65.079 130.933 65.696 131.966 66.456 131.966C66.679 131.966 77.743 131.966 77.966 131.966C78.727 131.966 79.343 130.933 79.343 129.659C79.343 128.385 78.726 127.352 77.966 127.352Z" fill="#407BFF"/>
<path opacity="0.4" d="M67.833 129.659C67.833 130.933 67.216 131.966 66.456 131.966C65.695 131.966 65.079 130.933 65.079 129.659C65.079 128.385 65.696 127.352 66.456 127.352C67.216 127.352 67.833 128.385 67.833 129.659Z" fill="white"/>
<path opacity="0.1" d="M77.966 127.352C77.743 127.352 66.679 127.352 66.456 127.352C65.695 127.352 65.079 128.385 65.079 129.659C65.079 130.933 65.696 131.966 66.456 131.966C66.679 131.966 77.743 131.966 77.966 131.966C78.727 131.966 79.343 130.933 79.343 129.659C79.343 128.385 78.726 127.352 77.966 127.352Z" fill="white"/>
<path d="M64.173 123.369C64.924 123.369 67.599 123.369 68.35 123.369C70.916 123.369 72.996 126.185 72.996 129.659C72.996 133.133 70.916 135.949 68.35 135.949C67.599 135.949 64.925 135.949 64.173 135.949C61.607 135.949 59.527 133.133 59.527 129.659C59.527 126.185 61.607 123.369 64.173 123.369Z" fill="#407BFF"/>
<path opacity="0.1" d="M64.173 123.369C64.924 123.369 67.599 123.369 68.35 123.369C70.916 123.369 72.996 126.185 72.996 129.659C72.996 133.133 70.916 135.949 68.35 135.949C67.599 135.949 64.925 135.949 64.173 135.949C61.607 135.949 59.527 133.133 59.527 129.659C59.527 126.185 61.607 123.369 64.173 123.369Z" fill="white"/>
<path opacity="0.2" d="M63.704 129.659C63.704 133.133 65.784 135.949 68.35 135.949C70.916 135.949 72.996 133.133 72.996 129.659C72.996 126.185 70.916 123.369 68.35 123.369C65.784 123.369 63.704 126.185 63.704 129.659Z" fill="black"/>
<path d="M247.806 231.548C248.707 231.548 248.531 231.548 249.432 231.548C252.509 231.548 255.003 228.107 255.003 223.861C255.003 219.616 252.509 216.174 249.432 216.174C248.531 216.174 248.707 216.174 247.806 216.174C244.729 216.174 242.235 219.616 242.235 223.861C242.235 228.107 244.729 231.548 247.806 231.548Z" fill="#407BFF"/>
<path opacity="0.4" d="M243.861 223.861C243.861 219.616 246.355 216.174 249.432 216.174C252.509 216.174 255.003 219.616 255.003 223.861C255.003 228.106 252.509 231.548 249.432 231.548C246.355 231.548 243.861 228.107 243.861 223.861Z" fill="white"/>
<path opacity="0.2" d="M247.806 231.548C248.707 231.548 248.531 231.548 249.432 231.548C252.509 231.548 255.003 228.107 255.003 223.861C255.003 219.616 252.509 216.174 249.432 216.174C248.531 216.174 248.707 216.174 247.806 216.174C244.729 216.174 242.235 219.616 242.235 223.861C242.235 228.107 244.729 231.548 247.806 231.548Z" fill="white"/>
<path d="M251.264 208.916C245.41 208.916 240.665 215.788 240.665 224.265C240.665 232.742 245.41 239.614 251.264 239.614C257.117 239.614 261.863 232.742 261.863 224.265C261.862 215.788 257.117 208.916 251.264 208.916ZM246.974 223.861H242.678C242.735 221.066 243.376 218.461 244.416 216.326L247.533 222.017C247.229 222.526 247.031 223.159 246.974 223.861ZM246.987 224.861C247.063 225.488 247.257 226.05 247.532 226.513L244.415 232.204C243.399 230.119 242.766 227.584 242.684 224.862H246.987V224.861ZM251.681 224.861H259.842C259.759 227.614 259.112 230.176 258.076 232.275L251.496 225.715C251.582 225.447 251.645 225.162 251.681 224.861ZM251.695 223.861C251.665 223.491 251.6 223.14 251.497 222.815L258.077 216.254C259.137 218.402 259.792 221.034 259.849 223.861H251.695ZM257.58 215.336L251.043 221.855C250.824 221.53 250.563 221.265 250.271 221.084L251.65 210.948C253.969 211.117 256.078 212.786 257.58 215.336ZM250.638 210.967L249.299 220.811C248.913 220.819 248.554 220.969 248.233 221.213L244.982 215.277C246.429 212.847 248.43 211.228 250.638 210.967ZM244.981 233.253L248.232 227.317C248.551 227.559 248.908 227.708 249.292 227.718L250.613 237.562C248.416 237.291 246.424 235.674 244.981 233.253ZM251.625 237.585L250.265 227.451C250.56 227.27 250.822 227.003 251.042 226.676L257.579 233.194C256.073 235.754 253.954 237.426 251.625 237.585Z" fill="#407BFF"/>
<path d="M271.848 218.667L266.437 215.81C266.437 215.81 264.788 213.554 264.507 212.559C264.225 211.565 260.532 208.014 259.048 208.425C257.564 208.836 253.981 215.413 255.345 216.332C256.709 217.251 260.921 218.806 261.6 218.932C262.278 219.058 263.901 218.907 263.901 218.907L268.93 222.869L271.848 218.667Z" fill="#263238"/>
<path d="M301.802 216.23C301.802 216.23 284.621 222.643 282.69 222.686C280.759 222.728 268.039 215.208 268.039 215.208L263.994 220.57C263.994 220.57 275.503 230.647 278.266 232.803C281.03 234.959 304.337 229.706 304.337 229.706C304.337 229.706 306.709 223.036 301.802 216.23Z" fill="#263238"/>
<path opacity="0.3" d="M301.802 216.23C301.802 216.23 284.621 222.643 282.69 222.686C280.759 222.728 268.039 215.208 268.039 215.208L263.994 220.57C263.994 220.57 275.503 230.647 278.266 232.803C281.03 234.959 304.337 229.706 304.337 229.706C304.337 229.706 306.709 223.036 301.802 216.23Z" fill="white"/>
<path d="M286.58 336.348L279.825 337.774L272.606 325.908L279.362 324.482L286.58 336.348Z" fill="#E4897B"/>
<path d="M278.462 334.914H286.023C286.278 334.915 286.498 335.093 286.553 335.341L287.78 340.883C287.885 341.379 287.568 341.867 287.072 341.972C287.006 341.986 286.938 341.993 286.87 341.992C284.424 341.952 282.642 341.802 279.571 341.802C277.679 341.802 271.971 342 269.358 342C266.745 342 266.405 339.419 267.474 339.182C272.272 338.137 275.882 336.688 277.418 335.311C277.702 335.049 278.076 334.907 278.462 334.914Z" fill="#263238"/>
<path d="M276.404 336.007C275.981 336.041 275.559 335.929 275.209 335.69C274.976 335.498 274.859 335.198 274.9 334.898C274.895 334.723 274.995 334.561 275.153 334.486C275.842 334.13 277.853 335.365 278.074 335.507C278.126 335.534 278.155 335.592 278.145 335.65C278.137 335.711 278.094 335.761 278.034 335.777C277.501 335.914 276.954 335.991 276.404 336.007ZM275.477 334.716C275.411 334.711 275.345 334.724 275.287 334.756C275.247 334.756 275.2 334.811 275.192 334.93C275.167 335.129 275.241 335.327 275.39 335.46C276.088 335.776 276.88 335.816 277.607 335.571C276.958 335.153 276.235 334.863 275.477 334.716Z" fill="#407BFF"/>
<path d="M277.995 335.785H277.924C277.283 335.437 276.04 334.067 276.166 333.41C276.211 333.184 276.41 333.021 276.641 333.022C276.867 332.992 277.095 333.062 277.266 333.212C277.986 333.798 278.137 335.587 278.145 335.674C278.146 335.728 278.119 335.779 278.074 335.809C278.046 335.81 278.018 335.801 277.995 335.785ZM276.744 333.26H276.673C276.483 333.26 276.467 333.371 276.459 333.41C276.38 333.814 277.171 334.851 277.813 335.334C277.771 334.625 277.515 333.945 277.077 333.386C276.985 333.305 276.866 333.26 276.744 333.26Z" fill="#407BFF"/>
<path opacity="0.2" d="M279.362 324.482L272.606 325.908L276.334 332.028L283.089 330.602L279.362 324.482Z" fill="black"/>
<path d="M308.902 296.154C308.538 296.138 304.429 296.114 304.049 296.083C296.409 295.45 288.397 293.462 282.23 291.602C275.865 289.686 271.463 287.905 271.463 287.905C270.006 296.344 283.703 328.718 283.703 328.718L272.516 329.415C272.516 329.415 241.244 283.282 254.569 268.905C264.52 258.17 291.517 269.823 291.517 269.823L298.57 254.928L328.465 256.641C328.465 256.641 334.924 297.54 308.902 296.154Z" fill="#263238"/>
<path d="M273.043 330.737L284.193 328.955L283.124 325.922L270.993 328.449L273.043 330.737Z" fill="#407BFF"/>
<path d="M362.314 323.695L362.898 329.89L348.593 331.753L348.009 325.55L362.314 323.695Z" fill="#E4897B"/>
<path d="M362.261 330.817L361.552 323.29C361.529 323.036 361.685 322.8 361.928 322.722L367.33 320.981C367.814 320.83 368.329 321.1 368.48 321.584C368.5 321.649 368.513 321.716 368.519 321.783C368.709 324.222 368.726 326.01 369.014 329.068C369.191 330.952 369.923 336.616 370.168 339.217C370.413 341.818 367.875 342.399 367.539 341.357C366.049 336.679 364.268 333.22 362.753 331.82C362.466 331.561 362.29 331.202 362.261 330.817Z" fill="#263238"/>
<path d="M363.542 332.763C363.615 333.181 363.544 333.611 363.339 333.983C363.169 334.233 362.882 334.378 362.58 334.365C362.406 334.386 362.236 334.302 362.146 334.151C361.727 333.499 362.768 331.381 362.889 331.147C362.911 331.092 362.966 331.058 363.024 331.063C363.085 331.065 363.139 331.104 363.161 331.161C363.346 331.68 363.474 332.217 363.542 332.763ZM362.344 333.807C362.345 333.873 362.365 333.937 362.401 333.992C362.405 334.031 362.464 334.073 362.583 334.07C362.783 334.076 362.973 333.984 363.093 333.823C363.343 333.098 363.308 332.306 362.996 331.606C362.64 332.291 362.418 333.038 362.344 333.807Z" fill="#407BFF"/>
<path d="M363.172 331.2L363.179 331.271C362.892 331.942 361.645 333.308 360.979 333.243C360.75 333.219 360.569 333.036 360.548 332.806C360.497 332.584 360.545 332.35 360.679 332.166C361.195 331.394 362.962 331.076 363.048 331.06C363.102 331.054 363.155 331.076 363.189 331.118C363.191 331.147 363.186 331.176 363.172 331.2ZM360.775 332.682L360.782 332.753C360.8 332.942 360.912 332.948 360.952 332.952C361.361 332.993 362.32 332.108 362.741 331.424C362.039 331.532 361.387 331.851 360.871 332.339C360.798 332.438 360.764 332.56 360.775 332.682Z" fill="#407BFF"/>
<path opacity="0.2" d="M348.017 325.549L348.6 331.753L355.977 330.788L355.393 324.585L348.017 325.549Z" fill="black"/>
<path d="M353.64 333.38C353.64 333.38 313.29 345.18 303.24 338.06C298.3 334.56 296.41 325.7 296.12 315.64C295.91 308.95 296.42 301.72 297.21 295.2C298.52 284.36 300.6 275.45 301.51 274.11C301.51 274.11 328.53 273.36 327.77 280.1C327.02 286.84 312.63 321.63 315.79 324.39C318.96 327.14 352.94 323.07 352.94 323.07L353.64 333.38Z" fill="#263238"/>
<path d="M351.519 322.282L352.349 334.717L355.467 333.931L354.063 321.62L351.519 322.282Z" fill="#407BFF"/>
<path opacity="0.5" d="M273.043 330.737L284.193 328.955L283.124 325.922L270.993 328.449L273.043 330.737Z" fill="white"/>
<path opacity="0.5" d="M351.519 322.282L352.349 334.717L355.467 333.931L354.063 321.62L351.519 322.282Z" fill="white"/>
<path d="M285.395 201.412C285.538 201.901 285.323 202.375 284.998 202.445C284.673 202.515 284.319 202.164 284.207 201.666C284.095 201.169 284.279 200.703 284.604 200.633C284.928 200.564 285.29 200.938 285.395 201.412Z" fill="#263238"/>
<path d="M285.892 201.779C285.629 203.439 285.138 205.055 284.432 206.58C285.236 206.926 286.152 206.899 286.935 206.506L285.892 201.779Z" fill="#892B29"/>
<path d="M284.147 198.639C284.145 198.639 284.143 198.64 284.141 198.641C283.983 198.688 283.893 198.855 283.941 199.013C283.969 199.067 284.014 199.11 284.068 199.137C284.132 199.2 284.22 199.232 284.309 199.225C285.04 198.997 285.836 199.129 286.456 199.58C286.581 199.685 286.767 199.672 286.878 199.552V199.551C286.987 199.426 286.974 199.238 286.849 199.129C286.082 198.536 285.074 198.353 284.147 198.639Z" fill="#263238"/>
<path d="M287.444 208.749C287.603 209.03 287.769 209.303 287.951 209.558C289.023 211.104 290.507 212.214 292.142 212.832C292.57 212.997 293.012 213.127 293.458 213.225C295.815 213.732 298.327 213.267 300.287 211.701C301.092 211.071 301.812 210.243 302.382 209.224C304.652 205.229 303.586 201.613 302.274 195.357C302.012 194.005 301.444 192.732 300.598 191.651C297.649 187.829 292.156 187.13 288.342 190.078C282.964 194.173 284.61 203.563 287.444 208.749Z" fill="#B97964"/>
<path opacity="0.2" d="M292.141 212.831C292.569 212.996 293.011 213.126 293.457 213.224C295.814 213.731 298.326 213.266 300.286 211.7C299.531 210.627 298.621 209.906 298.621 209.906C298.621 209.906 294.786 210.333 292.141 212.831Z" fill="black"/>
<path d="M306.696 217.474C304.406 221.051 296.696 222.039 296.696 222.039C296.696 222.039 291.713 222.022 292.296 220.309C294.908 219.119 295.887 217.486 295.993 215.706C296.053 214.67 295.812 213.587 295.427 212.509C295.231 211.941 294.986 211.379 294.727 210.828L302.08 201.54C302.088 206.357 302.846 215.019 306.696 217.474Z" fill="#B97964"/>
<path d="M287.251 187.485C288.67 186.362 292.929 184.34 295.873 184.337C304.976 184.328 305.274 189.58 305.274 189.58C303.93 188.131 302.443 187.795 302.443 187.795C312.342 197.032 303.35 208.409 303.35 208.409C299.536 207.737 295.323 210.074 295.323 210.074C295.323 210.074 292.904 204.732 290.921 203.316C288.938 201.9 287.049 198.312 287.042 196.036C287.034 193.761 285.149 195.32 285.149 195.32C283.199 194.22 285.17 189.132 287.251 187.485Z" fill="#263238"/>
<path d="M292.9 201.73C292.894 203.17 292.422 204.353 291.589 205.021C290.478 205.892 289.177 204.347 288.858 202.446C288.587 200.758 288.812 198.218 290.238 198.16C291.662 198.102 292.889 199.955 292.9 201.73Z" fill="#B97964"/>
<path d="M287.824 193.088C287.824 193.088 287.528 207.591 290.61 212.076C290.61 212.076 286.725 209.374 286.769 193.748L287.824 193.088Z" fill="black"/>
<path d="M292.141 191.242C292.141 191.242 297.582 196.517 301.67 197.506C305.758 198.495 307.228 196.055 307.228 196.055L306.696 191.654C306.696 191.654 306.813 195.038 305.165 195.381C303.517 195.725 299.724 194.973 295.225 190.602L292.141 191.242Z" fill="#407BFF"/>
<path opacity="0.4" d="M292.141 191.242C292.141 191.242 297.582 196.517 301.67 197.506C305.758 198.495 307.228 196.055 307.228 196.055L306.696 191.654C306.696 191.654 306.813 195.038 305.165 195.381C303.517 195.725 299.724 194.973 295.225 190.602L292.141 191.242Z" fill="white"/>
<path d="M283.015 195.694C283.015 195.694 282.478 189.264 284.974 186.26C287.47 183.256 294.718 181.613 299.401 182.721C304.084 183.829 306.63 189.873 306.816 191.101C307.249 193.955 296.554 188.923 290.504 191.192C284.454 193.462 283.015 195.694 283.015 195.694Z" fill="#407BFF"/>
<path opacity="0.2" d="M283.015 195.694C283.015 195.694 282.478 189.264 284.974 186.26C287.47 183.256 294.718 181.613 299.401 182.721C304.084 183.829 306.63 189.873 306.816 191.101C307.249 193.955 296.554 188.923 290.504 191.192C284.454 193.462 283.015 195.694 283.015 195.694Z" fill="black"/>
<path d="M285.785 185.468C285.785 185.468 286.149 182.276 287.146 181.451C288.143 180.626 296.489 179.602 298.998 180.613C301.507 181.624 305.319 186.125 306.05 191.446L301.997 192.016C301.997 192.016 300.669 185.979 297.065 184.299C292.912 182.363 285.785 185.468 285.785 185.468Z" fill="#407BFF"/>
<path d="M281.062 198.933C281.062 198.933 284.341 199.704 286.962 195.665C289.583 191.626 295.244 191.345 299.721 192.358C304.981 193.548 309.386 192.859 309.386 192.859L306.816 191.101C306.816 191.101 303.543 191.872 297.814 190.098C292.085 188.324 284.575 192.181 283.015 195.694L281.062 198.933Z" fill="#407BFF"/>
<path d="M329.07 257.67L294.26 263.28C293.68 255.14 292.69 247.35 291.57 240.37C291.45 239.55 291.31 238.75 291.18 237.96C290.89 236.23 290.47 234.25 289.99 232.21C288.8 227.11 287.27 221.6 286.58 218.54C286.58 218.54 299.47 213.87 309.73 216.47C321.86 219.54 329.07 257.67 329.07 257.67Z" fill="#407BFF"/>
<path opacity="0.2" d="M319.26 288.71C319.03 289.49 311.69 313.5 296.12 315.64C295.91 308.95 296.42 301.72 297.21 295.2C297.21 295.2 303.98 296.28 307.82 296.14C311.66 296 318.26 291.28 319.26 288.71Z" fill="black"/>
<path opacity="0.7" d="M328.1 253.13L293.91 259.08C293.78 257.47 293.62 255.87 293.44 254.29L308.71 251.26C307.73 246.33 305.71 237.4 302.86 230.74C299.86 223.75 294.94 219.01 292.42 216.92C293.02 216.78 293.65 216.65 294.31 216.53C304.94 224.5 310.32 242.86 312.17 250.58L321.83 248.66C320.98 244.15 318.86 234.14 315.73 226.84C313.8 222.34 311.07 218.76 308.69 216.23C309.04 216.3 309.39 216.38 309.73 216.47C310.61 216.69 311.46 217.1 312.29 217.67C320.14 227.38 324.08 242.34 325.35 247.96L326.75 247.69C327.3 249.74 327.74 251.59 328.1 253.13Z" fill="white"/>
<path opacity="0.2" d="M291.57 240.37C291.45 239.55 291.31 238.75 291.18 237.96C290.89 236.23 290.47 234.25 289.99 232.21C290.87 231.46 291.85 230.88 292.9 230.6C292.9 230.6 293.91 236.69 291.57 240.37Z" fill="black"/>
<path d="M257.868 236.366L251.786 235.697C251.786 235.697 249.423 234.205 248.796 233.383C248.169 232.562 243.429 230.617 242.2 231.544C240.971 232.472 240.056 239.905 241.662 240.258C243.268 240.612 247.757 240.509 248.434 240.377C249.111 240.245 250.564 239.508 250.564 239.508L256.697 241.345L257.868 236.366Z" fill="#263238"/>
<path d="M288.757 219.439C288.757 219.439 271.208 235.37 269.428 236.119C267.648 236.868 253.054 234.548 253.054 234.548L251.263 241.022C251.263 241.022 265.67 246.165 269.032 247.154C272.395 248.143 292.14 234.692 292.14 234.692C292.14 234.692 295.823 223.965 288.757 219.439Z" fill="#263238"/>
<path opacity="0.4" d="M288.757 219.439C288.757 219.439 271.208 235.37 269.428 236.119C267.648 236.868 253.054 234.548 253.054 234.548L251.263 241.022C251.263 241.022 265.67 246.165 269.032 247.154C272.395 248.143 292.14 234.692 292.14 234.692C292.14 234.692 295.823 223.965 288.757 219.439Z" fill="white"/>
</svg>
