<svg width="410" height="363" viewBox="0 0 410 363" fill="none" xmlns="http://www.w3.org/2000/svg">
<path opacity="0.4" d="M286.885 203.966C337.738 183.273 390.059 217.98 406.937 146.349C417.019 103.559 397.422 62.7269 360.26 32.9039C317.068 -1.75808 279.09 -10.9651 230.732 19.0969C181.851 49.4839 169.839 54.3799 113.856 48.9899C26.044 40.5349 -45.094 147.936 37.372 209.636C77.471 239.637 138.168 267.688 188.323 268.377C205.393 268.612 228.543 266.733 243.159 256.418C263.614 241.982 259.91 214.942 286.885 203.966Z" fill="#002DE5" fill-opacity="0.1"/>
<path d="M208 362.561C315.082 362.561 401.889 357.492 401.889 351.238C401.889 344.985 315.082 339.915 208 339.915C100.918 339.915 14.111 344.985 14.111 351.238C14.111 357.492 100.918 362.561 208 362.561Z" fill="#000F4B"/>
<path d="M193.814 338.801H76.88V352.145H193.814V338.801Z" fill="#0053CC"/>
<g opacity="0.2">
<path d="M82.849 340.698H79.922V350.247H82.849V340.698Z" fill="#0F264C"/>
<path d="M87.991 340.698H85.064V350.247H87.991V340.698Z" fill="#0F264C"/>
<path d="M93.134 340.698H90.207V350.247H93.134V340.698Z" fill="#0F264C"/>
<path d="M98.276 340.698H95.349V350.247H98.276V340.698Z" fill="#0F264C"/>
<path d="M103.418 340.698H100.491V350.247H103.418V340.698Z" fill="#0F264C"/>
<path d="M108.561 340.698H105.634V350.247H108.561V340.698Z" fill="#0F264C"/>
<path d="M113.703 340.698H110.776V350.247H113.703V340.698Z" fill="#0F264C"/>
<path d="M118.845 340.698H115.918V350.247H118.845V340.698Z" fill="#0F264C"/>
<path d="M123.987 340.698H121.06V350.247H123.987V340.698Z" fill="#0F264C"/>
<path d="M129.13 340.698H126.203V350.247H129.13V340.698Z" fill="#0F264C"/>
<path d="M134.272 340.698H131.345V350.247H134.272V340.698Z" fill="#0F264C"/>
<path d="M139.414 340.698H136.487V350.247H139.414V340.698Z" fill="#0F264C"/>
<path d="M144.556 340.698H141.629V350.247H144.556V340.698Z" fill="#0F264C"/>
<path d="M149.699 340.698H146.772V350.247H149.699V340.698Z" fill="#0F264C"/>
<path d="M154.841 340.698H151.914V350.247H154.841V340.698Z" fill="#0F264C"/>
<path d="M159.983 340.698H157.056V350.247H159.983V340.698Z" fill="#0F264C"/>
<path d="M165.125 340.698H162.198V350.247H165.125V340.698Z" fill="#0F264C"/>
<path d="M170.268 340.698H167.341V350.247H170.268V340.698Z" fill="#0F264C"/>
<path d="M175.41 340.698H172.483V350.247H175.41V340.698Z" fill="#0F264C"/>
<path d="M180.552 340.698H177.625V350.247H180.552V340.698Z" fill="#0F264C"/>
<path d="M185.694 340.698H182.767V350.247H185.694V340.698Z" fill="#0F264C"/>
<path d="M190.837 340.698H187.91V350.247H190.837V340.698Z" fill="#0F264C"/>
</g>
<path d="M193.813 352.146H212.055V338.802H193.813V352.146Z" fill="#0050AF"/>
<path d="M193.814 103.049H70.796V338.801H193.814V103.049Z" fill="#4EA4F9"/>
<path d="M210.075 101.033H78.86V103.049H210.075V101.033Z" fill="#0D6AB7"/>
<path d="M66.918 212.904H65.918V222.839H66.918V212.904Z" fill="#197BDD"/>
<path d="M66.918 226.168H65.918V252H66.918V226.168Z" fill="#197BDD"/>
<path d="M193.814 338.802H218.14L218.14 103.05H193.814L193.814 338.802Z" fill="#3030E8"/>
<path opacity="0.6" d="M187.683 188.81H76.927C75.121 188.81 73.658 187.346 73.658 185.541V168.682C73.658 166.877 75.122 165.413 76.927 165.413H187.683C189.488 165.413 190.952 166.877 190.952 168.682V185.541C190.952 187.347 189.488 188.81 187.683 188.81Z" fill="#0D6AB7"/>
<path d="M181.077 173.962L176.351 164.195V190.027H181.265H182.6H190.951V177.111H186.098C183.96 177.112 182.009 175.888 181.077 173.962Z" fill="#197BDD"/>
<path d="M190.952 105.874H73.658V131.706H190.952V105.874Z" fill="#2B97EF"/>
<path d="M190.952 310H73.658V335.832H190.952V310Z" fill="#2B97EF"/>
<path d="M190.952 280.839H73.658V306.671H190.952V280.839Z" fill="#2B97EF"/>
<path d="M190.952 251.678H73.658V277.51H190.952V251.678Z" fill="#2B97EF"/>
<path d="M190.952 222.517H73.658V248.349H190.952V222.517Z" fill="#2B97EF"/>
<path d="M190.952 193.356H73.658V219.188H190.952V193.356Z" fill="#2B97EF"/>
<path d="M176.351 164.195H59.057V190.027H176.351V164.195Z" fill="#2B97EF"/>
<path d="M190.952 135.035H73.658V160.867H190.952V135.035Z" fill="#2B97EF"/>
<path d="M183.654 128.016H139.056C136.983 128.016 135.288 126.32 135.288 124.248V113.332C135.288 111.259 136.984 109.564 139.056 109.564H183.654C185.726 109.564 187.422 111.26 187.422 113.332V124.248C187.422 126.32 185.726 128.016 183.654 128.016Z" fill="#3030E8"/>
<path opacity="0.2" d="M162.905 119.549V118.03C162.905 117.147 163.621 116.432 164.503 116.432H178.954C179.837 116.432 180.552 117.148 180.552 118.03V119.549C180.552 120.432 179.836 121.147 178.954 121.147H164.503C163.621 121.147 162.905 120.432 162.905 119.549Z" fill="white"/>
<path d="M183.654 157.177H139.056C136.983 157.177 135.288 155.481 135.288 153.409V142.493C135.288 140.421 136.984 138.725 139.056 138.725H183.654C185.726 138.725 187.422 140.421 187.422 142.493V153.409C187.422 155.481 185.726 157.177 183.654 157.177Z" fill="#3030E8"/>
<path opacity="0.2" d="M162.905 148.71V147.191C162.905 146.308 163.621 145.593 164.503 145.593H178.954C179.837 145.593 180.552 146.309 180.552 147.191V148.71C180.552 149.593 179.836 150.308 178.954 150.308H164.503C163.621 150.308 162.905 149.593 162.905 148.71Z" fill="white"/>
<path d="M169.054 186.338H124.456C122.383 186.338 120.688 184.642 120.688 182.57V171.654C120.688 169.581 122.384 167.886 124.456 167.886H169.054C171.126 167.886 172.822 169.582 172.822 171.654V182.57C172.822 184.642 171.126 186.338 169.054 186.338Z" fill="#3030E8"/>
<path opacity="0.2" d="M148.305 177.871V176.352C148.305 175.469 149.021 174.754 149.903 174.754H164.354C165.237 174.754 165.953 175.47 165.953 176.352V177.871C165.953 178.754 165.237 179.469 164.354 179.469H149.903C149.02 179.47 148.305 178.754 148.305 177.871Z" fill="white"/>
<path d="M183.654 215.499H139.056C136.983 215.499 135.288 213.803 135.288 211.731V200.815C135.288 198.742 136.984 197.047 139.056 197.047H183.654C185.726 197.047 187.422 198.743 187.422 200.815V211.731C187.422 213.803 185.726 215.499 183.654 215.499Z" fill="#3030E8"/>
<path opacity="0.2" d="M162.905 207.032V205.513C162.905 204.63 163.621 203.915 164.503 203.915H178.954C179.837 203.915 180.552 204.631 180.552 205.513V207.032C180.552 207.915 179.836 208.63 178.954 208.63H164.503C163.621 208.63 162.905 207.914 162.905 207.032Z" fill="white"/>
<path d="M183.654 244.66H139.056C136.983 244.66 135.288 242.964 135.288 240.892V229.976C135.288 227.904 136.984 226.208 139.056 226.208H183.654C185.726 226.208 187.422 227.904 187.422 229.976V240.892C187.422 242.964 185.726 244.66 183.654 244.66Z" fill="#3030E8"/>
<path opacity="0.2" d="M162.905 236.193V234.674C162.905 233.791 163.621 233.076 164.503 233.076H178.954C179.837 233.076 180.552 233.792 180.552 234.674V236.193C180.552 237.076 179.836 237.791 178.954 237.791H164.503C163.621 237.791 162.905 237.076 162.905 236.193Z" fill="white"/>
<path d="M183.654 273.821H139.056C136.983 273.821 135.288 272.125 135.288 270.053V259.137C135.288 257.064 136.984 255.369 139.056 255.369H183.654C185.726 255.369 187.422 257.065 187.422 259.137V270.053C187.422 272.125 185.726 273.821 183.654 273.821Z" fill="#3030E8"/>
<path opacity="0.2" d="M162.905 265.354V263.835C162.905 262.952 163.621 262.237 164.503 262.237H178.954C179.837 262.237 180.552 262.953 180.552 263.835V265.354C180.552 266.237 179.836 266.952 178.954 266.952H164.503C163.621 266.952 162.905 266.237 162.905 265.354Z" fill="white"/>
<path d="M183.654 302.982H139.056C136.983 302.982 135.288 301.286 135.288 299.214V288.298C135.288 286.225 136.984 284.53 139.056 284.53H183.654C185.726 284.53 187.422 286.226 187.422 288.298V299.214C187.422 301.286 185.726 302.982 183.654 302.982Z" fill="#3030E8"/>
<path opacity="0.2" d="M162.905 294.514V292.995C162.905 292.112 163.621 291.397 164.503 291.397H178.954C179.837 291.397 180.552 292.113 180.552 292.995V294.514C180.552 295.397 179.836 296.112 178.954 296.112H164.503C163.621 296.113 162.905 295.397 162.905 294.514Z" fill="white"/>
<path d="M183.654 332.143H139.056C136.983 332.143 135.288 330.447 135.288 328.375V317.459C135.288 315.386 136.984 313.691 139.056 313.691H183.654C185.726 313.691 187.422 315.387 187.422 317.459V328.375C187.422 330.447 185.726 332.143 183.654 332.143Z" fill="#3030E8"/>
<path opacity="0.2" d="M162.905 323.676V322.157C162.905 321.274 163.621 320.559 164.503 320.559H178.954C179.837 320.559 180.552 321.275 180.552 322.157V323.676C180.552 324.559 179.836 325.274 178.954 325.274H164.503C163.621 325.274 162.905 324.558 162.905 323.676Z" fill="white"/>
<path d="M126.222 121.771C127.868 121.771 129.203 120.436 129.203 118.79C129.203 117.144 127.868 115.809 126.222 115.809C124.576 115.809 123.241 117.144 123.241 118.79C123.241 120.436 124.576 121.771 126.222 121.771Z" fill="#197BDD"/>
<path d="M117.704 121.771C119.35 121.771 120.685 120.436 120.685 118.79C120.685 117.144 119.35 115.809 117.704 115.809C116.058 115.809 114.723 117.144 114.723 118.79C114.723 120.436 116.058 121.771 117.704 121.771Z" fill="#197BDD"/>
<path d="M109.186 121.771C110.832 121.771 112.167 120.436 112.167 118.79C112.167 117.144 110.832 115.809 109.186 115.809C107.54 115.809 106.205 117.144 106.205 118.79C106.205 120.436 107.54 121.771 109.186 121.771Z" fill="#64B9FF"/>
<path d="M103.649 118.79C103.649 120.436 102.314 121.771 100.668 121.771C99.022 121.771 97.687 120.436 97.687 118.79C97.687 117.144 99.022 115.809 100.668 115.809C102.315 115.809 103.649 117.143 103.649 118.79Z" fill="#197BDD"/>
<path d="M126.222 150.932C127.868 150.932 129.203 149.597 129.203 147.951C129.203 146.305 127.868 144.97 126.222 144.97C124.576 144.97 123.241 146.305 123.241 147.951C123.241 149.597 124.576 150.932 126.222 150.932Z" fill="#197BDD"/>
<path d="M117.704 150.932C119.35 150.932 120.685 149.597 120.685 147.951C120.685 146.305 119.35 144.97 117.704 144.97C116.058 144.97 114.723 146.305 114.723 147.951C114.723 149.597 116.058 150.932 117.704 150.932Z" fill="#197BDD"/>
<path d="M109.186 150.932C110.832 150.932 112.167 149.597 112.167 147.951C112.167 146.305 110.832 144.97 109.186 144.97C107.54 144.97 106.205 146.305 106.205 147.951C106.205 149.597 107.54 150.932 109.186 150.932Z" fill="#197BDD"/>
<path d="M103.649 147.951C103.649 149.597 102.314 150.932 100.668 150.932C99.022 150.932 97.687 149.597 97.687 147.951C97.687 146.305 99.022 144.97 100.668 144.97C102.315 144.969 103.649 146.304 103.649 147.951Z" fill="#64B9FF"/>
<path d="M111.622 180.092C113.268 180.092 114.603 178.757 114.603 177.111C114.603 175.465 113.268 174.13 111.622 174.13C109.976 174.13 108.641 175.465 108.641 177.111C108.641 178.757 109.976 180.092 111.622 180.092Z" fill="#64B9FF"/>
<path d="M103.104 180.092C104.75 180.092 106.085 178.757 106.085 177.111C106.085 175.465 104.75 174.13 103.104 174.13C101.458 174.13 100.123 175.465 100.123 177.111C100.123 178.757 101.458 180.092 103.104 180.092Z" fill="#197BDD"/>
<path d="M94.586 180.092C96.2323 180.092 97.567 178.757 97.567 177.111C97.567 175.465 96.2323 174.13 94.586 174.13C92.9396 174.13 91.605 175.465 91.605 177.111C91.605 178.757 92.9396 180.092 94.586 180.092Z" fill="#64B9FF"/>
<path d="M86.068 180.092C87.7144 180.092 89.049 178.757 89.049 177.111C89.049 175.465 87.7144 174.13 86.068 174.13C84.4217 174.13 83.087 175.465 83.087 177.111C83.087 178.757 84.4217 180.092 86.068 180.092Z" fill="#197BDD"/>
<path d="M126.222 209.253C127.868 209.253 129.203 207.918 129.203 206.272C129.203 204.626 127.868 203.291 126.222 203.291C124.576 203.291 123.241 204.626 123.241 206.272C123.241 207.918 124.576 209.253 126.222 209.253Z" fill="#64B9FF"/>
<path d="M117.704 209.253C119.35 209.253 120.685 207.918 120.685 206.272C120.685 204.626 119.35 203.291 117.704 203.291C116.058 203.291 114.723 204.626 114.723 206.272C114.723 207.918 116.058 209.253 117.704 209.253Z" fill="#64B9FF"/>
<path d="M109.186 209.253C110.832 209.253 112.167 207.918 112.167 206.272C112.167 204.626 110.832 203.291 109.186 203.291C107.54 203.291 106.205 204.626 106.205 206.272C106.205 207.918 107.54 209.253 109.186 209.253Z" fill="#197BDD"/>
<path d="M103.649 206.272C103.649 207.918 102.314 209.253 100.668 209.253C99.022 209.253 97.687 207.918 97.687 206.272C97.687 204.626 99.022 203.291 100.668 203.291C102.315 203.291 103.649 204.626 103.649 206.272Z" fill="#197BDD"/>
<path d="M126.222 238.414C127.868 238.414 129.203 237.079 129.203 235.433C129.203 233.787 127.868 232.452 126.222 232.452C124.576 232.452 123.241 233.787 123.241 235.433C123.241 237.079 124.576 238.414 126.222 238.414Z" fill="#197BDD"/>
<path d="M117.704 238.414C119.35 238.414 120.685 237.079 120.685 235.433C120.685 233.787 119.35 232.452 117.704 232.452C116.058 232.452 114.723 233.787 114.723 235.433C114.723 237.079 116.058 238.414 117.704 238.414Z" fill="#64B9FF"/>
<path d="M109.186 238.414C110.832 238.414 112.167 237.079 112.167 235.433C112.167 233.787 110.832 232.452 109.186 232.452C107.54 232.452 106.205 233.787 106.205 235.433C106.205 237.079 107.54 238.414 109.186 238.414Z" fill="#197BDD"/>
<path d="M103.649 235.433C103.649 237.079 102.314 238.414 100.668 238.414C99.022 238.414 97.687 237.079 97.687 235.433C97.687 233.787 99.022 232.452 100.668 232.452C102.315 232.452 103.649 233.787 103.649 235.433Z" fill="#197BDD"/>
<path d="M126.222 267.575C127.868 267.575 129.203 266.24 129.203 264.594C129.203 262.948 127.868 261.613 126.222 261.613C124.576 261.613 123.241 262.948 123.241 264.594C123.241 266.24 124.576 267.575 126.222 267.575Z" fill="#197BDD"/>
<path d="M117.704 267.575C119.35 267.575 120.685 266.24 120.685 264.594C120.685 262.948 119.35 261.613 117.704 261.613C116.058 261.613 114.723 262.948 114.723 264.594C114.723 266.24 116.058 267.575 117.704 267.575Z" fill="#197BDD"/>
<path d="M109.186 267.575C110.832 267.575 112.167 266.24 112.167 264.594C112.167 262.948 110.832 261.613 109.186 261.613C107.54 261.613 106.205 262.948 106.205 264.594C106.205 266.24 107.54 267.575 109.186 267.575Z" fill="#64B9FF"/>
<path d="M103.649 264.594C103.649 266.24 102.314 267.575 100.668 267.575C99.022 267.575 97.687 266.24 97.687 264.594C97.687 262.948 99.022 261.613 100.668 261.613C102.315 261.613 103.649 262.948 103.649 264.594Z" fill="#64B9FF"/>
<path d="M129.203 293.755C129.203 295.402 127.868 296.736 126.222 296.736C124.576 296.736 123.241 295.401 123.241 293.755C123.241 292.109 124.576 290.774 126.222 290.774C127.868 290.774 129.203 292.109 129.203 293.755Z" fill="#64B9FF"/>
<path d="M120.685 293.755C120.685 295.402 119.35 296.736 117.704 296.736C116.058 296.736 114.723 295.401 114.723 293.755C114.723 292.109 116.058 290.774 117.704 290.774C119.351 290.774 120.685 292.109 120.685 293.755Z" fill="#197BDD"/>
<path d="M112.167 293.755C112.167 295.402 110.832 296.736 109.186 296.736C107.54 296.736 106.205 295.401 106.205 293.755C106.205 292.109 107.54 290.774 109.186 290.774C110.833 290.774 112.167 292.109 112.167 293.755Z" fill="#197BDD"/>
<path d="M103.649 293.755C103.649 295.402 102.314 296.736 100.668 296.736C99.022 296.736 97.687 295.401 97.687 293.755C97.687 292.109 99.022 290.774 100.668 290.774C102.315 290.774 103.649 292.109 103.649 293.755Z" fill="#197BDD"/>
<path d="M126.222 325.897C127.868 325.897 129.203 324.562 129.203 322.916C129.203 321.27 127.868 319.935 126.222 319.935C124.576 319.935 123.241 321.27 123.241 322.916C123.241 324.562 124.576 325.897 126.222 325.897Z" fill="#197BDD"/>
<path d="M117.704 325.897C119.35 325.897 120.685 324.562 120.685 322.916C120.685 321.27 119.35 319.935 117.704 319.935C116.058 319.935 114.723 321.27 114.723 322.916C114.723 324.562 116.058 325.897 117.704 325.897Z" fill="#197BDD"/>
<path d="M109.186 325.897C110.832 325.897 112.167 324.562 112.167 322.916C112.167 321.27 110.832 319.935 109.186 319.935C107.54 319.935 106.205 321.27 106.205 322.916C106.205 324.562 107.54 325.897 109.186 325.897Z" fill="#64B9FF"/>
<path d="M103.649 322.916C103.649 324.562 102.314 325.897 100.668 325.897C99.022 325.897 97.687 324.562 97.687 322.916C97.687 321.27 99.022 319.935 100.668 319.935C102.315 319.935 103.649 321.27 103.649 322.916Z" fill="#197BDD"/>
<path opacity="0.2" d="M91.744 118.79C91.744 122.357 88.853 125.248 85.286 125.248C81.719 125.248 78.828 122.357 78.828 118.79C78.828 115.223 81.719 112.332 85.286 112.332C88.852 112.332 91.744 115.223 91.744 118.79Z" fill="white"/>
<path opacity="0.2" d="M91.744 147.951C91.744 151.518 88.853 154.409 85.286 154.409C81.719 154.409 78.828 151.518 78.828 147.951C78.828 144.384 81.719 141.493 85.286 141.493C88.852 141.492 91.744 144.384 91.744 147.951Z" fill="white"/>
<path opacity="0.2" d="M77.1431 177.111C77.1431 180.678 74.2521 183.569 70.6851 183.569C67.1181 183.569 64.2271 180.678 64.2271 177.111C64.2271 173.544 67.1181 170.653 70.6851 170.653C74.2521 170.654 77.1431 173.545 77.1431 177.111Z" fill="white"/>
<path opacity="0.2" d="M91.744 206.272C91.744 209.839 88.853 212.73 85.286 212.73C81.719 212.73 78.828 209.839 78.828 206.272C78.828 202.705 81.719 199.814 85.286 199.814C88.852 199.814 91.744 202.706 91.744 206.272Z" fill="white"/>
<path opacity="0.2" d="M91.744 235.433C91.744 239 88.853 241.891 85.286 241.891C81.719 241.891 78.828 239 78.828 235.433C78.828 231.866 81.719 228.975 85.286 228.975C88.852 228.975 91.744 231.867 91.744 235.433Z" fill="white"/>
<path opacity="0.2" d="M91.744 264.594C91.744 268.161 88.853 271.052 85.286 271.052C81.719 271.052 78.828 268.161 78.828 264.594C78.828 261.027 81.719 258.136 85.286 258.136C88.852 258.136 91.744 261.028 91.744 264.594Z" fill="white"/>
<path opacity="0.2" d="M91.744 293.755C91.744 297.322 88.853 300.213 85.286 300.213C81.719 300.213 78.828 297.322 78.828 293.755C78.828 290.188 81.719 287.297 85.286 287.297C88.852 287.297 91.744 290.189 91.744 293.755Z" fill="white"/>
<path opacity="0.2" d="M91.744 322.916C91.744 326.483 88.853 329.374 85.286 329.374C81.719 329.374 78.828 326.483 78.828 322.916C78.828 319.349 81.719 316.458 85.286 316.458C88.852 316.458 91.744 319.349 91.744 322.916Z" fill="white"/>
<path d="M180.553 80.4769C179.674 75.5229 176.593 71.3249 172.363 68.9249C172.361 68.9239 172.358 68.9229 172.356 68.9209C172.359 68.7899 172.376 68.6639 172.376 68.5319C172.376 59.3109 164.901 51.8359 155.68 51.8359H149.286V53.1109C145.028 54.8839 141.664 58.3719 140.047 62.7129C139.506 62.6219 138.954 62.5639 138.387 62.5639C134.183 62.5639 130.594 65.1659 129.124 68.8449C127.005 68.3589 124.695 68.3759 122.241 69.3619C117.777 71.1549 114.614 75.4029 114.512 80.2139C114.37 86.9259 119.768 92.4119 126.448 92.4119C126.452 92.4119 126.456 92.4109 126.459 92.4109H150.047H171.661C176.607 92.4109 180.794 88.4899 180.823 83.5439C180.823 83.5109 180.824 83.4779 180.824 83.4449C180.822 82.4309 180.729 81.4389 180.553 80.4769Z" fill="#197BDD"/>
<path d="M174.159 80.4769C173.28 75.5229 170.198 71.3249 165.969 68.9259C165.967 68.9249 165.964 68.9229 165.962 68.9219C165.965 68.7919 165.982 68.6649 165.982 68.5339C165.982 59.3129 158.507 51.8379 149.286 51.8379C142.115 51.8379 136.018 56.3679 133.653 62.7149C133.112 62.6239 132.56 62.5659 131.993 62.5659C127.789 62.5659 124.2 65.1679 122.729 68.8469C120.61 68.3609 118.3 68.3779 115.846 69.3639C111.382 71.1569 108.218 75.4059 108.117 80.2159C107.975 86.9279 113.373 92.4139 120.053 92.4139C120.057 92.4139 120.061 92.4129 120.064 92.4129H143.652H165.266C170.212 92.4129 174.399 88.4919 174.428 83.5459C174.428 83.5129 174.428 83.4799 174.428 83.4469C174.428 82.4309 174.335 81.4379 174.159 80.4769Z" fill="#4EA4F9"/>
<path d="M150.506 41.323H149.669V43.833H150.506V41.323Z" fill="#0053CC"/>
<path d="M311.376 98.342H310.54V93.347H311.376V98.342ZM311.376 88.353H310.54V83.359H311.376V88.353ZM311.376 78.364H310.54V73.369H311.376V78.364ZM311.376 68.375H310.54V63.3801H311.376V68.375ZM311.376 58.386H310.54V53.391H311.376V58.386ZM311.376 48.397H310.54V43.402H311.376V48.397ZM311.376 38.408H310.54V33.414H311.376V38.408ZM150.506 36.329H149.669V32.889C149.669 32.354 149.701 31.816 149.763 31.289L150.594 31.388C150.535 31.882 150.506 32.386 150.506 32.889V36.329ZM309.813 28.646C309.271 27.12 308.451 25.727 307.375 24.507L308.002 23.953C309.149 25.254 310.024 26.739 310.602 28.366L309.813 28.646ZM152.055 26.811L151.321 26.41C152.151 24.894 153.249 23.566 154.585 22.462L155.118 23.107C153.863 24.143 152.832 25.389 152.055 26.811ZM303.572 21.566C302.125 20.835 300.569 20.394 298.95 20.255L299.02 19.421C300.748 19.568 302.406 20.039 303.949 20.818L303.572 21.566ZM159.333 20.805L159.079 20.008C160.403 19.587 161.784 19.373 163.184 19.373H164.135V20.21H163.184C161.871 20.21 160.575 20.41 159.333 20.805ZM293.994 20.21H288.999V19.373H293.994V20.21ZM284.005 20.21H279.011V19.373H284.005V20.21ZM274.016 20.21H269.022V19.373H274.016V20.21ZM264.026 20.21H259.032V19.373H264.026V20.21ZM254.038 20.21H249.043V19.373H254.038V20.21ZM244.049 20.21H239.054V19.373H244.049V20.21ZM234.06 20.21H229.066V19.373H234.06V20.21ZM224.07 20.21H219.076V19.373H224.07V20.21ZM214.081 20.21H209.087V19.373H214.081V20.21ZM204.092 20.21H199.097V19.373H204.092V20.21ZM194.103 20.21H189.109V19.373H194.103V20.21ZM184.114 20.21H179.119V19.373H184.114V20.21ZM174.125 20.21H169.13V19.373H174.125V20.21Z" fill="#0053CC"/>
<path d="M311.376 103.364H310.54V105.874H311.376V103.364Z" fill="#0053CC"/>
<path d="M244.203 344.644H251.55L252.336 327.632H244.99L244.203 344.644Z" fill="#FF8B7B"/>
<path d="M251.803 343.793H243.78C243.48 343.793 243.227 344.002 243.172 344.295L241.955 350.825C241.829 351.502 242.366 352.143 243.059 352.132C245.951 352.083 250.127 351.913 253.764 351.913C258.017 351.913 258.615 352.145 263.603 352.145C266.619 352.145 267.346 349.096 266.074 348.82C260.282 347.563 258.668 347.428 253.592 344.366C253.042 344.033 252.438 343.793 251.803 343.793Z" fill="#14365B"/>
<path d="M252.335 327.636L251.93 336.405H244.581L244.985 327.636H252.335Z" fill="#EA7063"/>
<path d="M293.444 100.12C293.301 102.427 293.142 104.956 293.073 107.378C293.013 109.824 292.945 112.261 292.984 114.674C293.002 117.081 293.1 119.476 293.306 121.778C293.497 124.079 293.851 126.32 294.363 128.213C294.609 129.164 294.938 129.978 295.229 130.534C295.262 130.64 295.47 130.947 295.607 131.173L296.061 131.9C296.352 132.386 296.704 132.869 297.017 133.361C298.326 135.316 299.784 137.255 301.278 139.2C304.296 143.054 307.546 146.945 310.756 150.748L306.93 155.223C302.461 152.32 298.371 149.112 294.456 145.49C292.502 143.681 290.626 141.756 288.819 139.677C288.369 139.149 287.91 138.646 287.486 138.076L286.838 137.241C286.614 136.942 286.43 136.745 286.149 136.295C285.087 134.691 284.399 133.143 283.868 131.669C282.809 128.708 282.28 125.901 281.864 123.145C281.453 120.386 281.272 117.684 281.132 114.997C281.04 112.314 280.998 109.651 281.1 107.002C281.197 104.328 281.309 101.765 281.611 98.9929L293.444 100.12Z" fill="#FF8B7B"/>
<path d="M296.04 115.18L292.92 116.43L287.67 118.52L278.35 122.25C278.35 122.25 274.1 100.14 276.39 93.42C278.91 86.04 287.81 86.21 292.62 94.62C297.3 102.82 296.04 115.18 296.04 115.18Z" fill="#9FC6FF"/>
<path d="M292.459 116.613L287.67 118.52C286.87 115.05 286.13 109.24 288.5 104.89C291.736 107.597 292.239 113.074 292.459 116.613Z" fill="#77B3FC"/>
<path d="M287.7 147.33H247.49C247.2 143.72 248.11 133.94 247.51 120.62C247.37 117.55 247.15 114.3 246.82 110.89C246.14 103.8 244.96 96.04 243 87.89C243 87.89 249.85 86.5 256.4 86.19C261.53 85.94 268.96 85.78 273.5 86.19C279.47 86.73 285.16 88.33 285.16 88.33C285.16 88.33 294.61 105.06 287.7 147.33Z" fill="#9FC6FF"/>
<path d="M247.51 120.62C247.37 117.55 247.15 114.3 246.82 110.89C248.12 110.08 249.82 110.03 250.17 114.79C250.49 119.19 248.95 120.41 247.51 120.62Z" fill="#77B3FC"/>
<path d="M322.172 156.107L316.372 159.722L309.206 158.189L314.907 151.116L322.172 156.107Z" fill="#FF8B7B"/>
<path d="M308.214 150.041L314.908 151.117L309.206 158.189C309.206 158.189 305.632 157.832 304.661 152.994L308.214 150.041Z" fill="#FF8B7B"/>
<path d="M257.406 66.9409C258.682 72.4409 260.119 82.5169 256.403 86.1869C256.403 86.1869 258.266 89.8749 268.485 89.8749C277.823 89.8749 273.495 86.1879 273.495 86.1879C267.31 84.7239 267.305 80.1739 268.22 75.9009L257.406 66.9409Z" fill="#FF8B7B"/>
<path d="M261.815 70.5969L268.215 75.8959C267.995 76.9069 267.832 77.9329 267.797 78.9299C265.848 80.8279 262.131 76.0199 261.795 73.5669C261.627 72.3419 261.636 71.1669 261.815 70.5969Z" fill="#EA7063"/>
<path d="M279.239 52.95C281.804 56.133 278.811 66.153 273.509 65.899C268.208 65.646 274.381 46.922 279.239 52.95Z" fill="#0F264C"/>
<path d="M258.496 57.8019C257.922 65.2149 257.208 69.5109 260.408 73.9279C265.222 80.5709 274.802 78.8049 277.589 71.7929C280.097 65.4809 280.615 54.4179 273.799 50.2359C267.084 46.1149 259.07 50.3889 258.496 57.8019Z" fill="#FF8B7B"/>
<path d="M255.823 48.4719L263.831 51.3049C260.316 56.0019 265.416 67.0569 259.216 64.9919C256.374 64.0459 247.107 53.8149 255.823 48.4719Z" fill="#0F264C"/>
<path d="M259.697 50.389C262.721 52.611 275.01 55.25 282.037 51.333C280.218 50.944 277.85 49.75 277.85 49.75C277.85 49.75 283.11 49.5 285.443 45.611C280.429 46.375 277.05 44.944 275.784 44.389C278.076 43.889 280.497 41.527 281.152 39.833C271.44 39.952 250.532 41.916 254.194 48.75C257.856 55.583 259.697 50.389 259.697 50.389Z" fill="#0F264C"/>
<path d="M255.498 49.49C255.498 49.49 253.079 48.378 251.547 46.658C251.087 47.806 251.094 50.921 255.498 49.49Z" fill="#0F264C"/>
<path d="M254.03 65.3029C254.841 67.1719 256.427 68.5239 257.978 69.1529C260.311 70.0999 261.682 68.1139 261.204 65.7909C260.774 63.6999 259.041 60.6879 256.617 60.7279C254.229 60.7689 253.103 63.1659 254.03 65.3029Z" fill="#FF8B7B"/>
<path d="M266.747 344.644H274.093L275.614 327.632H268.267L266.747 344.644Z" fill="#FF8B7B"/>
<path d="M274.428 343.793H266.405C266.105 343.793 265.852 344.002 265.798 344.295L264.581 350.825C264.455 351.502 264.992 352.143 265.685 352.132C268.577 352.083 272.753 351.913 276.391 351.913C280.644 351.913 284.326 352.145 289.313 352.145C292.329 352.145 293.056 349.096 291.784 348.82C285.992 347.563 281.294 347.428 276.218 344.366C275.667 344.033 275.062 343.793 274.428 343.793Z" fill="#14365B"/>
<path d="M275.612 327.636L274.83 336.405H267.48L268.262 327.636H275.612Z" fill="#EA7063"/>
<path d="M277.499 344.919C278.068 345.008 278.611 344.996 278.983 344.767C279.278 344.585 279.44 344.291 279.462 343.894C279.48 343.599 279.341 343.435 279.22 343.349C278.454 342.8 275.858 343.891 275.564 344.016C275.499 344.045 275.459 344.11 275.461 344.182C275.464 344.252 275.51 344.317 275.577 344.344C276.082 344.552 276.809 344.811 277.499 344.919ZM278.796 343.557C278.889 343.571 278.964 343.597 279.02 343.637C279.065 343.669 279.114 343.723 279.106 343.861C279.09 344.144 278.986 344.341 278.788 344.462C278.339 344.74 277.358 344.632 276.121 344.179C277.024 343.826 278.224 343.467 278.796 343.557Z" fill="#407BFF"/>
<path d="M275.619 344.358C275.648 344.363 275.678 344.36 275.706 344.351C276.53 344.055 278.222 342.663 278.165 341.809C278.155 341.655 278.076 341.378 277.658 341.26C277.385 341.182 277.125 341.22 276.877 341.367C275.923 341.936 275.483 344.051 275.465 344.14C275.452 344.204 275.475 344.27 275.526 344.313C275.553 344.337 275.585 344.352 275.619 344.358ZM277.493 341.584C277.519 341.588 277.545 341.595 277.573 341.602C277.8 341.666 277.807 341.775 277.81 341.82C277.844 342.324 276.742 343.404 275.903 343.863C276.067 343.25 276.458 342.039 277.069 341.674C277.208 341.591 277.348 341.561 277.493 341.584Z" fill="#407BFF"/>
<path d="M264.708 334.3H276.658C276.658 334.3 295.074 263.98 294.718 240.13C294.375 217.19 287.697 147.33 287.697 147.33H261.267C261.267 147.33 263.325 162.87 265.663 182.04C267.75 198.96 270.05 218.73 271.367 233.13C271.751 237.41 272.057 241.21 272.239 244.33C273.609 267.75 264.708 334.3 264.708 334.3Z" fill="#3030E8"/>
<path d="M265.663 182.04C267.75 198.96 270.05 218.73 271.367 233.13C274.156 220.56 280.974 184.02 270.751 165.54C268.192 169.19 266.628 175.5 265.663 182.04Z" fill="#00006A"/>
<path d="M273.435 147.333C273.435 147.333 272.441 214.699 268.53 236.222C264.247 259.791 255.726 334.301 255.726 334.301H241.957C241.957 334.301 243.965 261.694 246.054 238.359C248.321 213.032 247.489 147.334 247.489 147.334H273.435V147.333Z" fill="#3030E8"/>
<path d="M241.436 334.597H256.27L257.362 329L240.927 328.542L241.436 334.597Z" fill="#0F264C"/>
<path d="M264.031 334.597H278.864L279.956 329L263.584 329.285L264.031 334.597Z" fill="#0F264C"/>
<path d="M247.215 326.166C247.208 326.166 247.201 326.165 247.194 326.164C247.124 326.153 247.074 326.087 247.083 326.017C247.174 325.321 248.2 260.164 250.077 239.202C252.114 216.451 250.839 156.089 250.882 155.582C250.888 155.512 250.951 155.466 251.02 155.47C251.091 155.478 251.143 155.542 251.137 155.612C251.095 156.119 252.369 216.482 250.332 239.234C248.455 260.199 247.428 325.362 247.337 326.059C247.33 326.122 247.277 326.166 247.215 326.166Z" fill="#9FC6FF"/>
<path d="M269.407 61.876C269.323 62.473 269.574 63.013 269.967 63.082C270.36 63.151 270.746 62.722 270.83 62.125C270.914 61.528 270.663 60.988 270.27 60.919C269.877 60.851 269.491 61.279 269.407 61.876Z" fill="#0F264C"/>
<path d="M276.339 62.7079C276.255 63.3049 276.506 63.8449 276.899 63.9139C277.292 63.9829 277.678 63.5539 277.762 62.9569C277.846 62.3599 277.595 61.8199 277.202 61.7509C276.809 61.6819 276.422 62.1109 276.339 62.7079Z" fill="#0F264C"/>
<path d="M273.995 62.917C273.995 62.917 274.879 66.601 276.15 68.526C274.949 69.326 273.204 68.559 273.204 68.559L273.995 62.917Z" fill="#FF5652"/>
<path d="M271.952 70.9549C272.05 70.9679 272.137 70.8989 272.147 70.8019C272.156 70.7049 272.085 70.6149 271.987 70.6019C269.336 70.2479 268.28 68.2399 268.27 68.2199C268.223 68.1309 268.115 68.0929 268.03 68.1359C267.943 68.1779 267.909 68.2839 267.955 68.3729C268 68.4619 269.111 70.5749 271.952 70.9549Z" fill="#0F264C"/>
<path d="M267.584 57.563C267.689 57.591 267.804 57.572 267.893 57.501C269.114 56.528 270.373 56.943 270.385 56.948C270.559 57.015 270.773 56.915 270.83 56.728C270.888 56.542 270.782 56.339 270.594 56.275C270.528 56.252 268.951 55.73 267.436 56.938C267.285 57.059 267.265 57.282 267.39 57.437C267.442 57.501 267.511 57.544 267.584 57.563Z" fill="#0F264C"/>
<path d="M248.915 86.5269L250.808 86.3619C250.998 86.3459 251.175 86.4769 251.217 86.6639C257.518 115.032 255.633 145.147 255.633 145.147H253.539C254.13 113.898 249.304 90.2329 248.598 86.9509C248.552 86.7389 248.7 86.5459 248.915 86.5269Z" fill="#3030E8"/>
<path d="M253.934 145.824H255.384C255.756 145.824 256.049 145.52 256.036 145.148C256.023 144.776 255.707 144.472 255.335 144.472H253.885C253.513 144.472 253.22 144.776 253.233 145.148C253.247 145.52 253.562 145.824 253.934 145.824Z" fill="#3030E8"/>
<path d="M255.607 147.587L255.539 145.69C255.521 145.203 255.109 144.805 254.622 144.805C254.135 144.805 253.752 145.203 253.769 145.69L253.837 147.587C253.854 148.074 254.267 148.472 254.754 148.472C255.24 148.472 255.624 148.074 255.607 147.587Z" fill="#3030E8"/>
<path d="M279.474 59.1149C279.525 59.1239 279.579 59.1219 279.632 59.1049C279.817 59.0499 279.918 58.8499 279.858 58.6589C279.256 56.7479 277.691 56.2499 277.625 56.2299C277.444 56.1669 277.244 56.2799 277.193 56.4709C277.142 56.6609 277.253 56.8609 277.439 56.9189C277.491 56.9349 278.707 57.3369 279.188 58.8619C279.23 58.9969 279.345 59.0919 279.474 59.1149Z" fill="#0F264C"/>
<path d="M247.526 99.7601C246.377 104.473 245.224 109.375 244.196 114.141C243.705 116.535 243.224 118.914 242.85 121.254C242.503 123.57 242.193 125.905 242.217 127.802C242.275 131.649 243.673 135.464 246.29 138.939C247.583 140.673 249.142 142.316 250.868 143.835C251.729 144.598 252.629 145.342 253.571 146.03C254.041 146.375 254.52 146.711 255.004 147.031C255.464 147.351 256.011 147.699 256.387 147.941L254.205 153.41C253.407 153.166 252.81 152.963 252.134 152.714C251.485 152.461 250.847 152.191 250.213 151.908C248.947 151.34 247.706 150.711 246.492 150.009C244.081 148.583 241.775 146.879 239.688 144.818C237.603 142.763 235.745 140.337 234.326 137.577C232.922 134.821 231.966 131.734 231.629 128.599C231.336 125.421 231.43 122.668 231.655 119.941C231.892 117.237 232.224 114.599 232.652 111.996C233.499 106.775 234.617 101.765 236.052 96.6521L247.526 99.7601Z" fill="#FF8B7B"/>
<path d="M243.005 87.887C235.049 89.313 230.552 110.556 230.552 110.556L250.209 117.591C250.209 117.591 251.708 110.636 250.233 101.417C248.787 92.372 250.546 86.535 243.005 87.887Z" fill="#9FC6FF"/>
<path d="M280.762 86.908L282.654 87.263C282.811 87.292 282.937 87.419 282.965 87.577C287.966 115.959 284.648 145.148 284.648 145.148H282.554C284.572 114.256 280.96 90.985 280.343 87.318C280.3 87.069 280.513 86.861 280.762 86.908Z" fill="#3030E8"/>
<path d="M282.916 145.824H284.366C284.738 145.824 285.045 145.52 285.049 145.148C285.053 144.776 284.752 144.472 284.38 144.472H282.93C282.558 144.472 282.251 144.776 282.247 145.148C282.244 145.52 282.545 145.824 282.916 145.824Z" fill="#0F264C"/>
<path d="M284.508 147.587L284.528 145.69C284.533 145.203 284.139 144.805 283.653 144.805C283.166 144.805 282.764 145.203 282.759 145.69L282.739 147.587C282.734 148.074 283.128 148.472 283.614 148.472C284.1 148.472 284.503 148.074 284.508 147.587Z" fill="#0F264C"/>
<path d="M254.875 344.919C255.444 345.008 255.987 344.996 256.359 344.767C256.654 344.585 256.816 344.291 256.838 343.894C256.856 343.599 256.717 343.435 256.596 343.349C255.83 342.8 253.234 343.891 252.94 344.016C252.875 344.045 252.835 344.11 252.837 344.182C252.84 344.252 252.886 344.317 252.953 344.344C253.457 344.552 254.185 344.811 254.875 344.919ZM256.172 343.557C256.265 343.571 256.34 343.597 256.396 343.637C256.441 343.669 256.49 343.723 256.482 343.861C256.466 344.144 256.362 344.341 256.164 344.462C255.715 344.74 254.734 344.632 253.497 344.179C254.399 343.826 255.6 343.467 256.172 343.557Z" fill="#407BFF"/>
<path d="M252.994 344.358C253.023 344.363 253.053 344.36 253.081 344.351C253.905 344.055 255.597 342.663 255.54 341.809C255.53 341.655 255.45 341.378 255.033 341.26C254.76 341.182 254.5 341.22 254.252 341.367C253.298 341.936 252.858 344.051 252.84 344.14C252.827 344.204 252.85 344.27 252.901 344.313C252.928 344.337 252.96 344.352 252.994 344.358ZM254.869 341.584C254.895 341.588 254.921 341.595 254.949 341.602C255.176 341.666 255.183 341.775 255.186 341.82C255.22 342.324 254.118 343.404 253.279 343.863C253.443 343.25 253.833 342.039 254.445 341.674C254.583 341.591 254.723 341.561 254.869 341.584Z" fill="#407BFF"/>
<path d="M250.447 151.963L252.749 147.779L259.062 148L263.969 150.041L267.312 154.961L258.727 154.436C258.727 154.436 253.474 155.929 250.447 151.963Z" fill="#FF8B7B"/>
<path d="M267.868 89.8699L266.364 88.8059L263.347 91.8129L267.868 89.8699Z" fill="#77B3FC"/>
<path d="M266.364 88.8061C266.364 88.8061 263.91 92.4171 263.504 95.0281C260.375 93.7501 254.434 90.5481 253.494 86.0281C254.68 85.7861 256.627 84.5281 256.627 84.5281C256.627 84.5281 259.833 87.1671 266.364 88.8061Z" fill="#3030E8"/>
<path d="M267.868 89.8701L268.429 88.6431L272.583 91.8131L267.868 89.8701Z" fill="#77B3FC"/>
<path d="M268.429 88.643C268.429 88.643 271.116 90.986 271.606 94.396C274.644 93.118 275.702 88.945 274.797 86.167C273.084 85.365 271.101 84.969 271.101 84.969C271.101 84.969 271.517 87.667 268.429 88.643Z" fill="#3030E8"/>
<path d="M340.446 118.435L277.48 116.209L268.372 153.022L331.339 155.247L340.446 118.435Z" fill="#318FFF"/>
<path d="M342.384 118.503L279.418 116.277L270.311 153.09L333.277 155.316L342.384 118.503Z" fill="#0F264C"/>
<path d="M333.277 155.316L333.023 157.36L270.054 155.134L270.307 153.09L333.277 155.316Z" fill="#0F264C"/>
<path d="M270.307 153.09L270.054 155.134L245.34 154.26L245.593 152.216L270.307 153.09Z" fill="#318FFF"/>
</svg>
