<svg width="415" height="512" viewBox="0 0 415 512" fill="none" xmlns="http://www.w3.org/2000/svg">
<path d="M268.892 12.5231C299.752 -9.35092 342.99 -2.2539 360.376 31.3403C395.196 98.6225 414.864 175.014 414.864 256C414.864 336.986 395.196 413.377 360.375 480.66C342.99 514.254 299.752 521.351 268.892 499.477C237.994 477.577 231.437 434.929 246.97 400.388C250.556 392.413 253.743 384.297 256.812 376.112C266.02 350.71 248.804 324.569 222.373 318.965C195.903 313.353 170.324 330.58 159.74 355.482C148.624 381.631 133.263 405.538 114.518 426.338C107.933 433.645 100.93 440.568 93.5479 447.071C65.188 472.049 23.3574 457.404 6.76097 423.451C-9.88112 389.405 7.09089 348.502 26.4497 315.924C36.875 298.38 42.8618 277.889 42.8618 256C42.8618 234.287 36.9708 213.949 26.7 196.499C7.53974 163.945 -9.21702 123.194 7.37154 89.2573C24.0407 55.1559 66.1038 40.5183 94.4673 65.743C101.624 72.1074 108.419 78.8694 114.817 85.9944C133.426 106.716 148.685 130.508 159.74 156.518L159.773 156.596C170.378 181.456 195.931 198.641 222.373 193.035C248.804 187.431 266.02 161.289 256.812 135.887C253.833 127.678 250.552 119.576 246.97 111.612C231.438 77.0712 237.994 34.4235 268.892 12.5231Z" fill="#002DE5"/>
</svg>
