<svg width="232" height="41" viewBox="0 0 232 41" fill="none" xmlns="http://www.w3.org/2000/svg">
<path d="M14.76 6.96C17.32 6.96 19.3467 7.82666 20.84 9.56C22.36 11.2667 23.12 13.5867 23.12 16.52V29.6H15.28V17.56C15.28 16.28 14.9467 15.28 14.28 14.56C13.6133 13.8133 12.72 13.44 11.6 13.44C10.4267 13.44 9.50667 13.8133 8.84 14.56C8.17334 15.28 7.84 16.28 7.84 17.56V29.6H0V0H7.84V10.36C8.53334 9.34666 9.46667 8.53333 10.64 7.92C11.84 7.28 13.2133 6.96 14.76 6.96Z" fill="black"/>
<path d="M48.3819 7.16L34.1419 40.28H25.6219L30.9819 28.64L21.7819 7.16H30.5019L35.2219 19.88L39.7819 7.16H48.3819Z" fill="black"/>
<path d="M56.0728 10.28C56.6861 9.24 57.5528 8.41333 58.6728 7.8C59.7928 7.18667 61.1128 6.88 62.6328 6.88C64.4195 6.88 66.0328 7.34667 67.4728 8.28C68.9395 9.21333 70.0861 10.5467 70.9128 12.28C71.7661 14.0133 72.1928 16.04 72.1928 18.36C72.1928 20.68 71.7661 22.72 70.9128 24.48C70.0861 26.2133 68.9395 27.5467 67.4728 28.48C66.0328 29.4133 64.4195 29.88 62.6328 29.88C61.1128 29.88 59.7928 29.5733 58.6728 28.96C57.5795 28.3467 56.7128 27.52 56.0728 26.48V40.32H48.2328V7.16H56.0728V10.28ZM64.2328 18.36C64.2328 16.8933 63.8328 15.76 63.0328 14.96C62.2595 14.1333 61.2995 13.72 60.1528 13.72C59.0062 13.72 58.0328 14.1333 57.2328 14.96C56.4595 15.7867 56.0728 16.92 56.0728 18.36C56.0728 19.8267 56.4595 20.9733 57.2328 21.8C58.0328 22.6267 59.0062 23.04 60.1528 23.04C61.2995 23.04 62.2595 22.6267 63.0328 21.8C63.8328 20.9467 64.2328 19.8 64.2328 18.36Z" fill="black"/>
<path d="M95.6603 18.12C95.6603 18.7333 95.6203 19.3467 95.5403 19.96H80.7003C80.7803 21.1867 81.1137 22.1067 81.7003 22.72C82.3137 23.3067 83.087 23.6 84.0203 23.6C85.327 23.6 86.2603 23.0133 86.8203 21.84H95.1803C94.8336 23.3867 94.1537 24.7733 93.1403 26C92.1537 27.2 90.9003 28.1467 89.3803 28.84C87.8603 29.5333 86.1803 29.88 84.3403 29.88C82.127 29.88 80.1537 29.4133 78.4203 28.48C76.7137 27.5467 75.367 26.2133 74.3803 24.48C73.4203 22.7467 72.9403 20.7067 72.9403 18.36C72.9403 16.0133 73.4203 13.9867 74.3803 12.28C75.3403 10.5467 76.6737 9.21333 78.3803 8.28C80.1137 7.34667 82.1003 6.88 84.3403 6.88C86.5537 6.88 88.5137 7.33333 90.2203 8.24C91.927 9.14667 93.2603 10.4533 94.2203 12.16C95.1803 13.84 95.6603 15.8267 95.6603 18.12ZM87.6603 16.16C87.6603 15.2 87.3403 14.4533 86.7003 13.92C86.0603 13.36 85.2603 13.08 84.3003 13.08C83.3403 13.08 82.5537 13.3467 81.9403 13.88C81.327 14.3867 80.927 15.1467 80.7403 16.16H87.6603Z" fill="black"/>
<path d="M104.509 11.12C105.389 9.84 106.455 8.82666 107.709 8.08C108.962 7.33333 110.309 6.96 111.749 6.96V15.32H109.549C107.842 15.32 106.575 15.6533 105.749 16.32C104.922 16.9867 104.509 18.1467 104.509 19.8V29.6H96.6687V7.16H104.509V11.12Z" fill="black"/>
<path d="M128.039 6.96C130.626 6.96 132.679 7.82666 134.199 9.56C135.719 11.2667 136.479 13.5867 136.479 16.52V29.6H128.639V17.56C128.639 16.28 128.306 15.28 127.639 14.56C126.973 13.8133 126.079 13.44 124.959 13.44C123.786 13.44 122.866 13.8133 122.199 14.56C121.533 15.28 121.199 16.28 121.199 17.56V29.6H113.359V7.16H121.199V10.36C121.893 9.34666 122.826 8.53333 123.999 7.92C125.173 7.28 126.519 6.96 128.039 6.96Z" fill="black"/>
<path d="M149.021 29.88C146.781 29.88 144.768 29.4133 142.981 28.48C141.221 27.5467 139.835 26.2133 138.821 24.48C137.808 22.7467 137.301 20.7067 137.301 18.36C137.301 16.04 137.808 14.0133 138.821 12.28C139.861 10.5467 141.261 9.21333 143.021 8.28C144.808 7.34667 146.821 6.88 149.061 6.88C151.301 6.88 153.301 7.34667 155.061 8.28C156.848 9.21333 158.248 10.5467 159.261 12.28C160.301 14.0133 160.821 16.04 160.821 18.36C160.821 20.68 160.301 22.72 159.261 24.48C158.248 26.2133 156.848 27.5467 155.061 28.48C153.275 29.4133 151.261 29.88 149.021 29.88ZM149.021 23.08C150.115 23.08 151.021 22.68 151.741 21.88C152.488 21.0533 152.861 19.88 152.861 18.36C152.861 16.84 152.488 15.68 151.741 14.88C151.021 14.08 150.128 13.68 149.061 13.68C147.995 13.68 147.101 14.08 146.381 14.88C145.661 15.68 145.301 16.84 145.301 18.36C145.301 19.9067 145.648 21.08 146.341 21.88C147.035 22.68 147.928 23.08 149.021 23.08Z" fill="black"/>
<path d="M176.051 22.92V29.6H172.651C166.918 29.6 164.051 26.76 164.051 21.08V13.68H161.291V7.16H164.051V1.72H171.931V7.16H176.011V13.68H171.931V21.2C171.931 21.8133 172.064 22.2533 172.331 22.52C172.624 22.7867 173.104 22.92 173.771 22.92H176.051Z" fill="black"/>
<path d="M199.887 18.12C199.887 18.7333 199.847 19.3467 199.767 19.96H184.927C185.007 21.1867 185.34 22.1067 185.927 22.72C186.54 23.3067 187.314 23.6 188.247 23.6C189.554 23.6 190.487 23.0133 191.047 21.84H199.407C199.06 23.3867 198.38 24.7733 197.367 26C196.38 27.2 195.127 28.1467 193.607 28.84C192.087 29.5333 190.407 29.88 188.567 29.88C186.354 29.88 184.38 29.4133 182.647 28.48C180.94 27.5467 179.594 26.2133 178.607 24.48C177.647 22.7467 177.167 20.7067 177.167 18.36C177.167 16.0133 177.647 13.9867 178.607 12.28C179.567 10.5467 180.9 9.21333 182.607 8.28C184.34 7.34667 186.327 6.88 188.567 6.88C190.78 6.88 192.74 7.33333 194.447 8.24C196.154 9.14667 197.487 10.4533 198.447 12.16C199.407 13.84 199.887 15.8267 199.887 18.12ZM191.887 16.16C191.887 15.2 191.567 14.4533 190.927 13.92C190.287 13.36 189.487 13.08 188.527 13.08C187.567 13.08 186.78 13.3467 186.167 13.88C185.554 14.3867 185.154 15.1467 184.967 16.16H191.887Z" fill="black"/>
<path d="M211.455 29.88C209.429 29.88 207.615 29.5467 206.015 28.88C204.442 28.1867 203.189 27.2533 202.255 26.08C201.349 24.88 200.842 23.5333 200.735 22.04H208.335C208.442 22.76 208.775 23.32 209.335 23.72C209.895 24.12 210.589 24.32 211.415 24.32C212.055 24.32 212.562 24.1867 212.935 23.92C213.309 23.6533 213.495 23.3067 213.495 22.88C213.495 22.32 213.189 21.9067 212.575 21.64C211.962 21.3733 210.949 21.08 209.535 20.76C207.935 20.44 206.602 20.08 205.535 19.68C204.469 19.28 203.535 18.6267 202.735 17.72C201.962 16.8133 201.575 15.5867 201.575 14.04C201.575 12.7067 201.935 11.5067 202.655 10.44C203.375 9.34667 204.429 8.48 205.815 7.84C207.229 7.2 208.922 6.88 210.895 6.88C213.829 6.88 216.135 7.6 217.815 9.04C219.495 10.48 220.469 12.3733 220.735 14.72H213.655C213.522 14 213.202 13.4533 212.695 13.08C212.215 12.68 211.562 12.48 210.735 12.48C210.095 12.48 209.602 12.6 209.255 12.84C208.935 13.08 208.775 13.4133 208.775 13.84C208.775 14.3733 209.082 14.7867 209.695 15.08C210.309 15.3467 211.295 15.6267 212.655 15.92C214.282 16.2667 215.629 16.6533 216.695 17.08C217.789 17.5067 218.735 18.2 219.535 19.16C220.362 20.0933 220.775 21.3733 220.775 23C220.775 24.3067 220.389 25.48 219.615 26.52C218.869 27.56 217.789 28.3867 216.375 29C214.989 29.5867 213.349 29.88 211.455 29.88Z" fill="black"/>
<path d="M225.734 0C226.774 0 227.701 0.234 228.516 0.702C229.348 1.17 229.989 1.82 230.44 2.652C230.908 3.46667 231.142 4.394 231.142 5.434C231.142 6.474 230.908 7.41 230.44 8.242C229.989 9.05667 229.348 9.698 228.516 10.166C227.701 10.634 226.774 10.868 225.734 10.868C224.694 10.868 223.758 10.634 222.926 10.166C222.111 9.698 221.47 9.05667 221.002 8.242C220.534 7.41 220.3 6.474 220.3 5.434C220.3 4.394 220.534 3.46667 221.002 2.652C221.47 1.82 222.111 1.17 222.926 0.702C223.758 0.234 224.694 0 225.734 0ZM225.734 9.672C226.982 9.672 227.979 9.282 228.724 8.502C229.487 7.722 229.868 6.69933 229.868 5.434C229.868 4.16867 229.487 3.146 228.724 2.366C227.979 1.586 226.982 1.196 225.734 1.196C224.469 1.196 223.463 1.586 222.718 2.366C221.973 3.146 221.6 4.16867 221.6 5.434C221.6 6.69933 221.973 7.722 222.718 8.502C223.463 9.282 224.469 9.672 225.734 9.672ZM228.126 4.394C228.126 4.77533 228.031 5.11333 227.84 5.408C227.649 5.68533 227.389 5.89333 227.06 6.032L228.438 8.164H226.462L225.318 6.214H225.136V8.164H223.498V2.574H226.124C226.731 2.574 227.216 2.74733 227.58 3.094C227.944 3.42333 228.126 3.85667 228.126 4.394ZM225.136 4.888H226.02C226.159 4.888 226.271 4.85333 226.358 4.784C226.462 4.69733 226.514 4.58467 226.514 4.446C226.514 4.30733 226.462 4.20333 226.358 4.134C226.271 4.06467 226.159 4.03 226.02 4.03H225.136V4.888Z" fill="black"/>
</svg>
