<svg width="140" height="98" viewBox="0 0 140 98" fill="none" xmlns="http://www.w3.org/2000/svg">
<path d="M28 55.2493C28 71.9445 28 98 28 98H0V0H28V29.684C28 29.684 28 45.2654 28 55.2493Z" fill="white"/>
<path d="M85.7007 17C94.9867 17 102.358 20.1007 107.815 26.3021C113.272 32.4081 116 40.7085 116 51.2032V98H87.8547V54.924C87.8547 50.3445 86.658 46.7668 84.2647 44.1908C81.8714 41.5194 78.6644 40.1837 74.6436 40.1837C70.4314 40.1837 67.1287 41.5194 64.7353 44.1908C62.342 46.7668 61.1453 50.3445 61.1453 54.924V98H33V17.7155H61.1453V29.1643C63.6344 25.5389 66.985 22.629 71.1972 20.4346C75.4095 18.1449 80.2439 17 85.7007 17Z" fill="white"/>
<path d="M82.4043 98V55.4165C82.4043 51.7548 81.4743 49.6243 80.2657 48.3088L80.2329 48.2731L80.2007 48.2367C78.9671 46.8445 77.3103 46.0156 74.6424 46.0156C71.6985 46.0156 69.9828 46.9011 68.7994 48.2367L68.7672 48.2731L68.7343 48.3088C67.5257 49.6243 66.5957 51.7548 66.5957 55.4165V98H82.4043Z" fill="white"/>
<path d="M126.757 0C129.304 0 131.575 0.56875 133.57 1.70625C135.607 2.84375 137.178 4.42361 138.281 6.44583C139.427 8.42593 140 10.6799 140 13.2076C140 15.7354 139.427 18.0104 138.281 20.0326C137.178 22.0127 135.607 23.5715 133.57 24.709C131.575 25.8465 129.304 26.4153 126.757 26.4153C124.211 26.4153 121.919 25.8465 119.881 24.709C117.887 23.5715 116.316 22.0127 115.17 20.0326C114.024 18.0104 113.451 15.7354 113.451 13.2076C113.451 10.6799 114.024 8.42593 115.17 6.44583C116.316 4.42361 117.887 2.84375 119.881 1.70625C121.919 0.56875 124.211 0 126.757 0ZM126.757 23.5083C129.813 23.5083 132.254 22.5604 134.079 20.6646C135.947 18.7688 136.88 16.2831 136.88 13.2076C136.88 10.1322 135.947 7.64653 134.079 5.7507C132.254 3.85486 129.813 2.90694 126.757 2.90694C123.659 2.90694 121.197 3.85486 119.372 5.7507C117.547 7.64653 116.634 10.1322 116.634 13.2076C116.634 16.2831 117.547 18.7688 119.372 20.6646C121.197 22.5604 123.659 23.5083 126.757 23.5083ZM132.615 10.6799C132.615 11.6067 132.381 12.4282 131.914 13.1444C131.448 13.8185 130.811 14.3241 130.004 14.6611L133.379 19.8431H128.54L125.739 15.1035H125.293V19.8431H121.282V6.25625H127.712C129.198 6.25625 130.386 6.67755 131.278 7.52014C132.169 8.3206 132.615 9.37384 132.615 10.6799ZM125.293 11.8806H127.458C127.797 11.8806 128.073 11.7963 128.285 11.6278C128.54 11.4171 128.667 11.1433 128.667 10.8063C128.667 10.4692 128.54 10.2164 128.285 10.0479C128.073 9.8794 127.797 9.79514 127.458 9.79514H125.293V11.8806Z" fill="white"/>
</svg>
