<?xml version="1.0" standalone="no"?>
<!DOCTYPE svg PUBLIC "-//W3C//DTD SVG 20010904//EN"
 "http://www.w3.org/TR/2001/REC-SVG-20010904/DTD/svg10.dtd">
<svg version="1.0" xmlns="http://www.w3.org/2000/svg"
 width="1024.000000pt" height="1024.000000pt" viewBox="0 0 1024.000000 1024.000000"
 preserveAspectRatio="xMidYMid meet">
<metadata>
Created by potrace 1.14, written by Peter Selinger 2001-2017
</metadata>
<g transform="translate(0.000000,1024.000000) scale(0.100000,-0.100000)"
fill="#000000" stroke="none">
<path d="M6988 10235 c-2 -2 -24 -6 -48 -9 -25 -3 -58 -9 -75 -12 -16 -3 -34
-7 -40 -8 -5 -1 -16 -5 -22 -9 -7 -5 -13 -6 -13 -3 0 8 -160 -49 -233 -83 -73
-34 -164 -87 -185 -108 -7 -7 -17 -13 -21 -13 -4 0 -17 -8 -28 -17 -12 -10
-36 -30 -54 -45 -100 -78 -299 -310 -299 -347 0 -5 -6 -16 -13 -23 -27 -29
-103 -202 -139 -317 -19 -63 -23 -77 -34 -135 -2 -16 -6 -32 -8 -35 -2 -3 -7
-31 -10 -62 -4 -31 -9 -67 -12 -80 -6 -30 -6 -295 0 -329 2 -14 7 -51 11 -84
8 -67 14 -104 21 -128 3 -9 6 -25 8 -35 2 -10 9 -38 16 -63 7 -25 13 -49 14
-55 1 -5 7 -23 13 -40 23 -61 26 -70 28 -81 2 -7 21 -54 44 -105 23 -52 41
-99 41 -106 0 -6 3 -13 8 -15 4 -1 22 -41 41 -88 18 -47 37 -94 42 -105 50
-117 97 -266 106 -340 18 -157 3 -283 -52 -419 -110 -273 -359 -482 -659 -553
-80 -19 -286 -35 -286 -22 0 3 -12 4 -27 3 -23 -1 -94 11 -173 31 -125 30
-330 140 -435 234 -51 46 -154 155 -174 183 -8 13 -23 32 -33 42 -10 11 -18
26 -18 33 0 7 -4 13 -8 13 -5 0 -15 12 -23 28 -8 15 -16 29 -19 32 -8 7 -102
202 -104 215 -3 17 -167 348 -187 376 -10 14 -16 28 -13 31 2 3 -2 11 -11 18
-8 7 -15 16 -15 21 0 18 -236 392 -251 397 -5 2 -9 8 -9 13 0 13 -223 309
-275 365 -5 6 -35 39 -65 74 -166 191 -404 424 -526 515 -55 41 -163 105 -181
107 -5 0 -24 8 -43 18 -31 15 -74 30 -105 36 -5 1 -12 3 -15 4 -6 2 -21 5 -95
19 -51 10 -266 7 -320 -4 -114 -23 -207 -55 -315 -107 -57 -28 -166 -93 -180
-108 -3 -3 -27 -23 -55 -45 -63 -50 -138 -125 -190 -190 -22 -27 -48 -59 -57
-69 -10 -11 -18 -23 -18 -27 0 -5 -13 -28 -30 -52 -34 -51 -100 -189 -125
-262 -14 -42 -33 -118 -51 -200 -19 -85 -24 -325 -10 -445 4 -36 7 -72 7 -80
1 -8 5 -31 9 -50 5 -19 11 -51 13 -71 2 -19 9 -45 15 -56 6 -11 9 -23 6 -25
-10 -11 103 -354 156 -473 10 -22 28 -62 40 -90 45 -100 86 -183 157 -314 40
-74 73 -138 73 -143 0 -4 4 -8 9 -8 5 0 15 -16 22 -35 7 -19 16 -35 20 -35 4
0 12 -15 20 -32 7 -18 22 -46 33 -63 12 -16 20 -31 19 -32 -2 -2 7 -24 19 -50
11 -27 25 -57 29 -68 5 -11 20 -46 33 -78 14 -31 25 -61 26 -65 3 -24 14 -59
23 -69 5 -7 7 -13 4 -13 -4 0 0 -19 9 -41 15 -43 17 -51 34 -134 19 -87 32
-159 35 -195 2 -19 6 -55 10 -80 10 -63 13 -357 4 -432 -4 -35 -10 -88 -13
-118 -6 -61 -11 -94 -26 -160 -6 -25 -12 -54 -14 -65 -7 -35 -55 -202 -67
-232 -7 -15 -13 -32 -14 -38 -5 -17 -45 -116 -68 -164 -11 -25 -21 -48 -22
-51 0 -3 -4 -10 -8 -16 -4 -7 -25 -46 -47 -89 -22 -42 -49 -90 -60 -105 -11
-15 -20 -31 -20 -34 0 -4 -12 -25 -26 -47 -31 -50 -206 -391 -224 -439 -7 -19
-23 -57 -35 -85 -33 -74 -95 -250 -95 -269 0 -9 -5 -16 -12 -16 -6 0 -9 -3 -6
-6 3 -3 -1 -29 -9 -57 -7 -29 -16 -61 -18 -72 -3 -11 -7 -29 -9 -40 -16 -67
-35 -167 -42 -210 -8 -60 -13 -425 -5 -425 3 0 7 -15 8 -33 2 -45 43 -209 55
-224 6 -7 8 -13 5 -13 -8 0 49 -133 86 -200 53 -96 93 -155 158 -230 57 -67
86 -96 168 -168 79 -70 290 -190 368 -208 15 -4 33 -10 38 -14 9 -7 33 -13 93
-25 13 -2 31 -6 40 -9 9 -3 41 -8 71 -11 30 -3 58 -8 62 -11 4 -2 10 0 14 6 4
6 12 7 18 3 17 -11 152 -1 231 17 262 60 424 176 818 591 57 60 95 104 158
179 12 14 31 36 43 50 19 22 155 200 200 261 55 75 127 180 127 185 0 3 18 32
40 64 22 32 40 64 40 69 0 6 4 11 8 11 5 0 19 21 32 48 13 26 26 49 30 52 3 3
14 21 24 40 9 19 33 64 53 100 73 136 102 197 175 360 95 214 174 334 309 469
67 67 96 91 169 139 30 21 57 39 60 42 13 14 245 118 245 110 0 -1 20 3 45 10
63 17 77 19 146 25 33 3 70 7 82 10 12 2 24 0 27 -6 4 -5 13 -5 24 1 10 5 20
8 22 5 2 -2 24 -6 49 -9 25 -4 70 -12 100 -18 30 -7 57 -12 60 -13 30 -6 141
-49 146 -56 3 -5 9 -7 14 -4 4 3 13 -2 20 -10 7 -8 17 -15 22 -15 17 0 148
-90 148 -102 0 -6 3 -9 6 -6 12 12 194 -191 194 -217 0 -3 12 -24 27 -48 14
-23 26 -43 25 -44 -1 -2 7 -22 17 -46 10 -23 22 -58 27 -77 4 -19 8 -37 9 -40
8 -29 17 -111 20 -163 2 -59 -2 -99 -19 -192 -8 -43 -44 -150 -75 -225 -16
-36 -29 -68 -30 -72 -4 -17 -15 -46 -37 -96 -13 -29 -24 -59 -24 -67 0 -8 -5
-15 -10 -15 -6 0 -9 -3 -8 -7 1 -5 -8 -30 -20 -57 -12 -27 -22 -50 -22 -53 0
-2 -8 -23 -19 -46 -20 -47 -32 -77 -37 -92 -63 -206 -84 -301 -100 -455 -5
-45 -5 -288 0 -320 2 -14 7 -49 11 -79 4 -30 9 -63 11 -75 27 -124 53 -218 66
-233 6 -7 8 -13 5 -13 -14 0 97 -233 126 -264 9 -11 17 -25 17 -31 0 -6 14
-26 32 -45 17 -19 31 -37 30 -40 -4 -19 223 -250 247 -250 5 0 11 -4 13 -8 14
-35 340 -211 369 -199 3 1 12 -3 20 -9 14 -12 152 -48 226 -60 55 -9 320 -10
373 -2 25 4 61 10 80 13 67 11 225 68 309 111 215 112 390 292 499 514 20 41
39 77 42 80 3 3 23 43 45 90 22 47 42 87 45 90 3 3 6 10 7 15 1 6 27 63 57
128 31 65 56 125 56 133 0 8 5 14 10 14 6 0 10 7 10 15 0 8 4 23 10 33 8 15
41 88 45 102 1 3 9 23 19 45 10 22 19 45 20 50 4 13 24 65 36 90 12 27 53 136
81 215 12 36 27 71 32 78 5 6 7 12 3 12 -4 0 0 13 9 30 8 16 15 31 14 32 -1 2
6 28 16 58 11 30 20 57 20 60 1 3 5 12 8 20 11 27 124 399 132 434 1 6 5 18 8
26 6 14 73 271 82 318 11 52 15 70 29 125 8 31 12 57 9 57 -3 0 0 7 7 15 7 8
10 15 7 15 -3 0 -2 14 3 32 5 17 12 49 16 72 3 22 7 43 9 46 2 4 7 29 11 56 3
27 8 52 10 55 2 4 6 24 10 45 6 41 10 66 17 99 3 11 8 40 11 65 3 25 9 59 12
75 3 17 7 46 9 65 2 19 5 35 5 35 1 0 3 11 5 25 10 77 14 109 19 145 13 90 28
219 31 260 1 17 5 63 10 104 9 94 17 192 31 421 9 146 12 778 4 822 -4 21 -3
41 1 44 5 3 7 10 3 15 -3 6 -8 49 -10 97 -5 126 -13 250 -18 307 -3 28 -8 83
-11 122 -4 40 -8 87 -11 105 -4 30 -9 75 -19 178 -4 38 -23 176 -31 225 -3 17
-7 46 -9 65 -3 19 -11 71 -20 115 -9 44 -16 87 -16 95 -1 16 -22 133 -39 215
-6 28 -12 59 -13 70 -1 11 -6 26 -10 33 -5 6 -6 12 -4 12 3 0 1 17 -4 38 -5
20 -18 78 -29 127 -23 101 -24 107 -45 190 -22 85 -23 90 -25 90 -1 0 -3 9 -5
20 -4 22 -5 27 -35 135 -44 159 -61 216 -70 232 -6 10 -10 23 -10 30 0 20
-127 404 -150 453 -5 11 -20 52 -33 90 -22 63 -71 187 -100 255 -6 14 -11 27
-12 30 -1 3 -6 16 -12 30 -6 14 -23 54 -38 90 -48 116 -73 171 -170 375 -31
66 -61 129 -66 140 -5 11 -13 27 -19 35 -5 8 -15 26 -20 40 -6 14 -21 43 -33
65 -13 22 -32 56 -42 75 -11 19 -23 37 -26 40 -3 3 -20 25 -38 50 -98 136
-274 278 -426 345 -33 15 -72 33 -86 40 -14 8 -29 12 -32 8 -4 -3 -12 -1 -19
4 -12 10 -119 37 -193 50 -38 6 -321 13 -327 8z"/>
</g>
</svg>
